<svg width="220" height="220" viewBox="0 0 220 220" fill="none" xmlns="http://www.w3.org/2000/svg">
<g clip-path="url(#clip0_495_3797)">
<path d="M110 217.25C169.233 217.25 217.25 169.233 217.25 110C217.25 50.7675 169.233 2.75 110 2.75C50.7675 2.75 2.75 50.7675 2.75 110C2.75 169.233 50.7675 217.25 110 217.25Z" fill="white" stroke="#222222" stroke-width="4"/>
<path d="M106.444 14.3531C107.261 21.5154 107.664 28.0735 107.105 28.1373C106.545 28.201 105.43 22.4466 104.615 15.2843C103.798 8.12212 103.591 2.2643 104.15 2.20055C104.71 2.13679 105.628 7.19086 106.444 14.3531Z" fill="#222222"/>
<path d="M100.908 23.7052C101.788 28.45 102.336 32.8158 101.92 32.893C101.502 32.9703 100.452 29.1865 99.5722 24.4418C98.6928 19.697 98.3178 15.7879 98.7347 15.7107C99.1516 15.6334 100.029 18.9603 100.908 23.7052Z" fill="#222222"/>
<path d="M90.5767 14.2157C92.0277 18.8179 93.0235 23.1098 92.4865 23.2791C91.9493 23.4484 90.3376 19.8549 88.8865 15.2526C87.4355 10.6504 86.6945 6.78226 87.2316 6.61292C87.7687 6.44356 89.1256 9.61344 90.5767 14.2157Z" fill="#222222"/>
<path d="M95.8489 30.1606C96.881 33.434 97.5419 36.5015 97.0814 36.6466C96.6211 36.7917 95.4113 34.2559 94.3792 30.9825C93.3472 27.7092 92.8836 24.9379 93.344 24.7928C93.8043 24.6476 94.8169 26.8873 95.8489 30.1606Z" fill="#222222"/>
<path d="M86.9416 28.8383C88.2321 32.2898 89.1377 35.5322 88.6933 35.6983C88.2489 35.8646 86.8425 33.2012 85.5521 29.7497C84.2616 26.2983 83.5757 23.3656 84.0201 23.1994C84.4645 23.0333 85.6511 25.3869 86.9416 28.8383Z" fill="#222222"/>
<path d="M73.4543 19.2161C75.1686 22.069 76.4809 24.815 76.0711 25.0611C75.6615 25.3073 73.9397 23.1941 72.2255 20.3413C70.5113 17.4884 69.4539 14.9762 69.8635 14.73C70.2733 14.4838 71.7401 16.3633 73.4543 19.2161Z" fill="#222222"/>
<path d="M66.445 24.1471C69.5071 28.6025 72.0136 32.8512 71.5495 33.1702C71.0853 33.4891 68.2268 30.1359 65.1647 25.6805C62.1026 21.2252 59.9965 17.3548 60.4606 17.0358C60.9247 16.7168 63.3829 19.6917 66.445 24.1471Z" fill="#222222"/>
<path d="M57.0108 23.5904C58.7517 26.1236 60.0556 28.6226 59.5915 28.9416C59.1274 29.2605 57.3398 27.4656 55.5988 24.9324C53.8577 22.3992 52.8226 20.087 53.2867 19.768C53.7508 19.449 55.2697 21.0572 57.0108 23.5904Z" fill="#222222"/>
<path d="M53.1022 32.6895C54.9273 34.5145 56.3476 36.4169 55.9493 36.8152C55.5511 37.2134 53.7488 36.0567 51.9237 34.2316C50.0986 32.4065 48.9419 30.6042 49.3402 30.2061C49.7384 29.8078 51.2772 30.8644 53.1022 32.6895Z" fill="#222222"/>
<path d="M81.2136 31.9998C82.6381 34.3706 83.7057 36.6665 83.327 36.894C82.9485 37.1214 81.4868 35.3839 80.0622 33.0131C78.6376 30.6422 77.7897 28.5359 78.1683 28.3084C78.5469 28.0809 79.789 29.629 81.2136 31.9998Z" fill="#222222"/>
<path d="M115.245 31.72C115.508 34.4452 115.481 36.9515 115.04 36.9938C114.601 37.0361 114.032 34.8612 113.769 32.1361C113.508 29.411 113.651 27.1675 114.091 27.1252C114.53 27.0829 114.983 28.9948 115.245 31.72Z" fill="#222222"/>
<path d="M113.933 11.648C114.195 15.9407 114.711 22.1222 113.933 22.1697C112.747 22.2422 112.73 15.9407 112.468 11.648C112.205 7.35538 112.835 6.63371 112.982 6.62471C113.129 6.61573 113.67 7.3554 113.933 11.648Z" fill="#222222"/>
<path d="M122.031 23.7867C121.27 29.2 120.309 37.0247 119.536 36.9162C118.36 36.7508 119.837 28.8837 120.598 23.4705C121.359 18.0573 122.146 17.2928 122.292 17.3133C122.438 17.3337 122.791 18.3735 122.031 23.7867Z" fill="#222222"/>
<path d="M131.91 10.6464C131.126 14.875 130.13 20.9976 129.364 20.8556C128.196 20.639 129.704 14.5205 130.488 10.2918C131.271 6.0632 132.058 5.51543 132.202 5.54229C132.347 5.56914 132.693 6.41777 131.91 10.6464Z" fill="#222222"/>
<path d="M137.086 23.0717C135.685 27.138 133.796 33.0461 133.059 32.7925C131.935 32.4056 134.331 26.5771 135.731 22.5108C137.132 18.4444 137.99 18.0189 138.129 18.0669C138.268 18.1148 138.485 19.0053 137.086 23.0717Z" fill="#222222"/>
<path d="M147.088 16.547C144.489 23.1429 140.87 32.7042 140.144 32.4186C139.039 31.9831 143.182 22.4696 145.78 15.8736C148.378 9.27762 149.417 8.47857 149.553 8.53258C149.691 8.58658 149.686 9.951 147.088 16.547Z" fill="#222222"/>
<path d="M152.72 24.1665C150.217 29.4139 146.731 37.0393 146.029 36.7039C144.956 36.1923 148.949 28.6749 151.452 23.4275C153.955 18.1801 154.96 17.6379 155.092 17.7014C155.225 17.7648 155.223 18.9191 152.72 24.1665Z" fill="#222222"/>
<path d="M162.921 25.3423C161.446 27.4484 159.415 30.5522 158.87 30.1699C158.037 29.5869 160.451 26.6869 161.926 24.5809C163.401 22.475 164.107 22.4712 164.21 22.5436C164.313 22.6159 164.395 23.2364 162.921 25.3423Z" fill="#222222"/>
<path d="M155.909 34.419C154.725 36.1101 154.213 37.1861 153.554 36.7243C152.548 36.0201 153.511 35.208 154.695 33.5168C155.879 31.8257 156.637 31.9566 156.761 32.0439C156.886 32.1312 157.093 32.7278 155.909 34.419Z" fill="#222222"/>
<path d="M124.329 10.0495C124.021 11.713 123.663 14.1279 123.165 14.0355C122.406 13.8947 123.092 11.505 123.401 9.84153C123.708 8.17806 124.188 7.99408 124.282 8.01155C124.377 8.02901 124.637 8.38601 124.329 10.0495Z" fill="#222222"/>
<path d="M171.316 27.6809C169.423 30.2862 166.804 34.1232 166.174 33.6652C165.213 32.9668 168.279 29.3721 170.172 26.7669C172.065 24.1616 172.91 24.1442 173.028 24.2309C173.148 24.3174 173.209 25.0756 171.316 27.6809Z" fill="#222222"/>
<path d="M128.379 29.0437C127.7 33.1048 127.478 35.4512 126.817 35.3404C125.806 35.1714 126.47 32.8123 127.15 28.7512C127.829 24.6899 128.509 24.1418 128.635 24.1628C128.76 24.1838 129.059 24.9825 128.379 29.0437Z" fill="#222222"/>
<path d="M113.551 205.646C112.735 198.483 112.331 191.925 112.889 191.861C113.449 191.798 114.564 197.552 115.381 204.714C116.197 211.877 116.405 217.734 115.845 217.798C115.286 217.862 114.366 212.808 113.551 205.646Z" fill="#222222"/>
<path d="M119.084 196.294C118.205 191.549 117.657 187.183 118.074 187.105C118.49 187.028 119.542 190.812 120.421 195.557C121.3 200.302 121.675 204.211 121.259 204.288C120.841 204.365 119.964 201.038 119.084 196.294Z" fill="#222222"/>
<path d="M129.417 205.783C127.966 201.181 126.97 196.889 127.507 196.719C128.044 196.551 129.656 200.144 131.107 204.746C132.558 209.348 133.299 213.217 132.762 213.386C132.225 213.556 130.868 210.385 129.417 205.783Z" fill="#222222"/>
<path d="M124.121 189.761C123.076 186.444 122.402 183.335 122.862 183.19C123.323 183.045 124.544 185.617 125.59 188.935C126.636 192.253 127.11 195.061 126.651 195.206C126.19 195.351 125.168 193.079 124.121 189.761Z" fill="#222222"/>
<path d="M133.704 192.903C132.793 190.47 132.235 188.155 132.679 187.988C133.124 187.822 134.221 189.66 135.131 192.093C136.04 194.526 136.418 196.633 135.974 196.8C135.529 196.965 134.613 195.335 133.704 192.903Z" fill="#222222"/>
<path d="M146.54 200.782C144.826 197.929 143.513 195.184 143.923 194.938C144.333 194.692 146.055 196.804 147.769 199.657C149.483 202.51 150.54 205.023 150.13 205.269C149.721 205.515 148.254 203.635 146.54 200.782Z" fill="#222222"/>
<path d="M152.358 194.119C148.6 188.652 145.46 183.482 145.925 183.163C146.389 182.844 149.811 187.018 153.569 192.486C157.327 197.953 159.996 202.644 159.533 202.963C159.068 203.282 156.116 199.588 152.358 194.119Z" fill="#222222"/>
<path d="M162.984 196.409C161.242 193.875 159.939 191.376 160.403 191.057C160.867 190.738 162.654 192.533 164.396 195.066C166.136 197.599 167.172 199.912 166.708 200.231C166.243 200.55 164.725 198.942 162.984 196.409Z" fill="#222222"/>
<path d="M169.391 189.808C167.753 188.171 166.502 186.438 166.901 186.039C167.299 185.641 168.95 186.647 170.588 188.285C172.226 189.923 173.232 191.574 172.834 191.972C172.435 192.371 171.03 191.447 169.391 189.808Z" fill="#222222"/>
<path d="M139.722 189.564C138.847 188.108 138.28 186.645 138.658 186.417C139.037 186.19 140.053 187.186 140.928 188.642C141.803 190.098 142.205 191.462 141.827 191.69C141.448 191.918 140.597 191.02 139.722 189.564Z" fill="#222222"/>
<path d="M106.062 208.351C105.8 204.058 105.284 197.877 106.062 197.829C107.248 197.756 107.265 204.058 107.528 208.351C107.79 212.643 107.16 213.364 107.013 213.374C106.866 213.383 106.324 212.643 106.062 208.351Z" fill="#222222"/>
<path d="M97.9612 196.234C98.7195 190.839 99.6773 183.04 100.449 183.149C101.626 183.315 100.152 191.155 99.394 196.55C98.6358 201.944 97.849 202.706 97.7031 202.685C97.5572 202.665 97.203 201.629 97.9612 196.234Z" fill="#222222"/>
<path d="M88.0848 209.352C88.8685 205.124 89.8642 199.001 90.6301 199.143C91.7986 199.359 90.2905 205.478 89.5067 209.707C88.723 213.936 87.9369 214.484 87.792 214.456C87.6471 214.43 87.301 213.581 88.0848 209.352Z" fill="#222222"/>
<path d="M83.3738 195.577C85.1679 190.367 87.6258 182.808 88.3625 183.062C89.486 183.449 86.5138 190.951 84.7195 196.162C82.9253 201.373 82.0044 201.98 81.8651 201.932C81.7258 201.884 81.5796 200.788 83.3738 195.577Z" fill="#222222"/>
<path d="M72.9071 203.452C75.5053 196.855 79.1246 187.295 79.8495 187.58C80.9552 188.016 76.8122 197.529 74.2141 204.125C71.6158 210.721 70.5776 211.52 70.4405 211.466C70.3034 211.412 70.3089 210.047 72.9071 203.452Z" fill="#222222"/>
<path d="M67.3048 195.768C69.8338 190.465 73.3574 182.76 74.0606 183.095C75.1331 183.607 71.1016 191.205 68.5724 196.507C66.0433 201.81 65.0348 202.361 64.9018 202.297C64.7688 202.234 64.7756 201.069 67.3048 195.768Z" fill="#222222"/>
<path d="M58.6188 192.741C59.5892 191.355 60.9156 189.305 61.3306 189.597C61.9635 190.039 60.3482 191.93 59.3778 193.316C58.4074 194.701 57.895 194.67 57.8165 194.615C57.7381 194.56 57.6484 194.127 58.6188 192.741Z" fill="#222222"/>
<path d="M62.7547 186.104C63.7251 184.718 65.0119 182.641 65.6523 183.089C66.6291 183.773 64.9073 185.588 63.937 186.974C62.9666 188.361 62.2594 188.192 62.1383 188.108C62.0171 188.023 61.7843 187.49 62.7547 186.104Z" fill="#222222"/>
<path d="M95.6655 209.949C95.9739 208.286 96.3311 205.87 96.8291 205.964C97.5889 206.104 96.9027 208.494 96.5944 210.157C96.2861 211.821 95.8069 212.004 95.7127 211.988C95.6184 211.97 95.3572 211.612 95.6655 209.949Z" fill="#222222"/>
<path d="M48.6768 192.318C50.5696 189.712 53.1883 185.875 53.8186 186.333C54.78 187.032 51.7136 190.626 49.8208 193.231C47.928 195.837 47.0833 195.855 46.9641 195.768C46.8449 195.681 46.7839 194.923 48.6768 192.318Z" fill="#222222"/>
<path d="M91.3439 192.566C91.7948 189.872 92.3288 185.967 92.9909 186.077C94.0007 186.247 93.0285 190.136 92.5776 192.831C92.1267 195.525 91.4832 195.857 91.3579 195.835C91.2328 195.815 90.893 195.261 91.3439 192.566Z" fill="#222222"/>
<path d="M14.3524 113.553C21.5146 112.737 28.0729 112.333 28.1367 112.893C28.2004 113.452 22.4459 114.568 15.2837 115.384C8.12142 116.199 2.26357 116.407 2.19982 115.848C2.13606 115.288 7.19014 114.37 14.3524 113.553Z" fill="#222222"/>
<path d="M23.7048 119.087C28.4497 118.207 32.8155 117.659 32.8928 118.075C32.9701 118.493 29.1863 119.543 24.4414 120.422C19.6966 121.301 15.7876 121.677 15.7103 121.26C15.6331 120.843 18.9601 119.966 23.7048 119.087Z" fill="#222222"/>
<path d="M14.2128 129.42C18.8151 127.968 23.1069 126.973 23.2762 127.51C23.4457 128.047 19.852 129.659 15.2497 131.11C10.6475 132.561 6.77933 133.301 6.60999 132.764C6.44063 132.227 9.61053 130.871 14.2128 129.42Z" fill="#222222"/>
<path d="M30.2858 124.109C33.632 123.055 36.7656 122.372 36.9107 122.833C37.0559 123.293 34.461 124.522 31.115 125.577C27.7689 126.632 24.9388 127.114 24.7936 126.653C24.6485 126.193 26.9397 125.164 30.2858 124.109Z" fill="#222222"/>
<path d="M27.0954 133.706C29.5285 132.797 31.8438 132.237 32.0099 132.682C32.1761 133.126 30.3384 134.224 27.9054 135.133C25.4723 136.043 23.3652 136.42 23.1991 135.976C23.0329 135.532 24.6624 134.616 27.0954 133.706Z" fill="#222222"/>
<path d="M19.2148 146.541C22.0677 144.827 24.8136 143.515 25.0598 143.925C25.306 144.334 23.1929 146.056 20.3399 147.77C17.4871 149.484 14.9748 150.542 14.7287 150.132C14.4824 149.722 16.3619 148.255 19.2148 146.541Z" fill="#222222"/>
<path d="M25.8842 152.356C31.3553 148.595 36.5287 145.453 36.8477 145.917C37.1667 146.382 32.99 149.806 27.5188 153.566C22.0476 157.326 17.3538 159.999 17.0348 159.534C16.7158 159.071 20.4129 156.116 25.8842 152.356Z" fill="#222222"/>
<path d="M23.5911 162.985C26.1243 161.244 28.6233 159.94 28.9423 160.404C29.2613 160.868 27.4663 162.656 24.933 164.397C22.3998 166.138 20.0877 167.173 19.7687 166.709C19.4497 166.245 21.0578 164.726 23.5911 162.985Z" fill="#222222"/>
<path d="M30.1878 169.393C31.826 167.755 33.5585 166.505 33.9566 166.903C34.3549 167.302 33.3496 168.952 31.7113 170.59C30.0729 172.229 28.422 173.234 28.0238 172.836C27.6255 172.438 28.5494 171.031 30.1878 169.393Z" fill="#222222"/>
<path d="M31.9967 138.784C34.3664 137.36 36.6612 136.293 36.8887 136.672C37.1161 137.05 35.3796 138.511 33.0098 139.935C30.6402 141.359 28.5348 142.207 28.3073 141.827C28.0797 141.449 29.6271 140.208 31.9967 138.784Z" fill="#222222"/>
<path d="M11.6465 106.064C15.9392 105.802 22.1206 105.287 22.1683 106.064C22.2408 107.25 15.9391 107.268 11.6465 107.53C7.3538 107.792 6.63212 107.162 6.62313 107.015C6.61413 106.868 7.35382 106.327 11.6465 106.064Z" fill="#222222"/>
<path d="M23.7982 97.9673C29.2215 98.7295 37.0606 99.6931 36.9522 100.465C36.7868 101.642 28.905 100.162 23.4818 99.4C18.0586 98.6378 17.2924 97.8504 17.3129 97.7045C17.3334 97.5586 18.375 97.2051 23.7982 97.9673Z" fill="#222222"/>
<path d="M10.6461 88.0891C14.8748 88.8728 20.9972 89.8685 20.8553 90.6345C20.6387 91.8029 14.5202 90.2948 10.2915 89.5111C6.06283 88.7274 5.51507 87.9412 5.54192 87.7964C5.56877 87.6515 6.4174 87.3054 10.6461 88.0891Z" fill="#222222"/>
<path d="M23.0725 82.9129C27.1389 84.313 33.0471 86.2026 32.7934 86.9393C32.4064 88.0628 26.5781 85.6669 22.5117 84.2668C18.4453 82.8667 18.0198 82.0082 18.0678 81.8689C18.1157 81.7296 19.0062 81.5127 23.0725 82.9129Z" fill="#222222"/>
<path d="M17.982 73.4753C25.7959 76.5533 37.1133 80.8643 36.8277 81.5892C36.3921 82.6949 25.0971 77.8502 17.2833 74.7724C9.46943 71.6944 8.47729 70.5801 8.5313 70.443C8.58531 70.3059 10.1682 70.3974 17.982 73.4753Z" fill="#222222"/>
<path d="M22.3084 66.3899C25.9811 68.1416 31.3359 70.5442 31.0005 71.2474C30.4889 72.3199 25.2749 69.4255 21.6022 67.6737C17.9295 65.9219 17.6369 65.0366 17.7004 64.9036C17.7638 64.7706 18.6356 64.638 22.3084 66.3899Z" fill="#222222"/>
<path d="M27.2565 58.6197C28.6423 59.5901 30.6917 60.9166 30.4011 61.3315C29.9579 61.9645 28.0679 60.349 26.682 59.3787C25.2962 58.4084 25.3276 57.8959 25.3826 57.8175C25.4374 57.739 25.8707 57.6493 27.2565 58.6197Z" fill="#222222"/>
<path d="M10.0488 95.6682C11.7122 95.9765 14.1272 96.3337 14.0349 96.8318C13.894 97.5916 11.5043 96.9054 9.84081 96.5971C8.17732 96.2888 7.99336 95.8095 8.01081 95.7154C8.02828 95.6211 8.38528 95.3599 10.0488 95.6682Z" fill="#222222"/>
<path d="M28.7416 49.4507C32.245 51.996 37.3772 55.5556 36.9192 56.186C36.2207 57.1474 31.3123 53.1265 27.809 50.5812C24.3056 48.0358 24.1457 47.0877 24.2323 46.9685C24.319 46.8493 25.2382 46.9054 28.7416 49.4507Z" fill="#222222"/>
<path d="M27.4302 91.3461C30.1248 91.797 34.0297 92.331 33.9189 92.9931C33.75 94.0029 29.8607 93.0307 27.1661 92.5798C24.4716 92.1289 24.1401 91.4853 24.161 91.3602C24.182 91.235 24.7357 90.8952 27.4302 91.3461Z" fill="#222222"/>
<path d="M205.647 106.445C198.484 107.262 191.926 107.666 191.862 107.106C191.798 106.546 197.553 105.431 204.716 104.616C211.877 103.799 217.735 103.592 217.799 104.151C217.862 104.711 212.808 105.629 205.647 106.445Z" fill="#222222"/>
<path d="M196.294 100.911C191.549 101.791 187.183 102.339 187.107 101.923C187.029 101.505 190.813 100.455 195.557 99.5754C200.302 98.696 204.212 98.321 204.289 98.7379C204.366 99.1548 201.039 100.032 196.294 100.911Z" fill="#222222"/>
<path d="M205.784 90.5789C201.182 92.0299 196.89 93.0257 196.721 92.4886C196.551 91.9515 200.145 90.3397 204.747 88.8887C209.349 87.4377 213.217 86.6967 213.386 87.2338C213.556 87.771 210.386 89.1278 205.784 90.5789Z" fill="#222222"/>
<path d="M189.718 95.8867C186.377 96.9405 183.247 97.621 183.102 97.1606C182.956 96.7003 185.548 95.473 188.89 94.4192C192.232 93.3655 195.058 92.8845 195.204 93.3448C195.35 93.8052 193.06 94.833 189.718 95.8867Z" fill="#222222"/>
<path d="M192.902 86.2923C190.469 87.2019 188.154 87.761 187.987 87.3166C187.821 86.8721 189.659 85.7744 192.092 84.8648C194.525 83.9552 196.632 83.578 196.798 84.0224C196.965 84.4668 195.335 85.3826 192.902 86.2923Z" fill="#222222"/>
<path d="M200.783 73.457C197.929 75.1712 195.183 76.4835 194.937 76.0738C194.691 75.6641 196.804 73.9424 199.657 72.2281C202.511 70.5139 205.023 69.4565 205.269 69.8662C205.516 70.2759 203.636 71.7427 200.783 73.457Z" fill="#222222"/>
<path d="M195.852 66.4487C191.397 69.5107 187.149 72.0172 186.83 71.553C186.511 71.0889 189.864 68.2304 194.32 65.1682C198.775 62.1062 202.645 60.0001 202.964 60.4642C203.283 60.9284 200.308 63.3866 195.852 66.4487Z" fill="#222222"/>
<path d="M196.407 57.0134C193.874 58.7544 191.375 60.0583 191.056 59.5942C190.737 59.1301 192.532 57.3424 195.066 55.6014C197.599 53.8604 199.911 52.8252 200.23 53.2894C200.549 53.7535 198.94 55.2724 196.407 57.0134Z" fill="#222222"/>
<path d="M188.461 51.9557C186.033 54.3832 183.582 56.3518 183.185 55.9536C182.786 55.5554 184.431 53.2646 186.859 50.8372C189.286 48.4097 191.576 46.7647 191.975 47.163C192.373 47.5611 190.888 49.5282 188.461 51.9557Z" fill="#222222"/>
<path d="M188 81.2165C185.629 82.641 183.333 83.7085 183.106 83.3299C182.879 82.9513 184.616 81.4896 186.987 80.0651C189.357 78.6407 191.463 77.7928 191.691 78.1714C191.918 78.5499 190.371 79.792 188 81.2165Z" fill="#222222"/>
<path d="M208.352 113.934C204.06 114.196 197.878 114.712 197.831 113.934C197.758 112.748 204.06 112.731 208.352 112.469C212.645 112.206 213.367 112.836 213.375 112.983C213.384 113.13 212.645 113.671 208.352 113.934Z" fill="#222222"/>
<path d="M196.234 122.036C190.839 121.279 183.041 120.32 183.15 119.549C183.315 118.372 191.155 119.846 196.549 120.604C201.944 121.362 202.705 122.149 202.685 122.295C202.664 122.44 201.628 122.795 196.234 122.036Z" fill="#222222"/>
<path d="M209.353 131.91C205.124 131.127 199.001 130.131 199.143 129.365C199.36 128.197 205.478 129.705 209.706 130.488C213.935 131.272 214.483 132.058 214.457 132.203C214.43 132.348 213.581 132.694 209.353 131.91Z" fill="#222222"/>
<path d="M195.636 136.642C190.476 134.866 182.992 132.432 183.245 131.696C183.632 130.572 191.06 133.519 196.22 135.296C201.379 137.072 201.978 137.991 201.93 138.13C201.882 138.269 200.795 138.418 195.636 136.642Z" fill="#222222"/>
<path d="M203.453 147.089C196.856 144.491 187.295 140.872 187.58 140.147C188.016 139.041 197.529 143.184 204.126 145.782C210.721 148.381 211.521 149.418 211.467 149.556C211.413 149.693 210.048 149.687 203.453 147.089Z" fill="#222222"/>
<path d="M197.69 153.608C194.017 151.856 188.662 149.454 188.997 148.75C189.509 147.678 194.723 150.572 198.396 152.324C202.069 154.075 202.361 154.961 202.298 155.094C202.234 155.227 201.362 155.359 197.69 153.608Z" fill="#222222"/>
<path d="M192.742 161.378C191.356 160.408 189.307 159.082 189.598 158.667C190.041 158.034 191.931 159.65 193.316 160.62C194.703 161.59 194.672 162.103 194.617 162.181C194.561 162.259 194.128 162.349 192.742 161.378Z" fill="#222222"/>
<path d="M209.949 124.331C208.286 124.022 205.87 123.665 205.964 123.167C206.104 122.407 208.494 123.093 210.157 123.402C211.821 123.71 212.004 124.189 211.988 124.283C211.97 124.378 211.612 124.638 209.949 124.331Z" fill="#222222"/>
<path d="M191.312 170.587C187.855 168.075 182.788 164.563 183.246 163.933C183.945 162.972 188.786 166.944 192.244 169.456C195.702 171.968 195.854 172.911 195.767 173.031C195.681 173.149 194.77 173.099 191.312 170.587Z" fill="#222222"/>
<path d="M192.569 128.652C189.874 128.201 185.97 127.667 186.08 127.006C186.249 125.995 190.139 126.968 192.833 127.418C195.528 127.87 195.859 128.513 195.838 128.639C195.817 128.764 195.264 129.103 192.569 128.652Z" fill="#222222"/>
<path d="M186.774 175.129C185.3 173.655 183.112 171.592 183.471 171.233C184.017 170.687 186.004 173.013 187.478 174.487C188.952 175.961 188.876 176.504 188.808 176.571C188.74 176.639 188.248 176.603 186.774 175.129Z" fill="#222222"/>
<path d="M175.88 186.547C173.545 184.294 173.65 183.857 174.041 183.451C174.433 183.046 174.65 182.685 176.983 184.939C179.318 187.193 180.892 189.348 180.501 189.753C180.11 190.158 178.214 188.801 175.88 186.547Z" fill="#222222"/>
<path d="M34.7427 174.672C35.8992 173.294 36.2757 173.255 36.6141 173.539C36.9524 173.823 37.1702 174.127 36.0137 175.505C34.8573 176.883 33.6455 177.77 33.3071 177.487C32.9688 177.202 33.5863 176.051 34.7427 174.672Z" fill="#222222"/>
<path d="M43.6265 186.853C44.9329 185.211 46.747 182.787 47.1435 183.102C47.7482 183.583 45.6501 185.837 44.3437 187.48C43.0374 189.121 42.4877 189.109 42.4127 189.05C42.3378 188.99 42.3201 188.495 43.6265 186.853Z" fill="#222222"/>
<path d="M35.241 42.4061C36.6865 43.7075 37.2456 44.1123 36.9067 44.4889C36.3896 45.063 36.0199 44.3873 34.5745 43.0858C33.129 41.7844 33.1927 41.2527 33.2568 41.1815C33.3209 41.1103 33.7955 41.1045 35.241 42.4061Z" fill="#222222"/>
<path d="M42.7135 33.2285C44.3435 34.8585 45.6381 36.5311 45.3258 36.8435C45.0135 37.1558 43.439 36.0877 41.8091 34.4577C40.1792 32.8278 39.1111 31.2533 39.4234 30.941C39.7357 30.6288 41.0836 31.5986 42.7135 33.2285Z" fill="#222222"/>
<path d="M176.674 33.8786C175.597 35.184 174.115 37.123 173.724 36.8007C173.128 36.3093 174.886 34.5518 175.962 33.2464C177.039 31.941 177.547 32.0125 177.621 32.0733C177.695 32.1343 177.751 32.5732 176.674 33.8786Z" fill="#222222"/>
<path d="M186.796 40.162C185.867 41.0906 184.591 42.4926 184.232 42.1343C183.686 41.588 185.214 40.3987 186.142 39.4701C187.071 38.5414 187.528 38.7036 187.595 38.7714C187.663 38.8392 187.724 39.2333 186.796 40.162Z" fill="#222222"/>
<path d="M90.8581 47.9168C90.8581 47.0596 90.1632 46.3647 89.306 46.3647C88.4488 46.3647 87.7539 47.0596 87.7539 47.9168C87.7539 48.774 88.4488 49.4689 89.306 49.4689C90.1632 49.4689 90.8581 48.774 90.8581 47.9168Z" fill="#222222"/>
<path d="M96.0319 47.9168C96.0319 47.0596 95.337 46.3647 94.4798 46.3647C93.6226 46.3647 92.9277 47.0596 92.9277 47.9168C92.9277 48.774 93.6226 49.4689 94.4798 49.4689C95.337 49.4689 96.0319 48.774 96.0319 47.9168Z" fill="#222222"/>
<path d="M101.206 47.9168C101.206 47.0596 100.511 46.3647 99.6536 46.3647C98.7965 46.3647 98.1016 47.0596 98.1016 47.9168C98.1016 48.774 98.7965 49.4689 99.6536 49.4689C100.511 49.4689 101.206 48.774 101.206 47.9168Z" fill="#222222"/>
<path d="M106.38 47.9168C106.38 47.0596 105.685 46.3647 104.827 46.3647C103.97 46.3647 103.275 47.0596 103.275 47.9168C103.275 48.774 103.97 49.4689 104.827 49.4689C105.685 49.4689 106.38 48.774 106.38 47.9168Z" fill="#222222"/>
<path d="M121.899 47.9168C121.899 47.0596 121.204 46.3647 120.347 46.3647C119.49 46.3647 118.795 47.0596 118.795 47.9168C118.795 48.774 119.49 49.4689 120.347 49.4689C121.204 49.4689 121.899 48.774 121.899 47.9168Z" fill="#222222"/>
<path d="M127.073 47.9168C127.073 47.0596 126.378 46.3647 125.521 46.3647C124.664 46.3647 123.969 47.0596 123.969 47.9168C123.969 48.774 124.664 49.4689 125.521 49.4689C126.378 49.4689 127.073 48.774 127.073 47.9168Z" fill="#222222"/>
<path d="M101.206 53.0904C101.206 52.2332 100.511 51.5383 99.6536 51.5383C98.7965 51.5383 98.1016 52.2332 98.1016 53.0904C98.1016 53.9476 98.7965 54.6425 99.6536 54.6425C100.511 54.6425 101.206 53.9476 101.206 53.0904Z" fill="#222222"/>
<path d="M111.553 53.0904C111.553 52.2332 110.858 51.5383 110.001 51.5383C109.144 51.5383 108.449 52.2332 108.449 53.0904C108.449 53.9476 109.144 54.6425 110.001 54.6425C110.858 54.6425 111.553 53.9476 111.553 53.0904Z" fill="#222222"/>
<path d="M116.725 53.0904C116.725 52.2332 116.03 51.5383 115.173 51.5383C114.316 51.5383 113.621 52.2332 113.621 53.0904C113.621 53.9476 114.316 54.6425 115.173 54.6425C116.03 54.6425 116.725 53.9476 116.725 53.0904Z" fill="#222222"/>
<path d="M127.073 53.0904C127.073 52.2332 126.378 51.5383 125.521 51.5383C124.664 51.5383 123.969 52.2332 123.969 53.0904C123.969 53.9476 124.664 54.6425 125.521 54.6425C126.378 54.6425 127.073 53.9476 127.073 53.0904Z" fill="#222222"/>
<path d="M132.247 53.0904C132.247 52.2332 131.552 51.5383 130.695 51.5383C129.837 51.5383 129.143 52.2332 129.143 53.0904C129.143 53.9476 129.837 54.6425 130.695 54.6425C131.552 54.6425 132.247 53.9476 132.247 53.0904Z" fill="#222222"/>
<path d="M90.8581 58.264C90.8581 57.4068 90.1632 56.7119 89.306 56.7119C88.4488 56.7119 87.7539 57.4068 87.7539 58.264C87.7539 59.1212 88.4488 59.8161 89.306 59.8161C90.1632 59.8161 90.8581 59.1212 90.8581 58.264Z" fill="#222222"/>
<path d="M111.553 58.264C111.553 57.4068 110.858 56.7119 110.001 56.7119C109.144 56.7119 108.449 57.4068 108.449 58.264C108.449 59.1212 109.144 59.8161 110.001 59.8161C110.858 59.8161 111.553 59.1212 111.553 58.264Z" fill="#222222"/>
<path d="M121.899 58.264C121.899 57.4068 121.204 56.7119 120.347 56.7119C119.49 56.7119 118.795 57.4068 118.795 58.264C118.795 59.1212 119.49 59.8161 120.347 59.8161C121.204 59.8161 121.899 59.1212 121.899 58.264Z" fill="#222222"/>
<path d="M127.073 58.264C127.073 57.4068 126.378 56.7119 125.521 56.7119C124.664 56.7119 123.969 57.4068 123.969 58.264C123.969 59.1212 124.664 59.8161 125.521 59.8161C126.378 59.8161 127.073 59.1212 127.073 58.264Z" fill="#222222"/>
<path d="M90.8581 63.4376C90.8581 62.5804 90.1632 61.8855 89.306 61.8855C88.4488 61.8855 87.7539 62.5804 87.7539 63.4376C87.7539 64.2948 88.4488 64.9897 89.306 64.9897C90.1632 64.9897 90.8581 64.2948 90.8581 63.4376Z" fill="#222222"/>
<path d="M96.0319 63.4376C96.0319 62.5804 95.337 61.8855 94.4798 61.8855C93.6226 61.8855 92.9277 62.5804 92.9277 63.4376C92.9277 64.2948 93.6226 64.9897 94.4798 64.9897C95.337 64.9897 96.0319 64.2948 96.0319 63.4376Z" fill="#222222"/>
<path d="M111.553 63.4376C111.553 62.5804 110.858 61.8855 110.001 61.8855C109.144 61.8855 108.449 62.5804 108.449 63.4376C108.449 64.2948 109.144 64.9897 110.001 64.9897C110.858 64.9897 111.553 64.2948 111.553 63.4376Z" fill="#222222"/>
<path d="M121.899 63.4376C121.899 62.5804 121.204 61.8855 120.347 61.8855C119.49 61.8855 118.795 62.5804 118.795 63.4376C118.795 64.2948 119.49 64.9897 120.347 64.9897C121.204 64.9897 121.899 64.2948 121.899 63.4376Z" fill="#222222"/>
<path d="M96.0319 68.6113C96.0319 67.7541 95.337 67.0592 94.4798 67.0592C93.6226 67.0592 92.9277 67.7541 92.9277 68.6113C92.9277 69.4685 93.6226 70.1634 94.4798 70.1634C95.337 70.1634 96.0319 69.4685 96.0319 68.6113Z" fill="#222222"/>
<path d="M101.206 68.6113C101.206 67.7541 100.511 67.0592 99.6536 67.0592C98.7965 67.0592 98.1016 67.7541 98.1016 68.6113C98.1016 69.4685 98.7965 70.1634 99.6536 70.1634C100.511 70.1634 101.206 69.4685 101.206 68.6113Z" fill="#222222"/>
<path d="M121.899 68.6113C121.899 67.7541 121.204 67.0592 120.347 67.0592C119.49 67.0592 118.795 67.7541 118.795 68.6113C118.795 69.4685 119.49 70.1634 120.347 70.1634C121.204 70.1634 121.899 69.4685 121.899 68.6113Z" fill="#222222"/>
<path d="M127.073 68.6113C127.073 67.7541 126.378 67.0592 125.521 67.0592C124.664 67.0592 123.969 67.7541 123.969 68.6113C123.969 69.4685 124.664 70.1634 125.521 70.1634C126.378 70.1634 127.073 69.4685 127.073 68.6113Z" fill="#222222"/>
<path d="M90.8581 73.7849C90.8581 72.9277 90.1632 72.2328 89.306 72.2328C88.4488 72.2328 87.7539 72.9277 87.7539 73.7849C87.7539 74.6421 88.4488 75.3369 89.306 75.3369C90.1632 75.3369 90.8581 74.6421 90.8581 73.7849Z" fill="#222222"/>
<path d="M106.38 73.7849C106.38 72.9277 105.685 72.2328 104.827 72.2328C103.97 72.2328 103.275 72.9277 103.275 73.7849C103.275 74.6421 103.97 75.3369 104.827 75.3369C105.685 75.3369 106.38 74.6421 106.38 73.7849Z" fill="#222222"/>
<path d="M111.553 73.7849C111.553 72.9277 110.858 72.2328 110.001 72.2328C109.144 72.2328 108.449 72.9277 108.449 73.7849C108.449 74.6421 109.144 75.3369 110.001 75.3369C110.858 75.3369 111.553 74.6421 111.553 73.7849Z" fill="#222222"/>
<path d="M127.073 73.7849C127.073 72.9277 126.378 72.2328 125.521 72.2328C124.664 72.2328 123.969 72.9277 123.969 73.7849C123.969 74.6421 124.664 75.3369 125.521 75.3369C126.378 75.3369 127.073 74.6421 127.073 73.7849Z" fill="#222222"/>
<path d="M132.247 73.7849C132.247 72.9277 131.552 72.2328 130.695 72.2328C129.837 72.2328 129.143 72.9277 129.143 73.7849C129.143 74.6421 129.837 75.3369 130.695 75.3369C131.552 75.3369 132.247 74.6421 132.247 73.7849Z" fill="#222222"/>
<path d="M90.8581 78.9585C90.8581 78.1013 90.1632 77.4064 89.306 77.4064C88.4488 77.4064 87.7539 78.1013 87.7539 78.9585C87.7539 79.8156 88.4488 80.5105 89.306 80.5105C90.1632 80.5105 90.8581 79.8156 90.8581 78.9585Z" fill="#222222"/>
<path d="M101.206 78.9585C101.206 78.1013 100.511 77.4064 99.6536 77.4064C98.7965 77.4064 98.1016 78.1013 98.1016 78.9585C98.1016 79.8156 98.7965 80.5105 99.6536 80.5105C100.511 80.5105 101.206 79.8156 101.206 78.9585Z" fill="#222222"/>
<path d="M111.553 78.9585C111.553 78.1013 110.858 77.4064 110.001 77.4064C109.144 77.4064 108.449 78.1013 108.449 78.9585C108.449 79.8156 109.144 80.5105 110.001 80.5105C110.858 80.5105 111.553 79.8156 111.553 78.9585Z" fill="#222222"/>
<path d="M121.899 78.9585C121.899 78.1013 121.204 77.4064 120.347 77.4064C119.49 77.4064 118.795 78.1013 118.795 78.9585C118.795 79.8156 119.49 80.5105 120.347 80.5105C121.204 80.5105 121.899 79.8156 121.899 78.9585Z" fill="#222222"/>
<path d="M132.247 78.9585C132.247 78.1013 131.552 77.4064 130.695 77.4064C129.837 77.4064 129.143 78.1013 129.143 78.9585C129.143 79.8156 129.837 80.5105 130.695 80.5105C131.552 80.5105 132.247 79.8156 132.247 78.9585Z" fill="#222222"/>
<path d="M90.8581 84.132C90.8581 83.2748 90.1632 82.58 89.306 82.58C88.4488 82.58 87.7539 83.2748 87.7539 84.132C87.7539 84.9892 88.4488 85.6841 89.306 85.6841C90.1632 85.6841 90.8581 84.9892 90.8581 84.132Z" fill="#222222"/>
<path d="M106.38 84.132C106.38 83.2748 105.685 82.58 104.827 82.58C103.97 82.58 103.275 83.2748 103.275 84.132C103.275 84.9892 103.97 85.6841 104.827 85.6841C105.685 85.6841 106.38 84.9892 106.38 84.132Z" fill="#222222"/>
<path d="M111.553 84.132C111.553 83.2748 110.858 82.58 110.001 82.58C109.144 82.58 108.449 83.2748 108.449 84.132C108.449 84.9892 109.144 85.6841 110.001 85.6841C110.858 85.6841 111.553 84.9892 111.553 84.132Z" fill="#222222"/>
<path d="M121.899 84.132C121.899 83.2748 121.204 82.58 120.347 82.58C119.49 82.58 118.795 83.2748 118.795 84.132C118.795 84.9892 119.49 85.6841 120.347 85.6841C121.204 85.6841 121.899 84.9892 121.899 84.132Z" fill="#222222"/>
<path d="M127.073 84.132C127.073 83.2748 126.378 82.58 125.521 82.58C124.664 82.58 123.969 83.2748 123.969 84.132C123.969 84.9892 124.664 85.6841 125.521 85.6841C126.378 85.6841 127.073 84.9892 127.073 84.132Z" fill="#222222"/>
<path d="M54.6432 89.3056C54.6432 88.4484 53.9483 87.7535 53.0911 87.7535C52.234 87.7535 51.5391 88.4484 51.5391 89.3056C51.5391 90.1628 52.234 90.8577 53.0911 90.8577C53.9483 90.8577 54.6432 90.1628 54.6432 89.3056Z" fill="#222222"/>
<path d="M64.9909 89.3056C64.9909 88.4484 64.296 87.7535 63.4388 87.7535C62.5816 87.7535 61.8867 88.4484 61.8867 89.3056C61.8867 90.1628 62.5816 90.8577 63.4388 90.8577C64.296 90.8577 64.9909 90.1628 64.9909 89.3056Z" fill="#222222"/>
<path d="M75.3366 89.3056C75.3366 88.4484 74.6417 87.7535 73.7845 87.7535C72.9273 87.7535 72.2324 88.4484 72.2324 89.3056C72.2324 90.1628 72.9273 90.8577 73.7845 90.8577C74.6417 90.8577 75.3366 90.1628 75.3366 89.3056Z" fill="#222222"/>
<path d="M80.5104 89.3056C80.5104 88.4484 79.8155 87.7535 78.9583 87.7535C78.1011 87.7535 77.4062 88.4484 77.4062 89.3056C77.4062 90.1628 78.1011 90.8577 78.9583 90.8577C79.8155 90.8577 80.5104 90.1628 80.5104 89.3056Z" fill="#222222"/>
<path d="M85.6842 89.3056C85.6842 88.4484 84.9894 87.7535 84.1322 87.7535C83.275 87.7535 82.5801 88.4484 82.5801 89.3056C82.5801 90.1628 83.275 90.8577 84.1322 90.8577C84.9894 90.8577 85.6842 90.1628 85.6842 89.3056Z" fill="#222222"/>
<path d="M90.8581 89.3056C90.8581 88.4484 90.1632 87.7535 89.306 87.7535C88.4488 87.7535 87.7539 88.4484 87.7539 89.3056C87.7539 90.1628 88.4488 90.8577 89.306 90.8577C90.1632 90.8577 90.8581 90.1628 90.8581 89.3056Z" fill="#222222"/>
<path d="M106.38 89.3056C106.38 88.4484 105.685 87.7535 104.827 87.7535C103.97 87.7535 103.275 88.4484 103.275 89.3056C103.275 90.1628 103.97 90.8577 104.827 90.8577C105.685 90.8577 106.38 90.1628 106.38 89.3056Z" fill="#222222"/>
<path d="M116.725 89.3056C116.725 88.4484 116.03 87.7535 115.173 87.7535C114.316 87.7535 113.621 88.4484 113.621 89.3056C113.621 90.1628 114.316 90.8577 115.173 90.8577C116.03 90.8577 116.725 90.1628 116.725 89.3056Z" fill="#222222"/>
<path d="M121.899 89.3056C121.899 88.4484 121.204 87.7535 120.347 87.7535C119.49 87.7535 118.795 88.4484 118.795 89.3056C118.795 90.1628 119.49 90.8577 120.347 90.8577C121.204 90.8577 121.899 90.1628 121.899 89.3056Z" fill="#222222"/>
<path d="M132.247 89.3056C132.247 88.4484 131.552 87.7535 130.695 87.7535C129.837 87.7535 129.143 88.4484 129.143 89.3056C129.143 90.1628 129.837 90.8577 130.695 90.8577C131.552 90.8577 132.247 90.1628 132.247 89.3056Z" fill="#222222"/>
<path d="M137.421 89.3056C137.421 88.4484 136.726 87.7535 135.868 87.7535C135.011 87.7535 134.316 88.4484 134.316 89.3056C134.316 90.1628 135.011 90.8577 135.868 90.8577C136.726 90.8577 137.421 90.1628 137.421 89.3056Z" fill="#222222"/>
<path d="M142.594 89.3056C142.594 88.4484 141.9 87.7535 141.042 87.7535C140.185 87.7535 139.49 88.4484 139.49 89.3056C139.49 90.1628 140.185 90.8577 141.042 90.8577C141.9 90.8577 142.594 90.1628 142.594 89.3056Z" fill="#222222"/>
<path d="M147.768 89.3056C147.768 88.4484 147.073 87.7535 146.216 87.7535C145.359 87.7535 144.664 88.4484 144.664 89.3056C144.664 90.1628 145.359 90.8577 146.216 90.8577C147.073 90.8577 147.768 90.1628 147.768 89.3056Z" fill="#222222"/>
<path d="M158.116 89.3056C158.116 88.4484 157.421 87.7535 156.564 87.7535C155.707 87.7535 155.012 88.4484 155.012 89.3056C155.012 90.1628 155.707 90.8577 156.564 90.8577C157.421 90.8577 158.116 90.1628 158.116 89.3056Z" fill="#222222"/>
<path d="M163.288 89.3056C163.288 88.4484 162.593 87.7535 161.736 87.7535C160.878 87.7535 160.184 88.4484 160.184 89.3056C160.184 90.1628 160.878 90.8577 161.736 90.8577C162.593 90.8577 163.288 90.1628 163.288 89.3056Z" fill="#222222"/>
<path d="M173.635 89.3056C173.635 88.4484 172.941 87.7535 172.083 87.7535C171.226 87.7535 170.531 88.4484 170.531 89.3056C170.531 90.1628 171.226 90.8577 172.083 90.8577C172.941 90.8577 173.635 90.1628 173.635 89.3056Z" fill="#222222"/>
<path d="M59.8171 94.4792C59.8171 93.622 59.1222 92.9271 58.265 92.9271C57.4078 92.9271 56.7129 93.622 56.7129 94.4792C56.7129 95.3364 57.4078 96.0313 58.265 96.0313C59.1222 96.0313 59.8171 95.3364 59.8171 94.4792Z" fill="#222222"/>
<path d="M96.0319 94.4792C96.0319 93.622 95.337 92.9271 94.4798 92.9271C93.6226 92.9271 92.9277 93.622 92.9277 94.4792C92.9277 95.3364 93.6226 96.0313 94.4798 96.0313C95.337 96.0313 96.0319 95.3364 96.0319 94.4792Z" fill="#222222"/>
<path d="M101.206 94.4792C101.206 93.622 100.511 92.9271 99.6536 92.9271C98.7965 92.9271 98.1016 93.622 98.1016 94.4792C98.1016 95.3364 98.7965 96.0313 99.6536 96.0313C100.511 96.0313 101.206 95.3364 101.206 94.4792Z" fill="#222222"/>
<path d="M106.38 94.4792C106.38 93.622 105.685 92.9271 104.827 92.9271C103.97 92.9271 103.275 93.622 103.275 94.4792C103.275 95.3364 103.97 96.0313 104.827 96.0313C105.685 96.0313 106.38 95.3364 106.38 94.4792Z" fill="#222222"/>
<path d="M111.553 94.4792C111.553 93.622 110.858 92.9271 110.001 92.9271C109.144 92.9271 108.449 93.622 108.449 94.4792C108.449 95.3364 109.144 96.0313 110.001 96.0313C110.858 96.0313 111.553 95.3364 111.553 94.4792Z" fill="#222222"/>
<path d="M132.247 94.4792C132.247 93.622 131.552 92.9271 130.695 92.9271C129.837 92.9271 129.143 93.622 129.143 94.4792C129.143 95.3364 129.837 96.0313 130.695 96.0313C131.552 96.0313 132.247 95.3364 132.247 94.4792Z" fill="#222222"/>
<path d="M142.594 94.4792C142.594 93.622 141.9 92.9271 141.042 92.9271C140.185 92.9271 139.49 93.622 139.49 94.4792C139.49 95.3364 140.185 96.0313 141.042 96.0313C141.9 96.0313 142.594 95.3364 142.594 94.4792Z" fill="#222222"/>
<path d="M173.635 94.4792C173.635 93.622 172.941 92.9271 172.083 92.9271C171.226 92.9271 170.531 93.622 170.531 94.4792C170.531 95.3364 171.226 96.0313 172.083 96.0313C172.941 96.0313 173.635 95.3364 173.635 94.4792Z" fill="#222222"/>
<path d="M49.4694 99.6528C49.4694 98.7956 48.7745 98.1007 47.9173 98.1007C47.0601 98.1007 46.3652 98.7956 46.3652 99.6528C46.3652 100.51 47.0601 101.205 47.9173 101.205C48.7745 101.205 49.4694 100.51 49.4694 99.6528Z" fill="#222222"/>
<path d="M54.6432 99.6528C54.6432 98.7956 53.9483 98.1007 53.0911 98.1007C52.234 98.1007 51.5391 98.7956 51.5391 99.6528C51.5391 100.51 52.234 101.205 53.0911 101.205C53.9483 101.205 54.6432 100.51 54.6432 99.6528Z" fill="#222222"/>
<path d="M59.8171 99.6528C59.8171 98.7956 59.1222 98.1007 58.265 98.1007C57.4078 98.1007 56.7129 98.7956 56.7129 99.6528C56.7129 100.51 57.4078 101.205 58.265 101.205C59.1222 101.205 59.8171 100.51 59.8171 99.6528Z" fill="#222222"/>
<path d="M64.9909 99.6528C64.9909 98.7956 64.296 98.1007 63.4388 98.1007C62.5816 98.1007 61.8867 98.7956 61.8867 99.6528C61.8867 100.51 62.5816 101.205 63.4388 101.205C64.296 101.205 64.9909 100.51 64.9909 99.6528Z" fill="#222222"/>
<path d="M80.5104 99.6528C80.5104 98.7956 79.8155 98.1007 78.9583 98.1007C78.1011 98.1007 77.4062 98.7956 77.4062 99.6528C77.4062 100.51 78.1011 101.205 78.9583 101.205C79.8155 101.205 80.5104 100.51 80.5104 99.6528Z" fill="#222222"/>
<path d="M85.6842 99.6528C85.6842 98.7956 84.9894 98.1007 84.1322 98.1007C83.275 98.1007 82.5801 98.7956 82.5801 99.6528C82.5801 100.51 83.275 101.205 84.1322 101.205C84.9894 101.205 85.6842 100.51 85.6842 99.6528Z" fill="#222222"/>
<path d="M106.38 99.6528C106.38 98.7956 105.685 98.1007 104.827 98.1007C103.97 98.1007 103.275 98.7956 103.275 99.6528C103.275 100.51 103.97 101.205 104.827 101.205C105.685 101.205 106.38 100.51 106.38 99.6528Z" fill="#222222"/>
<path d="M116.725 99.6528C116.725 98.7956 116.03 98.1007 115.173 98.1007C114.316 98.1007 113.621 98.7956 113.621 99.6528C113.621 100.51 114.316 101.205 115.173 101.205C116.03 101.205 116.725 100.51 116.725 99.6528Z" fill="#222222"/>
<path d="M137.421 99.6528C137.421 98.7956 136.726 98.1007 135.868 98.1007C135.011 98.1007 134.316 98.7956 134.316 99.6528C134.316 100.51 135.011 101.205 135.868 101.205C136.726 101.205 137.421 100.51 137.421 99.6528Z" fill="#222222"/>
<path d="M142.594 99.6528C142.594 98.7956 141.9 98.1007 141.042 98.1007C140.185 98.1007 139.49 98.7956 139.49 99.6528C139.49 100.51 140.185 101.205 141.042 101.205C141.9 101.205 142.594 100.51 142.594 99.6528Z" fill="#222222"/>
<path d="M168.462 99.6528C168.462 98.7956 167.767 98.1007 166.91 98.1007C166.052 98.1007 165.357 98.7956 165.357 99.6528C165.357 100.51 166.052 101.205 166.91 101.205C167.767 101.205 168.462 100.51 168.462 99.6528Z" fill="#222222"/>
<path d="M173.635 99.6528C173.635 98.7956 172.941 98.1007 172.083 98.1007C171.226 98.1007 170.531 98.7956 170.531 99.6528C170.531 100.51 171.226 101.205 172.083 101.205C172.941 101.205 173.635 100.51 173.635 99.6528Z" fill="#222222"/>
<path d="M70.1647 104.826C70.1647 103.969 69.4698 103.274 68.6126 103.274C67.7554 103.274 67.0605 103.969 67.0605 104.826C67.0605 105.684 67.7554 106.378 68.6126 106.378C69.4698 106.378 70.1647 105.684 70.1647 104.826Z" fill="#222222"/>
<path d="M75.3366 104.826C75.3366 103.969 74.6417 103.274 73.7845 103.274C72.9273 103.274 72.2324 103.969 72.2324 104.826C72.2324 105.684 72.9273 106.378 73.7845 106.378C74.6417 106.378 75.3366 105.684 75.3366 104.826Z" fill="#222222"/>
<path d="M85.6842 104.826C85.6842 103.969 84.9894 103.274 84.1322 103.274C83.275 103.274 82.5801 103.969 82.5801 104.826C82.5801 105.684 83.275 106.378 84.1322 106.378C84.9894 106.378 85.6842 105.684 85.6842 104.826Z" fill="#222222"/>
<path d="M111.553 104.826C111.553 103.969 110.858 103.274 110.001 103.274C109.144 103.274 108.449 103.969 108.449 104.826C108.449 105.684 109.144 106.378 110.001 106.378C110.858 106.378 111.553 105.684 111.553 104.826Z" fill="#222222"/>
<path d="M116.725 104.826C116.725 103.969 116.03 103.274 115.173 103.274C114.316 103.274 113.621 103.969 113.621 104.826C113.621 105.684 114.316 106.378 115.173 106.378C116.03 106.378 116.725 105.684 116.725 104.826Z" fill="#222222"/>
<path d="M127.073 104.826C127.073 103.969 126.378 103.274 125.521 103.274C124.664 103.274 123.969 103.969 123.969 104.826C123.969 105.684 124.664 106.378 125.521 106.378C126.378 106.378 127.073 105.684 127.073 104.826Z" fill="#222222"/>
<path d="M132.247 104.826C132.247 103.969 131.552 103.274 130.695 103.274C129.837 103.274 129.143 103.969 129.143 104.826C129.143 105.684 129.837 106.378 130.695 106.378C131.552 106.378 132.247 105.684 132.247 104.826Z" fill="#222222"/>
<path d="M142.594 104.826C142.594 103.969 141.9 103.274 141.042 103.274C140.185 103.274 139.49 103.969 139.49 104.826C139.49 105.684 140.185 106.378 141.042 106.378C141.9 106.378 142.594 105.684 142.594 104.826Z" fill="#222222"/>
<path d="M49.4694 110C49.4694 109.143 48.7745 108.448 47.9173 108.448C47.0601 108.448 46.3652 109.143 46.3652 110C46.3652 110.857 47.0601 111.552 47.9173 111.552C48.7745 111.552 49.4694 110.857 49.4694 110Z" fill="#222222"/>
<path d="M54.6432 110C54.6432 109.143 53.9483 108.448 53.0911 108.448C52.234 108.448 51.5391 109.143 51.5391 110C51.5391 110.857 52.234 111.552 53.0911 111.552C53.9483 111.552 54.6432 110.857 54.6432 110Z" fill="#222222"/>
<path d="M80.5104 110C80.5104 109.143 79.8155 108.448 78.9583 108.448C78.1011 108.448 77.4062 109.143 77.4062 110C77.4062 110.857 78.1011 111.552 78.9583 111.552C79.8155 111.552 80.5104 110.857 80.5104 110Z" fill="#222222"/>
<path d="M85.6842 110C85.6842 109.143 84.9894 108.448 84.1322 108.448C83.275 108.448 82.5801 109.143 82.5801 110C82.5801 110.857 83.275 111.552 84.1322 111.552C84.9894 111.552 85.6842 110.857 85.6842 110Z" fill="#222222"/>
<path d="M106.38 110C106.38 109.143 105.685 108.448 104.827 108.448C103.97 108.448 103.275 109.143 103.275 110C103.275 110.857 103.97 111.552 104.827 111.552C105.685 111.552 106.38 110.857 106.38 110Z" fill="#222222"/>
<path d="M121.899 110C121.899 109.143 121.204 108.448 120.347 108.448C119.49 108.448 118.795 109.143 118.795 110C118.795 110.857 119.49 111.552 120.347 111.552C121.204 111.552 121.899 110.857 121.899 110Z" fill="#222222"/>
<path d="M132.247 110C132.247 109.143 131.552 108.448 130.695 108.448C129.837 108.448 129.143 109.143 129.143 110C129.143 110.857 129.837 111.552 130.695 111.552C131.552 111.552 132.247 110.857 132.247 110Z" fill="#222222"/>
<path d="M137.421 110C137.421 109.143 136.726 108.448 135.868 108.448C135.011 108.448 134.316 109.143 134.316 110C134.316 110.857 135.011 111.552 135.868 111.552C136.726 111.552 137.421 110.857 137.421 110Z" fill="#222222"/>
<path d="M142.594 110C142.594 109.143 141.9 108.448 141.042 108.448C140.185 108.448 139.49 109.143 139.49 110C139.49 110.857 140.185 111.552 141.042 111.552C141.9 111.552 142.594 110.857 142.594 110Z" fill="#222222"/>
<path d="M158.116 110C158.116 109.143 157.421 108.448 156.564 108.448C155.707 108.448 155.012 109.143 155.012 110C155.012 110.857 155.707 111.552 156.564 111.552C157.421 111.552 158.116 110.857 158.116 110Z" fill="#222222"/>
<path d="M168.462 110C168.462 109.143 167.767 108.448 166.91 108.448C166.052 108.448 165.357 109.143 165.357 110C165.357 110.857 166.052 111.552 166.91 111.552C167.767 111.552 168.462 110.857 168.462 110Z" fill="#222222"/>
<path d="M173.635 110C173.635 109.143 172.941 108.448 172.083 108.448C171.226 108.448 170.531 109.143 170.531 110C170.531 110.857 171.226 111.552 172.083 111.552C172.941 111.552 173.635 110.857 173.635 110Z" fill="#222222"/>
<path d="M59.8171 115.174C59.8171 114.316 59.1222 113.622 58.265 113.622C57.4078 113.622 56.7129 114.316 56.7129 115.174C56.7129 116.031 57.4078 116.726 58.265 116.726C59.1222 116.726 59.8171 116.031 59.8171 115.174Z" fill="#222222"/>
<path d="M70.1647 115.174C70.1647 114.316 69.4698 113.622 68.6126 113.622C67.7554 113.622 67.0605 114.316 67.0605 115.174C67.0605 116.031 67.7554 116.726 68.6126 116.726C69.4698 116.726 70.1647 116.031 70.1647 115.174Z" fill="#222222"/>
<path d="M90.8581 115.174C90.8581 114.316 90.1632 113.622 89.306 113.622C88.4488 113.622 87.7539 114.316 87.7539 115.174C87.7539 116.031 88.4488 116.726 89.306 116.726C90.1632 116.726 90.8581 116.031 90.8581 115.174Z" fill="#222222"/>
<path d="M96.0319 115.174C96.0319 114.316 95.337 113.622 94.4798 113.622C93.6226 113.622 92.9277 114.316 92.9277 115.174C92.9277 116.031 93.6226 116.726 94.4798 116.726C95.337 116.726 96.0319 116.031 96.0319 115.174Z" fill="#222222"/>
<path d="M101.206 115.174C101.206 114.316 100.511 113.622 99.6536 113.622C98.7965 113.622 98.1016 114.316 98.1016 115.174C98.1016 116.031 98.7965 116.726 99.6536 116.726C100.511 116.726 101.206 116.031 101.206 115.174Z" fill="#222222"/>
<path d="M106.38 115.174C106.38 114.316 105.685 113.622 104.827 113.622C103.97 113.622 103.275 114.316 103.275 115.174C103.275 116.031 103.97 116.726 104.827 116.726C105.685 116.726 106.38 116.031 106.38 115.174Z" fill="#222222"/>
<path d="M111.553 115.174C111.553 114.316 110.858 113.622 110.001 113.622C109.144 113.622 108.449 114.316 108.449 115.174C108.449 116.031 109.144 116.726 110.001 116.726C110.858 116.726 111.553 116.031 111.553 115.174Z" fill="#222222"/>
<path d="M137.421 115.174C137.421 114.316 136.726 113.622 135.868 113.622C135.011 113.622 134.316 114.316 134.316 115.174C134.316 116.031 135.011 116.726 135.868 116.726C136.726 116.726 137.421 116.031 137.421 115.174Z" fill="#222222"/>
<path d="M142.594 115.174C142.594 114.316 141.9 113.622 141.042 113.622C140.185 113.622 139.49 114.316 139.49 115.174C139.49 116.031 140.185 116.726 141.042 116.726C141.9 116.726 142.594 116.031 142.594 115.174Z" fill="#222222"/>
<path d="M147.768 115.174C147.768 114.316 147.073 113.622 146.216 113.622C145.359 113.622 144.664 114.316 144.664 115.174C144.664 116.031 145.359 116.726 146.216 116.726C147.073 116.726 147.768 116.031 147.768 115.174Z" fill="#222222"/>
<path d="M158.116 115.174C158.116 114.316 157.421 113.622 156.564 113.622C155.707 113.622 155.012 114.316 155.012 115.174C155.012 116.031 155.707 116.726 156.564 116.726C157.421 116.726 158.116 116.031 158.116 115.174Z" fill="#222222"/>
<path d="M163.288 115.174C163.288 114.316 162.593 113.622 161.736 113.622C160.878 113.622 160.184 114.316 160.184 115.174C160.184 116.031 160.878 116.726 161.736 116.726C162.593 116.726 163.288 116.031 163.288 115.174Z" fill="#222222"/>
<path d="M173.635 115.174C173.635 114.316 172.941 113.622 172.083 113.622C171.226 113.622 170.531 114.316 170.531 115.174C170.531 116.031 171.226 116.726 172.083 116.726C172.941 116.726 173.635 116.031 173.635 115.174Z" fill="#222222"/>
<path d="M49.4694 120.347C49.4694 119.49 48.7745 118.795 47.9173 118.795C47.0601 118.795 46.3652 119.49 46.3652 120.347C46.3652 121.204 47.0601 121.899 47.9173 121.899C48.7745 121.899 49.4694 121.204 49.4694 120.347Z" fill="#222222"/>
<path d="M64.9909 120.347C64.9909 119.49 64.296 118.795 63.4388 118.795C62.5816 118.795 61.8867 119.49 61.8867 120.347C61.8867 121.204 62.5816 121.899 63.4388 121.899C64.296 121.899 64.9909 121.204 64.9909 120.347Z" fill="#222222"/>
<path d="M75.3366 120.347C75.3366 119.49 74.6417 118.795 73.7845 118.795C72.9273 118.795 72.2324 119.49 72.2324 120.347C72.2324 121.204 72.9273 121.899 73.7845 121.899C74.6417 121.899 75.3366 121.204 75.3366 120.347Z" fill="#222222"/>
<path d="M80.5104 120.347C80.5104 119.49 79.8155 118.795 78.9583 118.795C78.1011 118.795 77.4062 119.49 77.4062 120.347C77.4062 121.204 78.1011 121.899 78.9583 121.899C79.8155 121.899 80.5104 121.204 80.5104 120.347Z" fill="#222222"/>
<path d="M90.8581 120.347C90.8581 119.49 90.1632 118.795 89.306 118.795C88.4488 118.795 87.7539 119.49 87.7539 120.347C87.7539 121.204 88.4488 121.899 89.306 121.899C90.1632 121.899 90.8581 121.204 90.8581 120.347Z" fill="#222222"/>
<path d="M96.0319 120.347C96.0319 119.49 95.337 118.795 94.4798 118.795C93.6226 118.795 92.9277 119.49 92.9277 120.347C92.9277 121.204 93.6226 121.899 94.4798 121.899C95.337 121.899 96.0319 121.204 96.0319 120.347Z" fill="#222222"/>
<path d="M101.206 120.347C101.206 119.49 100.511 118.795 99.6536 118.795C98.7965 118.795 98.1016 119.49 98.1016 120.347C98.1016 121.204 98.7965 121.899 99.6536 121.899C100.511 121.899 101.206 121.204 101.206 120.347Z" fill="#222222"/>
<path d="M106.38 120.347C106.38 119.49 105.685 118.795 104.827 118.795C103.97 118.795 103.275 119.49 103.275 120.347C103.275 121.204 103.97 121.899 104.827 121.899C105.685 121.899 106.38 121.204 106.38 120.347Z" fill="#222222"/>
<path d="M116.725 120.347C116.725 119.49 116.03 118.795 115.173 118.795C114.316 118.795 113.621 119.49 113.621 120.347C113.621 121.204 114.316 121.899 115.173 121.899C116.03 121.899 116.725 121.204 116.725 120.347Z" fill="#222222"/>
<path d="M121.899 120.347C121.899 119.49 121.204 118.795 120.347 118.795C119.49 118.795 118.795 119.49 118.795 120.347C118.795 121.204 119.49 121.899 120.347 121.899C121.204 121.899 121.899 121.204 121.899 120.347Z" fill="#222222"/>
<path d="M142.594 120.347C142.594 119.49 141.9 118.795 141.042 118.795C140.185 118.795 139.49 119.49 139.49 120.347C139.49 121.204 140.185 121.899 141.042 121.899C141.9 121.899 142.594 121.204 142.594 120.347Z" fill="#222222"/>
<path d="M163.288 120.347C163.288 119.49 162.593 118.795 161.736 118.795C160.878 118.795 160.184 119.49 160.184 120.347C160.184 121.204 160.878 121.899 161.736 121.899C162.593 121.899 163.288 121.204 163.288 120.347Z" fill="#222222"/>
<path d="M173.635 120.347C173.635 119.49 172.941 118.795 172.083 118.795C171.226 118.795 170.531 119.49 170.531 120.347C170.531 121.204 171.226 121.899 172.083 121.899C172.941 121.899 173.635 121.204 173.635 120.347Z" fill="#222222"/>
<path d="M54.6432 125.521C54.6432 124.664 53.9483 123.969 53.0911 123.969C52.234 123.969 51.5391 124.664 51.5391 125.521C51.5391 126.378 52.234 127.073 53.0911 127.073C53.9483 127.073 54.6432 126.378 54.6432 125.521Z" fill="#222222"/>
<path d="M59.8171 125.521C59.8171 124.664 59.1222 123.969 58.265 123.969C57.4078 123.969 56.7129 124.664 56.7129 125.521C56.7129 126.378 57.4078 127.073 58.265 127.073C59.1222 127.073 59.8171 126.378 59.8171 125.521Z" fill="#222222"/>
<path d="M64.9909 125.521C64.9909 124.664 64.296 123.969 63.4388 123.969C62.5816 123.969 61.8867 124.664 61.8867 125.521C61.8867 126.378 62.5816 127.073 63.4388 127.073C64.296 127.073 64.9909 126.378 64.9909 125.521Z" fill="#222222"/>
<path d="M70.1647 125.521C70.1647 124.664 69.4698 123.969 68.6126 123.969C67.7554 123.969 67.0605 124.664 67.0605 125.521C67.0605 126.378 67.7554 127.073 68.6126 127.073C69.4698 127.073 70.1647 126.378 70.1647 125.521Z" fill="#222222"/>
<path d="M90.8581 125.521C90.8581 124.664 90.1632 123.969 89.306 123.969C88.4488 123.969 87.7539 124.664 87.7539 125.521C87.7539 126.378 88.4488 127.073 89.306 127.073C90.1632 127.073 90.8581 126.378 90.8581 125.521Z" fill="#222222"/>
<path d="M96.0319 125.521C96.0319 124.664 95.337 123.969 94.4798 123.969C93.6226 123.969 92.9277 124.664 92.9277 125.521C92.9277 126.378 93.6226 127.073 94.4798 127.073C95.337 127.073 96.0319 126.378 96.0319 125.521Z" fill="#222222"/>
<path d="M101.206 125.521C101.206 124.664 100.511 123.969 99.6536 123.969C98.7965 123.969 98.1016 124.664 98.1016 125.521C98.1016 126.378 98.7965 127.073 99.6536 127.073C100.511 127.073 101.206 126.378 101.206 125.521Z" fill="#222222"/>
<path d="M111.553 125.521C111.553 124.664 110.858 123.969 110.001 123.969C109.144 123.969 108.449 124.664 108.449 125.521C108.449 126.378 109.144 127.073 110.001 127.073C110.858 127.073 111.553 126.378 111.553 125.521Z" fill="#222222"/>
<path d="M116.725 125.521C116.725 124.664 116.03 123.969 115.173 123.969C114.316 123.969 113.621 124.664 113.621 125.521C113.621 126.378 114.316 127.073 115.173 127.073C116.03 127.073 116.725 126.378 116.725 125.521Z" fill="#222222"/>
<path d="M121.899 125.521C121.899 124.664 121.204 123.969 120.347 123.969C119.49 123.969 118.795 124.664 118.795 125.521C118.795 126.378 119.49 127.073 120.347 127.073C121.204 127.073 121.899 126.378 121.899 125.521Z" fill="#222222"/>
<path d="M132.247 125.521C132.247 124.664 131.552 123.969 130.695 123.969C129.837 123.969 129.143 124.664 129.143 125.521C129.143 126.378 129.837 127.073 130.695 127.073C131.552 127.073 132.247 126.378 132.247 125.521Z" fill="#222222"/>
<path d="M147.768 125.521C147.768 124.664 147.073 123.969 146.216 123.969C145.359 123.969 144.664 124.664 144.664 125.521C144.664 126.378 145.359 127.073 146.216 127.073C147.073 127.073 147.768 126.378 147.768 125.521Z" fill="#222222"/>
<path d="M152.942 125.521C152.942 124.664 152.247 123.969 151.39 123.969C150.533 123.969 149.838 124.664 149.838 125.521C149.838 126.378 150.533 127.073 151.39 127.073C152.247 127.073 152.942 126.378 152.942 125.521Z" fill="#222222"/>
<path d="M158.116 125.521C158.116 124.664 157.421 123.969 156.564 123.969C155.707 123.969 155.012 124.664 155.012 125.521C155.012 126.378 155.707 127.073 156.564 127.073C157.421 127.073 158.116 126.378 158.116 125.521Z" fill="#222222"/>
<path d="M168.462 125.521C168.462 124.664 167.767 123.969 166.91 123.969C166.052 123.969 165.357 124.664 165.357 125.521C165.357 126.378 166.052 127.073 166.91 127.073C167.767 127.073 168.462 126.378 168.462 125.521Z" fill="#222222"/>
<path d="M49.4694 130.694C49.4694 129.837 48.7745 129.142 47.9173 129.142C47.0601 129.142 46.3652 129.837 46.3652 130.694C46.3652 131.552 47.0601 132.246 47.9173 132.246C48.7745 132.246 49.4694 131.552 49.4694 130.694Z" fill="#222222"/>
<path d="M54.6432 130.694C54.6432 129.837 53.9483 129.142 53.0911 129.142C52.234 129.142 51.5391 129.837 51.5391 130.694C51.5391 131.552 52.234 132.246 53.0911 132.246C53.9483 132.246 54.6432 131.552 54.6432 130.694Z" fill="#222222"/>
<path d="M59.8171 130.694C59.8171 129.837 59.1222 129.142 58.265 129.142C57.4078 129.142 56.7129 129.837 56.7129 130.694C56.7129 131.552 57.4078 132.246 58.265 132.246C59.1222 132.246 59.8171 131.552 59.8171 130.694Z" fill="#222222"/>
<path d="M64.9909 130.694C64.9909 129.837 64.296 129.142 63.4388 129.142C62.5816 129.142 61.8867 129.837 61.8867 130.694C61.8867 131.552 62.5816 132.246 63.4388 132.246C64.296 132.246 64.9909 131.552 64.9909 130.694Z" fill="#222222"/>
<path d="M75.3366 130.694C75.3366 129.837 74.6417 129.142 73.7845 129.142C72.9273 129.142 72.2324 129.837 72.2324 130.694C72.2324 131.552 72.9273 132.246 73.7845 132.246C74.6417 132.246 75.3366 131.552 75.3366 130.694Z" fill="#222222"/>
<path d="M80.5104 130.694C80.5104 129.837 79.8155 129.142 78.9583 129.142C78.1011 129.142 77.4062 129.837 77.4062 130.694C77.4062 131.552 78.1011 132.246 78.9583 132.246C79.8155 132.246 80.5104 131.552 80.5104 130.694Z" fill="#222222"/>
<path d="M85.6842 130.694C85.6842 129.837 84.9894 129.142 84.1322 129.142C83.275 129.142 82.5801 129.837 82.5801 130.694C82.5801 131.552 83.275 132.246 84.1322 132.246C84.9894 132.246 85.6842 131.552 85.6842 130.694Z" fill="#222222"/>
<path d="M101.206 130.694C101.206 129.837 100.511 129.142 99.6536 129.142C98.7965 129.142 98.1016 129.837 98.1016 130.694C98.1016 131.552 98.7965 132.246 99.6536 132.246C100.511 132.246 101.206 131.552 101.206 130.694Z" fill="#222222"/>
<path d="M111.553 130.694C111.553 129.837 110.858 129.142 110.001 129.142C109.144 129.142 108.449 129.837 108.449 130.694C108.449 131.552 109.144 132.246 110.001 132.246C110.858 132.246 111.553 131.552 111.553 130.694Z" fill="#222222"/>
<path d="M127.073 130.694C127.073 129.837 126.378 129.142 125.521 129.142C124.664 129.142 123.969 129.837 123.969 130.694C123.969 131.552 124.664 132.246 125.521 132.246C126.378 132.246 127.073 131.552 127.073 130.694Z" fill="#222222"/>
<path d="M158.116 130.694C158.116 129.837 157.421 129.142 156.564 129.142C155.707 129.142 155.012 129.837 155.012 130.694C155.012 131.552 155.707 132.246 156.564 132.246C157.421 132.246 158.116 131.552 158.116 130.694Z" fill="#222222"/>
<path d="M163.288 130.694C163.288 129.837 162.593 129.142 161.736 129.142C160.878 129.142 160.184 129.837 160.184 130.694C160.184 131.552 160.878 132.246 161.736 132.246C162.593 132.246 163.288 131.552 163.288 130.694Z" fill="#222222"/>
<path d="M90.8581 135.868C90.8581 135.011 90.1632 134.316 89.306 134.316C88.4488 134.316 87.7539 135.011 87.7539 135.868C87.7539 136.725 88.4488 137.42 89.306 137.42C90.1632 137.42 90.8581 136.725 90.8581 135.868Z" fill="#222222"/>
<path d="M96.0319 135.868C96.0319 135.011 95.337 134.316 94.4798 134.316C93.6226 134.316 92.9277 135.011 92.9277 135.868C92.9277 136.725 93.6226 137.42 94.4798 137.42C95.337 137.42 96.0319 136.725 96.0319 135.868Z" fill="#222222"/>
<path d="M111.553 135.868C111.553 135.011 110.858 134.316 110.001 134.316C109.144 134.316 108.449 135.011 108.449 135.868C108.449 136.725 109.144 137.42 110.001 137.42C110.858 137.42 111.553 136.725 111.553 135.868Z" fill="#222222"/>
<path d="M116.725 135.868C116.725 135.011 116.03 134.316 115.173 134.316C114.316 134.316 113.621 135.011 113.621 135.868C113.621 136.725 114.316 137.42 115.173 137.42C116.03 137.42 116.725 136.725 116.725 135.868Z" fill="#222222"/>
<path d="M121.899 135.868C121.899 135.011 121.204 134.316 120.347 134.316C119.49 134.316 118.795 135.011 118.795 135.868C118.795 136.725 119.49 137.42 120.347 137.42C121.204 137.42 121.899 136.725 121.899 135.868Z" fill="#222222"/>
<path d="M127.073 135.868C127.073 135.011 126.378 134.316 125.521 134.316C124.664 134.316 123.969 135.011 123.969 135.868C123.969 136.725 124.664 137.42 125.521 137.42C126.378 137.42 127.073 136.725 127.073 135.868Z" fill="#222222"/>
<path d="M158.116 135.868C158.116 135.011 157.421 134.316 156.564 134.316C155.707 134.316 155.012 135.011 155.012 135.868C155.012 136.725 155.707 137.42 156.564 137.42C157.421 137.42 158.116 136.725 158.116 135.868Z" fill="#222222"/>
<path d="M163.288 135.868C163.288 135.011 162.593 134.316 161.736 134.316C160.878 134.316 160.184 135.011 160.184 135.868C160.184 136.725 160.878 137.42 161.736 137.42C162.593 137.42 163.288 136.725 163.288 135.868Z" fill="#222222"/>
<path d="M173.635 135.868C173.635 135.011 172.941 134.316 172.083 134.316C171.226 134.316 170.531 135.011 170.531 135.868C170.531 136.725 171.226 137.42 172.083 137.42C172.941 137.42 173.635 136.725 173.635 135.868Z" fill="#222222"/>
<path d="M90.8581 141.042C90.8581 140.184 90.1632 139.49 89.306 139.49C88.4488 139.49 87.7539 140.184 87.7539 141.042C87.7539 141.899 88.4488 142.594 89.306 142.594C90.1632 142.594 90.8581 141.899 90.8581 141.042Z" fill="#222222"/>
<path d="M101.206 141.042C101.206 140.184 100.511 139.49 99.6536 139.49C98.7965 139.49 98.1016 140.184 98.1016 141.042C98.1016 141.899 98.7965 142.594 99.6536 142.594C100.511 142.594 101.206 141.899 101.206 141.042Z" fill="#222222"/>
<path d="M106.38 141.042C106.38 140.184 105.685 139.49 104.827 139.49C103.97 139.49 103.275 140.184 103.275 141.042C103.275 141.899 103.97 142.594 104.827 142.594C105.685 142.594 106.38 141.899 106.38 141.042Z" fill="#222222"/>
<path d="M111.553 141.042C111.553 140.184 110.858 139.49 110.001 139.49C109.144 139.49 108.449 140.184 108.449 141.042C108.449 141.899 109.144 142.594 110.001 142.594C110.858 142.594 111.553 141.899 111.553 141.042Z" fill="#222222"/>
<path d="M127.073 141.042C127.073 140.184 126.378 139.49 125.521 139.49C124.664 139.49 123.969 140.184 123.969 141.042C123.969 141.899 124.664 142.594 125.521 142.594C126.378 142.594 127.073 141.899 127.073 141.042Z" fill="#222222"/>
<path d="M150.941 129.142H136.316C135.212 129.142 134.316 129.837 134.316 130.694C134.316 131.552 135.212 132.246 136.316 132.246H150.941C152.046 132.246 152.941 131.552 152.941 130.694C152.941 129.837 152.046 129.142 150.941 129.142Z" fill="#222222"/>
<path d="M152.942 136.316C152.942 135.211 152.247 134.316 151.39 134.316C150.533 134.316 149.838 135.211 149.838 136.316V150.941C149.838 152.045 150.533 152.941 151.39 152.941C152.247 152.941 152.942 152.045 152.942 150.941V136.316Z" fill="#222222"/>
<path d="M145.768 149.837H131.143C130.038 149.837 129.143 150.532 129.143 151.389C129.143 152.246 130.038 152.941 131.143 152.941H145.768C146.872 152.941 147.768 152.246 147.768 151.389C147.768 150.532 146.872 149.837 145.768 149.837Z" fill="#222222"/>
<path d="M132.247 131.142C132.247 130.038 131.552 129.142 130.695 129.142C129.837 129.142 129.143 130.038 129.143 131.142V145.767C129.143 146.872 129.837 147.767 130.695 147.767C131.552 147.767 132.247 146.872 132.247 145.767V131.142Z" fill="#222222"/>
<path d="M142.594 141.042C142.594 140.184 141.9 139.49 141.042 139.49C140.185 139.49 139.49 140.184 139.49 141.042C139.49 141.899 140.185 142.594 141.042 142.594C141.9 142.594 142.594 141.899 142.594 141.042Z" fill="#222222"/>
<path d="M168.462 141.042C168.462 140.184 167.767 139.49 166.91 139.49C166.052 139.49 165.357 140.184 165.357 141.042C165.357 141.899 166.052 142.594 166.91 142.594C167.767 142.594 168.462 141.899 168.462 141.042Z" fill="#222222"/>
<path d="M173.635 141.042C173.635 140.184 172.941 139.49 172.083 139.49C171.226 139.49 170.531 140.184 170.531 141.042C170.531 141.899 171.226 142.594 172.083 142.594C172.941 142.594 173.635 141.899 173.635 141.042Z" fill="#222222"/>
<path d="M90.8581 146.215C90.8581 145.358 90.1632 144.663 89.306 144.663C88.4488 144.663 87.7539 145.358 87.7539 146.215C87.7539 147.072 88.4488 147.767 89.306 147.767C90.1632 147.767 90.8581 147.072 90.8581 146.215Z" fill="#222222"/>
<path d="M106.38 146.215C106.38 145.358 105.685 144.663 104.827 144.663C103.97 144.663 103.275 145.358 103.275 146.215C103.275 147.072 103.97 147.767 104.827 147.767C105.685 147.767 106.38 147.072 106.38 146.215Z" fill="#222222"/>
<path d="M158.116 146.215C158.116 145.358 157.421 144.663 156.564 144.663C155.707 144.663 155.012 145.358 155.012 146.215C155.012 147.072 155.707 147.767 156.564 147.767C157.421 147.767 158.116 147.072 158.116 146.215Z" fill="#222222"/>
<path d="M163.288 146.215C163.288 145.358 162.593 144.663 161.736 144.663C160.878 144.663 160.184 145.358 160.184 146.215C160.184 147.072 160.878 147.767 161.736 147.767C162.593 147.767 163.288 147.072 163.288 146.215Z" fill="#222222"/>
<path d="M168.462 146.215C168.462 145.358 167.767 144.663 166.91 144.663C166.052 144.663 165.357 145.358 165.357 146.215C165.357 147.072 166.052 147.767 166.91 147.767C167.767 147.767 168.462 147.072 168.462 146.215Z" fill="#222222"/>
<path d="M111.553 151.389C111.553 150.532 110.858 149.837 110.001 149.837C109.144 149.837 108.449 150.532 108.449 151.389C108.449 152.246 109.144 152.941 110.001 152.941C110.858 152.941 111.553 152.246 111.553 151.389Z" fill="#222222"/>
<path d="M116.725 151.389C116.725 150.532 116.03 149.837 115.173 149.837C114.316 149.837 113.621 150.532 113.621 151.389C113.621 152.246 114.316 152.941 115.173 152.941C116.03 152.941 116.725 152.246 116.725 151.389Z" fill="#222222"/>
<path d="M121.899 151.389C121.899 150.532 121.204 149.837 120.347 149.837C119.49 149.837 118.795 150.532 118.795 151.389C118.795 152.246 119.49 152.941 120.347 152.941C121.204 152.941 121.899 152.246 121.899 151.389Z" fill="#222222"/>
<path d="M173.635 151.389C173.635 150.532 172.941 149.837 172.083 149.837C171.226 149.837 170.531 150.532 170.531 151.389C170.531 152.246 171.226 152.941 172.083 152.941C172.941 152.941 173.635 152.246 173.635 151.389Z" fill="#222222"/>
<path d="M90.8581 156.562C90.8581 155.705 90.1632 155.01 89.306 155.01C88.4488 155.01 87.7539 155.705 87.7539 156.562C87.7539 157.42 88.4488 158.115 89.306 158.115C90.1632 158.115 90.8581 157.42 90.8581 156.562Z" fill="#222222"/>
<path d="M96.0319 156.562C96.0319 155.705 95.337 155.01 94.4798 155.01C93.6226 155.01 92.9277 155.705 92.9277 156.562C92.9277 157.42 93.6226 158.115 94.4798 158.115C95.337 158.115 96.0319 157.42 96.0319 156.562Z" fill="#222222"/>
<path d="M101.206 156.562C101.206 155.705 100.511 155.01 99.6536 155.01C98.7965 155.01 98.1016 155.705 98.1016 156.562C98.1016 157.42 98.7965 158.115 99.6536 158.115C100.511 158.115 101.206 157.42 101.206 156.562Z" fill="#222222"/>
<path d="M121.899 156.562C121.899 155.705 121.204 155.01 120.347 155.01C119.49 155.01 118.795 155.705 118.795 156.562C118.795 157.42 119.49 158.115 120.347 158.115C121.204 158.115 121.899 157.42 121.899 156.562Z" fill="#222222"/>
<path d="M132.247 156.562C132.247 155.705 131.552 155.01 130.695 155.01C129.837 155.01 129.143 155.705 129.143 156.562C129.143 157.42 129.837 158.115 130.695 158.115C131.552 158.115 132.247 157.42 132.247 156.562Z" fill="#222222"/>
<path d="M147.768 156.562C147.768 155.705 147.073 155.01 146.216 155.01C145.359 155.01 144.664 155.705 144.664 156.562C144.664 157.42 145.359 158.115 146.216 158.115C147.073 158.115 147.768 157.42 147.768 156.562Z" fill="#222222"/>
<path d="M152.942 156.562C152.942 155.705 152.247 155.01 151.39 155.01C150.533 155.01 149.838 155.705 149.838 156.562C149.838 157.42 150.533 158.115 151.39 158.115C152.247 158.115 152.942 157.42 152.942 156.562Z" fill="#222222"/>
<path d="M163.288 156.562C163.288 155.705 162.593 155.01 161.736 155.01C160.878 155.01 160.184 155.705 160.184 156.562C160.184 157.42 160.878 158.115 161.736 158.115C162.593 158.115 163.288 157.42 163.288 156.562Z" fill="#222222"/>
<path d="M111.553 161.736C111.553 160.879 110.858 160.184 110.001 160.184C109.144 160.184 108.449 160.879 108.449 161.736C108.449 162.593 109.144 163.288 110.001 163.288C110.858 163.288 111.553 162.593 111.553 161.736Z" fill="#222222"/>
<path d="M116.725 161.736C116.725 160.879 116.03 160.184 115.173 160.184C114.316 160.184 113.621 160.879 113.621 161.736C113.621 162.593 114.316 163.288 115.173 163.288C116.03 163.288 116.725 162.593 116.725 161.736Z" fill="#222222"/>
<path d="M121.899 161.736C121.899 160.879 121.204 160.184 120.347 160.184C119.49 160.184 118.795 160.879 118.795 161.736C118.795 162.593 119.49 163.288 120.347 163.288C121.204 163.288 121.899 162.593 121.899 161.736Z" fill="#222222"/>
<path d="M137.421 161.736C137.421 160.879 136.726 160.184 135.868 160.184C135.011 160.184 134.316 160.879 134.316 161.736C134.316 162.593 135.011 163.288 135.868 163.288C136.726 163.288 137.421 162.593 137.421 161.736Z" fill="#222222"/>
<path d="M152.942 161.736C152.942 160.879 152.247 160.184 151.39 160.184C150.533 160.184 149.838 160.879 149.838 161.736C149.838 162.593 150.533 163.288 151.39 163.288C152.247 163.288 152.942 162.593 152.942 161.736Z" fill="#222222"/>
<path d="M158.116 161.736C158.116 160.879 157.421 160.184 156.564 160.184C155.707 160.184 155.012 160.879 155.012 161.736C155.012 162.593 155.707 163.288 156.564 163.288C157.421 163.288 158.116 162.593 158.116 161.736Z" fill="#222222"/>
<path d="M163.288 161.736C163.288 160.879 162.593 160.184 161.736 160.184C160.878 160.184 160.184 160.879 160.184 161.736C160.184 162.593 160.878 163.288 161.736 163.288C162.593 163.288 163.288 162.593 163.288 161.736Z" fill="#222222"/>
<path d="M173.635 161.736C173.635 160.879 172.941 160.184 172.083 160.184C171.226 160.184 170.531 160.879 170.531 161.736C170.531 162.593 171.226 163.288 172.083 163.288C172.941 163.288 173.635 162.593 173.635 161.736Z" fill="#222222"/>
<path d="M90.8581 166.91C90.8581 166.052 90.1632 165.358 89.306 165.358C88.4488 165.358 87.7539 166.052 87.7539 166.91C87.7539 167.767 88.4488 168.462 89.306 168.462C90.1632 168.462 90.8581 167.767 90.8581 166.91Z" fill="#222222"/>
<path d="M96.0319 166.91C96.0319 166.052 95.337 165.358 94.4798 165.358C93.6226 165.358 92.9277 166.052 92.9277 166.91C92.9277 167.767 93.6226 168.462 94.4798 168.462C95.337 168.462 96.0319 167.767 96.0319 166.91Z" fill="#222222"/>
<path d="M106.38 166.91C106.38 166.052 105.685 165.358 104.827 165.358C103.97 165.358 103.275 166.052 103.275 166.91C103.275 167.767 103.97 168.462 104.827 168.462C105.685 168.462 106.38 167.767 106.38 166.91Z" fill="#222222"/>
<path d="M111.553 166.91C111.553 166.052 110.858 165.358 110.001 165.358C109.144 165.358 108.449 166.052 108.449 166.91C108.449 167.767 109.144 168.462 110.001 168.462C110.858 168.462 111.553 167.767 111.553 166.91Z" fill="#222222"/>
<path d="M121.899 166.91C121.899 166.052 121.204 165.358 120.347 165.358C119.49 165.358 118.795 166.052 118.795 166.91C118.795 167.767 119.49 168.462 120.347 168.462C121.204 168.462 121.899 167.767 121.899 166.91Z" fill="#222222"/>
<path d="M127.073 166.91C127.073 166.052 126.378 165.358 125.521 165.358C124.664 165.358 123.969 166.052 123.969 166.91C123.969 167.767 124.664 168.462 125.521 168.462C126.378 168.462 127.073 167.767 127.073 166.91Z" fill="#222222"/>
<path d="M132.247 166.91C132.247 166.052 131.552 165.358 130.695 165.358C129.837 165.358 129.143 166.052 129.143 166.91C129.143 167.767 129.837 168.462 130.695 168.462C131.552 168.462 132.247 167.767 132.247 166.91Z" fill="#222222"/>
<path d="M158.116 166.91C158.116 166.052 157.421 165.358 156.564 165.358C155.707 165.358 155.012 166.052 155.012 166.91C155.012 167.767 155.707 168.462 156.564 168.462C157.421 168.462 158.116 167.767 158.116 166.91Z" fill="#222222"/>
<path d="M96.0319 172.083C96.0319 171.226 95.337 170.531 94.4798 170.531C93.6226 170.531 92.9277 171.226 92.9277 172.083C92.9277 172.94 93.6226 173.635 94.4798 173.635C95.337 173.635 96.0319 172.94 96.0319 172.083Z" fill="#222222"/>
<path d="M101.206 172.083C101.206 171.226 100.511 170.531 99.6536 170.531C98.7965 170.531 98.1016 171.226 98.1016 172.083C98.1016 172.94 98.7965 173.635 99.6536 173.635C100.511 173.635 101.206 172.94 101.206 172.083Z" fill="#222222"/>
<path d="M111.553 172.083C111.553 171.226 110.858 170.531 110.001 170.531C109.144 170.531 108.449 171.226 108.449 172.083C108.449 172.94 109.144 173.635 110.001 173.635C110.858 173.635 111.553 172.94 111.553 172.083Z" fill="#222222"/>
<path d="M116.725 172.083C116.725 171.226 116.03 170.531 115.173 170.531C114.316 170.531 113.621 171.226 113.621 172.083C113.621 172.94 114.316 173.635 115.173 173.635C116.03 173.635 116.725 172.94 116.725 172.083Z" fill="#222222"/>
<path d="M121.899 172.083C121.899 171.226 121.204 170.531 120.347 170.531C119.49 170.531 118.795 171.226 118.795 172.083C118.795 172.94 119.49 173.635 120.347 173.635C121.204 173.635 121.899 172.94 121.899 172.083Z" fill="#222222"/>
<path d="M127.073 172.083C127.073 171.226 126.378 170.531 125.521 170.531C124.664 170.531 123.969 171.226 123.969 172.083C123.969 172.94 124.664 173.635 125.521 173.635C126.378 173.635 127.073 172.94 127.073 172.083Z" fill="#222222"/>
<path d="M132.247 172.083C132.247 171.226 131.552 170.531 130.695 170.531C129.837 170.531 129.143 171.226 129.143 172.083C129.143 172.94 129.837 173.635 130.695 173.635C131.552 173.635 132.247 172.94 132.247 172.083Z" fill="#222222"/>
<path d="M147.768 172.083C147.768 171.226 147.073 170.531 146.216 170.531C145.359 170.531 144.664 171.226 144.664 172.083C144.664 172.94 145.359 173.635 146.216 173.635C147.073 173.635 147.768 172.94 147.768 172.083Z" fill="#222222"/>
<path d="M168.462 172.083C168.462 171.226 167.767 170.531 166.91 170.531C166.052 170.531 165.357 171.226 165.357 172.083C165.357 172.94 166.052 173.635 166.91 173.635C167.767 173.635 168.462 172.94 168.462 172.083Z" fill="#222222"/>
<path d="M173.635 172.083C173.635 171.226 172.941 170.531 172.083 170.531C171.226 170.531 170.531 171.226 170.531 172.083C170.531 172.94 171.226 173.635 172.083 173.635C172.941 173.635 173.635 172.94 173.635 172.083Z" fill="#222222"/>
<path d="M163.288 115.622C163.288 114.517 162.593 113.622 161.736 113.622C160.878 113.622 160.184 114.517 160.184 115.622V119.899C160.184 121.004 160.878 121.899 161.736 121.899C162.593 121.899 163.288 121.004 163.288 119.899V115.622Z" fill="#222222"/>
<path d="M163.288 131.142C163.288 130.038 162.593 129.142 161.736 129.142C160.878 129.142 160.184 130.038 160.184 131.142V135.42C160.184 136.525 160.878 137.42 161.736 137.42C162.593 137.42 163.288 136.525 163.288 135.42V131.142Z" fill="#222222"/>
<path d="M163.288 157.01C163.288 155.906 162.593 155.01 161.736 155.01C160.878 155.01 160.184 155.906 160.184 157.01V161.288C160.184 162.393 160.878 163.288 161.736 163.288C162.593 163.288 163.288 162.393 163.288 161.288V157.01Z" fill="#222222"/>
<path d="M109.553 139.49H100.102C98.997 139.49 98.1016 140.184 98.1016 141.042C98.1016 141.899 98.997 142.594 100.102 142.594H109.553C110.657 142.594 111.553 141.899 111.553 141.042C111.553 140.184 110.657 139.49 109.553 139.49Z" fill="#222222"/>
<path d="M171.635 139.49H167.357C166.253 139.49 165.357 140.184 165.357 141.042C165.357 141.899 166.253 142.594 167.357 142.594H171.635C172.74 142.594 173.635 141.899 173.635 141.042C173.635 140.184 172.74 139.49 171.635 139.49Z" fill="#222222"/>
<path d="M127.073 48.3647C127.073 47.2602 126.378 46.3647 125.521 46.3647C124.664 46.3647 123.969 47.2602 123.969 48.3647V57.8161C123.969 58.9207 124.664 59.8161 125.521 59.8161C126.378 59.8161 127.073 58.9207 127.073 57.8161V48.3647Z" fill="#222222"/>
<path d="M127.073 69.0592C127.073 67.9546 126.378 67.0592 125.521 67.0592C124.664 67.0592 123.969 67.9546 123.969 69.0592V73.337C123.969 74.4415 124.664 75.337 125.521 75.337C126.378 75.337 127.073 74.4415 127.073 73.337V69.0592Z" fill="#222222"/>
<path d="M127.073 131.142C127.073 130.038 126.378 129.142 125.521 129.142C124.664 129.142 123.969 130.038 123.969 131.142V140.594C123.969 141.698 124.664 142.594 125.521 142.594C126.378 142.594 127.073 141.698 127.073 140.594V131.142Z" fill="#222222"/>
<path d="M127.073 167.358C127.073 166.253 126.378 165.358 125.521 165.358C124.664 165.358 123.969 166.253 123.969 167.358V171.635C123.969 172.74 124.664 173.635 125.521 173.635C126.378 173.635 127.073 172.74 127.073 171.635V167.358Z" fill="#222222"/>
<path d="M152.942 157.01C152.942 155.906 152.247 155.01 151.39 155.01C150.533 155.01 149.838 155.906 149.838 157.01V161.288C149.838 162.393 150.533 163.288 151.39 163.288C152.247 163.288 152.942 162.393 152.942 161.288V157.01Z" fill="#222222"/>
<path d="M73.3383 103.274H69.0605C67.956 103.274 67.0605 103.969 67.0605 104.826C67.0605 105.684 67.956 106.378 69.0605 106.378H73.3383C74.4429 106.378 75.3383 105.684 75.3383 104.826C75.3383 103.969 74.4429 103.274 73.3383 103.274Z" fill="#222222"/>
<path d="M114.727 103.274H110.449C109.345 103.274 108.449 103.969 108.449 104.826C108.449 105.684 109.345 106.378 110.449 106.378H114.727C115.832 106.378 116.727 105.684 116.727 104.826C116.727 103.969 115.832 103.274 114.727 103.274Z" fill="#222222"/>
<path d="M130.247 103.274H125.969C124.864 103.274 123.969 103.969 123.969 104.826C123.969 105.684 124.864 106.378 125.969 106.378H130.247C131.351 106.378 132.247 105.684 132.247 104.826C132.247 103.969 131.351 103.274 130.247 103.274Z" fill="#222222"/>
<path d="M90.8581 58.7119C90.8581 57.6073 90.1632 56.7119 89.306 56.7119C88.4488 56.7119 87.7539 57.6073 87.7539 58.7119V62.9897C87.7539 64.0942 88.4488 64.9897 89.306 64.9897C90.1632 64.9897 90.8581 64.0942 90.8581 62.9897V58.7119Z" fill="#222222"/>
<path d="M90.8581 74.2328C90.8581 73.1282 90.1632 72.2328 89.306 72.2328C88.4488 72.2328 87.7539 73.1282 87.7539 74.2328V88.8577C87.7539 89.9623 88.4488 90.8577 89.306 90.8577C90.1632 90.8577 90.8581 89.9623 90.8581 88.8577V74.2328Z" fill="#222222"/>
<path d="M90.8581 115.622C90.8581 114.517 90.1632 113.622 89.306 113.622C88.4488 113.622 87.7539 114.517 87.7539 115.622V125.073C87.7539 126.178 88.4488 127.073 89.306 127.073C90.1632 127.073 90.8581 126.178 90.8581 125.073V115.622Z" fill="#222222"/>
<path d="M90.8581 136.316C90.8581 135.211 90.1632 134.316 89.306 134.316C88.4488 134.316 87.7539 135.211 87.7539 136.316V145.767C87.7539 146.872 88.4488 147.767 89.306 147.767C90.1632 147.767 90.8581 146.872 90.8581 145.767V136.316Z" fill="#222222"/>
<path d="M119.901 149.837H110.449C109.345 149.837 108.449 150.532 108.449 151.389C108.449 152.246 109.345 152.941 110.449 152.941H119.901C121.005 152.941 121.901 152.246 121.901 151.389C121.901 150.532 121.005 149.837 119.901 149.837Z" fill="#222222"/>
<path d="M109.553 82.58H105.275C104.171 82.58 103.275 83.2748 103.275 84.132C103.275 84.9892 104.171 85.6841 105.275 85.6841H109.553C110.658 85.6841 111.553 84.9892 111.553 84.132C111.553 83.2748 110.658 82.58 109.553 82.58Z" fill="#222222"/>
<path d="M125.073 82.58H120.795C119.69 82.58 118.795 83.2748 118.795 84.132C118.795 84.9892 119.69 85.6841 120.795 85.6841H125.073C126.177 85.6841 127.073 84.9892 127.073 84.132C127.073 83.2748 126.177 82.58 125.073 82.58Z" fill="#222222"/>
<path d="M109.553 92.9271H94.9277C93.8232 92.9271 92.9277 93.622 92.9277 94.4792C92.9277 95.3364 93.8232 96.0313 94.9277 96.0313H109.553C110.657 96.0313 111.553 95.3364 111.553 94.4792C111.553 93.622 110.657 92.9271 109.553 92.9271Z" fill="#222222"/>
<path d="M85.6842 100.101C85.6842 98.9961 84.9894 98.1007 84.1322 98.1007C83.275 98.1007 82.5801 98.9961 82.5801 100.101V109.552C82.5801 110.657 83.275 111.552 84.1322 111.552C84.9894 111.552 85.6842 110.657 85.6842 109.552V100.101Z" fill="#222222"/>
<path d="M119.901 160.184H110.449C109.345 160.184 108.449 160.879 108.449 161.736C108.449 162.593 109.345 163.288 110.449 163.288H119.901C121.005 163.288 121.901 162.593 121.901 161.736C121.901 160.879 121.005 160.184 119.901 160.184Z" fill="#222222"/>
<path d="M59.8171 94.9271C59.8171 93.8226 59.1222 92.9271 58.265 92.9271C57.4078 92.9271 56.7129 93.8226 56.7129 94.9271V99.2049C56.7129 100.309 57.4078 101.205 58.265 101.205C59.1222 101.205 59.8171 100.309 59.8171 99.2049V94.9271Z" fill="#222222"/>
<path d="M59.8171 125.969C59.8171 124.864 59.1222 123.969 58.265 123.969C57.4078 123.969 56.7129 124.864 56.7129 125.969V130.247C56.7129 131.351 57.4078 132.247 58.265 132.247C59.1222 132.247 59.8171 131.351 59.8171 130.247V125.969Z" fill="#222222"/>
<path d="M83.6838 129.142H74.2324C73.1279 129.142 72.2324 129.837 72.2324 130.694C72.2324 131.552 73.1279 132.246 74.2324 132.246H83.6838C84.7884 132.246 85.6838 131.552 85.6838 130.694C85.6838 129.837 84.7884 129.142 83.6838 129.142Z" fill="#222222"/>
<path d="M99.2055 67.0592H94.9277C93.8232 67.0592 92.9277 67.7541 92.9277 68.6113C92.9277 69.4685 93.8232 70.1634 94.9277 70.1634H99.2055C100.31 70.1634 101.205 69.4685 101.205 68.6113C101.205 67.7541 100.31 67.0592 99.2055 67.0592Z" fill="#222222"/>
<path d="M94.0317 165.358H89.7539C88.6493 165.358 87.7539 166.052 87.7539 166.91C87.7539 167.767 88.6493 168.462 89.7539 168.462H94.0317C95.1362 168.462 96.0317 167.767 96.0317 166.91C96.0317 166.052 95.1362 165.358 94.0317 165.358Z" fill="#222222"/>
<path d="M109.553 165.358H105.275C104.171 165.358 103.275 166.052 103.275 166.91C103.275 167.767 104.171 168.462 105.275 168.462H109.553C110.658 168.462 111.553 167.767 111.553 166.91C111.553 166.052 110.658 165.358 109.553 165.358Z" fill="#222222"/>
<path d="M114.727 51.5383H110.449C109.345 51.5383 108.449 52.2332 108.449 53.0904C108.449 53.9476 109.345 54.6425 110.449 54.6425H114.727C115.832 54.6425 116.727 53.9476 116.727 53.0904C116.727 52.2332 115.832 51.5383 114.727 51.5383Z" fill="#222222"/>
<path d="M111.553 58.7119C111.553 57.6073 110.858 56.7119 110.001 56.7119C109.144 56.7119 108.449 57.6073 108.449 58.7119V62.9897C108.449 64.0942 109.144 64.9897 110.001 64.9897C110.858 64.9897 111.553 64.0942 111.553 62.9897V58.7119Z" fill="#222222"/>
<path d="M111.553 74.2328C111.553 73.1282 110.858 72.2328 110.001 72.2328C109.144 72.2328 108.449 73.1282 108.449 74.2328V78.5105C108.449 79.6151 109.144 80.5105 110.001 80.5105C110.858 80.5105 111.553 79.6151 111.553 78.5105V74.2328Z" fill="#222222"/>
<path d="M111.553 125.969C111.553 124.864 110.858 123.969 110.001 123.969C109.144 123.969 108.449 124.864 108.449 125.969V135.42C108.449 136.525 109.144 137.42 110.001 137.42C110.858 137.42 111.553 136.525 111.553 135.42V125.969Z" fill="#222222"/>
<path d="M78.5102 118.795H74.2324C73.1279 118.795 72.2324 119.49 72.2324 120.347C72.2324 121.204 73.1279 121.899 74.2324 121.899H78.5102C79.6148 121.899 80.5102 121.204 80.5102 120.347C80.5102 119.49 79.6148 118.795 78.5102 118.795Z" fill="#222222"/>
<path d="M119.899 118.795H115.621C114.517 118.795 113.621 119.49 113.621 120.347C113.621 121.204 114.517 121.899 115.621 121.899H119.899C121.003 121.899 121.899 121.204 121.899 120.347C121.899 119.49 121.003 118.795 119.899 118.795Z" fill="#222222"/>
<path d="M158.116 110.448C158.116 109.343 157.421 108.448 156.564 108.448C155.707 108.448 155.012 109.343 155.012 110.448V114.726C155.012 115.83 155.707 116.726 156.564 116.726C157.421 116.726 158.116 115.83 158.116 114.726V110.448Z" fill="#222222"/>
<path d="M158.116 125.969C158.116 124.864 157.421 123.969 156.564 123.969C155.707 123.969 155.012 124.864 155.012 125.969V135.42C155.012 136.525 155.707 137.42 156.564 137.42C157.421 137.42 158.116 136.525 158.116 135.42V125.969Z" fill="#222222"/>
<path d="M158.116 162.184C158.116 161.079 157.421 160.184 156.564 160.184C155.707 160.184 155.012 161.079 155.012 162.184V166.462C155.012 167.566 155.707 168.462 156.564 168.462C157.421 168.462 158.116 167.566 158.116 166.462V162.184Z" fill="#222222"/>
<path d="M52.643 108.448H48.3652C47.2607 108.448 46.3652 109.143 46.3652 110C46.3652 110.857 47.2607 111.552 48.3652 111.552H52.643C53.7476 111.552 54.643 110.857 54.643 110C54.643 109.143 53.7476 108.448 52.643 108.448Z" fill="#222222"/>
<path d="M140.594 108.448H131.143C130.038 108.448 129.143 109.143 129.143 110C129.143 110.857 130.038 111.552 131.143 111.552H140.594C141.699 111.552 142.594 110.857 142.594 110C142.594 109.143 141.699 108.448 140.594 108.448Z" fill="#222222"/>
<path d="M171.635 108.448H167.357C166.253 108.448 165.357 109.143 165.357 110C165.357 110.857 166.253 111.552 167.357 111.552H171.635C172.74 111.552 173.635 110.857 173.635 110C173.635 109.143 172.74 108.448 171.635 108.448Z" fill="#222222"/>
<path d="M166.463 144.663H157.012C155.907 144.663 155.012 145.358 155.012 146.215C155.012 147.072 155.907 147.767 157.012 147.767H166.463C167.568 147.767 168.463 147.072 168.463 146.215C168.463 145.358 167.568 144.663 166.463 144.663Z" fill="#222222"/>
<path d="M142.594 89.7535C142.594 88.649 141.9 87.7535 141.042 87.7535C140.185 87.7535 139.49 88.649 139.49 89.7535V104.378C139.49 105.483 140.185 106.378 141.042 106.378C141.9 106.378 142.594 105.483 142.594 104.378V89.7535Z" fill="#222222"/>
<path d="M142.594 115.622C142.594 114.517 141.9 113.622 141.042 113.622C140.185 113.622 139.49 114.517 139.49 115.622V119.899C139.49 121.004 140.185 121.899 141.042 121.899C141.9 121.899 142.594 121.004 142.594 119.899V115.622Z" fill="#222222"/>
<path d="M64.9909 120.795C64.9909 119.691 64.296 118.795 63.4388 118.795C62.5816 118.795 61.8867 119.691 61.8867 120.795V130.247C61.8867 131.351 62.5816 132.247 63.4388 132.247C64.296 132.247 64.9909 131.351 64.9909 130.247V120.795Z" fill="#222222"/>
<path d="M104.379 46.3647H89.7539C88.6493 46.3647 87.7539 47.0596 87.7539 47.9168C87.7539 48.774 88.6493 49.4689 89.7539 49.4689H104.379C105.483 49.4689 106.379 48.774 106.379 47.9168C106.379 47.0596 105.483 46.3647 104.379 46.3647Z" fill="#222222"/>
<path d="M106.38 89.3056C106.38 88.4484 105.685 87.7535 104.827 87.7535C103.97 87.7535 103.275 88.4484 103.275 89.3056C103.275 90.1628 103.97 90.8577 104.827 90.8577C105.685 90.8577 106.38 90.1628 106.38 89.3056Z" fill="#222222"/>
<path d="M106.38 110.448C106.38 109.343 105.685 108.448 104.827 108.448C103.97 108.448 103.275 109.343 103.275 110.448V119.899C103.275 121.004 103.97 121.899 104.827 121.899C105.685 121.899 106.38 121.004 106.38 119.899V110.448Z" fill="#222222"/>
<path d="M132.247 74.2328C132.247 73.1282 131.552 72.2328 130.695 72.2328C129.837 72.2328 129.143 73.1282 129.143 74.2328V78.5105C129.143 79.6151 129.837 80.5105 130.695 80.5105C131.552 80.5105 132.247 79.6151 132.247 78.5105V74.2328Z" fill="#222222"/>
<path d="M132.247 89.7535C132.247 88.649 131.552 87.7535 130.695 87.7535C129.837 87.7535 129.143 88.649 129.143 89.7535V94.0313C129.143 95.1359 129.837 96.0313 130.695 96.0313C131.552 96.0313 132.247 95.1359 132.247 94.0313V89.7535Z" fill="#222222"/>
<path d="M132.247 167.358C132.247 166.253 131.552 165.358 130.695 165.358C129.837 165.358 129.143 166.253 129.143 167.358V171.635C129.143 172.74 129.837 173.635 130.695 173.635C131.552 173.635 132.247 172.74 132.247 171.635V167.358Z" fill="#222222"/>
<path d="M116.725 99.6528C116.725 98.7956 116.03 98.1007 115.173 98.1007C114.316 98.1007 113.621 98.7956 113.621 99.6528C113.621 100.51 114.316 101.205 115.173 101.205C116.03 101.205 116.725 100.51 116.725 99.6528Z" fill="#222222"/>
<path d="M119.899 87.7535H115.621C114.517 87.7535 113.621 88.4484 113.621 89.3056C113.621 90.1628 114.517 90.8577 115.621 90.8577H119.899C121.003 90.8577 121.899 90.1628 121.899 89.3056C121.899 88.4484 121.003 87.7535 119.899 87.7535Z" fill="#222222"/>
<path d="M161.289 87.7535H157.012C155.907 87.7535 155.012 88.4484 155.012 89.3056C155.012 90.1628 155.907 90.8577 157.012 90.8577H161.289C162.394 90.8577 163.289 90.1628 163.289 89.3056C163.289 88.4484 162.394 87.7535 161.289 87.7535Z" fill="#222222"/>
<path d="M171.635 98.1007H167.357C166.253 98.1007 165.357 98.7956 165.357 99.6528C165.357 100.51 166.253 101.205 167.357 101.205H171.635C172.74 101.205 173.635 100.51 173.635 99.6528C173.635 98.7956 172.74 98.1007 171.635 98.1007Z" fill="#222222"/>
<path d="M173.635 89.7535C173.635 88.649 172.941 87.7535 172.083 87.7535C171.226 87.7535 170.531 88.649 170.531 89.7535V94.0313C170.531 95.1359 171.226 96.0313 172.083 96.0313C172.941 96.0313 173.635 95.1359 173.635 94.0313V89.7535Z" fill="#222222"/>
<path d="M173.635 115.622C173.635 114.517 172.941 113.622 172.083 113.622C171.226 113.622 170.531 114.517 170.531 115.622V119.899C170.531 121.004 171.226 121.899 172.083 121.899C172.941 121.899 173.635 121.004 173.635 119.899V115.622Z" fill="#222222"/>
<path d="M173.635 135.868C173.635 135.011 172.941 134.316 172.083 134.316C171.226 134.316 170.531 135.011 170.531 135.868C170.531 136.725 171.226 137.42 172.083 137.42C172.941 137.42 173.635 136.725 173.635 135.868Z" fill="#222222"/>
<path d="M121.899 58.7119C121.899 57.6073 121.204 56.7119 120.347 56.7119C119.49 56.7119 118.795 57.6073 118.795 58.7119V68.1633C118.795 69.2678 119.49 70.1633 120.347 70.1633C121.204 70.1633 121.899 69.2678 121.899 68.1633V58.7119Z" fill="#222222"/>
<path d="M121.899 78.9585C121.899 78.1013 121.204 77.4064 120.347 77.4064C119.49 77.4064 118.795 78.1013 118.795 78.9585C118.795 79.8156 119.49 80.5105 120.347 80.5105C121.204 80.5105 121.899 79.8156 121.899 78.9585Z" fill="#222222"/>
<path d="M121.899 156.562C121.899 155.705 121.204 155.01 120.347 155.01C119.49 155.01 118.795 155.705 118.795 156.562C118.795 157.42 119.49 158.115 120.347 158.115C121.204 158.115 121.899 157.42 121.899 156.562Z" fill="#222222"/>
<path d="M121.899 167.358C121.899 166.253 121.204 165.358 120.347 165.358C119.49 165.358 118.795 166.253 118.795 167.358V171.635C118.795 172.74 119.49 173.635 120.347 173.635C121.204 173.635 121.899 172.74 121.899 171.635V167.358Z" fill="#222222"/>
<path d="M99.2053 155.01H89.7539C88.6493 155.01 87.7539 155.705 87.7539 156.562C87.7539 157.42 88.6493 158.115 89.7539 158.115H99.2053C100.31 158.115 101.205 157.42 101.205 156.562C101.205 155.705 100.31 155.01 99.2053 155.01Z" fill="#222222"/>
<path d="M101.206 115.622C101.206 114.517 100.511 113.622 99.6536 113.622C98.7965 113.622 98.1016 114.517 98.1016 115.622V130.247C98.1016 131.351 98.7965 132.247 99.6536 132.247C100.511 132.247 101.206 131.351 101.206 130.247V115.622Z" fill="#222222"/>
<path d="M96.0319 63.4376C96.0319 62.5804 95.337 61.8855 94.4798 61.8855C93.6226 61.8855 92.9277 62.5804 92.9277 63.4376C92.9277 64.2948 93.6226 64.9897 94.4798 64.9897C95.337 64.9897 96.0319 64.2948 96.0319 63.4376Z" fill="#222222"/>
<path d="M96.0319 115.622C96.0319 114.517 95.337 113.622 94.4798 113.622C93.6226 113.622 92.9277 114.517 92.9277 115.622V125.073C92.9277 126.178 93.6226 127.073 94.4798 127.073C95.337 127.073 96.0319 126.178 96.0319 125.073V115.622Z" fill="#222222"/>
<path d="M99.2055 170.531H94.9277C93.8232 170.531 92.9277 171.226 92.9277 172.083C92.9277 172.94 93.8232 173.635 94.9277 173.635H99.2055C100.31 173.635 101.205 172.94 101.205 172.083C101.205 171.226 100.31 170.531 99.2055 170.531Z" fill="#222222"/>
<path d="M171.635 170.531H167.357C166.253 170.531 165.357 171.226 165.357 172.083C165.357 172.94 166.253 173.635 167.357 173.635H171.635C172.74 173.635 173.635 172.94 173.635 172.083C173.635 171.226 172.74 170.531 171.635 170.531Z" fill="#222222"/>
<path d="M54.6432 125.969C54.6432 124.864 53.9483 123.969 53.0911 123.969C52.234 123.969 51.5391 124.864 51.5391 125.969V130.247C51.5391 131.351 52.234 132.247 53.0911 132.247C53.9483 132.247 54.6432 131.351 54.6432 130.247V125.969Z" fill="#222222"/>
<path d="M47.9082 47.9069H73.7762C75.1483 47.9069 76.4643 48.4519 77.4345 49.4222C78.4047 50.3924 78.9498 51.7083 78.9498 53.0805V73.7749C78.9498 75.147 78.4047 76.4629 77.4345 77.4331C76.4643 78.4034 75.1483 78.9485 73.7762 78.9485H53.0818C51.7097 78.9485 50.3938 78.4034 49.4235 77.4331C48.4533 76.4629 47.9082 75.147 47.9082 73.7749V47.9069Z" stroke="#222222" stroke-width="5.1736"/>
<path d="M55.668 55.6672H68.602C68.9417 55.6672 69.278 55.7341 69.5919 55.8641C69.9057 55.9941 70.1909 56.1847 70.4311 56.4249C70.6713 56.6651 70.8619 56.9503 70.9919 57.2641C71.1219 57.578 71.1888 57.9143 71.1888 58.254V68.6012C71.1888 69.2873 70.9162 69.9453 70.4311 70.4304C69.946 70.9155 69.288 71.188 68.602 71.188H58.2548C57.9151 71.188 57.5787 71.1211 57.2648 70.9911C56.951 70.8611 56.6658 70.6706 56.4256 70.4304C56.1854 70.1902 55.9949 69.905 55.8649 69.5912C55.7349 69.2773 55.668 68.9409 55.668 68.6012V55.6672Z" fill="#222222"/>
<path d="M172.094 47.9069V73.7749C172.094 75.147 171.549 76.4629 170.579 77.4331C169.609 78.4034 168.293 78.9485 166.921 78.9485H146.226C145.547 78.9485 144.874 78.8146 144.246 78.5546C143.619 78.2946 143.048 77.9136 142.568 77.4331C142.088 76.9527 141.707 76.3824 141.447 75.7547C141.187 75.127 141.053 74.4543 141.053 73.7749V53.0805C141.053 52.4011 141.187 51.7283 141.447 51.1006C141.707 50.4729 142.088 49.9026 142.568 49.4222C143.048 48.9418 143.619 48.5607 144.246 48.3007C144.874 48.0407 145.547 47.9069 146.226 47.9069H172.094Z" stroke="#222222" stroke-width="5.1736"/>
<path d="M164.333 55.6672V68.6012C164.333 69.2873 164.061 69.9453 163.576 70.4304C163.091 70.9155 162.433 71.188 161.747 71.188H151.399C150.713 71.188 150.055 70.9155 149.57 70.4304C149.085 69.9453 148.812 69.2873 148.812 68.6012V58.254C148.812 57.9143 148.879 57.578 149.009 57.2641C149.139 56.9503 149.33 56.6651 149.57 56.4249C149.81 56.1847 150.096 55.9941 150.409 55.8641C150.723 55.7341 151.06 55.6672 151.399 55.6672H164.333Z" fill="#222222"/>
<path d="M55.6686 141.052H73.7762C74.4556 141.052 75.1284 141.185 75.7561 141.445C76.3837 141.705 76.9541 142.087 77.4345 142.567C77.9149 143.047 78.296 143.618 78.556 144.245C78.816 144.873 78.9498 145.546 78.9498 146.225V166.92C78.9498 168.292 78.4047 169.608 77.4345 170.578C76.4643 171.548 75.1483 172.093 73.7762 172.093H47.9082V146.225C47.9082 145.546 48.042 144.873 48.302 144.245C48.562 143.618 48.9431 143.047 49.4235 142.567C49.9039 142.087 50.4743 141.705 51.102 141.445C51.7296 141.185 52.4024 141.052 53.0818 141.052H55.6686Z" stroke="#222222" stroke-width="5.1736"/>
<path d="M63.4284 148.812H68.602C69.288 148.812 69.946 149.085 70.4311 149.57C70.9162 150.055 71.1888 150.713 71.1888 151.399V161.746C71.1888 162.432 70.9162 163.09 70.4311 163.575C69.946 164.06 69.288 164.333 68.602 164.333H55.668V151.399C55.668 151.059 55.7349 150.723 55.8649 150.409C55.9949 150.095 56.1854 149.81 56.4256 149.57C56.6658 149.329 56.951 149.139 57.2648 149.009C57.5787 148.879 57.9151 148.812 58.2548 148.812H63.4284Z" fill="#222222"/>
</g>
<defs>
<clipPath id="clip0_495_3797">
<rect width="220" height="220" fill="white"/>
</clipPath>
</defs>
</svg>
