<svg xmlns="http://www.w3.org/2000/svg" xmlns:xlink="http://www.w3.org/1999/xlink" version="1.1" x="0" y="0" viewBox="0 0 220.0 264.0" width="220.0" height="264.0">

<rect x="6" y="6" width="208" height="208" fill="#FFFFFF" rx="20"></rect>

<path fill-rule="evenodd" clip-rule="evenodd" d="M25.0237 0C11.2035 0 0 11.2035 0 25.0237V238.976C0 252.797 11.2035 264 25.0237 264H194.976C208.797 264 220 252.797 220 238.976V25.0237C220 11.2035 208.797 0 194.976 0H25.0237ZM25.6825 9C16.469 9 9 16.469 9 25.6825V194.318C9 203.531 16.469 211 25.6825 211H194.318C203.531 211 211 203.531 211 194.318V25.6825C211 16.469 203.531 9 194.318 9H25.6825Z" fill="#222222"></path>
<text text-anchor="middle" font-family="sans-serif" x="110" y="235" fill="white" font-weight="bold" font-size="26px">
  <tspan dy="0.42em">SCAN ME</tspan>
</text>
<g transform="translate(20.0, 20.0)">
<g fill="#222222">
<rect x="58.503499999999995" y="0.9098999999999999" width="5.3994" height="5.3994" rx="4"></rect>
<rect x="65.70270000000001" y="0.9098999999999999" width="5.3994" height="5.3994" rx="4"></rect>
<rect x="72.9019" y="0.9098999999999999" width="5.3994" height="5.3994" rx="4"></rect>
<rect x="80.1011" y="0.9098999999999999" width="5.3994" height="5.3994" rx="4"></rect>
<rect x="101.6987" y="0.9098999999999999" width="5.3994" height="5.3994" rx="4"></rect>
<rect x="108.89789999999999" y="0.9098999999999999" width="5.3994" height="5.3994" rx="4"></rect>
<rect x="72.9019" y="8.1091" width="5.3994" height="5.3994" rx="4"></rect>
<rect x="87.30030000000001" y="8.1091" width="5.3994" height="5.3994" rx="4"></rect>
<rect x="94.4995" y="8.1091" width="5.3994" height="5.3994" rx="4"></rect>
<rect x="108.89789999999999" y="8.1091" width="5.3994" height="5.3994" rx="4"></rect>
<rect x="116.0971" y="8.1091" width="5.3994" height="5.3994" rx="4"></rect>
<rect x="58.503499999999995" y="15.3083" width="5.3994" height="5.3994" rx="4"></rect>
<rect x="87.30030000000001" y="15.3083" width="5.3994" height="5.3994" rx="4"></rect>
<rect x="101.6987" y="15.3083" width="5.3994" height="5.3994" rx="4"></rect>
<rect x="108.89789999999999" y="15.3083" width="5.3994" height="5.3994" rx="4"></rect>
<rect x="58.503499999999995" y="22.5075" width="5.3994" height="5.3994" rx="4"></rect>
<rect x="65.70270000000001" y="22.5075" width="5.3994" height="5.3994" rx="4"></rect>
<rect x="87.30030000000001" y="22.5075" width="5.3994" height="5.3994" rx="4"></rect>
<rect x="101.6987" y="22.5075" width="5.3994" height="5.3994" rx="4"></rect>
<rect x="65.70270000000001" y="29.706699999999998" width="5.3994" height="5.3994" rx="4"></rect>
<rect x="72.9019" y="29.706699999999998" width="5.3994" height="5.3994" rx="4"></rect>
<rect x="101.6987" y="29.706699999999998" width="5.3994" height="5.3994" rx="4"></rect>
<rect x="108.89789999999999" y="29.706699999999998" width="5.3994" height="5.3994" rx="4"></rect>
<rect x="58.503499999999995" y="36.905899999999995" width="5.3994" height="5.3994" rx="4"></rect>
<rect x="80.1011" y="36.905899999999995" width="5.3994" height="5.3994" rx="4"></rect>
<rect x="87.30030000000001" y="36.905899999999995" width="5.3994" height="5.3994" rx="4"></rect>
<rect x="108.89789999999999" y="36.905899999999995" width="5.3994" height="5.3994" rx="4"></rect>
<rect x="116.0971" y="36.905899999999995" width="5.3994" height="5.3994" rx="4"></rect>
<rect x="58.503499999999995" y="44.1051" width="5.3994" height="5.3994" rx="4"></rect>
<rect x="72.9019" y="44.1051" width="5.3994" height="5.3994" rx="4"></rect>
<rect x="87.30030000000001" y="44.1051" width="5.3994" height="5.3994" rx="4"></rect>
<rect x="101.6987" y="44.1051" width="5.3994" height="5.3994" rx="4"></rect>
<rect x="116.0971" y="44.1051" width="5.3994" height="5.3994" rx="4"></rect>
<rect x="58.503499999999995" y="51.3043" width="5.3994" height="5.3994" rx="4"></rect>
<rect x="80.1011" y="51.3043" width="5.3994" height="5.3994" rx="4"></rect>
<rect x="87.30030000000001" y="51.3043" width="5.3994" height="5.3994" rx="4"></rect>
<rect x="101.6987" y="51.3043" width="5.3994" height="5.3994" rx="4"></rect>
<rect x="108.89789999999999" y="51.3043" width="5.3994" height="5.3994" rx="4"></rect>
<rect x="8.1091" y="58.503499999999995" width="5.3994" height="5.3994" rx="4"></rect>
<rect x="22.5075" y="58.503499999999995" width="5.3994" height="5.3994" rx="4"></rect>
<rect x="36.905899999999995" y="58.503499999999995" width="5.3994" height="5.3994" rx="4"></rect>
<rect x="44.1051" y="58.503499999999995" width="5.3994" height="5.3994" rx="4"></rect>
<rect x="51.3043" y="58.503499999999995" width="5.3994" height="5.3994" rx="4"></rect>
<rect x="58.503499999999995" y="58.503499999999995" width="5.3994" height="5.3994" rx="4"></rect>
<rect x="80.1011" y="58.503499999999995" width="5.3994" height="5.3994" rx="4"></rect>
<rect x="94.4995" y="58.503499999999995" width="5.3994" height="5.3994" rx="4"></rect>
<rect x="101.6987" y="58.503499999999995" width="5.3994" height="5.3994" rx="4"></rect>
<rect x="116.0971" y="58.503499999999995" width="5.3994" height="5.3994" rx="4"></rect>
<rect x="123.2963" y="58.503499999999995" width="5.3994" height="5.3994" rx="4"></rect>
<rect x="130.4955" y="58.503499999999995" width="5.3994" height="5.3994" rx="4"></rect>
<rect x="137.69469999999998" y="58.503499999999995" width="5.3994" height="5.3994" rx="4"></rect>
<rect x="152.0931" y="58.503499999999995" width="5.3994" height="5.3994" rx="4"></rect>
<rect x="159.29229999999998" y="58.503499999999995" width="5.3994" height="5.3994" rx="4"></rect>
<rect x="173.6907" y="58.503499999999995" width="5.3994" height="5.3994" rx="4"></rect>
<rect x="15.3083" y="65.70270000000001" width="5.3994" height="5.3994" rx="4"></rect>
<rect x="65.70270000000001" y="65.70270000000001" width="5.3994" height="5.3994" rx="4"></rect>
<rect x="72.9019" y="65.70270000000001" width="5.3994" height="5.3994" rx="4"></rect>
<rect x="80.1011" y="65.70270000000001" width="5.3994" height="5.3994" rx="4"></rect>
<rect x="87.30030000000001" y="65.70270000000001" width="5.3994" height="5.3994" rx="4"></rect>
<rect x="116.0971" y="65.70270000000001" width="5.3994" height="5.3994" rx="4"></rect>
<rect x="130.4955" y="65.70270000000001" width="5.3994" height="5.3994" rx="4"></rect>
<rect x="173.6907" y="65.70270000000001" width="5.3994" height="5.3994" rx="4"></rect>
<rect x="0.9098999999999999" y="72.9019" width="5.3994" height="5.3994" rx="4"></rect>
<rect x="8.1091" y="72.9019" width="5.3994" height="5.3994" rx="4"></rect>
<rect x="15.3083" y="72.9019" width="5.3994" height="5.3994" rx="4"></rect>
<rect x="22.5075" y="72.9019" width="5.3994" height="5.3994" rx="4"></rect>
<rect x="44.1051" y="72.9019" width="5.3994" height="5.3994" rx="4"></rect>
<rect x="51.3043" y="72.9019" width="5.3994" height="5.3994" rx="4"></rect>
<rect x="80.1011" y="72.9019" width="5.3994" height="5.3994" rx="4"></rect>
<rect x="94.4995" y="72.9019" width="5.3994" height="5.3994" rx="4"></rect>
<rect x="123.2963" y="72.9019" width="5.3994" height="5.3994" rx="4"></rect>
<rect x="130.4955" y="72.9019" width="5.3994" height="5.3994" rx="4"></rect>
<rect x="166.49149999999997" y="72.9019" width="5.3994" height="5.3994" rx="4"></rect>
<rect x="173.6907" y="72.9019" width="5.3994" height="5.3994" rx="4"></rect>
<rect x="29.706699999999998" y="80.1011" width="5.3994" height="5.3994" rx="4"></rect>
<rect x="36.905899999999995" y="80.1011" width="5.3994" height="5.3994" rx="4"></rect>
<rect x="51.3043" y="80.1011" width="5.3994" height="5.3994" rx="4"></rect>
<rect x="87.30030000000001" y="80.1011" width="5.3994" height="5.3994" rx="4"></rect>
<rect x="94.4995" y="80.1011" width="5.3994" height="5.3994" rx="4"></rect>
<rect x="108.89789999999999" y="80.1011" width="5.3994" height="5.3994" rx="4"></rect>
<rect x="116.0971" y="80.1011" width="5.3994" height="5.3994" rx="4"></rect>
<rect x="130.4955" y="80.1011" width="5.3994" height="5.3994" rx="4"></rect>
<rect x="0.9098999999999999" y="87.30030000000001" width="5.3994" height="5.3994" rx="4"></rect>
<rect x="8.1091" y="87.30030000000001" width="5.3994" height="5.3994" rx="4"></rect>
<rect x="44.1051" y="87.30030000000001" width="5.3994" height="5.3994" rx="4"></rect>
<rect x="51.3043" y="87.30030000000001" width="5.3994" height="5.3994" rx="4"></rect>
<rect x="80.1011" y="87.30030000000001" width="5.3994" height="5.3994" rx="4"></rect>
<rect x="101.6987" y="87.30030000000001" width="5.3994" height="5.3994" rx="4"></rect>
<rect x="116.0971" y="87.30030000000001" width="5.3994" height="5.3994" rx="4"></rect>
<rect x="123.2963" y="87.30030000000001" width="5.3994" height="5.3994" rx="4"></rect>
<rect x="130.4955" y="87.30030000000001" width="5.3994" height="5.3994" rx="4"></rect>
<rect x="152.0931" y="87.30030000000001" width="5.3994" height="5.3994" rx="4"></rect>
<rect x="166.49149999999997" y="87.30030000000001" width="5.3994" height="5.3994" rx="4"></rect>
<rect x="173.6907" y="87.30030000000001" width="5.3994" height="5.3994" rx="4"></rect>
<rect x="15.3083" y="94.4995" width="5.3994" height="5.3994" rx="4"></rect>
<rect x="29.706699999999998" y="94.4995" width="5.3994" height="5.3994" rx="4"></rect>
<rect x="58.503499999999995" y="94.4995" width="5.3994" height="5.3994" rx="4"></rect>
<rect x="65.70270000000001" y="94.4995" width="5.3994" height="5.3994" rx="4"></rect>
<rect x="72.9019" y="94.4995" width="5.3994" height="5.3994" rx="4"></rect>
<rect x="80.1011" y="94.4995" width="5.3994" height="5.3994" rx="4"></rect>
<rect x="87.30030000000001" y="94.4995" width="5.3994" height="5.3994" rx="4"></rect>
<rect x="123.2963" y="94.4995" width="5.3994" height="5.3994" rx="4"></rect>
<rect x="130.4955" y="94.4995" width="5.3994" height="5.3994" rx="4"></rect>
<rect x="137.69469999999998" y="94.4995" width="5.3994" height="5.3994" rx="4"></rect>
<rect x="152.0931" y="94.4995" width="5.3994" height="5.3994" rx="4"></rect>
<rect x="159.29229999999998" y="94.4995" width="5.3994" height="5.3994" rx="4"></rect>
<rect x="173.6907" y="94.4995" width="5.3994" height="5.3994" rx="4"></rect>
<rect x="0.9098999999999999" y="101.6987" width="5.3994" height="5.3994" rx="4"></rect>
<rect x="22.5075" y="101.6987" width="5.3994" height="5.3994" rx="4"></rect>
<rect x="36.905899999999995" y="101.6987" width="5.3994" height="5.3994" rx="4"></rect>
<rect x="44.1051" y="101.6987" width="5.3994" height="5.3994" rx="4"></rect>
<rect x="58.503499999999995" y="101.6987" width="5.3994" height="5.3994" rx="4"></rect>
<rect x="65.70270000000001" y="101.6987" width="5.3994" height="5.3994" rx="4"></rect>
<rect x="72.9019" y="101.6987" width="5.3994" height="5.3994" rx="4"></rect>
<rect x="80.1011" y="101.6987" width="5.3994" height="5.3994" rx="4"></rect>
<rect x="94.4995" y="101.6987" width="5.3994" height="5.3994" rx="4"></rect>
<rect x="101.6987" y="101.6987" width="5.3994" height="5.3994" rx="4"></rect>
<rect x="130.4955" y="101.6987" width="5.3994" height="5.3994" rx="4"></rect>
<rect x="159.29229999999998" y="101.6987" width="5.3994" height="5.3994" rx="4"></rect>
<rect x="173.6907" y="101.6987" width="5.3994" height="5.3994" rx="4"></rect>
<rect x="8.1091" y="108.89789999999999" width="5.3994" height="5.3994" rx="4"></rect>
<rect x="15.3083" y="108.89789999999999" width="5.3994" height="5.3994" rx="4"></rect>
<rect x="22.5075" y="108.89789999999999" width="5.3994" height="5.3994" rx="4"></rect>
<rect x="29.706699999999998" y="108.89789999999999" width="5.3994" height="5.3994" rx="4"></rect>
<rect x="58.503499999999995" y="108.89789999999999" width="5.3994" height="5.3994" rx="4"></rect>
<rect x="65.70270000000001" y="108.89789999999999" width="5.3994" height="5.3994" rx="4"></rect>
<rect x="72.9019" y="108.89789999999999" width="5.3994" height="5.3994" rx="4"></rect>
<rect x="87.30030000000001" y="108.89789999999999" width="5.3994" height="5.3994" rx="4"></rect>
<rect x="94.4995" y="108.89789999999999" width="5.3994" height="5.3994" rx="4"></rect>
<rect x="101.6987" y="108.89789999999999" width="5.3994" height="5.3994" rx="4"></rect>
<rect x="116.0971" y="108.89789999999999" width="5.3994" height="5.3994" rx="4"></rect>
<rect x="137.69469999999998" y="108.89789999999999" width="5.3994" height="5.3994" rx="4"></rect>
<rect x="144.89389999999997" y="108.89789999999999" width="5.3994" height="5.3994" rx="4"></rect>
<rect x="152.0931" y="108.89789999999999" width="5.3994" height="5.3994" rx="4"></rect>
<rect x="166.49149999999997" y="108.89789999999999" width="5.3994" height="5.3994" rx="4"></rect>
<rect x="0.9098999999999999" y="116.0971" width="5.3994" height="5.3994" rx="4"></rect>
<rect x="8.1091" y="116.0971" width="5.3994" height="5.3994" rx="4"></rect>
<rect x="15.3083" y="116.0971" width="5.3994" height="5.3994" rx="4"></rect>
<rect x="22.5075" y="116.0971" width="5.3994" height="5.3994" rx="4"></rect>
<rect x="36.905899999999995" y="116.0971" width="5.3994" height="5.3994" rx="4"></rect>
<rect x="44.1051" y="116.0971" width="5.3994" height="5.3994" rx="4"></rect>
<rect x="51.3043" y="116.0971" width="5.3994" height="5.3994" rx="4"></rect>
<rect x="72.9019" y="116.0971" width="5.3994" height="5.3994" rx="4"></rect>
<rect x="87.30030000000001" y="116.0971" width="5.3994" height="5.3994" rx="4"></rect>
<rect x="108.89789999999999" y="116.0971" width="5.3994" height="5.3994" rx="4"></rect>
<rect x="116.0971" y="116.0971" width="5.3994" height="5.3994" rx="4"></rect>
<rect x="123.2963" y="116.0971" width="5.3994" height="5.3994" rx="4"></rect>
<rect x="130.4955" y="116.0971" width="5.3994" height="5.3994" rx="4"></rect>
<rect x="137.69469999999998" y="116.0971" width="5.3994" height="5.3994" rx="4"></rect>
<rect x="144.89389999999997" y="116.0971" width="5.3994" height="5.3994" rx="4"></rect>
<rect x="152.0931" y="116.0971" width="5.3994" height="5.3994" rx="4"></rect>
<rect x="159.29229999999998" y="116.0971" width="5.3994" height="5.3994" rx="4"></rect>
<rect x="58.503499999999995" y="123.2963" width="5.3994" height="5.3994" rx="4"></rect>
<rect x="65.70270000000001" y="123.2963" width="5.3994" height="5.3994" rx="4"></rect>
<rect x="87.30030000000001" y="123.2963" width="5.3994" height="5.3994" rx="4"></rect>
<rect x="94.4995" y="123.2963" width="5.3994" height="5.3994" rx="4"></rect>
<rect x="101.6987" y="123.2963" width="5.3994" height="5.3994" rx="4"></rect>
<rect x="108.89789999999999" y="123.2963" width="5.3994" height="5.3994" rx="4"></rect>
<rect x="116.0971" y="123.2963" width="5.3994" height="5.3994" rx="4"></rect>
<rect x="144.89389999999997" y="123.2963" width="5.3994" height="5.3994" rx="4"></rect>
<rect x="152.0931" y="123.2963" width="5.3994" height="5.3994" rx="4"></rect>
<rect x="159.29229999999998" y="123.2963" width="5.3994" height="5.3994" rx="4"></rect>
<rect x="173.6907" y="123.2963" width="5.3994" height="5.3994" rx="4"></rect>
<rect x="58.503499999999995" y="130.4955" width="5.3994" height="5.3994" rx="4"></rect>
<rect x="72.9019" y="130.4955" width="5.3994" height="5.3994" rx="4"></rect>
<rect x="80.1011" y="130.4955" width="5.3994" height="5.3994" rx="4"></rect>
<rect x="87.30030000000001" y="130.4955" width="5.3994" height="5.3994" rx="4"></rect>
<rect x="108.89789999999999" y="130.4955" width="5.3994" height="5.3994" rx="4"></rect>
<rect x="116.0971" y="130.4955" width="5.3994" height="5.3994" rx="4"></rect>
<rect x="130.4955" y="130.4955" width="5.3994" height="5.3994" rx="4"></rect>
<rect x="144.89389999999997" y="130.4955" width="5.3994" height="5.3994" rx="4"></rect>
<rect x="166.49149999999997" y="130.4955" width="5.3994" height="5.3994" rx="4"></rect>
<rect x="173.6907" y="130.4955" width="5.3994" height="5.3994" rx="4"></rect>
<rect x="58.503499999999995" y="137.69469999999998" width="5.3994" height="5.3994" rx="4"></rect>
<rect x="80.1011" y="137.69469999999998" width="5.3994" height="5.3994" rx="4"></rect>
<rect x="116.0971" y="137.69469999999998" width="5.3994" height="5.3994" rx="4"></rect>
<rect x="144.89389999999997" y="137.69469999999998" width="5.3994" height="5.3994" rx="4"></rect>
<rect x="152.0931" y="137.69469999999998" width="5.3994" height="5.3994" rx="4"></rect>
<rect x="159.29229999999998" y="137.69469999999998" width="5.3994" height="5.3994" rx="4"></rect>
<rect x="166.49149999999997" y="137.69469999999998" width="5.3994" height="5.3994" rx="4"></rect>
<rect x="87.30030000000001" y="144.89389999999997" width="5.3994" height="5.3994" rx="4"></rect>
<rect x="94.4995" y="144.89389999999997" width="5.3994" height="5.3994" rx="4"></rect>
<rect x="101.6987" y="144.89389999999997" width="5.3994" height="5.3994" rx="4"></rect>
<rect x="116.0971" y="144.89389999999997" width="5.3994" height="5.3994" rx="4"></rect>
<rect x="123.2963" y="144.89389999999997" width="5.3994" height="5.3994" rx="4"></rect>
<rect x="130.4955" y="144.89389999999997" width="5.3994" height="5.3994" rx="4"></rect>
<rect x="137.69469999999998" y="144.89389999999997" width="5.3994" height="5.3994" rx="4"></rect>
<rect x="144.89389999999997" y="144.89389999999997" width="5.3994" height="5.3994" rx="4"></rect>
<rect x="173.6907" y="144.89389999999997" width="5.3994" height="5.3994" rx="4"></rect>
<rect x="58.503499999999995" y="152.0931" width="5.3994" height="5.3994" rx="4"></rect>
<rect x="65.70270000000001" y="152.0931" width="5.3994" height="5.3994" rx="4"></rect>
<rect x="72.9019" y="152.0931" width="5.3994" height="5.3994" rx="4"></rect>
<rect x="101.6987" y="152.0931" width="5.3994" height="5.3994" rx="4"></rect>
<rect x="116.0971" y="152.0931" width="5.3994" height="5.3994" rx="4"></rect>
<rect x="137.69469999999998" y="152.0931" width="5.3994" height="5.3994" rx="4"></rect>
<rect x="144.89389999999997" y="152.0931" width="5.3994" height="5.3994" rx="4"></rect>
<rect x="159.29229999999998" y="152.0931" width="5.3994" height="5.3994" rx="4"></rect>
<rect x="87.30030000000001" y="159.29229999999998" width="5.3994" height="5.3994" rx="4"></rect>
<rect x="94.4995" y="159.29229999999998" width="5.3994" height="5.3994" rx="4"></rect>
<rect x="101.6987" y="159.29229999999998" width="5.3994" height="5.3994" rx="4"></rect>
<rect x="123.2963" y="159.29229999999998" width="5.3994" height="5.3994" rx="4"></rect>
<rect x="144.89389999999997" y="159.29229999999998" width="5.3994" height="5.3994" rx="4"></rect>
<rect x="152.0931" y="159.29229999999998" width="5.3994" height="5.3994" rx="4"></rect>
<rect x="159.29229999999998" y="159.29229999999998" width="5.3994" height="5.3994" rx="4"></rect>
<rect x="173.6907" y="159.29229999999998" width="5.3994" height="5.3994" rx="4"></rect>
<rect x="58.503499999999995" y="166.49149999999997" width="5.3994" height="5.3994" rx="4"></rect>
<rect x="65.70270000000001" y="166.49149999999997" width="5.3994" height="5.3994" rx="4"></rect>
<rect x="80.1011" y="166.49149999999997" width="5.3994" height="5.3994" rx="4"></rect>
<rect x="87.30030000000001" y="166.49149999999997" width="5.3994" height="5.3994" rx="4"></rect>
<rect x="101.6987" y="166.49149999999997" width="5.3994" height="5.3994" rx="4"></rect>
<rect x="108.89789999999999" y="166.49149999999997" width="5.3994" height="5.3994" rx="4"></rect>
<rect x="116.0971" y="166.49149999999997" width="5.3994" height="5.3994" rx="4"></rect>
<rect x="152.0931" y="166.49149999999997" width="5.3994" height="5.3994" rx="4"></rect>
<rect x="65.70270000000001" y="173.6907" width="5.3994" height="5.3994" rx="4"></rect>
<rect x="72.9019" y="173.6907" width="5.3994" height="5.3994" rx="4"></rect>
<rect x="87.30030000000001" y="173.6907" width="5.3994" height="5.3994" rx="4"></rect>
<rect x="94.4995" y="173.6907" width="5.3994" height="5.3994" rx="4"></rect>
<rect x="101.6987" y="173.6907" width="5.3994" height="5.3994" rx="4"></rect>
<rect x="108.89789999999999" y="173.6907" width="5.3994" height="5.3994" rx="4"></rect>
<rect x="116.0971" y="173.6907" width="5.3994" height="5.3994" rx="4"></rect>
<rect x="137.69469999999998" y="173.6907" width="5.3994" height="5.3994" rx="4"></rect>
<rect x="166.49149999999997" y="173.6907" width="5.3994" height="5.3994" rx="4"></rect>
<rect x="173.6907" y="173.6907" width="5.3994" height="5.3994" rx="4"></rect>
</g>
<g>
<rect x="3.5995999999999997" y="3.5995999999999997" width="43.1952" fill="none" height="43.1952" stroke-width="7.199199999999999" stroke="#222222" rx="7.199199999999999"></rect>
<rect x="14.398399999999999" y="14.398399999999999" width="21.5976" fill="#222222" height="21.5976" rx="3.5995999999999997"></rect>
<rect x="133.2052" y="3.5995999999999997" width="43.1952" fill="none" height="43.1952" stroke-width="7.199199999999999" stroke="#222222" rx="7.199199999999999"></rect>
<rect x="144.00400000000002" y="14.398399999999999" width="21.5976" fill="#222222" height="21.5976" rx="3.5995999999999997"></rect>
<rect x="3.5995999999999997" y="133.2052" width="43.1952" fill="none" height="43.1952" stroke-width="7.199199999999999" stroke="#222222" rx="7.199199999999999"></rect>
<rect x="14.398399999999999" y="144.00400000000002" width="21.5976" fill="#222222" height="21.5976" rx="3.5995999999999997"></rect>
</g>
</g>
</svg>