<svg xmlns="http://www.w3.org/2000/svg" xmlns:xlink="http://www.w3.org/1999/xlink" version="1.1" x="0" y="0" viewBox="0 0 220.0 220.0" width="220.0" height="220.0">

<circle xmlns="http://www.w3.org/2000/svg" cx="110.0" cy="110.0" r="107.25" stroke-width="4.0" stroke="#222222" fill="#FFFFFF"></circle>


<g transform="translate(17.6, 17.6) scale(0.84)">
  <circle cx="110" cy="110" r="110" fill="none"></circle>
  <path fill-rule="evenodd" clip-rule="evenodd" d="M56.9564 17.8788C57.3209 17.8788 57.6788 17.7833 57.9963 17.6042C73.3666 8.93306 91.1166 3.98539 110.022 3.98539C128.928 3.98539 146.678 8.93306 162.048 17.6042C162.366 17.7833 162.724 17.8788 163.088 17.8788V17.8788C165.172 17.8788 165.929 15.2457 164.116 14.2196C148.143 5.18128 129.685 0.0222168 110.022 0.0222168C90.3595 0.0222168 71.9017 5.18128 55.9287 14.2196C54.1154 15.2457 54.8729 17.8788 56.9564 17.8788V17.8788ZM17.6043 57.9962C17.7834 57.6787 17.8788 57.3208 17.8788 56.9563V56.9563C17.8788 54.8728 15.2457 54.1153 14.2197 55.9286C5.1813 71.9016 0.0222168 90.3595 0.0222168 110.022C0.0222168 129.685 5.1813 148.143 14.2197 164.116C15.2457 165.929 17.8788 165.172 17.8788 163.088V163.088C17.8788 162.724 17.7834 162.366 17.6043 162.048C8.93308 146.678 3.98539 128.928 3.98539 110.022C3.98539 91.1166 8.93308 73.3665 17.6043 57.9962ZM57.9971 202.441C57.6796 202.262 57.3217 202.166 56.9572 202.166V202.166C54.8737 202.166 54.1162 204.799 55.9295 205.825C71.9023 214.863 90.3598 220.022 110.022 220.022C129.685 220.022 148.142 214.863 164.115 205.825C165.928 204.799 165.171 202.166 163.087 202.166V202.166C162.723 202.166 162.365 202.262 162.047 202.441C146.677 211.112 128.928 216.059 110.022 216.059C91.1169 216.059 73.3672 211.112 57.9971 202.441ZM202.441 162.047C202.262 162.365 202.166 162.723 202.166 163.087V163.087C202.166 165.171 204.799 165.928 205.825 164.115C214.863 148.142 220.022 129.685 220.022 110.022C220.022 90.3599 214.863 71.9025 205.825 55.9297C204.799 54.1164 202.166 54.8739 202.166 56.9573V56.9573C202.166 57.3219 202.262 57.6797 202.441 57.9972C211.112 73.3673 216.059 91.117 216.059 110.022C216.059 128.927 211.112 146.677 202.441 162.047Z" fill="#222222"></path>
</g>
  
<g transform="translate(41.120000000000005, 41.120000000000005)">
<g fill="#222222">
<rect x="44.77549999999999" y="0.6986999999999999" width="4.132199999999999" height="4.132199999999999" rx="0"></rect>
<rect x="50.285099999999986" y="0.6986999999999999" width="4.132199999999999" height="4.132199999999999" rx="0"></rect>
<rect x="55.794699999999985" y="0.6986999999999999" width="4.132199999999999" height="4.132199999999999" rx="0"></rect>
<rect x="61.304299999999984" y="0.6986999999999999" width="4.132199999999999" height="4.132199999999999" rx="0"></rect>
<rect x="77.83309999999999" y="0.6986999999999999" width="4.132199999999999" height="4.132199999999999" rx="0"></rect>
<rect x="83.34269999999998" y="0.6986999999999999" width="4.132199999999999" height="4.132199999999999" rx="0"></rect>
<rect x="55.794699999999985" y="6.208299999999999" width="4.132199999999999" height="4.132199999999999" rx="0"></rect>
<rect x="66.81389999999999" y="6.208299999999999" width="4.132199999999999" height="4.132199999999999" rx="0"></rect>
<rect x="72.3235" y="6.208299999999999" width="4.132199999999999" height="4.132199999999999" rx="0"></rect>
<rect x="83.34269999999998" y="6.208299999999999" width="4.132199999999999" height="4.132199999999999" rx="0"></rect>
<rect x="88.85229999999999" y="6.208299999999999" width="4.132199999999999" height="4.132199999999999" rx="0"></rect>
<rect x="44.77549999999999" y="11.717899999999997" width="4.132199999999999" height="4.132199999999999" rx="0"></rect>
<rect x="66.81389999999999" y="11.717899999999997" width="4.132199999999999" height="4.132199999999999" rx="0"></rect>
<rect x="77.83309999999999" y="11.717899999999997" width="4.132199999999999" height="4.132199999999999" rx="0"></rect>
<rect x="83.34269999999998" y="11.717899999999997" width="4.132199999999999" height="4.132199999999999" rx="0"></rect>
<rect x="44.77549999999999" y="17.2275" width="4.132199999999999" height="4.132199999999999" rx="0"></rect>
<rect x="50.285099999999986" y="17.2275" width="4.132199999999999" height="4.132199999999999" rx="0"></rect>
<rect x="66.81389999999999" y="17.2275" width="4.132199999999999" height="4.132199999999999" rx="0"></rect>
<rect x="77.83309999999999" y="17.2275" width="4.132199999999999" height="4.132199999999999" rx="0"></rect>
<rect x="50.285099999999986" y="22.737099999999998" width="4.132199999999999" height="4.132199999999999" rx="0"></rect>
<rect x="55.794699999999985" y="22.737099999999998" width="4.132199999999999" height="4.132199999999999" rx="0"></rect>
<rect x="77.83309999999999" y="22.737099999999998" width="4.132199999999999" height="4.132199999999999" rx="0"></rect>
<rect x="83.34269999999998" y="22.737099999999998" width="4.132199999999999" height="4.132199999999999" rx="0"></rect>
<rect x="44.77549999999999" y="28.246699999999997" width="4.132199999999999" height="4.132199999999999" rx="0"></rect>
<rect x="61.304299999999984" y="28.246699999999997" width="4.132199999999999" height="4.132199999999999" rx="0"></rect>
<rect x="66.81389999999999" y="28.246699999999997" width="4.132199999999999" height="4.132199999999999" rx="0"></rect>
<rect x="83.34269999999998" y="28.246699999999997" width="4.132199999999999" height="4.132199999999999" rx="0"></rect>
<rect x="88.85229999999999" y="28.246699999999997" width="4.132199999999999" height="4.132199999999999" rx="0"></rect>
<rect x="44.77549999999999" y="33.75629999999999" width="4.132199999999999" height="4.132199999999999" rx="0"></rect>
<rect x="55.794699999999985" y="33.75629999999999" width="4.132199999999999" height="4.132199999999999" rx="0"></rect>
<rect x="66.81389999999999" y="33.75629999999999" width="4.132199999999999" height="4.132199999999999" rx="0"></rect>
<rect x="77.83309999999999" y="33.75629999999999" width="4.132199999999999" height="4.132199999999999" rx="0"></rect>
<rect x="88.85229999999999" y="33.75629999999999" width="4.132199999999999" height="4.132199999999999" rx="0"></rect>
<rect x="44.77549999999999" y="39.26589999999999" width="4.132199999999999" height="4.132199999999999" rx="0"></rect>
<rect x="61.304299999999984" y="39.26589999999999" width="4.132199999999999" height="4.132199999999999" rx="0"></rect>
<rect x="66.81389999999999" y="39.26589999999999" width="4.132199999999999" height="4.132199999999999" rx="0"></rect>
<rect x="77.83309999999999" y="39.26589999999999" width="4.132199999999999" height="4.132199999999999" rx="0"></rect>
<rect x="83.34269999999998" y="39.26589999999999" width="4.132199999999999" height="4.132199999999999" rx="0"></rect>
<rect x="6.208299999999999" y="44.77549999999999" width="4.132199999999999" height="4.132199999999999" rx="0"></rect>
<rect x="17.2275" y="44.77549999999999" width="4.132199999999999" height="4.132199999999999" rx="0"></rect>
<rect x="28.246699999999997" y="44.77549999999999" width="4.132199999999999" height="4.132199999999999" rx="0"></rect>
<rect x="33.75629999999999" y="44.77549999999999" width="4.132199999999999" height="4.132199999999999" rx="0"></rect>
<rect x="39.26589999999999" y="44.77549999999999" width="4.132199999999999" height="4.132199999999999" rx="0"></rect>
<rect x="44.77549999999999" y="44.77549999999999" width="4.132199999999999" height="4.132199999999999" rx="0"></rect>
<rect x="61.304299999999984" y="44.77549999999999" width="4.132199999999999" height="4.132199999999999" rx="0"></rect>
<rect x="72.3235" y="44.77549999999999" width="4.132199999999999" height="4.132199999999999" rx="0"></rect>
<rect x="77.83309999999999" y="44.77549999999999" width="4.132199999999999" height="4.132199999999999" rx="0"></rect>
<rect x="88.85229999999999" y="44.77549999999999" width="4.132199999999999" height="4.132199999999999" rx="0"></rect>
<rect x="94.36189999999999" y="44.77549999999999" width="4.132199999999999" height="4.132199999999999" rx="0"></rect>
<rect x="99.87149999999998" y="44.77549999999999" width="4.132199999999999" height="4.132199999999999" rx="0"></rect>
<rect x="105.38109999999998" y="44.77549999999999" width="4.132199999999999" height="4.132199999999999" rx="0"></rect>
<rect x="116.40029999999999" y="44.77549999999999" width="4.132199999999999" height="4.132199999999999" rx="0"></rect>
<rect x="121.90989999999998" y="44.77549999999999" width="4.132199999999999" height="4.132199999999999" rx="0"></rect>
<rect x="132.92909999999998" y="44.77549999999999" width="4.132199999999999" height="4.132199999999999" rx="0"></rect>
<rect x="11.717899999999997" y="50.285099999999986" width="4.132199999999999" height="4.132199999999999" rx="0"></rect>
<rect x="50.285099999999986" y="50.285099999999986" width="4.132199999999999" height="4.132199999999999" rx="0"></rect>
<rect x="55.794699999999985" y="50.285099999999986" width="4.132199999999999" height="4.132199999999999" rx="0"></rect>
<rect x="61.304299999999984" y="50.285099999999986" width="4.132199999999999" height="4.132199999999999" rx="0"></rect>
<rect x="66.81389999999999" y="50.285099999999986" width="4.132199999999999" height="4.132199999999999" rx="0"></rect>
<rect x="88.85229999999999" y="50.285099999999986" width="4.132199999999999" height="4.132199999999999" rx="0"></rect>
<rect x="99.87149999999998" y="50.285099999999986" width="4.132199999999999" height="4.132199999999999" rx="0"></rect>
<rect x="132.92909999999998" y="50.285099999999986" width="4.132199999999999" height="4.132199999999999" rx="0"></rect>
<rect x="0.6986999999999999" y="55.794699999999985" width="4.132199999999999" height="4.132199999999999" rx="0"></rect>
<rect x="6.208299999999999" y="55.794699999999985" width="4.132199999999999" height="4.132199999999999" rx="0"></rect>
<rect x="11.717899999999997" y="55.794699999999985" width="4.132199999999999" height="4.132199999999999" rx="0"></rect>
<rect x="17.2275" y="55.794699999999985" width="4.132199999999999" height="4.132199999999999" rx="0"></rect>
<rect x="33.75629999999999" y="55.794699999999985" width="4.132199999999999" height="4.132199999999999" rx="0"></rect>
<rect x="39.26589999999999" y="55.794699999999985" width="4.132199999999999" height="4.132199999999999" rx="0"></rect>
<rect x="61.304299999999984" y="55.794699999999985" width="4.132199999999999" height="4.132199999999999" rx="0"></rect>
<rect x="72.3235" y="55.794699999999985" width="4.132199999999999" height="4.132199999999999" rx="0"></rect>
<rect x="94.36189999999999" y="55.794699999999985" width="4.132199999999999" height="4.132199999999999" rx="0"></rect>
<rect x="99.87149999999998" y="55.794699999999985" width="4.132199999999999" height="4.132199999999999" rx="0"></rect>
<rect x="127.41949999999997" y="55.794699999999985" width="4.132199999999999" height="4.132199999999999" rx="0"></rect>
<rect x="132.92909999999998" y="55.794699999999985" width="4.132199999999999" height="4.132199999999999" rx="0"></rect>
<rect x="22.737099999999998" y="61.304299999999984" width="4.132199999999999" height="4.132199999999999" rx="0"></rect>
<rect x="28.246699999999997" y="61.304299999999984" width="4.132199999999999" height="4.132199999999999" rx="0"></rect>
<rect x="39.26589999999999" y="61.304299999999984" width="4.132199999999999" height="4.132199999999999" rx="0"></rect>
<rect x="66.81389999999999" y="61.304299999999984" width="4.132199999999999" height="4.132199999999999" rx="0"></rect>
<rect x="72.3235" y="61.304299999999984" width="4.132199999999999" height="4.132199999999999" rx="0"></rect>
<rect x="83.34269999999998" y="61.304299999999984" width="4.132199999999999" height="4.132199999999999" rx="0"></rect>
<rect x="88.85229999999999" y="61.304299999999984" width="4.132199999999999" height="4.132199999999999" rx="0"></rect>
<rect x="99.87149999999998" y="61.304299999999984" width="4.132199999999999" height="4.132199999999999" rx="0"></rect>
<rect x="0.6986999999999999" y="66.81389999999999" width="4.132199999999999" height="4.132199999999999" rx="0"></rect>
<rect x="6.208299999999999" y="66.81389999999999" width="4.132199999999999" height="4.132199999999999" rx="0"></rect>
<rect x="33.75629999999999" y="66.81389999999999" width="4.132199999999999" height="4.132199999999999" rx="0"></rect>
<rect x="39.26589999999999" y="66.81389999999999" width="4.132199999999999" height="4.132199999999999" rx="0"></rect>
<rect x="61.304299999999984" y="66.81389999999999" width="4.132199999999999" height="4.132199999999999" rx="0"></rect>
<rect x="77.83309999999999" y="66.81389999999999" width="4.132199999999999" height="4.132199999999999" rx="0"></rect>
<rect x="88.85229999999999" y="66.81389999999999" width="4.132199999999999" height="4.132199999999999" rx="0"></rect>
<rect x="94.36189999999999" y="66.81389999999999" width="4.132199999999999" height="4.132199999999999" rx="0"></rect>
<rect x="99.87149999999998" y="66.81389999999999" width="4.132199999999999" height="4.132199999999999" rx="0"></rect>
<rect x="116.40029999999999" y="66.81389999999999" width="4.132199999999999" height="4.132199999999999" rx="0"></rect>
<rect x="127.41949999999997" y="66.81389999999999" width="4.132199999999999" height="4.132199999999999" rx="0"></rect>
<rect x="132.92909999999998" y="66.81389999999999" width="4.132199999999999" height="4.132199999999999" rx="0"></rect>
<rect x="11.717899999999997" y="72.3235" width="4.132199999999999" height="4.132199999999999" rx="0"></rect>
<rect x="22.737099999999998" y="72.3235" width="4.132199999999999" height="4.132199999999999" rx="0"></rect>
<rect x="44.77549999999999" y="72.3235" width="4.132199999999999" height="4.132199999999999" rx="0"></rect>
<rect x="50.285099999999986" y="72.3235" width="4.132199999999999" height="4.132199999999999" rx="0"></rect>
<rect x="55.794699999999985" y="72.3235" width="4.132199999999999" height="4.132199999999999" rx="0"></rect>
<rect x="61.304299999999984" y="72.3235" width="4.132199999999999" height="4.132199999999999" rx="0"></rect>
<rect x="66.81389999999999" y="72.3235" width="4.132199999999999" height="4.132199999999999" rx="0"></rect>
<rect x="94.36189999999999" y="72.3235" width="4.132199999999999" height="4.132199999999999" rx="0"></rect>
<rect x="99.87149999999998" y="72.3235" width="4.132199999999999" height="4.132199999999999" rx="0"></rect>
<rect x="105.38109999999998" y="72.3235" width="4.132199999999999" height="4.132199999999999" rx="0"></rect>
<rect x="116.40029999999999" y="72.3235" width="4.132199999999999" height="4.132199999999999" rx="0"></rect>
<rect x="121.90989999999998" y="72.3235" width="4.132199999999999" height="4.132199999999999" rx="0"></rect>
<rect x="132.92909999999998" y="72.3235" width="4.132199999999999" height="4.132199999999999" rx="0"></rect>
<rect x="0.6986999999999999" y="77.83309999999999" width="4.132199999999999" height="4.132199999999999" rx="0"></rect>
<rect x="17.2275" y="77.83309999999999" width="4.132199999999999" height="4.132199999999999" rx="0"></rect>
<rect x="28.246699999999997" y="77.83309999999999" width="4.132199999999999" height="4.132199999999999" rx="0"></rect>
<rect x="33.75629999999999" y="77.83309999999999" width="4.132199999999999" height="4.132199999999999" rx="0"></rect>
<rect x="44.77549999999999" y="77.83309999999999" width="4.132199999999999" height="4.132199999999999" rx="0"></rect>
<rect x="50.285099999999986" y="77.83309999999999" width="4.132199999999999" height="4.132199999999999" rx="0"></rect>
<rect x="55.794699999999985" y="77.83309999999999" width="4.132199999999999" height="4.132199999999999" rx="0"></rect>
<rect x="61.304299999999984" y="77.83309999999999" width="4.132199999999999" height="4.132199999999999" rx="0"></rect>
<rect x="72.3235" y="77.83309999999999" width="4.132199999999999" height="4.132199999999999" rx="0"></rect>
<rect x="77.83309999999999" y="77.83309999999999" width="4.132199999999999" height="4.132199999999999" rx="0"></rect>
<rect x="99.87149999999998" y="77.83309999999999" width="4.132199999999999" height="4.132199999999999" rx="0"></rect>
<rect x="121.90989999999998" y="77.83309999999999" width="4.132199999999999" height="4.132199999999999" rx="0"></rect>
<rect x="132.92909999999998" y="77.83309999999999" width="4.132199999999999" height="4.132199999999999" rx="0"></rect>
<rect x="6.208299999999999" y="83.34269999999998" width="4.132199999999999" height="4.132199999999999" rx="0"></rect>
<rect x="11.717899999999997" y="83.34269999999998" width="4.132199999999999" height="4.132199999999999" rx="0"></rect>
<rect x="17.2275" y="83.34269999999998" width="4.132199999999999" height="4.132199999999999" rx="0"></rect>
<rect x="22.737099999999998" y="83.34269999999998" width="4.132199999999999" height="4.132199999999999" rx="0"></rect>
<rect x="44.77549999999999" y="83.34269999999998" width="4.132199999999999" height="4.132199999999999" rx="0"></rect>
<rect x="50.285099999999986" y="83.34269999999998" width="4.132199999999999" height="4.132199999999999" rx="0"></rect>
<rect x="55.794699999999985" y="83.34269999999998" width="4.132199999999999" height="4.132199999999999" rx="0"></rect>
<rect x="66.81389999999999" y="83.34269999999998" width="4.132199999999999" height="4.132199999999999" rx="0"></rect>
<rect x="72.3235" y="83.34269999999998" width="4.132199999999999" height="4.132199999999999" rx="0"></rect>
<rect x="77.83309999999999" y="83.34269999999998" width="4.132199999999999" height="4.132199999999999" rx="0"></rect>
<rect x="88.85229999999999" y="83.34269999999998" width="4.132199999999999" height="4.132199999999999" rx="0"></rect>
<rect x="105.38109999999998" y="83.34269999999998" width="4.132199999999999" height="4.132199999999999" rx="0"></rect>
<rect x="110.89069999999998" y="83.34269999999998" width="4.132199999999999" height="4.132199999999999" rx="0"></rect>
<rect x="116.40029999999999" y="83.34269999999998" width="4.132199999999999" height="4.132199999999999" rx="0"></rect>
<rect x="127.41949999999997" y="83.34269999999998" width="4.132199999999999" height="4.132199999999999" rx="0"></rect>
<rect x="0.6986999999999999" y="88.85229999999999" width="4.132199999999999" height="4.132199999999999" rx="0"></rect>
<rect x="6.208299999999999" y="88.85229999999999" width="4.132199999999999" height="4.132199999999999" rx="0"></rect>
<rect x="11.717899999999997" y="88.85229999999999" width="4.132199999999999" height="4.132199999999999" rx="0"></rect>
<rect x="17.2275" y="88.85229999999999" width="4.132199999999999" height="4.132199999999999" rx="0"></rect>
<rect x="28.246699999999997" y="88.85229999999999" width="4.132199999999999" height="4.132199999999999" rx="0"></rect>
<rect x="33.75629999999999" y="88.85229999999999" width="4.132199999999999" height="4.132199999999999" rx="0"></rect>
<rect x="39.26589999999999" y="88.85229999999999" width="4.132199999999999" height="4.132199999999999" rx="0"></rect>
<rect x="55.794699999999985" y="88.85229999999999" width="4.132199999999999" height="4.132199999999999" rx="0"></rect>
<rect x="66.81389999999999" y="88.85229999999999" width="4.132199999999999" height="4.132199999999999" rx="0"></rect>
<rect x="83.34269999999998" y="88.85229999999999" width="4.132199999999999" height="4.132199999999999" rx="0"></rect>
<rect x="88.85229999999999" y="88.85229999999999" width="4.132199999999999" height="4.132199999999999" rx="0"></rect>
<rect x="94.36189999999999" y="88.85229999999999" width="4.132199999999999" height="4.132199999999999" rx="0"></rect>
<rect x="99.87149999999998" y="88.85229999999999" width="4.132199999999999" height="4.132199999999999" rx="0"></rect>
<rect x="105.38109999999998" y="88.85229999999999" width="4.132199999999999" height="4.132199999999999" rx="0"></rect>
<rect x="110.89069999999998" y="88.85229999999999" width="4.132199999999999" height="4.132199999999999" rx="0"></rect>
<rect x="116.40029999999999" y="88.85229999999999" width="4.132199999999999" height="4.132199999999999" rx="0"></rect>
<rect x="121.90989999999998" y="88.85229999999999" width="4.132199999999999" height="4.132199999999999" rx="0"></rect>
<rect x="44.77549999999999" y="94.36189999999999" width="4.132199999999999" height="4.132199999999999" rx="0"></rect>
<rect x="50.285099999999986" y="94.36189999999999" width="4.132199999999999" height="4.132199999999999" rx="0"></rect>
<rect x="66.81389999999999" y="94.36189999999999" width="4.132199999999999" height="4.132199999999999" rx="0"></rect>
<rect x="72.3235" y="94.36189999999999" width="4.132199999999999" height="4.132199999999999" rx="0"></rect>
<rect x="77.83309999999999" y="94.36189999999999" width="4.132199999999999" height="4.132199999999999" rx="0"></rect>
<rect x="83.34269999999998" y="94.36189999999999" width="4.132199999999999" height="4.132199999999999" rx="0"></rect>
<rect x="88.85229999999999" y="94.36189999999999" width="4.132199999999999" height="4.132199999999999" rx="0"></rect>
<rect x="110.89069999999998" y="94.36189999999999" width="4.132199999999999" height="4.132199999999999" rx="0"></rect>
<rect x="116.40029999999999" y="94.36189999999999" width="4.132199999999999" height="4.132199999999999" rx="0"></rect>
<rect x="121.90989999999998" y="94.36189999999999" width="4.132199999999999" height="4.132199999999999" rx="0"></rect>
<rect x="132.92909999999998" y="94.36189999999999" width="4.132199999999999" height="4.132199999999999" rx="0"></rect>
<rect x="44.77549999999999" y="99.87149999999998" width="4.132199999999999" height="4.132199999999999" rx="0"></rect>
<rect x="55.794699999999985" y="99.87149999999998" width="4.132199999999999" height="4.132199999999999" rx="0"></rect>
<rect x="61.304299999999984" y="99.87149999999998" width="4.132199999999999" height="4.132199999999999" rx="0"></rect>
<rect x="66.81389999999999" y="99.87149999999998" width="4.132199999999999" height="4.132199999999999" rx="0"></rect>
<rect x="83.34269999999998" y="99.87149999999998" width="4.132199999999999" height="4.132199999999999" rx="0"></rect>
<rect x="88.85229999999999" y="99.87149999999998" width="4.132199999999999" height="4.132199999999999" rx="0"></rect>
<rect x="99.87149999999998" y="99.87149999999998" width="4.132199999999999" height="4.132199999999999" rx="0"></rect>
<rect x="110.89069999999998" y="99.87149999999998" width="4.132199999999999" height="4.132199999999999" rx="0"></rect>
<rect x="127.41949999999997" y="99.87149999999998" width="4.132199999999999" height="4.132199999999999" rx="0"></rect>
<rect x="132.92909999999998" y="99.87149999999998" width="4.132199999999999" height="4.132199999999999" rx="0"></rect>
<rect x="44.77549999999999" y="105.38109999999998" width="4.132199999999999" height="4.132199999999999" rx="0"></rect>
<rect x="61.304299999999984" y="105.38109999999998" width="4.132199999999999" height="4.132199999999999" rx="0"></rect>
<rect x="88.85229999999999" y="105.38109999999998" width="4.132199999999999" height="4.132199999999999" rx="0"></rect>
<rect x="110.89069999999998" y="105.38109999999998" width="4.132199999999999" height="4.132199999999999" rx="0"></rect>
<rect x="116.40029999999999" y="105.38109999999998" width="4.132199999999999" height="4.132199999999999" rx="0"></rect>
<rect x="121.90989999999998" y="105.38109999999998" width="4.132199999999999" height="4.132199999999999" rx="0"></rect>
<rect x="127.41949999999997" y="105.38109999999998" width="4.132199999999999" height="4.132199999999999" rx="0"></rect>
<rect x="66.81389999999999" y="110.89069999999998" width="4.132199999999999" height="4.132199999999999" rx="0"></rect>
<rect x="72.3235" y="110.89069999999998" width="4.132199999999999" height="4.132199999999999" rx="0"></rect>
<rect x="77.83309999999999" y="110.89069999999998" width="4.132199999999999" height="4.132199999999999" rx="0"></rect>
<rect x="88.85229999999999" y="110.89069999999998" width="4.132199999999999" height="4.132199999999999" rx="0"></rect>
<rect x="94.36189999999999" y="110.89069999999998" width="4.132199999999999" height="4.132199999999999" rx="0"></rect>
<rect x="99.87149999999998" y="110.89069999999998" width="4.132199999999999" height="4.132199999999999" rx="0"></rect>
<rect x="105.38109999999998" y="110.89069999999998" width="4.132199999999999" height="4.132199999999999" rx="0"></rect>
<rect x="110.89069999999998" y="110.89069999999998" width="4.132199999999999" height="4.132199999999999" rx="0"></rect>
<rect x="132.92909999999998" y="110.89069999999998" width="4.132199999999999" height="4.132199999999999" rx="0"></rect>
<rect x="44.77549999999999" y="116.40029999999999" width="4.132199999999999" height="4.132199999999999" rx="0"></rect>
<rect x="50.285099999999986" y="116.40029999999999" width="4.132199999999999" height="4.132199999999999" rx="0"></rect>
<rect x="55.794699999999985" y="116.40029999999999" width="4.132199999999999" height="4.132199999999999" rx="0"></rect>
<rect x="77.83309999999999" y="116.40029999999999" width="4.132199999999999" height="4.132199999999999" rx="0"></rect>
<rect x="88.85229999999999" y="116.40029999999999" width="4.132199999999999" height="4.132199999999999" rx="0"></rect>
<rect x="105.38109999999998" y="116.40029999999999" width="4.132199999999999" height="4.132199999999999" rx="0"></rect>
<rect x="110.89069999999998" y="116.40029999999999" width="4.132199999999999" height="4.132199999999999" rx="0"></rect>
<rect x="121.90989999999998" y="116.40029999999999" width="4.132199999999999" height="4.132199999999999" rx="0"></rect>
<rect x="66.81389999999999" y="121.90989999999998" width="4.132199999999999" height="4.132199999999999" rx="0"></rect>
<rect x="72.3235" y="121.90989999999998" width="4.132199999999999" height="4.132199999999999" rx="0"></rect>
<rect x="77.83309999999999" y="121.90989999999998" width="4.132199999999999" height="4.132199999999999" rx="0"></rect>
<rect x="94.36189999999999" y="121.90989999999998" width="4.132199999999999" height="4.132199999999999" rx="0"></rect>
<rect x="110.89069999999998" y="121.90989999999998" width="4.132199999999999" height="4.132199999999999" rx="0"></rect>
<rect x="116.40029999999999" y="121.90989999999998" width="4.132199999999999" height="4.132199999999999" rx="0"></rect>
<rect x="121.90989999999998" y="121.90989999999998" width="4.132199999999999" height="4.132199999999999" rx="0"></rect>
<rect x="132.92909999999998" y="121.90989999999998" width="4.132199999999999" height="4.132199999999999" rx="0"></rect>
<rect x="44.77549999999999" y="127.41949999999997" width="4.132199999999999" height="4.132199999999999" rx="0"></rect>
<rect x="50.285099999999986" y="127.41949999999997" width="4.132199999999999" height="4.132199999999999" rx="0"></rect>
<rect x="61.304299999999984" y="127.41949999999997" width="4.132199999999999" height="4.132199999999999" rx="0"></rect>
<rect x="66.81389999999999" y="127.41949999999997" width="4.132199999999999" height="4.132199999999999" rx="0"></rect>
<rect x="77.83309999999999" y="127.41949999999997" width="4.132199999999999" height="4.132199999999999" rx="0"></rect>
<rect x="83.34269999999998" y="127.41949999999997" width="4.132199999999999" height="4.132199999999999" rx="0"></rect>
<rect x="88.85229999999999" y="127.41949999999997" width="4.132199999999999" height="4.132199999999999" rx="0"></rect>
<rect x="116.40029999999999" y="127.41949999999997" width="4.132199999999999" height="4.132199999999999" rx="0"></rect>
<rect x="50.285099999999986" y="132.92909999999998" width="4.132199999999999" height="4.132199999999999" rx="0"></rect>
<rect x="55.794699999999985" y="132.92909999999998" width="4.132199999999999" height="4.132199999999999" rx="0"></rect>
<rect x="66.81389999999999" y="132.92909999999998" width="4.132199999999999" height="4.132199999999999" rx="0"></rect>
<rect x="72.3235" y="132.92909999999998" width="4.132199999999999" height="4.132199999999999" rx="0"></rect>
<rect x="77.83309999999999" y="132.92909999999998" width="4.132199999999999" height="4.132199999999999" rx="0"></rect>
<rect x="83.34269999999998" y="132.92909999999998" width="4.132199999999999" height="4.132199999999999" rx="0"></rect>
<rect x="88.85229999999999" y="132.92909999999998" width="4.132199999999999" height="4.132199999999999" rx="0"></rect>
<rect x="105.38109999999998" y="132.92909999999998" width="4.132199999999999" height="4.132199999999999" rx="0"></rect>
<rect x="127.41949999999997" y="132.92909999999998" width="4.132199999999999" height="4.132199999999999" rx="0"></rect>
<rect x="132.92909999999998" y="132.92909999999998" width="4.132199999999999" height="4.132199999999999" rx="0"></rect>
</g>
<g>
<rect x="2.7547999999999995" y="2.7547999999999995" width="33.057599999999994" fill="none" height="33.057599999999994" stroke-width="5.509599999999999" stroke="#222222"></rect>
<rect x="11.019199999999998" y="11.019199999999998" width="16.528799999999997" fill="#222222" height="16.528799999999997"></rect>
<rect x="101.9476" y="2.7547999999999995" width="33.057599999999994" fill="none" height="33.057599999999994" stroke-width="5.509599999999999" stroke="#222222"></rect>
<rect x="110.21199999999999" y="11.019199999999998" width="16.528799999999997" fill="#222222" height="16.528799999999997"></rect>
<rect x="2.7547999999999995" y="101.9476" width="33.057599999999994" fill="none" height="33.057599999999994" stroke-width="5.509599999999999" stroke="#222222"></rect>
<rect x="11.019199999999998" y="110.21199999999999" width="16.528799999999997" fill="#222222" height="16.528799999999997"></rect>
</g>
</g>
</svg>