<svg xmlns="http://www.w3.org/2000/svg" xmlns:xlink="http://www.w3.org/1999/xlink" version="1.1" x="0" y="0" viewBox="0 0 220 220" width="220" height="220">
<rect x="0" y="0" width="220" fill="#FFFFFF" height="220" stroke="none"></rect>
<g transform="translate(10, 10)">
<g fill="#222222">
<rect x="65.00349999999999" y="1.0098999999999998" width="5.9994" height="5.9994" rx="4"></rect>
<rect x="73.00269999999999" y="1.0098999999999998" width="5.9994" height="5.9994" rx="4"></rect>
<rect x="81.00189999999999" y="1.0098999999999998" width="5.9994" height="5.9994" rx="4"></rect>
<rect x="89.0011" y="1.0098999999999998" width="5.9994" height="5.9994" rx="4"></rect>
<rect x="112.99869999999999" y="1.0098999999999998" width="5.9994" height="5.9994" rx="4"></rect>
<rect x="120.99789999999999" y="1.0098999999999998" width="5.9994" height="5.9994" rx="4"></rect>
<rect x="81.00189999999999" y="9.0091" width="5.9994" height="5.9994" rx="4"></rect>
<rect x="97.0003" y="9.0091" width="5.9994" height="5.9994" rx="4"></rect>
<rect x="104.9995" y="9.0091" width="5.9994" height="5.9994" rx="4"></rect>
<rect x="120.99789999999999" y="9.0091" width="5.9994" height="5.9994" rx="4"></rect>
<rect x="128.9971" y="9.0091" width="5.9994" height="5.9994" rx="4"></rect>
<rect x="65.00349999999999" y="17.0083" width="5.9994" height="5.9994" rx="4"></rect>
<rect x="97.0003" y="17.0083" width="5.9994" height="5.9994" rx="4"></rect>
<rect x="112.99869999999999" y="17.0083" width="5.9994" height="5.9994" rx="4"></rect>
<rect x="120.99789999999999" y="17.0083" width="5.9994" height="5.9994" rx="4"></rect>
<rect x="65.00349999999999" y="25.0075" width="5.9994" height="5.9994" rx="4"></rect>
<rect x="73.00269999999999" y="25.0075" width="5.9994" height="5.9994" rx="4"></rect>
<rect x="97.0003" y="25.0075" width="5.9994" height="5.9994" rx="4"></rect>
<rect x="112.99869999999999" y="25.0075" width="5.9994" height="5.9994" rx="4"></rect>
<rect x="73.00269999999999" y="33.006699999999995" width="5.9994" height="5.9994" rx="4"></rect>
<rect x="81.00189999999999" y="33.006699999999995" width="5.9994" height="5.9994" rx="4"></rect>
<rect x="112.99869999999999" y="33.006699999999995" width="5.9994" height="5.9994" rx="4"></rect>
<rect x="120.99789999999999" y="33.006699999999995" width="5.9994" height="5.9994" rx="4"></rect>
<rect x="65.00349999999999" y="41.00589999999999" width="5.9994" height="5.9994" rx="4"></rect>
<rect x="89.0011" y="41.00589999999999" width="5.9994" height="5.9994" rx="4"></rect>
<rect x="97.0003" y="41.00589999999999" width="5.9994" height="5.9994" rx="4"></rect>
<rect x="120.99789999999999" y="41.00589999999999" width="5.9994" height="5.9994" rx="4"></rect>
<rect x="128.9971" y="41.00589999999999" width="5.9994" height="5.9994" rx="4"></rect>
<rect x="65.00349999999999" y="49.00509999999999" width="5.9994" height="5.9994" rx="4"></rect>
<rect x="81.00189999999999" y="49.00509999999999" width="5.9994" height="5.9994" rx="4"></rect>
<rect x="97.0003" y="49.00509999999999" width="5.9994" height="5.9994" rx="4"></rect>
<rect x="112.99869999999999" y="49.00509999999999" width="5.9994" height="5.9994" rx="4"></rect>
<rect x="128.9971" y="49.00509999999999" width="5.9994" height="5.9994" rx="4"></rect>
<rect x="65.00349999999999" y="57.004299999999986" width="5.9994" height="5.9994" rx="4"></rect>
<rect x="89.0011" y="57.004299999999986" width="5.9994" height="5.9994" rx="4"></rect>
<rect x="97.0003" y="57.004299999999986" width="5.9994" height="5.9994" rx="4"></rect>
<rect x="112.99869999999999" y="57.004299999999986" width="5.9994" height="5.9994" rx="4"></rect>
<rect x="120.99789999999999" y="57.004299999999986" width="5.9994" height="5.9994" rx="4"></rect>
<rect x="9.0091" y="65.00349999999999" width="5.9994" height="5.9994" rx="4"></rect>
<rect x="25.0075" y="65.00349999999999" width="5.9994" height="5.9994" rx="4"></rect>
<rect x="41.00589999999999" y="65.00349999999999" width="5.9994" height="5.9994" rx="4"></rect>
<rect x="49.00509999999999" y="65.00349999999999" width="5.9994" height="5.9994" rx="4"></rect>
<rect x="57.004299999999986" y="65.00349999999999" width="5.9994" height="5.9994" rx="4"></rect>
<rect x="65.00349999999999" y="65.00349999999999" width="5.9994" height="5.9994" rx="4"></rect>
<rect x="89.0011" y="65.00349999999999" width="5.9994" height="5.9994" rx="4"></rect>
<rect x="104.9995" y="65.00349999999999" width="5.9994" height="5.9994" rx="4"></rect>
<rect x="112.99869999999999" y="65.00349999999999" width="5.9994" height="5.9994" rx="4"></rect>
<rect x="128.9971" y="65.00349999999999" width="5.9994" height="5.9994" rx="4"></rect>
<rect x="136.99629999999996" y="65.00349999999999" width="5.9994" height="5.9994" rx="4"></rect>
<rect x="144.99549999999996" y="65.00349999999999" width="5.9994" height="5.9994" rx="4"></rect>
<rect x="152.99469999999997" y="65.00349999999999" width="5.9994" height="5.9994" rx="4"></rect>
<rect x="168.99309999999997" y="65.00349999999999" width="5.9994" height="5.9994" rx="4"></rect>
<rect x="176.99229999999997" y="65.00349999999999" width="5.9994" height="5.9994" rx="4"></rect>
<rect x="192.99069999999998" y="65.00349999999999" width="5.9994" height="5.9994" rx="4"></rect>
<rect x="17.0083" y="73.00269999999999" width="5.9994" height="5.9994" rx="4"></rect>
<rect x="73.00269999999999" y="73.00269999999999" width="5.9994" height="5.9994" rx="4"></rect>
<rect x="81.00189999999999" y="73.00269999999999" width="5.9994" height="5.9994" rx="4"></rect>
<rect x="89.0011" y="73.00269999999999" width="5.9994" height="5.9994" rx="4"></rect>
<rect x="97.0003" y="73.00269999999999" width="5.9994" height="5.9994" rx="4"></rect>
<rect x="128.9971" y="73.00269999999999" width="5.9994" height="5.9994" rx="4"></rect>
<rect x="144.99549999999996" y="73.00269999999999" width="5.9994" height="5.9994" rx="4"></rect>
<rect x="192.99069999999998" y="73.00269999999999" width="5.9994" height="5.9994" rx="4"></rect>
<rect x="1.0098999999999998" y="81.00189999999999" width="5.9994" height="5.9994" rx="4"></rect>
<rect x="9.0091" y="81.00189999999999" width="5.9994" height="5.9994" rx="4"></rect>
<rect x="17.0083" y="81.00189999999999" width="5.9994" height="5.9994" rx="4"></rect>
<rect x="25.0075" y="81.00189999999999" width="5.9994" height="5.9994" rx="4"></rect>
<rect x="49.00509999999999" y="81.00189999999999" width="5.9994" height="5.9994" rx="4"></rect>
<rect x="57.004299999999986" y="81.00189999999999" width="5.9994" height="5.9994" rx="4"></rect>
<rect x="89.0011" y="81.00189999999999" width="5.9994" height="5.9994" rx="4"></rect>
<rect x="104.9995" y="81.00189999999999" width="5.9994" height="5.9994" rx="4"></rect>
<rect x="136.99629999999996" y="81.00189999999999" width="5.9994" height="5.9994" rx="4"></rect>
<rect x="144.99549999999996" y="81.00189999999999" width="5.9994" height="5.9994" rx="4"></rect>
<rect x="184.99149999999997" y="81.00189999999999" width="5.9994" height="5.9994" rx="4"></rect>
<rect x="192.99069999999998" y="81.00189999999999" width="5.9994" height="5.9994" rx="4"></rect>
<rect x="33.006699999999995" y="89.0011" width="5.9994" height="5.9994" rx="4"></rect>
<rect x="41.00589999999999" y="89.0011" width="5.9994" height="5.9994" rx="4"></rect>
<rect x="57.004299999999986" y="89.0011" width="5.9994" height="5.9994" rx="4"></rect>
<rect x="97.0003" y="89.0011" width="5.9994" height="5.9994" rx="4"></rect>
<rect x="104.9995" y="89.0011" width="5.9994" height="5.9994" rx="4"></rect>
<rect x="120.99789999999999" y="89.0011" width="5.9994" height="5.9994" rx="4"></rect>
<rect x="128.9971" y="89.0011" width="5.9994" height="5.9994" rx="4"></rect>
<rect x="144.99549999999996" y="89.0011" width="5.9994" height="5.9994" rx="4"></rect>
<rect x="1.0098999999999998" y="97.0003" width="5.9994" height="5.9994" rx="4"></rect>
<rect x="9.0091" y="97.0003" width="5.9994" height="5.9994" rx="4"></rect>
<rect x="49.00509999999999" y="97.0003" width="5.9994" height="5.9994" rx="4"></rect>
<rect x="57.004299999999986" y="97.0003" width="5.9994" height="5.9994" rx="4"></rect>
<rect x="89.0011" y="97.0003" width="5.9994" height="5.9994" rx="4"></rect>
<rect x="112.99869999999999" y="97.0003" width="5.9994" height="5.9994" rx="4"></rect>
<rect x="128.9971" y="97.0003" width="5.9994" height="5.9994" rx="4"></rect>
<rect x="136.99629999999996" y="97.0003" width="5.9994" height="5.9994" rx="4"></rect>
<rect x="144.99549999999996" y="97.0003" width="5.9994" height="5.9994" rx="4"></rect>
<rect x="168.99309999999997" y="97.0003" width="5.9994" height="5.9994" rx="4"></rect>
<rect x="184.99149999999997" y="97.0003" width="5.9994" height="5.9994" rx="4"></rect>
<rect x="192.99069999999998" y="97.0003" width="5.9994" height="5.9994" rx="4"></rect>
<rect x="17.0083" y="104.9995" width="5.9994" height="5.9994" rx="4"></rect>
<rect x="33.006699999999995" y="104.9995" width="5.9994" height="5.9994" rx="4"></rect>
<rect x="65.00349999999999" y="104.9995" width="5.9994" height="5.9994" rx="4"></rect>
<rect x="73.00269999999999" y="104.9995" width="5.9994" height="5.9994" rx="4"></rect>
<rect x="81.00189999999999" y="104.9995" width="5.9994" height="5.9994" rx="4"></rect>
<rect x="89.0011" y="104.9995" width="5.9994" height="5.9994" rx="4"></rect>
<rect x="97.0003" y="104.9995" width="5.9994" height="5.9994" rx="4"></rect>
<rect x="136.99629999999996" y="104.9995" width="5.9994" height="5.9994" rx="4"></rect>
<rect x="144.99549999999996" y="104.9995" width="5.9994" height="5.9994" rx="4"></rect>
<rect x="152.99469999999997" y="104.9995" width="5.9994" height="5.9994" rx="4"></rect>
<rect x="168.99309999999997" y="104.9995" width="5.9994" height="5.9994" rx="4"></rect>
<rect x="176.99229999999997" y="104.9995" width="5.9994" height="5.9994" rx="4"></rect>
<rect x="192.99069999999998" y="104.9995" width="5.9994" height="5.9994" rx="4"></rect>
<rect x="1.0098999999999998" y="112.99869999999999" width="5.9994" height="5.9994" rx="4"></rect>
<rect x="25.0075" y="112.99869999999999" width="5.9994" height="5.9994" rx="4"></rect>
<rect x="41.00589999999999" y="112.99869999999999" width="5.9994" height="5.9994" rx="4"></rect>
<rect x="49.00509999999999" y="112.99869999999999" width="5.9994" height="5.9994" rx="4"></rect>
<rect x="65.00349999999999" y="112.99869999999999" width="5.9994" height="5.9994" rx="4"></rect>
<rect x="73.00269999999999" y="112.99869999999999" width="5.9994" height="5.9994" rx="4"></rect>
<rect x="81.00189999999999" y="112.99869999999999" width="5.9994" height="5.9994" rx="4"></rect>
<rect x="89.0011" y="112.99869999999999" width="5.9994" height="5.9994" rx="4"></rect>
<rect x="104.9995" y="112.99869999999999" width="5.9994" height="5.9994" rx="4"></rect>
<rect x="112.99869999999999" y="112.99869999999999" width="5.9994" height="5.9994" rx="4"></rect>
<rect x="144.99549999999996" y="112.99869999999999" width="5.9994" height="5.9994" rx="4"></rect>
<rect x="176.99229999999997" y="112.99869999999999" width="5.9994" height="5.9994" rx="4"></rect>
<rect x="192.99069999999998" y="112.99869999999999" width="5.9994" height="5.9994" rx="4"></rect>
<rect x="9.0091" y="120.99789999999999" width="5.9994" height="5.9994" rx="4"></rect>
<rect x="17.0083" y="120.99789999999999" width="5.9994" height="5.9994" rx="4"></rect>
<rect x="25.0075" y="120.99789999999999" width="5.9994" height="5.9994" rx="4"></rect>
<rect x="33.006699999999995" y="120.99789999999999" width="5.9994" height="5.9994" rx="4"></rect>
<rect x="65.00349999999999" y="120.99789999999999" width="5.9994" height="5.9994" rx="4"></rect>
<rect x="73.00269999999999" y="120.99789999999999" width="5.9994" height="5.9994" rx="4"></rect>
<rect x="81.00189999999999" y="120.99789999999999" width="5.9994" height="5.9994" rx="4"></rect>
<rect x="97.0003" y="120.99789999999999" width="5.9994" height="5.9994" rx="4"></rect>
<rect x="104.9995" y="120.99789999999999" width="5.9994" height="5.9994" rx="4"></rect>
<rect x="112.99869999999999" y="120.99789999999999" width="5.9994" height="5.9994" rx="4"></rect>
<rect x="128.9971" y="120.99789999999999" width="5.9994" height="5.9994" rx="4"></rect>
<rect x="152.99469999999997" y="120.99789999999999" width="5.9994" height="5.9994" rx="4"></rect>
<rect x="160.99389999999997" y="120.99789999999999" width="5.9994" height="5.9994" rx="4"></rect>
<rect x="168.99309999999997" y="120.99789999999999" width="5.9994" height="5.9994" rx="4"></rect>
<rect x="184.99149999999997" y="120.99789999999999" width="5.9994" height="5.9994" rx="4"></rect>
<rect x="1.0098999999999998" y="128.9971" width="5.9994" height="5.9994" rx="4"></rect>
<rect x="9.0091" y="128.9971" width="5.9994" height="5.9994" rx="4"></rect>
<rect x="17.0083" y="128.9971" width="5.9994" height="5.9994" rx="4"></rect>
<rect x="25.0075" y="128.9971" width="5.9994" height="5.9994" rx="4"></rect>
<rect x="41.00589999999999" y="128.9971" width="5.9994" height="5.9994" rx="4"></rect>
<rect x="49.00509999999999" y="128.9971" width="5.9994" height="5.9994" rx="4"></rect>
<rect x="57.004299999999986" y="128.9971" width="5.9994" height="5.9994" rx="4"></rect>
<rect x="81.00189999999999" y="128.9971" width="5.9994" height="5.9994" rx="4"></rect>
<rect x="97.0003" y="128.9971" width="5.9994" height="5.9994" rx="4"></rect>
<rect x="120.99789999999999" y="128.9971" width="5.9994" height="5.9994" rx="4"></rect>
<rect x="128.9971" y="128.9971" width="5.9994" height="5.9994" rx="4"></rect>
<rect x="136.99629999999996" y="128.9971" width="5.9994" height="5.9994" rx="4"></rect>
<rect x="144.99549999999996" y="128.9971" width="5.9994" height="5.9994" rx="4"></rect>
<rect x="152.99469999999997" y="128.9971" width="5.9994" height="5.9994" rx="4"></rect>
<rect x="160.99389999999997" y="128.9971" width="5.9994" height="5.9994" rx="4"></rect>
<rect x="168.99309999999997" y="128.9971" width="5.9994" height="5.9994" rx="4"></rect>
<rect x="176.99229999999997" y="128.9971" width="5.9994" height="5.9994" rx="4"></rect>
<rect x="65.00349999999999" y="136.99629999999996" width="5.9994" height="5.9994" rx="4"></rect>
<rect x="73.00269999999999" y="136.99629999999996" width="5.9994" height="5.9994" rx="4"></rect>
<rect x="97.0003" y="136.99629999999996" width="5.9994" height="5.9994" rx="4"></rect>
<rect x="104.9995" y="136.99629999999996" width="5.9994" height="5.9994" rx="4"></rect>
<rect x="112.99869999999999" y="136.99629999999996" width="5.9994" height="5.9994" rx="4"></rect>
<rect x="120.99789999999999" y="136.99629999999996" width="5.9994" height="5.9994" rx="4"></rect>
<rect x="128.9971" y="136.99629999999996" width="5.9994" height="5.9994" rx="4"></rect>
<rect x="160.99389999999997" y="136.99629999999996" width="5.9994" height="5.9994" rx="4"></rect>
<rect x="168.99309999999997" y="136.99629999999996" width="5.9994" height="5.9994" rx="4"></rect>
<rect x="176.99229999999997" y="136.99629999999996" width="5.9994" height="5.9994" rx="4"></rect>
<rect x="192.99069999999998" y="136.99629999999996" width="5.9994" height="5.9994" rx="4"></rect>
<rect x="65.00349999999999" y="144.99549999999996" width="5.9994" height="5.9994" rx="4"></rect>
<rect x="81.00189999999999" y="144.99549999999996" width="5.9994" height="5.9994" rx="4"></rect>
<rect x="89.0011" y="144.99549999999996" width="5.9994" height="5.9994" rx="4"></rect>
<rect x="97.0003" y="144.99549999999996" width="5.9994" height="5.9994" rx="4"></rect>
<rect x="120.99789999999999" y="144.99549999999996" width="5.9994" height="5.9994" rx="4"></rect>
<rect x="128.9971" y="144.99549999999996" width="5.9994" height="5.9994" rx="4"></rect>
<rect x="144.99549999999996" y="144.99549999999996" width="5.9994" height="5.9994" rx="4"></rect>
<rect x="160.99389999999997" y="144.99549999999996" width="5.9994" height="5.9994" rx="4"></rect>
<rect x="184.99149999999997" y="144.99549999999996" width="5.9994" height="5.9994" rx="4"></rect>
<rect x="192.99069999999998" y="144.99549999999996" width="5.9994" height="5.9994" rx="4"></rect>
<rect x="65.00349999999999" y="152.99469999999997" width="5.9994" height="5.9994" rx="4"></rect>
<rect x="89.0011" y="152.99469999999997" width="5.9994" height="5.9994" rx="4"></rect>
<rect x="128.9971" y="152.99469999999997" width="5.9994" height="5.9994" rx="4"></rect>
<rect x="160.99389999999997" y="152.99469999999997" width="5.9994" height="5.9994" rx="4"></rect>
<rect x="168.99309999999997" y="152.99469999999997" width="5.9994" height="5.9994" rx="4"></rect>
<rect x="176.99229999999997" y="152.99469999999997" width="5.9994" height="5.9994" rx="4"></rect>
<rect x="184.99149999999997" y="152.99469999999997" width="5.9994" height="5.9994" rx="4"></rect>
<rect x="97.0003" y="160.99389999999997" width="5.9994" height="5.9994" rx="4"></rect>
<rect x="104.9995" y="160.99389999999997" width="5.9994" height="5.9994" rx="4"></rect>
<rect x="112.99869999999999" y="160.99389999999997" width="5.9994" height="5.9994" rx="4"></rect>
<rect x="128.9971" y="160.99389999999997" width="5.9994" height="5.9994" rx="4"></rect>
<rect x="136.99629999999996" y="160.99389999999997" width="5.9994" height="5.9994" rx="4"></rect>
<rect x="144.99549999999996" y="160.99389999999997" width="5.9994" height="5.9994" rx="4"></rect>
<rect x="152.99469999999997" y="160.99389999999997" width="5.9994" height="5.9994" rx="4"></rect>
<rect x="160.99389999999997" y="160.99389999999997" width="5.9994" height="5.9994" rx="4"></rect>
<rect x="192.99069999999998" y="160.99389999999997" width="5.9994" height="5.9994" rx="4"></rect>
<rect x="65.00349999999999" y="168.99309999999997" width="5.9994" height="5.9994" rx="4"></rect>
<rect x="73.00269999999999" y="168.99309999999997" width="5.9994" height="5.9994" rx="4"></rect>
<rect x="81.00189999999999" y="168.99309999999997" width="5.9994" height="5.9994" rx="4"></rect>
<rect x="112.99869999999999" y="168.99309999999997" width="5.9994" height="5.9994" rx="4"></rect>
<rect x="128.9971" y="168.99309999999997" width="5.9994" height="5.9994" rx="4"></rect>
<rect x="152.99469999999997" y="168.99309999999997" width="5.9994" height="5.9994" rx="4"></rect>
<rect x="160.99389999999997" y="168.99309999999997" width="5.9994" height="5.9994" rx="4"></rect>
<rect x="176.99229999999997" y="168.99309999999997" width="5.9994" height="5.9994" rx="4"></rect>
<rect x="97.0003" y="176.99229999999997" width="5.9994" height="5.9994" rx="4"></rect>
<rect x="104.9995" y="176.99229999999997" width="5.9994" height="5.9994" rx="4"></rect>
<rect x="112.99869999999999" y="176.99229999999997" width="5.9994" height="5.9994" rx="4"></rect>
<rect x="136.99629999999996" y="176.99229999999997" width="5.9994" height="5.9994" rx="4"></rect>
<rect x="160.99389999999997" y="176.99229999999997" width="5.9994" height="5.9994" rx="4"></rect>
<rect x="168.99309999999997" y="176.99229999999997" width="5.9994" height="5.9994" rx="4"></rect>
<rect x="176.99229999999997" y="176.99229999999997" width="5.9994" height="5.9994" rx="4"></rect>
<rect x="192.99069999999998" y="176.99229999999997" width="5.9994" height="5.9994" rx="4"></rect>
<rect x="65.00349999999999" y="184.99149999999997" width="5.9994" height="5.9994" rx="4"></rect>
<rect x="73.00269999999999" y="184.99149999999997" width="5.9994" height="5.9994" rx="4"></rect>
<rect x="89.0011" y="184.99149999999997" width="5.9994" height="5.9994" rx="4"></rect>
<rect x="97.0003" y="184.99149999999997" width="5.9994" height="5.9994" rx="4"></rect>
<rect x="112.99869999999999" y="184.99149999999997" width="5.9994" height="5.9994" rx="4"></rect>
<rect x="120.99789999999999" y="184.99149999999997" width="5.9994" height="5.9994" rx="4"></rect>
<rect x="128.9971" y="184.99149999999997" width="5.9994" height="5.9994" rx="4"></rect>
<rect x="168.99309999999997" y="184.99149999999997" width="5.9994" height="5.9994" rx="4"></rect>
<rect x="73.00269999999999" y="192.99069999999998" width="5.9994" height="5.9994" rx="4"></rect>
<rect x="81.00189999999999" y="192.99069999999998" width="5.9994" height="5.9994" rx="4"></rect>
<rect x="97.0003" y="192.99069999999998" width="5.9994" height="5.9994" rx="4"></rect>
<rect x="104.9995" y="192.99069999999998" width="5.9994" height="5.9994" rx="4"></rect>
<rect x="112.99869999999999" y="192.99069999999998" width="5.9994" height="5.9994" rx="4"></rect>
<rect x="120.99789999999999" y="192.99069999999998" width="5.9994" height="5.9994" rx="4"></rect>
<rect x="128.9971" y="192.99069999999998" width="5.9994" height="5.9994" rx="4"></rect>
<rect x="152.99469999999997" y="192.99069999999998" width="5.9994" height="5.9994" rx="4"></rect>
<rect x="184.99149999999997" y="192.99069999999998" width="5.9994" height="5.9994" rx="4"></rect>
<rect x="192.99069999999998" y="192.99069999999998" width="5.9994" height="5.9994" rx="4"></rect>
</g>
<g>
<rect x="3.9995999999999996" y="3.9995999999999996" width="47.9952" fill="none" height="47.9952" stroke-width="7.999199999999999" stroke="#222222" rx="7.999199999999999"></rect>
<rect x="15.998399999999998" y="15.998399999999998" width="23.9976" fill="#222222" height="23.9976" rx="3.9995999999999996"></rect>
<rect x="148.0052" y="3.9995999999999996" width="47.9952" fill="none" height="47.9952" stroke-width="7.999199999999999" stroke="#222222" rx="7.999199999999999"></rect>
<rect x="160.00400000000002" y="15.998399999999998" width="23.9976" fill="#222222" height="23.9976" rx="3.9995999999999996"></rect>
<rect x="3.9995999999999996" y="148.0052" width="47.9952" fill="none" height="47.9952" stroke-width="7.999199999999999" stroke="#222222" rx="7.999199999999999"></rect>
<rect x="15.998399999999998" y="160.00400000000002" width="23.9976" fill="#222222" height="23.9976" rx="3.9995999999999996"></rect>
</g>
</g>
</svg>