<svg xmlns="http://www.w3.org/2000/svg" xmlns:xlink="http://www.w3.org/1999/xlink" version="1.1" x="0" y="0" viewBox="0 0 220 220" width="220" height="220">
<rect x="0" y="0" width="220" fill="#FFFFFF" height="220" stroke="none"></rect>
<g transform="translate(10, 10)">
<g fill="#222222">
<rect x="65.60343999999999" y="1.60984" width="4.799519999999999" height="4.799519999999999" rx="4"></rect>
<rect x="73.60264" y="1.60984" width="4.799519999999999" height="4.799519999999999" rx="4"></rect>
<rect x="81.60184" y="1.60984" width="4.799519999999999" height="4.799519999999999" rx="4"></rect>
<rect x="89.60104" y="1.60984" width="4.799519999999999" height="4.799519999999999" rx="4"></rect>
<rect x="113.59863999999999" y="1.60984" width="4.799519999999999" height="4.799519999999999" rx="4"></rect>
<rect x="121.59783999999999" y="1.60984" width="4.799519999999999" height="4.799519999999999" rx="4"></rect>
<rect x="81.60184" y="9.60904" width="4.799519999999999" height="4.799519999999999" rx="4"></rect>
<rect x="97.60024" y="9.60904" width="4.799519999999999" height="4.799519999999999" rx="4"></rect>
<rect x="105.59944" y="9.60904" width="4.799519999999999" height="4.799519999999999" rx="4"></rect>
<rect x="121.59783999999999" y="9.60904" width="4.799519999999999" height="4.799519999999999" rx="4"></rect>
<rect x="129.59704" y="9.60904" width="4.799519999999999" height="4.799519999999999" rx="4"></rect>
<rect x="65.60343999999999" y="17.60824" width="4.799519999999999" height="4.799519999999999" rx="4"></rect>
<rect x="97.60024" y="17.60824" width="4.799519999999999" height="4.799519999999999" rx="4"></rect>
<rect x="113.59863999999999" y="17.60824" width="4.799519999999999" height="4.799519999999999" rx="4"></rect>
<rect x="121.59783999999999" y="17.60824" width="4.799519999999999" height="4.799519999999999" rx="4"></rect>
<rect x="65.60343999999999" y="25.60744" width="4.799519999999999" height="4.799519999999999" rx="4"></rect>
<rect x="73.60264" y="25.60744" width="4.799519999999999" height="4.799519999999999" rx="4"></rect>
<rect x="97.60024" y="25.60744" width="4.799519999999999" height="4.799519999999999" rx="4"></rect>
<rect x="113.59863999999999" y="25.60744" width="4.799519999999999" height="4.799519999999999" rx="4"></rect>
<rect x="73.60264" y="33.60664" width="4.799519999999999" height="4.799519999999999" rx="4"></rect>
<rect x="81.60184" y="33.60664" width="4.799519999999999" height="4.799519999999999" rx="4"></rect>
<rect x="113.59863999999999" y="33.60664" width="4.799519999999999" height="4.799519999999999" rx="4"></rect>
<rect x="121.59783999999999" y="33.60664" width="4.799519999999999" height="4.799519999999999" rx="4"></rect>
<rect x="65.60343999999999" y="41.60583999999999" width="4.799519999999999" height="4.799519999999999" rx="4"></rect>
<rect x="89.60104" y="41.60583999999999" width="4.799519999999999" height="4.799519999999999" rx="4"></rect>
<rect x="97.60024" y="41.60583999999999" width="4.799519999999999" height="4.799519999999999" rx="4"></rect>
<rect x="121.59783999999999" y="41.60583999999999" width="4.799519999999999" height="4.799519999999999" rx="4"></rect>
<rect x="129.59704" y="41.60583999999999" width="4.799519999999999" height="4.799519999999999" rx="4"></rect>
<rect x="65.60343999999999" y="49.605039999999995" width="4.799519999999999" height="4.799519999999999" rx="4"></rect>
<rect x="81.60184" y="49.605039999999995" width="4.799519999999999" height="4.799519999999999" rx="4"></rect>
<rect x="97.60024" y="49.605039999999995" width="4.799519999999999" height="4.799519999999999" rx="4"></rect>
<rect x="113.59863999999999" y="49.605039999999995" width="4.799519999999999" height="4.799519999999999" rx="4"></rect>
<rect x="129.59704" y="49.605039999999995" width="4.799519999999999" height="4.799519999999999" rx="4"></rect>
<rect x="65.60343999999999" y="57.60423999999999" width="4.799519999999999" height="4.799519999999999" rx="4"></rect>
<rect x="89.60104" y="57.60423999999999" width="4.799519999999999" height="4.799519999999999" rx="4"></rect>
<rect x="97.60024" y="57.60423999999999" width="4.799519999999999" height="4.799519999999999" rx="4"></rect>
<rect x="113.59863999999999" y="57.60423999999999" width="4.799519999999999" height="4.799519999999999" rx="4"></rect>
<rect x="121.59783999999999" y="57.60423999999999" width="4.799519999999999" height="4.799519999999999" rx="4"></rect>
<rect x="9.60904" y="65.60343999999999" width="4.799519999999999" height="4.799519999999999" rx="4"></rect>
<rect x="25.60744" y="65.60343999999999" width="4.799519999999999" height="4.799519999999999" rx="4"></rect>
<rect x="41.60583999999999" y="65.60343999999999" width="4.799519999999999" height="4.799519999999999" rx="4"></rect>
<rect x="49.605039999999995" y="65.60343999999999" width="4.799519999999999" height="4.799519999999999" rx="4"></rect>
<rect x="57.60423999999999" y="65.60343999999999" width="4.799519999999999" height="4.799519999999999" rx="4"></rect>
<rect x="65.60343999999999" y="65.60343999999999" width="4.799519999999999" height="4.799519999999999" rx="4"></rect>
<rect x="89.60104" y="65.60343999999999" width="4.799519999999999" height="4.799519999999999" rx="4"></rect>
<rect x="105.59944" y="65.60343999999999" width="4.799519999999999" height="4.799519999999999" rx="4"></rect>
<rect x="113.59863999999999" y="65.60343999999999" width="4.799519999999999" height="4.799519999999999" rx="4"></rect>
<rect x="129.59704" y="65.60343999999999" width="4.799519999999999" height="4.799519999999999" rx="4"></rect>
<rect x="137.59623999999997" y="65.60343999999999" width="4.799519999999999" height="4.799519999999999" rx="4"></rect>
<rect x="145.59543999999997" y="65.60343999999999" width="4.799519999999999" height="4.799519999999999" rx="4"></rect>
<rect x="153.59463999999997" y="65.60343999999999" width="4.799519999999999" height="4.799519999999999" rx="4"></rect>
<rect x="169.59303999999997" y="65.60343999999999" width="4.799519999999999" height="4.799519999999999" rx="4"></rect>
<rect x="177.59223999999998" y="65.60343999999999" width="4.799519999999999" height="4.799519999999999" rx="4"></rect>
<rect x="193.59063999999998" y="65.60343999999999" width="4.799519999999999" height="4.799519999999999" rx="4"></rect>
<rect x="17.60824" y="73.60264" width="4.799519999999999" height="4.799519999999999" rx="4"></rect>
<rect x="73.60264" y="73.60264" width="4.799519999999999" height="4.799519999999999" rx="4"></rect>
<rect x="81.60184" y="73.60264" width="4.799519999999999" height="4.799519999999999" rx="4"></rect>
<rect x="89.60104" y="73.60264" width="4.799519999999999" height="4.799519999999999" rx="4"></rect>
<rect x="97.60024" y="73.60264" width="4.799519999999999" height="4.799519999999999" rx="4"></rect>
<rect x="129.59704" y="73.60264" width="4.799519999999999" height="4.799519999999999" rx="4"></rect>
<rect x="145.59543999999997" y="73.60264" width="4.799519999999999" height="4.799519999999999" rx="4"></rect>
<rect x="193.59063999999998" y="73.60264" width="4.799519999999999" height="4.799519999999999" rx="4"></rect>
<rect x="1.60984" y="81.60184" width="4.799519999999999" height="4.799519999999999" rx="4"></rect>
<rect x="9.60904" y="81.60184" width="4.799519999999999" height="4.799519999999999" rx="4"></rect>
<rect x="17.60824" y="81.60184" width="4.799519999999999" height="4.799519999999999" rx="4"></rect>
<rect x="25.60744" y="81.60184" width="4.799519999999999" height="4.799519999999999" rx="4"></rect>
<rect x="49.605039999999995" y="81.60184" width="4.799519999999999" height="4.799519999999999" rx="4"></rect>
<rect x="57.60423999999999" y="81.60184" width="4.799519999999999" height="4.799519999999999" rx="4"></rect>
<rect x="89.60104" y="81.60184" width="4.799519999999999" height="4.799519999999999" rx="4"></rect>
<rect x="105.59944" y="81.60184" width="4.799519999999999" height="4.799519999999999" rx="4"></rect>
<rect x="137.59623999999997" y="81.60184" width="4.799519999999999" height="4.799519999999999" rx="4"></rect>
<rect x="145.59543999999997" y="81.60184" width="4.799519999999999" height="4.799519999999999" rx="4"></rect>
<rect x="185.59143999999998" y="81.60184" width="4.799519999999999" height="4.799519999999999" rx="4"></rect>
<rect x="193.59063999999998" y="81.60184" width="4.799519999999999" height="4.799519999999999" rx="4"></rect>
<rect x="33.60664" y="89.60104" width="4.799519999999999" height="4.799519999999999" rx="4"></rect>
<rect x="41.60583999999999" y="89.60104" width="4.799519999999999" height="4.799519999999999" rx="4"></rect>
<rect x="57.60423999999999" y="89.60104" width="4.799519999999999" height="4.799519999999999" rx="4"></rect>
<rect x="97.60024" y="89.60104" width="4.799519999999999" height="4.799519999999999" rx="4"></rect>
<rect x="105.59944" y="89.60104" width="4.799519999999999" height="4.799519999999999" rx="4"></rect>
<rect x="121.59783999999999" y="89.60104" width="4.799519999999999" height="4.799519999999999" rx="4"></rect>
<rect x="129.59704" y="89.60104" width="4.799519999999999" height="4.799519999999999" rx="4"></rect>
<rect x="145.59543999999997" y="89.60104" width="4.799519999999999" height="4.799519999999999" rx="4"></rect>
<rect x="1.60984" y="97.60024" width="4.799519999999999" height="4.799519999999999" rx="4"></rect>
<rect x="9.60904" y="97.60024" width="4.799519999999999" height="4.799519999999999" rx="4"></rect>
<rect x="49.605039999999995" y="97.60024" width="4.799519999999999" height="4.799519999999999" rx="4"></rect>
<rect x="57.60423999999999" y="97.60024" width="4.799519999999999" height="4.799519999999999" rx="4"></rect>
<rect x="89.60104" y="97.60024" width="4.799519999999999" height="4.799519999999999" rx="4"></rect>
<rect x="113.59863999999999" y="97.60024" width="4.799519999999999" height="4.799519999999999" rx="4"></rect>
<rect x="129.59704" y="97.60024" width="4.799519999999999" height="4.799519999999999" rx="4"></rect>
<rect x="137.59623999999997" y="97.60024" width="4.799519999999999" height="4.799519999999999" rx="4"></rect>
<rect x="145.59543999999997" y="97.60024" width="4.799519999999999" height="4.799519999999999" rx="4"></rect>
<rect x="169.59303999999997" y="97.60024" width="4.799519999999999" height="4.799519999999999" rx="4"></rect>
<rect x="185.59143999999998" y="97.60024" width="4.799519999999999" height="4.799519999999999" rx="4"></rect>
<rect x="193.59063999999998" y="97.60024" width="4.799519999999999" height="4.799519999999999" rx="4"></rect>
<rect x="17.60824" y="105.59944" width="4.799519999999999" height="4.799519999999999" rx="4"></rect>
<rect x="33.60664" y="105.59944" width="4.799519999999999" height="4.799519999999999" rx="4"></rect>
<rect x="65.60343999999999" y="105.59944" width="4.799519999999999" height="4.799519999999999" rx="4"></rect>
<rect x="73.60264" y="105.59944" width="4.799519999999999" height="4.799519999999999" rx="4"></rect>
<rect x="81.60184" y="105.59944" width="4.799519999999999" height="4.799519999999999" rx="4"></rect>
<rect x="89.60104" y="105.59944" width="4.799519999999999" height="4.799519999999999" rx="4"></rect>
<rect x="97.60024" y="105.59944" width="4.799519999999999" height="4.799519999999999" rx="4"></rect>
<rect x="137.59623999999997" y="105.59944" width="4.799519999999999" height="4.799519999999999" rx="4"></rect>
<rect x="145.59543999999997" y="105.59944" width="4.799519999999999" height="4.799519999999999" rx="4"></rect>
<rect x="153.59463999999997" y="105.59944" width="4.799519999999999" height="4.799519999999999" rx="4"></rect>
<rect x="169.59303999999997" y="105.59944" width="4.799519999999999" height="4.799519999999999" rx="4"></rect>
<rect x="177.59223999999998" y="105.59944" width="4.799519999999999" height="4.799519999999999" rx="4"></rect>
<rect x="193.59063999999998" y="105.59944" width="4.799519999999999" height="4.799519999999999" rx="4"></rect>
<rect x="1.60984" y="113.59863999999999" width="4.799519999999999" height="4.799519999999999" rx="4"></rect>
<rect x="25.60744" y="113.59863999999999" width="4.799519999999999" height="4.799519999999999" rx="4"></rect>
<rect x="41.60583999999999" y="113.59863999999999" width="4.799519999999999" height="4.799519999999999" rx="4"></rect>
<rect x="49.605039999999995" y="113.59863999999999" width="4.799519999999999" height="4.799519999999999" rx="4"></rect>
<rect x="65.60343999999999" y="113.59863999999999" width="4.799519999999999" height="4.799519999999999" rx="4"></rect>
<rect x="73.60264" y="113.59863999999999" width="4.799519999999999" height="4.799519999999999" rx="4"></rect>
<rect x="81.60184" y="113.59863999999999" width="4.799519999999999" height="4.799519999999999" rx="4"></rect>
<rect x="89.60104" y="113.59863999999999" width="4.799519999999999" height="4.799519999999999" rx="4"></rect>
<rect x="105.59944" y="113.59863999999999" width="4.799519999999999" height="4.799519999999999" rx="4"></rect>
<rect x="113.59863999999999" y="113.59863999999999" width="4.799519999999999" height="4.799519999999999" rx="4"></rect>
<rect x="145.59543999999997" y="113.59863999999999" width="4.799519999999999" height="4.799519999999999" rx="4"></rect>
<rect x="177.59223999999998" y="113.59863999999999" width="4.799519999999999" height="4.799519999999999" rx="4"></rect>
<rect x="193.59063999999998" y="113.59863999999999" width="4.799519999999999" height="4.799519999999999" rx="4"></rect>
<rect x="9.60904" y="121.59783999999999" width="4.799519999999999" height="4.799519999999999" rx="4"></rect>
<rect x="17.60824" y="121.59783999999999" width="4.799519999999999" height="4.799519999999999" rx="4"></rect>
<rect x="25.60744" y="121.59783999999999" width="4.799519999999999" height="4.799519999999999" rx="4"></rect>
<rect x="33.60664" y="121.59783999999999" width="4.799519999999999" height="4.799519999999999" rx="4"></rect>
<rect x="65.60343999999999" y="121.59783999999999" width="4.799519999999999" height="4.799519999999999" rx="4"></rect>
<rect x="73.60264" y="121.59783999999999" width="4.799519999999999" height="4.799519999999999" rx="4"></rect>
<rect x="81.60184" y="121.59783999999999" width="4.799519999999999" height="4.799519999999999" rx="4"></rect>
<rect x="97.60024" y="121.59783999999999" width="4.799519999999999" height="4.799519999999999" rx="4"></rect>
<rect x="105.59944" y="121.59783999999999" width="4.799519999999999" height="4.799519999999999" rx="4"></rect>
<rect x="113.59863999999999" y="121.59783999999999" width="4.799519999999999" height="4.799519999999999" rx="4"></rect>
<rect x="129.59704" y="121.59783999999999" width="4.799519999999999" height="4.799519999999999" rx="4"></rect>
<rect x="153.59463999999997" y="121.59783999999999" width="4.799519999999999" height="4.799519999999999" rx="4"></rect>
<rect x="161.59383999999997" y="121.59783999999999" width="4.799519999999999" height="4.799519999999999" rx="4"></rect>
<rect x="169.59303999999997" y="121.59783999999999" width="4.799519999999999" height="4.799519999999999" rx="4"></rect>
<rect x="185.59143999999998" y="121.59783999999999" width="4.799519999999999" height="4.799519999999999" rx="4"></rect>
<rect x="1.60984" y="129.59704" width="4.799519999999999" height="4.799519999999999" rx="4"></rect>
<rect x="9.60904" y="129.59704" width="4.799519999999999" height="4.799519999999999" rx="4"></rect>
<rect x="17.60824" y="129.59704" width="4.799519999999999" height="4.799519999999999" rx="4"></rect>
<rect x="25.60744" y="129.59704" width="4.799519999999999" height="4.799519999999999" rx="4"></rect>
<rect x="41.60583999999999" y="129.59704" width="4.799519999999999" height="4.799519999999999" rx="4"></rect>
<rect x="49.605039999999995" y="129.59704" width="4.799519999999999" height="4.799519999999999" rx="4"></rect>
<rect x="57.60423999999999" y="129.59704" width="4.799519999999999" height="4.799519999999999" rx="4"></rect>
<rect x="81.60184" y="129.59704" width="4.799519999999999" height="4.799519999999999" rx="4"></rect>
<rect x="97.60024" y="129.59704" width="4.799519999999999" height="4.799519999999999" rx="4"></rect>
<rect x="121.59783999999999" y="129.59704" width="4.799519999999999" height="4.799519999999999" rx="4"></rect>
<rect x="169.59303999999997" y="129.59704" width="4.799519999999999" height="4.799519999999999" rx="4"></rect>
<rect x="177.59223999999998" y="129.59704" width="4.799519999999999" height="4.799519999999999" rx="4"></rect>
<rect x="65.60343999999999" y="137.59623999999997" width="4.799519999999999" height="4.799519999999999" rx="4"></rect>
<rect x="73.60264" y="137.59623999999997" width="4.799519999999999" height="4.799519999999999" rx="4"></rect>
<rect x="97.60024" y="137.59623999999997" width="4.799519999999999" height="4.799519999999999" rx="4"></rect>
<rect x="105.59944" y="137.59623999999997" width="4.799519999999999" height="4.799519999999999" rx="4"></rect>
<rect x="113.59863999999999" y="137.59623999999997" width="4.799519999999999" height="4.799519999999999" rx="4"></rect>
<rect x="121.59783999999999" y="137.59623999999997" width="4.799519999999999" height="4.799519999999999" rx="4"></rect>
<rect x="169.59303999999997" y="137.59623999999997" width="4.799519999999999" height="4.799519999999999" rx="4"></rect>
<rect x="177.59223999999998" y="137.59623999999997" width="4.799519999999999" height="4.799519999999999" rx="4"></rect>
<rect x="193.59063999999998" y="137.59623999999997" width="4.799519999999999" height="4.799519999999999" rx="4"></rect>
<rect x="65.60343999999999" y="145.59543999999997" width="4.799519999999999" height="4.799519999999999" rx="4"></rect>
<rect x="81.60184" y="145.59543999999997" width="4.799519999999999" height="4.799519999999999" rx="4"></rect>
<rect x="89.60104" y="145.59543999999997" width="4.799519999999999" height="4.799519999999999" rx="4"></rect>
<rect x="97.60024" y="145.59543999999997" width="4.799519999999999" height="4.799519999999999" rx="4"></rect>
<rect x="121.59783999999999" y="145.59543999999997" width="4.799519999999999" height="4.799519999999999" rx="4"></rect>
<rect x="137.59623999999997" y="129.59703999999996" width="28.797119999999996" height="4.799519999999999" rx="2"></rect>
<rect x="161.59383999999997" y="137.59623999999997" width="4.799519999999999" height="28.797119999999996" rx="2"></rect>
<rect x="129.59703999999996" y="161.59383999999997" width="28.797119999999996" height="4.799519999999999" rx="2"></rect>
<rect x="129.59703999999996" y="129.59703999999996" width="4.799519999999999" height="28.797119999999996" rx="2"></rect>
<rect x="145.59543999999997" y="145.59543999999997" width="4.799519999999999" height="4.799519999999999" rx="4"></rect>
<rect x="185.59143999999998" y="145.59543999999997" width="4.799519999999999" height="4.799519999999999" rx="4"></rect>
<rect x="193.59063999999998" y="145.59543999999997" width="4.799519999999999" height="4.799519999999999" rx="4"></rect>
<rect x="65.60343999999999" y="153.59463999999997" width="4.799519999999999" height="4.799519999999999" rx="4"></rect>
<rect x="89.60104" y="153.59463999999997" width="4.799519999999999" height="4.799519999999999" rx="4"></rect>
<rect x="169.59303999999997" y="153.59463999999997" width="4.799519999999999" height="4.799519999999999" rx="4"></rect>
<rect x="177.59223999999998" y="153.59463999999997" width="4.799519999999999" height="4.799519999999999" rx="4"></rect>
<rect x="185.59143999999998" y="153.59463999999997" width="4.799519999999999" height="4.799519999999999" rx="4"></rect>
<rect x="97.60024" y="161.59383999999997" width="4.799519999999999" height="4.799519999999999" rx="4"></rect>
<rect x="105.59944" y="161.59383999999997" width="4.799519999999999" height="4.799519999999999" rx="4"></rect>
<rect x="113.59863999999999" y="161.59383999999997" width="4.799519999999999" height="4.799519999999999" rx="4"></rect>
<rect x="193.59063999999998" y="161.59383999999997" width="4.799519999999999" height="4.799519999999999" rx="4"></rect>
<rect x="65.60343999999999" y="169.59303999999997" width="4.799519999999999" height="4.799519999999999" rx="4"></rect>
<rect x="73.60264" y="169.59303999999997" width="4.799519999999999" height="4.799519999999999" rx="4"></rect>
<rect x="81.60184" y="169.59303999999997" width="4.799519999999999" height="4.799519999999999" rx="4"></rect>
<rect x="113.59863999999999" y="169.59303999999997" width="4.799519999999999" height="4.799519999999999" rx="4"></rect>
<rect x="129.59704" y="169.59303999999997" width="4.799519999999999" height="4.799519999999999" rx="4"></rect>
<rect x="153.59463999999997" y="169.59303999999997" width="4.799519999999999" height="4.799519999999999" rx="4"></rect>
<rect x="161.59383999999997" y="169.59303999999997" width="4.799519999999999" height="4.799519999999999" rx="4"></rect>
<rect x="177.59223999999998" y="169.59303999999997" width="4.799519999999999" height="4.799519999999999" rx="4"></rect>
<rect x="97.60024" y="177.59223999999998" width="4.799519999999999" height="4.799519999999999" rx="4"></rect>
<rect x="105.59944" y="177.59223999999998" width="4.799519999999999" height="4.799519999999999" rx="4"></rect>
<rect x="113.59863999999999" y="177.59223999999998" width="4.799519999999999" height="4.799519999999999" rx="4"></rect>
<rect x="137.59623999999997" y="177.59223999999998" width="4.799519999999999" height="4.799519999999999" rx="4"></rect>
<rect x="161.59383999999997" y="177.59223999999998" width="4.799519999999999" height="4.799519999999999" rx="4"></rect>
<rect x="169.59303999999997" y="177.59223999999998" width="4.799519999999999" height="4.799519999999999" rx="4"></rect>
<rect x="177.59223999999998" y="177.59223999999998" width="4.799519999999999" height="4.799519999999999" rx="4"></rect>
<rect x="193.59063999999998" y="177.59223999999998" width="4.799519999999999" height="4.799519999999999" rx="4"></rect>
<rect x="65.60343999999999" y="185.59143999999998" width="4.799519999999999" height="4.799519999999999" rx="4"></rect>
<rect x="73.60264" y="185.59143999999998" width="4.799519999999999" height="4.799519999999999" rx="4"></rect>
<rect x="89.60104" y="185.59143999999998" width="4.799519999999999" height="4.799519999999999" rx="4"></rect>
<rect x="97.60024" y="185.59143999999998" width="4.799519999999999" height="4.799519999999999" rx="4"></rect>
<rect x="113.59863999999999" y="185.59143999999998" width="4.799519999999999" height="4.799519999999999" rx="4"></rect>
<rect x="121.59783999999999" y="185.59143999999998" width="4.799519999999999" height="4.799519999999999" rx="4"></rect>
<rect x="129.59704" y="185.59143999999998" width="4.799519999999999" height="4.799519999999999" rx="4"></rect>
<rect x="169.59303999999997" y="185.59143999999998" width="4.799519999999999" height="4.799519999999999" rx="4"></rect>
<rect x="73.60264" y="193.59063999999998" width="4.799519999999999" height="4.799519999999999" rx="4"></rect>
<rect x="81.60184" y="193.59063999999998" width="4.799519999999999" height="4.799519999999999" rx="4"></rect>
<rect x="97.60024" y="193.59063999999998" width="4.799519999999999" height="4.799519999999999" rx="4"></rect>
<rect x="105.59944" y="193.59063999999998" width="4.799519999999999" height="4.799519999999999" rx="4"></rect>
<rect x="113.59863999999999" y="193.59063999999998" width="4.799519999999999" height="4.799519999999999" rx="4"></rect>
<rect x="121.59783999999999" y="193.59063999999998" width="4.799519999999999" height="4.799519999999999" rx="4"></rect>
<rect x="129.59704" y="193.59063999999998" width="4.799519999999999" height="4.799519999999999" rx="4"></rect>
<rect x="153.59463999999997" y="193.59063999999998" width="4.799519999999999" height="4.799519999999999" rx="4"></rect>
<rect x="185.59143999999998" y="193.59063999999998" width="4.799519999999999" height="4.799519999999999" rx="4"></rect>
<rect x="193.59063999999998" y="193.59063999999998" width="4.799519999999999" height="4.799519999999999" rx="4"></rect>
<rect x="177.59223999999998" y="105.59944" width="4.799519999999999" height="12.79872" rx="2"></rect>
<rect x="177.59223999999998" y="129.59704" width="4.799519999999999" height="12.79872" rx="2"></rect>
<rect x="177.59223999999998" y="169.59303999999997" width="4.799519999999999" height="12.79872" rx="2"></rect>
<rect x="81.60184" y="145.59543999999997" width="20.797919999999998" height="4.799519999999999" rx="2"></rect>
<rect x="185.59143999999998" y="145.59543999999997" width="12.79872" height="4.799519999999999" rx="2"></rect>
<rect x="121.59783999999999" y="1.60984" width="4.799519999999999" height="20.797919999999998" rx="2"></rect>
<rect x="121.59783999999999" y="33.60664" width="4.799519999999999" height="12.79872" rx="2"></rect>
<rect x="121.59783999999999" y="129.59704" width="4.799519999999999" height="20.797919999999998" rx="2"></rect>
<rect x="121.59783999999999" y="185.59143999999998" width="4.799519999999999" height="12.79872" rx="2"></rect>
<rect x="161.59383999999997" y="169.59303999999997" width="4.799519999999999" height="12.79872" rx="2"></rect>
<rect x="33.60664" y="89.60104" width="12.79872" height="4.799519999999999" rx="2"></rect>
<rect x="97.60024" y="89.60104" width="12.79872" height="4.799519999999999" rx="2"></rect>
<rect x="121.59783999999999" y="89.60104" width="12.79872" height="4.799519999999999" rx="2"></rect>
<rect x="65.60343999999999" y="17.60824" width="4.799519999999999" height="12.79872" rx="2"></rect>
<rect x="65.60343999999999" y="41.60583999999999" width="4.799519999999999" height="28.797119999999996" rx="2"></rect>
<rect x="65.60343999999999" y="105.59944" width="4.799519999999999" height="20.797919999999998" rx="2"></rect>
<rect x="65.60343999999999" y="137.59623999999997" width="4.799519999999999" height="20.797919999999998" rx="2"></rect>
<rect x="97.60024" y="161.59383999999997" width="20.797919999999998" height="4.799519999999999" rx="2"></rect>
<rect x="89.60104" y="57.60423999999999" width="12.79872" height="4.799519999999999" rx="2"></rect>
<rect x="113.59863999999999" y="57.60423999999999" width="12.79872" height="4.799519999999999" rx="2"></rect>
<rect x="73.60264" y="73.60264" width="28.797119999999996" height="4.799519999999999" rx="2"></rect>
<rect x="57.60423999999999" y="81.60184" width="4.799519999999999" height="20.797919999999998" rx="2"></rect>
<rect x="97.60024" y="177.59223999999998" width="20.797919999999998" height="4.799519999999999" rx="2"></rect>
<rect x="17.60824" y="73.60264" width="4.799519999999999" height="12.79872" rx="2"></rect>
<rect x="17.60824" y="121.59783999999999" width="4.799519999999999" height="12.79872" rx="2"></rect>
<rect x="41.60583999999999" y="129.59704" width="20.797919999999998" height="4.799519999999999" rx="2"></rect>
<rect x="73.60264" y="33.60664" width="12.79872" height="4.799519999999999" rx="2"></rect>
<rect x="65.60343999999999" y="185.59143999999998" width="12.79872" height="4.799519999999999" rx="2"></rect>
<rect x="89.60104" y="185.59143999999998" width="12.79872" height="4.799519999999999" rx="2"></rect>
<rect x="97.60024" y="9.60904" width="12.79872" height="4.799519999999999" rx="2"></rect>
<rect x="97.60024" y="17.60824" width="4.799519999999999" height="12.79872" rx="2"></rect>
<rect x="97.60024" y="41.60583999999999" width="4.799519999999999" height="12.79872" rx="2"></rect>
<rect x="97.60024" y="121.59783999999999" width="4.799519999999999" height="20.797919999999998" rx="2"></rect>
<rect x="41.60583999999999" y="113.59863999999999" width="12.79872" height="4.799519999999999" rx="2"></rect>
<rect x="105.59944" y="113.59863999999999" width="12.79872" height="4.799519999999999" rx="2"></rect>
<rect x="169.59303999999997" y="97.60024" width="4.799519999999999" height="12.79872" rx="2"></rect>
<rect x="169.59303999999997" y="121.59783999999999" width="4.799519999999999" height="20.797919999999998" rx="2"></rect>
<rect x="169.59303999999997" y="177.59223999999998" width="4.799519999999999" height="12.79872" rx="2"></rect>
<rect x="1.60984" y="97.60024" width="12.79872" height="4.799519999999999" rx="2"></rect>
<rect x="129.59704" y="97.60024" width="20.797919999999998" height="4.799519999999999" rx="2"></rect>
<rect x="185.59143999999998" y="97.60024" width="12.79872" height="4.799519999999999" rx="2"></rect>
<rect x="169.59303999999997" y="153.59463999999997" width="20.797919999999998" height="4.799519999999999" rx="2"></rect>
<rect x="145.59543999999997" y="65.60343999999999" width="4.799519999999999" height="28.797119999999996" rx="2"></rect>
<rect x="145.59543999999997" y="105.59944" width="4.799519999999999" height="12.79872" rx="2"></rect>
<rect x="25.60744" y="113.59863999999999" width="4.799519999999999" height="20.797919999999998" rx="2"></rect>
<rect x="65.60343999999999" y="1.60984" width="28.797119999999996" height="4.799519999999999" rx="2"></rect>
<rect x="89.60104" y="65.60343999999999" width="4.799519999999999" height="4.799519999999999" rx="2"></rect>
<rect x="89.60104" y="97.60024" width="4.799519999999999" height="20.797919999999998" rx="2"></rect>
<rect x="129.59704" y="41.60583999999999" width="4.799519999999999" height="12.79872" rx="2"></rect>
<rect x="129.59704" y="65.60343999999999" width="4.799519999999999" height="12.79872" rx="2"></rect>
<rect x="129.59704" y="185.59143999999998" width="4.799519999999999" height="12.79872" rx="2"></rect>
<rect x="105.59944" y="81.60184" width="4.799519999999999" height="4.799519999999999" rx="2"></rect>
<rect x="105.59944" y="65.60343999999999" width="12.79872" height="4.799519999999999" rx="2"></rect>
<rect x="169.59303999999997" y="65.60343999999999" width="12.79872" height="4.799519999999999" rx="2"></rect>
<rect x="185.59143999999998" y="81.60184" width="12.79872" height="4.799519999999999" rx="2"></rect>
<rect x="193.59063999999998" y="65.60343999999999" width="4.799519999999999" height="12.79872" rx="2"></rect>
<rect x="193.59063999999998" y="105.59944" width="4.799519999999999" height="12.79872" rx="2"></rect>
<rect x="193.59063999999998" y="137.59623999999997" width="4.799519999999999" height="4.799519999999999" rx="2"></rect>
<rect x="113.59863999999999" y="17.60824" width="4.799519999999999" height="20.797919999999998" rx="2"></rect>
<rect x="113.59863999999999" y="49.605039999999995" width="4.799519999999999" height="4.799519999999999" rx="2"></rect>
<rect x="113.59863999999999" y="169.59303999999997" width="4.799519999999999" height="4.799519999999999" rx="2"></rect>
<rect x="113.59863999999999" y="185.59143999999998" width="4.799519999999999" height="12.79872" rx="2"></rect>
<rect x="65.60343999999999" y="169.59303999999997" width="20.797919999999998" height="4.799519999999999" rx="2"></rect>
<rect x="81.60184" y="105.59944" width="4.799519999999999" height="28.797119999999996" rx="2"></rect>
<rect x="73.60264" y="25.60744" width="4.799519999999999" height="4.799519999999999" rx="2"></rect>
<rect x="73.60264" y="105.59944" width="4.799519999999999" height="20.797919999999998" rx="2"></rect>
<rect x="73.60264" y="193.59063999999998" width="12.79872" height="4.799519999999999" rx="2"></rect>
<rect x="185.59143999999998" y="193.59063999999998" width="12.79872" height="4.799519999999999" rx="2"></rect>
<rect x="9.60904" y="121.59783999999999" width="4.799519999999999" height="12.79872" rx="2"></rect>
</g>
<g>
<path d="M 3.9995999999999996,3.9995999999999996 L 43.995599999999996,3.9995999999999996 A 7.999199999999999,7.999199999999999 0 0,1 51.99479999999999,11.9988 L 51.99479999999999,51.99479999999999 L 43.995599999999996,51.99479999999999 L 11.9988,51.99479999999999 A 7.999199999999999,7.999199999999999 0 0,1 3.9995999999999996,43.995599999999996 Z" fill="none" stroke-width="7.999199999999999" stroke="#222222"></path>
<path d="M 15.998399999999998,15.998399999999998 L 35.996399999999994,15.998399999999998 A 3.9995999999999996,3.9995999999999996 0 0,1 39.995999999999995,19.997999999999998 L 39.995999999999995,39.995999999999995 L 35.996399999999994,39.995999999999995 L 19.997999999999998,39.995999999999995 A 3.9995999999999996,3.9995999999999996 0 0,1 15.998399999999998,35.996399999999994 Z" fill="#222222"></path>
<path d="M 196.0004,3.9995999999999996 L 196.0004,43.995599999999996 A 7.999199999999999,7.999199999999999 0 0,1 188.0012,51.99479999999999 L 156.00440000000003,51.99479999999999 L 148.0052,51.99479999999999 L 148.0052,11.9988 A 7.999199999999999,7.999199999999999 0 0,1 156.0044,3.9995999999999996 Z" fill="none" stroke-width="7.999199999999999" stroke="#222222"></path>
<path d="M 184.0016,15.998399999999998 L 184.0016,35.996399999999994 A 3.9995999999999996,3.9995999999999996 0 0,1 180.002,39.995999999999995 L 164.0036,39.995999999999995 L 160.00400000000002,39.995999999999995 L 160.00400000000002,19.997999999999998 A 3.9995999999999996,3.9995999999999996 0 0,1 164.0036,15.998399999999998 Z" fill="#222222"></path>
<path d="M 51.99479999999999,148.0052 L 51.99479999999999,188.0012 A 7.999199999999999,7.999199999999999 0 0,1 43.995599999999996,196.0004 L 11.9988,196.0004 L 3.9995999999999996,196.0004 L 3.9995999999999996,156.0044 A 7.999199999999999,7.999199999999999 0 0,1 11.9988,148.0052 Z" fill="none" stroke-width="7.999199999999999" stroke="#222222"></path>
<path d="M 27.997199999999996,160.00400000000002 L 39.995999999999995,160.00400000000002 L 39.995999999999995,164.0036 L 39.995999999999995,180.002 A 3.9995999999999996,3.9995999999999996 0 0,1 35.996399999999994,184.0016 L 15.998399999999998,184.0016 L 15.998399999999998,164.0036 A 3.9995999999999996,3.9995999999999996 0 0,1 19.997999999999998,160.00400000000002 Z" fill="#222222"></path>
</g>
</g>
</svg>