<svg xmlns="http://www.w3.org/2000/svg" xmlns:xlink="http://www.w3.org/1999/xlink" version="1.1" x="0" y="0" viewBox="0 0 220.0 220.0" width="220.0" height="220.0">

<circle xmlns="http://www.w3.org/2000/svg" cx="110.0" cy="110.0" r="107.25" stroke-width="4.0" stroke="#222222" fill="#FFFFFF"></circle>


<g shape-rendering="auto" transform="translate(11.0, 11.0) scale(0.9)">
  <circle cx="107.493" cy="15.0365" r="5.26196" fill="#222222"></circle>
  <circle cx="138.564" cy="204.968" r="5.26196" fill="#222222"></circle>
  <circle cx="111.001" cy="201.46" r="5.26196" fill="#222222"></circle>
  <circle cx="83.4385" cy="205.469" r="5.26196" fill="#222222"></circle>
  <circle cx="159.612" cy="201.46" r="3.2574" fill="#222222"></circle>
  <circle cx="159.612" cy="201.46" r="3.2574" fill="#222222"></circle>
  <circle cx="20.7962" cy="60.6401" r="3.2574" fill="#222222"></circle>
  <circle cx="20.7962" cy="147.838" r="3.2574" fill="#222222"></circle>
  <circle cx="58.3814" cy="22.5535" r="3.2574" fill="#222222"></circle>
  <circle cx="156.605" cy="22.5535" r="3.2574" fill="#222222"></circle>
  <circle cx="21.7984" cy="118.271" r="3.2574" fill="#222222"></circle>
  <circle cx="3.7574" cy="105.242" r="3.2574" fill="#222222"></circle>
  <circle cx="24.8053" cy="76.6766" r="3.2574" fill="#222222"></circle>
  <circle cx="99.9762" cy="213.989" r="3.2574" fill="#222222"></circle>
  <circle cx="122.527" cy="213.488" r="3.2574" fill="#222222"></circle>
  <circle cx="199.201" cy="124.786" r="3.2574" fill="#222222"></circle>
  <circle cx="217.243" cy="98.2255" r="3.2574" fill="#222222"></circle>
  <circle cx="197.698" cy="93.2142" r="3.2574" fill="#222222"></circle>
  <circle cx="93.4613" cy="4.01143" r="3.2574" fill="#222222"></circle>
  <circle cx="89.9532" cy="21.0501" r="3.2574" fill="#222222"></circle>
  <circle cx="126.035" cy="22.5535" r="3.2574" fill="#222222"></circle>
  <circle cx="204.213" cy="65.6516" r="3.2574" fill="#222222"></circle>
  <circle cx="205.716" cy="153.351" r="3.2574" fill="#222222"></circle>
  <circle cx="66.901" cy="201.46" r="3.2574" fill="#222222"></circle>
  <circle cx="12.2769" cy="129.296" r="5.26196" fill="#222222"></circle>
  <circle cx="12.2769" cy="82.1891" r="5.26196" fill="#222222"></circle>
  <circle cx="76.9236" cy="14.5354" r="5.26196" fill="#222222"></circle>
  <circle cx="138.063" cy="12.5308" r="5.26196" fill="#222222"></circle>
  <circle cx="208.723" cy="82.1891" r="5.26196" fill="#222222"></circle>
  <circle cx="209.224" cy="134.809" r="5.26196" fill="#222222"></circle>
  <circle cx="16.7871" cy="104.239" r="5.26196" fill="#222222"></circle>
  <circle cx="205.215" cy="109.251" r="5.26196" fill="#222222"></circle>
</g>
<g transform="translate(41.7, 41.7)">
<g fill="#222222">
<rect x="45.0485" y="0.7029" width="4.1574" height="4.1574" rx="0"></rect>
<rect x="50.591699999999996" y="0.7029" width="4.1574" height="4.1574" rx="0"></rect>
<rect x="56.134899999999995" y="0.7029" width="4.1574" height="4.1574" rx="0"></rect>
<rect x="61.67809999999999" y="0.7029" width="4.1574" height="4.1574" rx="0"></rect>
<rect x="78.3077" y="0.7029" width="4.1574" height="4.1574" rx="0"></rect>
<rect x="83.8509" y="0.7029" width="4.1574" height="4.1574" rx="0"></rect>
<rect x="56.134899999999995" y="6.246099999999999" width="4.1574" height="4.1574" rx="0"></rect>
<rect x="67.2213" y="6.246099999999999" width="4.1574" height="4.1574" rx="0"></rect>
<rect x="72.7645" y="6.246099999999999" width="4.1574" height="4.1574" rx="0"></rect>
<rect x="83.8509" y="6.246099999999999" width="4.1574" height="4.1574" rx="0"></rect>
<rect x="89.3941" y="6.246099999999999" width="4.1574" height="4.1574" rx="0"></rect>
<rect x="45.0485" y="11.789299999999999" width="4.1574" height="4.1574" rx="0"></rect>
<rect x="67.2213" y="11.789299999999999" width="4.1574" height="4.1574" rx="0"></rect>
<rect x="78.3077" y="11.789299999999999" width="4.1574" height="4.1574" rx="0"></rect>
<rect x="83.8509" y="11.789299999999999" width="4.1574" height="4.1574" rx="0"></rect>
<rect x="45.0485" y="17.332500000000003" width="4.1574" height="4.1574" rx="0"></rect>
<rect x="50.591699999999996" y="17.332500000000003" width="4.1574" height="4.1574" rx="0"></rect>
<rect x="67.2213" y="17.332500000000003" width="4.1574" height="4.1574" rx="0"></rect>
<rect x="78.3077" y="17.332500000000003" width="4.1574" height="4.1574" rx="0"></rect>
<rect x="50.591699999999996" y="22.875700000000002" width="4.1574" height="4.1574" rx="0"></rect>
<rect x="56.134899999999995" y="22.875700000000002" width="4.1574" height="4.1574" rx="0"></rect>
<rect x="78.3077" y="22.875700000000002" width="4.1574" height="4.1574" rx="0"></rect>
<rect x="83.8509" y="22.875700000000002" width="4.1574" height="4.1574" rx="0"></rect>
<rect x="45.0485" y="28.4189" width="4.1574" height="4.1574" rx="0"></rect>
<rect x="61.67809999999999" y="28.4189" width="4.1574" height="4.1574" rx="0"></rect>
<rect x="67.2213" y="28.4189" width="4.1574" height="4.1574" rx="0"></rect>
<rect x="83.8509" y="28.4189" width="4.1574" height="4.1574" rx="0"></rect>
<rect x="89.3941" y="28.4189" width="4.1574" height="4.1574" rx="0"></rect>
<rect x="45.0485" y="33.9621" width="4.1574" height="4.1574" rx="0"></rect>
<rect x="56.134899999999995" y="33.9621" width="4.1574" height="4.1574" rx="0"></rect>
<rect x="67.2213" y="33.9621" width="4.1574" height="4.1574" rx="0"></rect>
<rect x="78.3077" y="33.9621" width="4.1574" height="4.1574" rx="0"></rect>
<rect x="89.3941" y="33.9621" width="4.1574" height="4.1574" rx="0"></rect>
<rect x="45.0485" y="39.5053" width="4.1574" height="4.1574" rx="0"></rect>
<rect x="61.67809999999999" y="39.5053" width="4.1574" height="4.1574" rx="0"></rect>
<rect x="67.2213" y="39.5053" width="4.1574" height="4.1574" rx="0"></rect>
<rect x="78.3077" y="39.5053" width="4.1574" height="4.1574" rx="0"></rect>
<rect x="83.8509" y="39.5053" width="4.1574" height="4.1574" rx="0"></rect>
<rect x="6.246099999999999" y="45.0485" width="4.1574" height="4.1574" rx="0"></rect>
<rect x="17.332500000000003" y="45.0485" width="4.1574" height="4.1574" rx="0"></rect>
<rect x="28.4189" y="45.0485" width="4.1574" height="4.1574" rx="0"></rect>
<rect x="33.9621" y="45.0485" width="4.1574" height="4.1574" rx="0"></rect>
<rect x="39.5053" y="45.0485" width="4.1574" height="4.1574" rx="0"></rect>
<rect x="45.0485" y="45.0485" width="4.1574" height="4.1574" rx="0"></rect>
<rect x="61.67809999999999" y="45.0485" width="4.1574" height="4.1574" rx="0"></rect>
<rect x="72.7645" y="45.0485" width="4.1574" height="4.1574" rx="0"></rect>
<rect x="78.3077" y="45.0485" width="4.1574" height="4.1574" rx="0"></rect>
<rect x="89.3941" y="45.0485" width="4.1574" height="4.1574" rx="0"></rect>
<rect x="94.9373" y="45.0485" width="4.1574" height="4.1574" rx="0"></rect>
<rect x="100.48049999999999" y="45.0485" width="4.1574" height="4.1574" rx="0"></rect>
<rect x="106.02369999999999" y="45.0485" width="4.1574" height="4.1574" rx="0"></rect>
<rect x="117.11009999999999" y="45.0485" width="4.1574" height="4.1574" rx="0"></rect>
<rect x="122.65329999999999" y="45.0485" width="4.1574" height="4.1574" rx="0"></rect>
<rect x="133.7397" y="45.0485" width="4.1574" height="4.1574" rx="0"></rect>
<rect x="11.789299999999999" y="50.591699999999996" width="4.1574" height="4.1574" rx="0"></rect>
<rect x="50.591699999999996" y="50.591699999999996" width="4.1574" height="4.1574" rx="0"></rect>
<rect x="56.134899999999995" y="50.591699999999996" width="4.1574" height="4.1574" rx="0"></rect>
<rect x="61.67809999999999" y="50.591699999999996" width="4.1574" height="4.1574" rx="0"></rect>
<rect x="67.2213" y="50.591699999999996" width="4.1574" height="4.1574" rx="0"></rect>
<rect x="89.3941" y="50.591699999999996" width="4.1574" height="4.1574" rx="0"></rect>
<rect x="100.48049999999999" y="50.591699999999996" width="4.1574" height="4.1574" rx="0"></rect>
<rect x="133.7397" y="50.591699999999996" width="4.1574" height="4.1574" rx="0"></rect>
<rect x="0.7029" y="56.134899999999995" width="4.1574" height="4.1574" rx="0"></rect>
<rect x="6.246099999999999" y="56.134899999999995" width="4.1574" height="4.1574" rx="0"></rect>
<rect x="11.789299999999999" y="56.134899999999995" width="4.1574" height="4.1574" rx="0"></rect>
<rect x="17.332500000000003" y="56.134899999999995" width="4.1574" height="4.1574" rx="0"></rect>
<rect x="33.9621" y="56.134899999999995" width="4.1574" height="4.1574" rx="0"></rect>
<rect x="39.5053" y="56.134899999999995" width="4.1574" height="4.1574" rx="0"></rect>
<rect x="61.67809999999999" y="56.134899999999995" width="4.1574" height="4.1574" rx="0"></rect>
<rect x="72.7645" y="56.134899999999995" width="4.1574" height="4.1574" rx="0"></rect>
<rect x="94.9373" y="56.134899999999995" width="4.1574" height="4.1574" rx="0"></rect>
<rect x="100.48049999999999" y="56.134899999999995" width="4.1574" height="4.1574" rx="0"></rect>
<rect x="128.1965" y="56.134899999999995" width="4.1574" height="4.1574" rx="0"></rect>
<rect x="133.7397" y="56.134899999999995" width="4.1574" height="4.1574" rx="0"></rect>
<rect x="22.875700000000002" y="61.67809999999999" width="4.1574" height="4.1574" rx="0"></rect>
<rect x="28.4189" y="61.67809999999999" width="4.1574" height="4.1574" rx="0"></rect>
<rect x="39.5053" y="61.67809999999999" width="4.1574" height="4.1574" rx="0"></rect>
<rect x="67.2213" y="61.67809999999999" width="4.1574" height="4.1574" rx="0"></rect>
<rect x="72.7645" y="61.67809999999999" width="4.1574" height="4.1574" rx="0"></rect>
<rect x="83.8509" y="61.67809999999999" width="4.1574" height="4.1574" rx="0"></rect>
<rect x="89.3941" y="61.67809999999999" width="4.1574" height="4.1574" rx="0"></rect>
<rect x="100.48049999999999" y="61.67809999999999" width="4.1574" height="4.1574" rx="0"></rect>
<rect x="0.7029" y="67.2213" width="4.1574" height="4.1574" rx="0"></rect>
<rect x="6.246099999999999" y="67.2213" width="4.1574" height="4.1574" rx="0"></rect>
<rect x="33.9621" y="67.2213" width="4.1574" height="4.1574" rx="0"></rect>
<rect x="39.5053" y="67.2213" width="4.1574" height="4.1574" rx="0"></rect>
<rect x="61.67809999999999" y="67.2213" width="4.1574" height="4.1574" rx="0"></rect>
<rect x="78.3077" y="67.2213" width="4.1574" height="4.1574" rx="0"></rect>
<rect x="89.3941" y="67.2213" width="4.1574" height="4.1574" rx="0"></rect>
<rect x="94.9373" y="67.2213" width="4.1574" height="4.1574" rx="0"></rect>
<rect x="100.48049999999999" y="67.2213" width="4.1574" height="4.1574" rx="0"></rect>
<rect x="117.11009999999999" y="67.2213" width="4.1574" height="4.1574" rx="0"></rect>
<rect x="128.1965" y="67.2213" width="4.1574" height="4.1574" rx="0"></rect>
<rect x="133.7397" y="67.2213" width="4.1574" height="4.1574" rx="0"></rect>
<rect x="11.789299999999999" y="72.7645" width="4.1574" height="4.1574" rx="0"></rect>
<rect x="22.875700000000002" y="72.7645" width="4.1574" height="4.1574" rx="0"></rect>
<rect x="45.0485" y="72.7645" width="4.1574" height="4.1574" rx="0"></rect>
<rect x="50.591699999999996" y="72.7645" width="4.1574" height="4.1574" rx="0"></rect>
<rect x="56.134899999999995" y="72.7645" width="4.1574" height="4.1574" rx="0"></rect>
<rect x="61.67809999999999" y="72.7645" width="4.1574" height="4.1574" rx="0"></rect>
<rect x="67.2213" y="72.7645" width="4.1574" height="4.1574" rx="0"></rect>
<rect x="94.9373" y="72.7645" width="4.1574" height="4.1574" rx="0"></rect>
<rect x="100.48049999999999" y="72.7645" width="4.1574" height="4.1574" rx="0"></rect>
<rect x="106.02369999999999" y="72.7645" width="4.1574" height="4.1574" rx="0"></rect>
<rect x="117.11009999999999" y="72.7645" width="4.1574" height="4.1574" rx="0"></rect>
<rect x="122.65329999999999" y="72.7645" width="4.1574" height="4.1574" rx="0"></rect>
<rect x="133.7397" y="72.7645" width="4.1574" height="4.1574" rx="0"></rect>
<rect x="0.7029" y="78.3077" width="4.1574" height="4.1574" rx="0"></rect>
<rect x="17.332500000000003" y="78.3077" width="4.1574" height="4.1574" rx="0"></rect>
<rect x="28.4189" y="78.3077" width="4.1574" height="4.1574" rx="0"></rect>
<rect x="33.9621" y="78.3077" width="4.1574" height="4.1574" rx="0"></rect>
<rect x="45.0485" y="78.3077" width="4.1574" height="4.1574" rx="0"></rect>
<rect x="50.591699999999996" y="78.3077" width="4.1574" height="4.1574" rx="0"></rect>
<rect x="56.134899999999995" y="78.3077" width="4.1574" height="4.1574" rx="0"></rect>
<rect x="61.67809999999999" y="78.3077" width="4.1574" height="4.1574" rx="0"></rect>
<rect x="72.7645" y="78.3077" width="4.1574" height="4.1574" rx="0"></rect>
<rect x="78.3077" y="78.3077" width="4.1574" height="4.1574" rx="0"></rect>
<rect x="100.48049999999999" y="78.3077" width="4.1574" height="4.1574" rx="0"></rect>
<rect x="122.65329999999999" y="78.3077" width="4.1574" height="4.1574" rx="0"></rect>
<rect x="133.7397" y="78.3077" width="4.1574" height="4.1574" rx="0"></rect>
<rect x="6.246099999999999" y="83.8509" width="4.1574" height="4.1574" rx="0"></rect>
<rect x="11.789299999999999" y="83.8509" width="4.1574" height="4.1574" rx="0"></rect>
<rect x="17.332500000000003" y="83.8509" width="4.1574" height="4.1574" rx="0"></rect>
<rect x="22.875700000000002" y="83.8509" width="4.1574" height="4.1574" rx="0"></rect>
<rect x="45.0485" y="83.8509" width="4.1574" height="4.1574" rx="0"></rect>
<rect x="50.591699999999996" y="83.8509" width="4.1574" height="4.1574" rx="0"></rect>
<rect x="56.134899999999995" y="83.8509" width="4.1574" height="4.1574" rx="0"></rect>
<rect x="67.2213" y="83.8509" width="4.1574" height="4.1574" rx="0"></rect>
<rect x="72.7645" y="83.8509" width="4.1574" height="4.1574" rx="0"></rect>
<rect x="78.3077" y="83.8509" width="4.1574" height="4.1574" rx="0"></rect>
<rect x="89.3941" y="83.8509" width="4.1574" height="4.1574" rx="0"></rect>
<rect x="106.02369999999999" y="83.8509" width="4.1574" height="4.1574" rx="0"></rect>
<rect x="111.56689999999999" y="83.8509" width="4.1574" height="4.1574" rx="0"></rect>
<rect x="117.11009999999999" y="83.8509" width="4.1574" height="4.1574" rx="0"></rect>
<rect x="128.1965" y="83.8509" width="4.1574" height="4.1574" rx="0"></rect>
<rect x="0.7029" y="89.3941" width="4.1574" height="4.1574" rx="0"></rect>
<rect x="6.246099999999999" y="89.3941" width="4.1574" height="4.1574" rx="0"></rect>
<rect x="11.789299999999999" y="89.3941" width="4.1574" height="4.1574" rx="0"></rect>
<rect x="17.332500000000003" y="89.3941" width="4.1574" height="4.1574" rx="0"></rect>
<rect x="28.4189" y="89.3941" width="4.1574" height="4.1574" rx="0"></rect>
<rect x="33.9621" y="89.3941" width="4.1574" height="4.1574" rx="0"></rect>
<rect x="39.5053" y="89.3941" width="4.1574" height="4.1574" rx="0"></rect>
<rect x="56.134899999999995" y="89.3941" width="4.1574" height="4.1574" rx="0"></rect>
<rect x="67.2213" y="89.3941" width="4.1574" height="4.1574" rx="0"></rect>
<rect x="83.8509" y="89.3941" width="4.1574" height="4.1574" rx="0"></rect>
<rect x="89.3941" y="89.3941" width="4.1574" height="4.1574" rx="0"></rect>
<rect x="94.9373" y="89.3941" width="4.1574" height="4.1574" rx="0"></rect>
<rect x="100.48049999999999" y="89.3941" width="4.1574" height="4.1574" rx="0"></rect>
<rect x="106.02369999999999" y="89.3941" width="4.1574" height="4.1574" rx="0"></rect>
<rect x="111.56689999999999" y="89.3941" width="4.1574" height="4.1574" rx="0"></rect>
<rect x="117.11009999999999" y="89.3941" width="4.1574" height="4.1574" rx="0"></rect>
<rect x="122.65329999999999" y="89.3941" width="4.1574" height="4.1574" rx="0"></rect>
<rect x="45.0485" y="94.9373" width="4.1574" height="4.1574" rx="0"></rect>
<rect x="50.591699999999996" y="94.9373" width="4.1574" height="4.1574" rx="0"></rect>
<rect x="67.2213" y="94.9373" width="4.1574" height="4.1574" rx="0"></rect>
<rect x="72.7645" y="94.9373" width="4.1574" height="4.1574" rx="0"></rect>
<rect x="78.3077" y="94.9373" width="4.1574" height="4.1574" rx="0"></rect>
<rect x="83.8509" y="94.9373" width="4.1574" height="4.1574" rx="0"></rect>
<rect x="89.3941" y="94.9373" width="4.1574" height="4.1574" rx="0"></rect>
<rect x="111.56689999999999" y="94.9373" width="4.1574" height="4.1574" rx="0"></rect>
<rect x="117.11009999999999" y="94.9373" width="4.1574" height="4.1574" rx="0"></rect>
<rect x="122.65329999999999" y="94.9373" width="4.1574" height="4.1574" rx="0"></rect>
<rect x="133.7397" y="94.9373" width="4.1574" height="4.1574" rx="0"></rect>
<rect x="45.0485" y="100.48049999999999" width="4.1574" height="4.1574" rx="0"></rect>
<rect x="56.134899999999995" y="100.48049999999999" width="4.1574" height="4.1574" rx="0"></rect>
<rect x="61.67809999999999" y="100.48049999999999" width="4.1574" height="4.1574" rx="0"></rect>
<rect x="67.2213" y="100.48049999999999" width="4.1574" height="4.1574" rx="0"></rect>
<rect x="83.8509" y="100.48049999999999" width="4.1574" height="4.1574" rx="0"></rect>
<rect x="89.3941" y="100.48049999999999" width="4.1574" height="4.1574" rx="0"></rect>
<rect x="100.48049999999999" y="100.48049999999999" width="4.1574" height="4.1574" rx="0"></rect>
<rect x="111.56689999999999" y="100.48049999999999" width="4.1574" height="4.1574" rx="0"></rect>
<rect x="128.1965" y="100.48049999999999" width="4.1574" height="4.1574" rx="0"></rect>
<rect x="133.7397" y="100.48049999999999" width="4.1574" height="4.1574" rx="0"></rect>
<rect x="45.0485" y="106.02369999999999" width="4.1574" height="4.1574" rx="0"></rect>
<rect x="61.67809999999999" y="106.02369999999999" width="4.1574" height="4.1574" rx="0"></rect>
<rect x="89.3941" y="106.02369999999999" width="4.1574" height="4.1574" rx="0"></rect>
<rect x="111.56689999999999" y="106.02369999999999" width="4.1574" height="4.1574" rx="0"></rect>
<rect x="117.11009999999999" y="106.02369999999999" width="4.1574" height="4.1574" rx="0"></rect>
<rect x="122.65329999999999" y="106.02369999999999" width="4.1574" height="4.1574" rx="0"></rect>
<rect x="128.1965" y="106.02369999999999" width="4.1574" height="4.1574" rx="0"></rect>
<rect x="67.2213" y="111.56689999999999" width="4.1574" height="4.1574" rx="0"></rect>
<rect x="72.7645" y="111.56689999999999" width="4.1574" height="4.1574" rx="0"></rect>
<rect x="78.3077" y="111.56689999999999" width="4.1574" height="4.1574" rx="0"></rect>
<rect x="89.3941" y="111.56689999999999" width="4.1574" height="4.1574" rx="0"></rect>
<rect x="94.9373" y="111.56689999999999" width="4.1574" height="4.1574" rx="0"></rect>
<rect x="100.48049999999999" y="111.56689999999999" width="4.1574" height="4.1574" rx="0"></rect>
<rect x="106.02369999999999" y="111.56689999999999" width="4.1574" height="4.1574" rx="0"></rect>
<rect x="111.56689999999999" y="111.56689999999999" width="4.1574" height="4.1574" rx="0"></rect>
<rect x="133.7397" y="111.56689999999999" width="4.1574" height="4.1574" rx="0"></rect>
<rect x="45.0485" y="117.11009999999999" width="4.1574" height="4.1574" rx="0"></rect>
<rect x="50.591699999999996" y="117.11009999999999" width="4.1574" height="4.1574" rx="0"></rect>
<rect x="56.134899999999995" y="117.11009999999999" width="4.1574" height="4.1574" rx="0"></rect>
<rect x="78.3077" y="117.11009999999999" width="4.1574" height="4.1574" rx="0"></rect>
<rect x="89.3941" y="117.11009999999999" width="4.1574" height="4.1574" rx="0"></rect>
<rect x="106.02369999999999" y="117.11009999999999" width="4.1574" height="4.1574" rx="0"></rect>
<rect x="111.56689999999999" y="117.11009999999999" width="4.1574" height="4.1574" rx="0"></rect>
<rect x="122.65329999999999" y="117.11009999999999" width="4.1574" height="4.1574" rx="0"></rect>
<rect x="67.2213" y="122.65329999999999" width="4.1574" height="4.1574" rx="0"></rect>
<rect x="72.7645" y="122.65329999999999" width="4.1574" height="4.1574" rx="0"></rect>
<rect x="78.3077" y="122.65329999999999" width="4.1574" height="4.1574" rx="0"></rect>
<rect x="94.9373" y="122.65329999999999" width="4.1574" height="4.1574" rx="0"></rect>
<rect x="111.56689999999999" y="122.65329999999999" width="4.1574" height="4.1574" rx="0"></rect>
<rect x="117.11009999999999" y="122.65329999999999" width="4.1574" height="4.1574" rx="0"></rect>
<rect x="122.65329999999999" y="122.65329999999999" width="4.1574" height="4.1574" rx="0"></rect>
<rect x="133.7397" y="122.65329999999999" width="4.1574" height="4.1574" rx="0"></rect>
<rect x="45.0485" y="128.1965" width="4.1574" height="4.1574" rx="0"></rect>
<rect x="50.591699999999996" y="128.1965" width="4.1574" height="4.1574" rx="0"></rect>
<rect x="61.67809999999999" y="128.1965" width="4.1574" height="4.1574" rx="0"></rect>
<rect x="67.2213" y="128.1965" width="4.1574" height="4.1574" rx="0"></rect>
<rect x="78.3077" y="128.1965" width="4.1574" height="4.1574" rx="0"></rect>
<rect x="83.8509" y="128.1965" width="4.1574" height="4.1574" rx="0"></rect>
<rect x="89.3941" y="128.1965" width="4.1574" height="4.1574" rx="0"></rect>
<rect x="117.11009999999999" y="128.1965" width="4.1574" height="4.1574" rx="0"></rect>
<rect x="50.591699999999996" y="133.7397" width="4.1574" height="4.1574" rx="0"></rect>
<rect x="56.134899999999995" y="133.7397" width="4.1574" height="4.1574" rx="0"></rect>
<rect x="67.2213" y="133.7397" width="4.1574" height="4.1574" rx="0"></rect>
<rect x="72.7645" y="133.7397" width="4.1574" height="4.1574" rx="0"></rect>
<rect x="78.3077" y="133.7397" width="4.1574" height="4.1574" rx="0"></rect>
<rect x="83.8509" y="133.7397" width="4.1574" height="4.1574" rx="0"></rect>
<rect x="89.3941" y="133.7397" width="4.1574" height="4.1574" rx="0"></rect>
<rect x="106.02369999999999" y="133.7397" width="4.1574" height="4.1574" rx="0"></rect>
<rect x="128.1965" y="133.7397" width="4.1574" height="4.1574" rx="0"></rect>
<rect x="133.7397" y="133.7397" width="4.1574" height="4.1574" rx="0"></rect>
</g>
<g>
<rect x="2.7716" y="2.7716" width="33.2592" fill="none" height="33.2592" stroke-width="5.5432" stroke="#222222" rx="5.5432"></rect>
<rect x="11.0864" y="11.0864" width="16.6296" fill="#222222" height="16.6296" rx="2.7716"></rect>
<rect x="102.5692" y="2.7716" width="33.2592" fill="none" height="33.2592" stroke-width="5.5432" stroke="#222222" rx="5.5432"></rect>
<rect x="110.884" y="11.0864" width="16.6296" fill="#222222" height="16.6296" rx="2.7716"></rect>
<rect x="2.7716" y="102.5692" width="33.2592" fill="none" height="33.2592" stroke-width="5.5432" stroke="#222222" rx="5.5432"></rect>
<rect x="11.0864" y="110.884" width="16.6296" fill="#222222" height="16.6296" rx="2.7716"></rect>
</g>
</g>
</svg>