<svg xmlns="http://www.w3.org/2000/svg" xmlns:xlink="http://www.w3.org/1999/xlink" version="1.1" x="0" y="0" viewBox="0 0 220.0 220.0" width="220.0" height="220.0">

<circle xmlns="http://www.w3.org/2000/svg" stroke-width="0" cx="110.0" cy="110.0" r="110" stroke="none" fill="none"></circle>

<g>
  <path fill-rule="evenodd" clip-rule="evenodd" d="M64.2506 30.3805C64.5678 30.3805 64.8793 30.2974 65.1557 30.1415C78.5341 22.5941 93.9838 18.2876 110.439 18.2876C126.895 18.2876 142.345 22.5941 155.723 30.1415C156 30.2974 156.311 30.3805 156.628 30.3805C158.442 30.3805 159.101 28.0887 157.523 27.1955C143.62 19.3285 127.554 14.8381 110.439 14.8381C93.3248 14.8381 77.259 19.3285 63.356 27.1955C61.7777 28.0887 62.4371 30.3805 64.2506 30.3805ZM29.9983 65.2989C30.1541 65.0226 30.2372 64.7111 30.2372 64.3938C30.2372 62.5803 27.9453 61.921 27.0523 63.4993C19.1852 77.4023 14.6947 93.4682 14.6947 110.583C14.6947 127.697 19.1852 143.763 27.0523 157.666C27.9453 159.244 30.2372 158.585 30.2372 156.771C30.2372 156.455 30.1541 156.143 29.9983 155.866C22.4508 142.488 18.1443 127.038 18.1443 110.583C18.1443 94.1271 22.4508 78.6774 29.9983 65.2989ZM65.1564 191.025C64.88 190.869 64.5685 190.785 64.2512 190.785C62.4378 190.785 61.7784 193.077 63.3567 193.97C77.2595 201.837 93.3251 206.327 110.439 206.327C127.554 206.327 143.619 201.837 157.522 193.97C159.1 193.077 158.441 190.785 156.627 190.785C156.31 190.785 155.999 190.869 155.722 191.025C142.344 198.572 126.895 202.878 110.439 202.878C93.9841 202.878 78.5346 198.572 65.1564 191.025ZM190.881 155.865C190.725 156.142 190.642 156.454 190.642 156.771C190.642 158.585 192.934 159.243 193.827 157.665C201.693 143.762 206.184 127.697 206.184 110.583C206.184 93.4685 201.693 77.4031 193.827 63.5003C192.934 61.9219 190.642 62.5813 190.642 64.3947C190.642 64.712 190.725 65.0235 190.881 65.2998C198.428 78.678 202.734 94.1275 202.734 110.583C202.734 127.038 198.428 142.487 190.881 155.865Z" fill="#222222"></path>
  <path fill-rule="evenodd" clip-rule="evenodd" d="M110.357 3.92413C110.672 4.10635 111.03 4.20259 111.395 4.20623C129.039 4.38193 146.882 8.97153 163.253 18.423C179.624 27.8748 192.52 41.0329 201.494 56.2254C201.68 56.5394 201.942 56.8011 202.258 56.9831C204.062 58.0249 206.034 56.1234 204.977 54.3285C195.664 38.5166 182.261 24.8215 165.234 14.9912C148.208 5.16126 129.646 0.400855 111.296 0.24179C109.213 0.223771 108.553 2.88251 110.357 3.92413ZM56.2251 18.9888C56.5389 18.8034 56.8005 18.5412 56.9827 18.2256C58.0243 16.4215 56.123 14.4491 54.328 15.5064C38.5161 24.819 24.821 38.2227 14.991 55.2488C5.16078 72.2752 0.400297 90.8375 0.241301 109.187C0.223346 111.27 2.88183 111.931 3.9237 110.126C4.10568 109.811 4.20204 109.454 4.20594 109.089C4.38142 91.4446 8.971 73.6011 18.4228 57.2301C27.8743 40.8597 41.0324 27.9631 56.2251 18.9888ZM18.9887 164.259C18.8033 163.946 18.5414 163.684 18.2257 163.501C16.4216 162.46 14.4494 164.361 15.5066 166.156C24.8192 181.967 38.2227 195.662 55.2484 205.492C72.2749 215.322 90.8362 220.082 109.186 220.242C111.269 220.26 111.93 217.601 110.125 216.559C109.81 216.377 109.452 216.282 109.087 216.278C91.4429 216.102 73.6006 211.512 57.2297 202.06C40.8595 192.609 27.963 179.452 18.9887 164.259ZM164.259 201.494C163.945 201.68 163.683 201.942 163.501 202.257C162.459 204.062 164.361 206.034 166.155 204.977C181.967 195.664 195.662 182.261 205.492 165.234C215.322 148.209 220.082 129.647 220.241 111.298C220.259 109.215 217.601 108.554 216.559 110.358C216.377 110.674 216.281 111.032 216.277 111.396C216.102 129.04 211.512 146.883 202.06 163.253C192.609 179.623 179.451 192.52 164.259 201.494Z" fill="#222222"></path>
</g>
  
<g transform="translate(44.0, 44.0)">
<g fill="#222222">
<rect x="43.55349999999999" y="0.6799" width="4.019399999999999" height="4.019399999999999" rx="0"></rect>
<rect x="48.912699999999994" y="0.6799" width="4.019399999999999" height="4.019399999999999" rx="0"></rect>
<rect x="54.271899999999995" y="0.6799" width="4.019399999999999" height="4.019399999999999" rx="0"></rect>
<rect x="59.63109999999999" y="0.6799" width="4.019399999999999" height="4.019399999999999" rx="0"></rect>
<rect x="75.7087" y="0.6799" width="4.019399999999999" height="4.019399999999999" rx="0"></rect>
<rect x="81.0679" y="0.6799" width="4.019399999999999" height="4.019399999999999" rx="0"></rect>
<rect x="54.271899999999995" y="6.0390999999999995" width="4.019399999999999" height="4.019399999999999" rx="0"></rect>
<rect x="64.99029999999999" y="6.0390999999999995" width="4.019399999999999" height="4.019399999999999" rx="0"></rect>
<rect x="70.34949999999999" y="6.0390999999999995" width="4.019399999999999" height="4.019399999999999" rx="0"></rect>
<rect x="81.0679" y="6.0390999999999995" width="4.019399999999999" height="4.019399999999999" rx="0"></rect>
<rect x="86.4271" y="6.0390999999999995" width="4.019399999999999" height="4.019399999999999" rx="0"></rect>
<rect x="43.55349999999999" y="11.398299999999999" width="4.019399999999999" height="4.019399999999999" rx="0"></rect>
<rect x="64.99029999999999" y="11.398299999999999" width="4.019399999999999" height="4.019399999999999" rx="0"></rect>
<rect x="75.7087" y="11.398299999999999" width="4.019399999999999" height="4.019399999999999" rx="0"></rect>
<rect x="81.0679" y="11.398299999999999" width="4.019399999999999" height="4.019399999999999" rx="0"></rect>
<rect x="43.55349999999999" y="16.757499999999997" width="4.019399999999999" height="4.019399999999999" rx="0"></rect>
<rect x="48.912699999999994" y="16.757499999999997" width="4.019399999999999" height="4.019399999999999" rx="0"></rect>
<rect x="64.99029999999999" y="16.757499999999997" width="4.019399999999999" height="4.019399999999999" rx="0"></rect>
<rect x="75.7087" y="16.757499999999997" width="4.019399999999999" height="4.019399999999999" rx="0"></rect>
<rect x="48.912699999999994" y="22.116699999999998" width="4.019399999999999" height="4.019399999999999" rx="0"></rect>
<rect x="54.271899999999995" y="22.116699999999998" width="4.019399999999999" height="4.019399999999999" rx="0"></rect>
<rect x="75.7087" y="22.116699999999998" width="4.019399999999999" height="4.019399999999999" rx="0"></rect>
<rect x="81.0679" y="22.116699999999998" width="4.019399999999999" height="4.019399999999999" rx="0"></rect>
<rect x="43.55349999999999" y="27.4759" width="4.019399999999999" height="4.019399999999999" rx="0"></rect>
<rect x="59.63109999999999" y="27.4759" width="4.019399999999999" height="4.019399999999999" rx="0"></rect>
<rect x="64.99029999999999" y="27.4759" width="4.019399999999999" height="4.019399999999999" rx="0"></rect>
<rect x="81.0679" y="27.4759" width="4.019399999999999" height="4.019399999999999" rx="0"></rect>
<rect x="86.4271" y="27.4759" width="4.019399999999999" height="4.019399999999999" rx="0"></rect>
<rect x="43.55349999999999" y="32.83509999999999" width="4.019399999999999" height="4.019399999999999" rx="0"></rect>
<rect x="54.271899999999995" y="32.83509999999999" width="4.019399999999999" height="4.019399999999999" rx="0"></rect>
<rect x="64.99029999999999" y="32.83509999999999" width="4.019399999999999" height="4.019399999999999" rx="0"></rect>
<rect x="75.7087" y="32.83509999999999" width="4.019399999999999" height="4.019399999999999" rx="0"></rect>
<rect x="86.4271" y="32.83509999999999" width="4.019399999999999" height="4.019399999999999" rx="0"></rect>
<rect x="43.55349999999999" y="38.19429999999999" width="4.019399999999999" height="4.019399999999999" rx="0"></rect>
<rect x="59.63109999999999" y="38.19429999999999" width="4.019399999999999" height="4.019399999999999" rx="0"></rect>
<rect x="64.99029999999999" y="38.19429999999999" width="4.019399999999999" height="4.019399999999999" rx="0"></rect>
<rect x="75.7087" y="38.19429999999999" width="4.019399999999999" height="4.019399999999999" rx="0"></rect>
<rect x="81.0679" y="38.19429999999999" width="4.019399999999999" height="4.019399999999999" rx="0"></rect>
<rect x="6.0390999999999995" y="43.55349999999999" width="4.019399999999999" height="4.019399999999999" rx="0"></rect>
<rect x="16.757499999999997" y="43.55349999999999" width="4.019399999999999" height="4.019399999999999" rx="0"></rect>
<rect x="27.4759" y="43.55349999999999" width="4.019399999999999" height="4.019399999999999" rx="0"></rect>
<rect x="32.83509999999999" y="43.55349999999999" width="4.019399999999999" height="4.019399999999999" rx="0"></rect>
<rect x="38.19429999999999" y="43.55349999999999" width="4.019399999999999" height="4.019399999999999" rx="0"></rect>
<rect x="43.55349999999999" y="43.55349999999999" width="4.019399999999999" height="4.019399999999999" rx="0"></rect>
<rect x="59.63109999999999" y="43.55349999999999" width="4.019399999999999" height="4.019399999999999" rx="0"></rect>
<rect x="70.34949999999999" y="43.55349999999999" width="4.019399999999999" height="4.019399999999999" rx="0"></rect>
<rect x="75.7087" y="43.55349999999999" width="4.019399999999999" height="4.019399999999999" rx="0"></rect>
<rect x="86.4271" y="43.55349999999999" width="4.019399999999999" height="4.019399999999999" rx="0"></rect>
<rect x="91.7863" y="43.55349999999999" width="4.019399999999999" height="4.019399999999999" rx="0"></rect>
<rect x="97.1455" y="43.55349999999999" width="4.019399999999999" height="4.019399999999999" rx="0"></rect>
<rect x="102.5047" y="43.55349999999999" width="4.019399999999999" height="4.019399999999999" rx="0"></rect>
<rect x="113.22309999999999" y="43.55349999999999" width="4.019399999999999" height="4.019399999999999" rx="0"></rect>
<rect x="118.58229999999999" y="43.55349999999999" width="4.019399999999999" height="4.019399999999999" rx="0"></rect>
<rect x="129.30069999999998" y="43.55349999999999" width="4.019399999999999" height="4.019399999999999" rx="0"></rect>
<rect x="11.398299999999999" y="48.912699999999994" width="4.019399999999999" height="4.019399999999999" rx="0"></rect>
<rect x="48.912699999999994" y="48.912699999999994" width="4.019399999999999" height="4.019399999999999" rx="0"></rect>
<rect x="54.271899999999995" y="48.912699999999994" width="4.019399999999999" height="4.019399999999999" rx="0"></rect>
<rect x="59.63109999999999" y="48.912699999999994" width="4.019399999999999" height="4.019399999999999" rx="0"></rect>
<rect x="64.99029999999999" y="48.912699999999994" width="4.019399999999999" height="4.019399999999999" rx="0"></rect>
<rect x="86.4271" y="48.912699999999994" width="4.019399999999999" height="4.019399999999999" rx="0"></rect>
<rect x="97.1455" y="48.912699999999994" width="4.019399999999999" height="4.019399999999999" rx="0"></rect>
<rect x="129.30069999999998" y="48.912699999999994" width="4.019399999999999" height="4.019399999999999" rx="0"></rect>
<rect x="0.6799" y="54.271899999999995" width="4.019399999999999" height="4.019399999999999" rx="0"></rect>
<rect x="6.0390999999999995" y="54.271899999999995" width="4.019399999999999" height="4.019399999999999" rx="0"></rect>
<rect x="11.398299999999999" y="54.271899999999995" width="4.019399999999999" height="4.019399999999999" rx="0"></rect>
<rect x="16.757499999999997" y="54.271899999999995" width="4.019399999999999" height="4.019399999999999" rx="0"></rect>
<rect x="32.83509999999999" y="54.271899999999995" width="4.019399999999999" height="4.019399999999999" rx="0"></rect>
<rect x="38.19429999999999" y="54.271899999999995" width="4.019399999999999" height="4.019399999999999" rx="0"></rect>
<rect x="59.63109999999999" y="54.271899999999995" width="4.019399999999999" height="4.019399999999999" rx="0"></rect>
<rect x="70.34949999999999" y="54.271899999999995" width="4.019399999999999" height="4.019399999999999" rx="0"></rect>
<rect x="91.7863" y="54.271899999999995" width="4.019399999999999" height="4.019399999999999" rx="0"></rect>
<rect x="97.1455" y="54.271899999999995" width="4.019399999999999" height="4.019399999999999" rx="0"></rect>
<rect x="123.94149999999999" y="54.271899999999995" width="4.019399999999999" height="4.019399999999999" rx="0"></rect>
<rect x="129.30069999999998" y="54.271899999999995" width="4.019399999999999" height="4.019399999999999" rx="0"></rect>
<rect x="22.116699999999998" y="59.63109999999999" width="4.019399999999999" height="4.019399999999999" rx="0"></rect>
<rect x="27.4759" y="59.63109999999999" width="4.019399999999999" height="4.019399999999999" rx="0"></rect>
<rect x="38.19429999999999" y="59.63109999999999" width="4.019399999999999" height="4.019399999999999" rx="0"></rect>
<rect x="64.99029999999999" y="59.63109999999999" width="4.019399999999999" height="4.019399999999999" rx="0"></rect>
<rect x="70.34949999999999" y="59.63109999999999" width="4.019399999999999" height="4.019399999999999" rx="0"></rect>
<rect x="81.0679" y="59.63109999999999" width="4.019399999999999" height="4.019399999999999" rx="0"></rect>
<rect x="86.4271" y="59.63109999999999" width="4.019399999999999" height="4.019399999999999" rx="0"></rect>
<rect x="97.1455" y="59.63109999999999" width="4.019399999999999" height="4.019399999999999" rx="0"></rect>
<rect x="0.6799" y="64.99029999999999" width="4.019399999999999" height="4.019399999999999" rx="0"></rect>
<rect x="6.0390999999999995" y="64.99029999999999" width="4.019399999999999" height="4.019399999999999" rx="0"></rect>
<rect x="32.83509999999999" y="64.99029999999999" width="4.019399999999999" height="4.019399999999999" rx="0"></rect>
<rect x="38.19429999999999" y="64.99029999999999" width="4.019399999999999" height="4.019399999999999" rx="0"></rect>
<rect x="59.63109999999999" y="64.99029999999999" width="4.019399999999999" height="4.019399999999999" rx="0"></rect>
<rect x="75.7087" y="64.99029999999999" width="4.019399999999999" height="4.019399999999999" rx="0"></rect>
<rect x="86.4271" y="64.99029999999999" width="4.019399999999999" height="4.019399999999999" rx="0"></rect>
<rect x="91.7863" y="64.99029999999999" width="4.019399999999999" height="4.019399999999999" rx="0"></rect>
<rect x="97.1455" y="64.99029999999999" width="4.019399999999999" height="4.019399999999999" rx="0"></rect>
<rect x="113.22309999999999" y="64.99029999999999" width="4.019399999999999" height="4.019399999999999" rx="0"></rect>
<rect x="123.94149999999999" y="64.99029999999999" width="4.019399999999999" height="4.019399999999999" rx="0"></rect>
<rect x="129.30069999999998" y="64.99029999999999" width="4.019399999999999" height="4.019399999999999" rx="0"></rect>
<rect x="11.398299999999999" y="70.34949999999999" width="4.019399999999999" height="4.019399999999999" rx="0"></rect>
<rect x="22.116699999999998" y="70.34949999999999" width="4.019399999999999" height="4.019399999999999" rx="0"></rect>
<rect x="43.55349999999999" y="70.34949999999999" width="4.019399999999999" height="4.019399999999999" rx="0"></rect>
<rect x="48.912699999999994" y="70.34949999999999" width="4.019399999999999" height="4.019399999999999" rx="0"></rect>
<rect x="54.271899999999995" y="70.34949999999999" width="4.019399999999999" height="4.019399999999999" rx="0"></rect>
<rect x="59.63109999999999" y="70.34949999999999" width="4.019399999999999" height="4.019399999999999" rx="0"></rect>
<rect x="64.99029999999999" y="70.34949999999999" width="4.019399999999999" height="4.019399999999999" rx="0"></rect>
<rect x="91.7863" y="70.34949999999999" width="4.019399999999999" height="4.019399999999999" rx="0"></rect>
<rect x="97.1455" y="70.34949999999999" width="4.019399999999999" height="4.019399999999999" rx="0"></rect>
<rect x="102.5047" y="70.34949999999999" width="4.019399999999999" height="4.019399999999999" rx="0"></rect>
<rect x="113.22309999999999" y="70.34949999999999" width="4.019399999999999" height="4.019399999999999" rx="0"></rect>
<rect x="118.58229999999999" y="70.34949999999999" width="4.019399999999999" height="4.019399999999999" rx="0"></rect>
<rect x="129.30069999999998" y="70.34949999999999" width="4.019399999999999" height="4.019399999999999" rx="0"></rect>
<rect x="0.6799" y="75.7087" width="4.019399999999999" height="4.019399999999999" rx="0"></rect>
<rect x="16.757499999999997" y="75.7087" width="4.019399999999999" height="4.019399999999999" rx="0"></rect>
<rect x="27.4759" y="75.7087" width="4.019399999999999" height="4.019399999999999" rx="0"></rect>
<rect x="32.83509999999999" y="75.7087" width="4.019399999999999" height="4.019399999999999" rx="0"></rect>
<rect x="43.55349999999999" y="75.7087" width="4.019399999999999" height="4.019399999999999" rx="0"></rect>
<rect x="48.912699999999994" y="75.7087" width="4.019399999999999" height="4.019399999999999" rx="0"></rect>
<rect x="54.271899999999995" y="75.7087" width="4.019399999999999" height="4.019399999999999" rx="0"></rect>
<rect x="59.63109999999999" y="75.7087" width="4.019399999999999" height="4.019399999999999" rx="0"></rect>
<rect x="70.34949999999999" y="75.7087" width="4.019399999999999" height="4.019399999999999" rx="0"></rect>
<rect x="75.7087" y="75.7087" width="4.019399999999999" height="4.019399999999999" rx="0"></rect>
<rect x="97.1455" y="75.7087" width="4.019399999999999" height="4.019399999999999" rx="0"></rect>
<rect x="118.58229999999999" y="75.7087" width="4.019399999999999" height="4.019399999999999" rx="0"></rect>
<rect x="129.30069999999998" y="75.7087" width="4.019399999999999" height="4.019399999999999" rx="0"></rect>
<rect x="6.0390999999999995" y="81.0679" width="4.019399999999999" height="4.019399999999999" rx="0"></rect>
<rect x="11.398299999999999" y="81.0679" width="4.019399999999999" height="4.019399999999999" rx="0"></rect>
<rect x="16.757499999999997" y="81.0679" width="4.019399999999999" height="4.019399999999999" rx="0"></rect>
<rect x="22.116699999999998" y="81.0679" width="4.019399999999999" height="4.019399999999999" rx="0"></rect>
<rect x="43.55349999999999" y="81.0679" width="4.019399999999999" height="4.019399999999999" rx="0"></rect>
<rect x="48.912699999999994" y="81.0679" width="4.019399999999999" height="4.019399999999999" rx="0"></rect>
<rect x="54.271899999999995" y="81.0679" width="4.019399999999999" height="4.019399999999999" rx="0"></rect>
<rect x="64.99029999999999" y="81.0679" width="4.019399999999999" height="4.019399999999999" rx="0"></rect>
<rect x="70.34949999999999" y="81.0679" width="4.019399999999999" height="4.019399999999999" rx="0"></rect>
<rect x="75.7087" y="81.0679" width="4.019399999999999" height="4.019399999999999" rx="0"></rect>
<rect x="86.4271" y="81.0679" width="4.019399999999999" height="4.019399999999999" rx="0"></rect>
<rect x="102.5047" y="81.0679" width="4.019399999999999" height="4.019399999999999" rx="0"></rect>
<rect x="107.8639" y="81.0679" width="4.019399999999999" height="4.019399999999999" rx="0"></rect>
<rect x="113.22309999999999" y="81.0679" width="4.019399999999999" height="4.019399999999999" rx="0"></rect>
<rect x="123.94149999999999" y="81.0679" width="4.019399999999999" height="4.019399999999999" rx="0"></rect>
<rect x="0.6799" y="86.4271" width="4.019399999999999" height="4.019399999999999" rx="0"></rect>
<rect x="6.0390999999999995" y="86.4271" width="4.019399999999999" height="4.019399999999999" rx="0"></rect>
<rect x="11.398299999999999" y="86.4271" width="4.019399999999999" height="4.019399999999999" rx="0"></rect>
<rect x="16.757499999999997" y="86.4271" width="4.019399999999999" height="4.019399999999999" rx="0"></rect>
<rect x="27.4759" y="86.4271" width="4.019399999999999" height="4.019399999999999" rx="0"></rect>
<rect x="32.83509999999999" y="86.4271" width="4.019399999999999" height="4.019399999999999" rx="0"></rect>
<rect x="38.19429999999999" y="86.4271" width="4.019399999999999" height="4.019399999999999" rx="0"></rect>
<rect x="54.271899999999995" y="86.4271" width="4.019399999999999" height="4.019399999999999" rx="0"></rect>
<rect x="64.99029999999999" y="86.4271" width="4.019399999999999" height="4.019399999999999" rx="0"></rect>
<rect x="81.0679" y="86.4271" width="4.019399999999999" height="4.019399999999999" rx="0"></rect>
<rect x="86.4271" y="86.4271" width="4.019399999999999" height="4.019399999999999" rx="0"></rect>
<rect x="91.7863" y="86.4271" width="4.019399999999999" height="4.019399999999999" rx="0"></rect>
<rect x="97.1455" y="86.4271" width="4.019399999999999" height="4.019399999999999" rx="0"></rect>
<rect x="102.5047" y="86.4271" width="4.019399999999999" height="4.019399999999999" rx="0"></rect>
<rect x="107.8639" y="86.4271" width="4.019399999999999" height="4.019399999999999" rx="0"></rect>
<rect x="113.22309999999999" y="86.4271" width="4.019399999999999" height="4.019399999999999" rx="0"></rect>
<rect x="118.58229999999999" y="86.4271" width="4.019399999999999" height="4.019399999999999" rx="0"></rect>
<rect x="43.55349999999999" y="91.7863" width="4.019399999999999" height="4.019399999999999" rx="0"></rect>
<rect x="48.912699999999994" y="91.7863" width="4.019399999999999" height="4.019399999999999" rx="0"></rect>
<rect x="64.99029999999999" y="91.7863" width="4.019399999999999" height="4.019399999999999" rx="0"></rect>
<rect x="70.34949999999999" y="91.7863" width="4.019399999999999" height="4.019399999999999" rx="0"></rect>
<rect x="75.7087" y="91.7863" width="4.019399999999999" height="4.019399999999999" rx="0"></rect>
<rect x="81.0679" y="91.7863" width="4.019399999999999" height="4.019399999999999" rx="0"></rect>
<rect x="86.4271" y="91.7863" width="4.019399999999999" height="4.019399999999999" rx="0"></rect>
<rect x="107.8639" y="91.7863" width="4.019399999999999" height="4.019399999999999" rx="0"></rect>
<rect x="113.22309999999999" y="91.7863" width="4.019399999999999" height="4.019399999999999" rx="0"></rect>
<rect x="118.58229999999999" y="91.7863" width="4.019399999999999" height="4.019399999999999" rx="0"></rect>
<rect x="129.30069999999998" y="91.7863" width="4.019399999999999" height="4.019399999999999" rx="0"></rect>
<rect x="43.55349999999999" y="97.1455" width="4.019399999999999" height="4.019399999999999" rx="0"></rect>
<rect x="54.271899999999995" y="97.1455" width="4.019399999999999" height="4.019399999999999" rx="0"></rect>
<rect x="59.63109999999999" y="97.1455" width="4.019399999999999" height="4.019399999999999" rx="0"></rect>
<rect x="64.99029999999999" y="97.1455" width="4.019399999999999" height="4.019399999999999" rx="0"></rect>
<rect x="81.0679" y="97.1455" width="4.019399999999999" height="4.019399999999999" rx="0"></rect>
<rect x="86.4271" y="97.1455" width="4.019399999999999" height="4.019399999999999" rx="0"></rect>
<rect x="97.1455" y="97.1455" width="4.019399999999999" height="4.019399999999999" rx="0"></rect>
<rect x="107.8639" y="97.1455" width="4.019399999999999" height="4.019399999999999" rx="0"></rect>
<rect x="123.94149999999999" y="97.1455" width="4.019399999999999" height="4.019399999999999" rx="0"></rect>
<rect x="129.30069999999998" y="97.1455" width="4.019399999999999" height="4.019399999999999" rx="0"></rect>
<rect x="43.55349999999999" y="102.5047" width="4.019399999999999" height="4.019399999999999" rx="0"></rect>
<rect x="59.63109999999999" y="102.5047" width="4.019399999999999" height="4.019399999999999" rx="0"></rect>
<rect x="86.4271" y="102.5047" width="4.019399999999999" height="4.019399999999999" rx="0"></rect>
<rect x="107.8639" y="102.5047" width="4.019399999999999" height="4.019399999999999" rx="0"></rect>
<rect x="113.22309999999999" y="102.5047" width="4.019399999999999" height="4.019399999999999" rx="0"></rect>
<rect x="118.58229999999999" y="102.5047" width="4.019399999999999" height="4.019399999999999" rx="0"></rect>
<rect x="123.94149999999999" y="102.5047" width="4.019399999999999" height="4.019399999999999" rx="0"></rect>
<rect x="64.99029999999999" y="107.8639" width="4.019399999999999" height="4.019399999999999" rx="0"></rect>
<rect x="70.34949999999999" y="107.8639" width="4.019399999999999" height="4.019399999999999" rx="0"></rect>
<rect x="75.7087" y="107.8639" width="4.019399999999999" height="4.019399999999999" rx="0"></rect>
<rect x="86.4271" y="107.8639" width="4.019399999999999" height="4.019399999999999" rx="0"></rect>
<rect x="91.7863" y="107.8639" width="4.019399999999999" height="4.019399999999999" rx="0"></rect>
<rect x="97.1455" y="107.8639" width="4.019399999999999" height="4.019399999999999" rx="0"></rect>
<rect x="102.5047" y="107.8639" width="4.019399999999999" height="4.019399999999999" rx="0"></rect>
<rect x="107.8639" y="107.8639" width="4.019399999999999" height="4.019399999999999" rx="0"></rect>
<rect x="129.30069999999998" y="107.8639" width="4.019399999999999" height="4.019399999999999" rx="0"></rect>
<rect x="43.55349999999999" y="113.22309999999999" width="4.019399999999999" height="4.019399999999999" rx="0"></rect>
<rect x="48.912699999999994" y="113.22309999999999" width="4.019399999999999" height="4.019399999999999" rx="0"></rect>
<rect x="54.271899999999995" y="113.22309999999999" width="4.019399999999999" height="4.019399999999999" rx="0"></rect>
<rect x="75.7087" y="113.22309999999999" width="4.019399999999999" height="4.019399999999999" rx="0"></rect>
<rect x="86.4271" y="113.22309999999999" width="4.019399999999999" height="4.019399999999999" rx="0"></rect>
<rect x="102.5047" y="113.22309999999999" width="4.019399999999999" height="4.019399999999999" rx="0"></rect>
<rect x="107.8639" y="113.22309999999999" width="4.019399999999999" height="4.019399999999999" rx="0"></rect>
<rect x="118.58229999999999" y="113.22309999999999" width="4.019399999999999" height="4.019399999999999" rx="0"></rect>
<rect x="64.99029999999999" y="118.58229999999999" width="4.019399999999999" height="4.019399999999999" rx="0"></rect>
<rect x="70.34949999999999" y="118.58229999999999" width="4.019399999999999" height="4.019399999999999" rx="0"></rect>
<rect x="75.7087" y="118.58229999999999" width="4.019399999999999" height="4.019399999999999" rx="0"></rect>
<rect x="91.7863" y="118.58229999999999" width="4.019399999999999" height="4.019399999999999" rx="0"></rect>
<rect x="107.8639" y="118.58229999999999" width="4.019399999999999" height="4.019399999999999" rx="0"></rect>
<rect x="113.22309999999999" y="118.58229999999999" width="4.019399999999999" height="4.019399999999999" rx="0"></rect>
<rect x="118.58229999999999" y="118.58229999999999" width="4.019399999999999" height="4.019399999999999" rx="0"></rect>
<rect x="129.30069999999998" y="118.58229999999999" width="4.019399999999999" height="4.019399999999999" rx="0"></rect>
<rect x="43.55349999999999" y="123.94149999999999" width="4.019399999999999" height="4.019399999999999" rx="0"></rect>
<rect x="48.912699999999994" y="123.94149999999999" width="4.019399999999999" height="4.019399999999999" rx="0"></rect>
<rect x="59.63109999999999" y="123.94149999999999" width="4.019399999999999" height="4.019399999999999" rx="0"></rect>
<rect x="64.99029999999999" y="123.94149999999999" width="4.019399999999999" height="4.019399999999999" rx="0"></rect>
<rect x="75.7087" y="123.94149999999999" width="4.019399999999999" height="4.019399999999999" rx="0"></rect>
<rect x="81.0679" y="123.94149999999999" width="4.019399999999999" height="4.019399999999999" rx="0"></rect>
<rect x="86.4271" y="123.94149999999999" width="4.019399999999999" height="4.019399999999999" rx="0"></rect>
<rect x="113.22309999999999" y="123.94149999999999" width="4.019399999999999" height="4.019399999999999" rx="0"></rect>
<rect x="48.912699999999994" y="129.30069999999998" width="4.019399999999999" height="4.019399999999999" rx="0"></rect>
<rect x="54.271899999999995" y="129.30069999999998" width="4.019399999999999" height="4.019399999999999" rx="0"></rect>
<rect x="64.99029999999999" y="129.30069999999998" width="4.019399999999999" height="4.019399999999999" rx="0"></rect>
<rect x="70.34949999999999" y="129.30069999999998" width="4.019399999999999" height="4.019399999999999" rx="0"></rect>
<rect x="75.7087" y="129.30069999999998" width="4.019399999999999" height="4.019399999999999" rx="0"></rect>
<rect x="81.0679" y="129.30069999999998" width="4.019399999999999" height="4.019399999999999" rx="0"></rect>
<rect x="86.4271" y="129.30069999999998" width="4.019399999999999" height="4.019399999999999" rx="0"></rect>
<rect x="102.5047" y="129.30069999999998" width="4.019399999999999" height="4.019399999999999" rx="0"></rect>
<rect x="123.94149999999999" y="129.30069999999998" width="4.019399999999999" height="4.019399999999999" rx="0"></rect>
<rect x="129.30069999999998" y="129.30069999999998" width="4.019399999999999" height="4.019399999999999" rx="0"></rect>
</g>
<g>
<rect x="2.6795999999999998" y="2.6795999999999998" width="32.155199999999994" fill="none" height="32.155199999999994" stroke-width="5.3591999999999995" stroke="#222222"></rect>
<rect x="10.718399999999999" y="10.718399999999999" width="16.077599999999997" fill="#222222" height="16.077599999999997"></rect>
<rect x="99.1652" y="2.6795999999999998" width="32.155199999999994" fill="none" height="32.155199999999994" stroke-width="5.3591999999999995" stroke="#222222"></rect>
<rect x="107.20400000000001" y="10.718399999999999" width="16.077599999999997" fill="#222222" height="16.077599999999997"></rect>
<rect x="2.6795999999999998" y="99.1652" width="32.155199999999994" fill="none" height="32.155199999999994" stroke-width="5.3591999999999995" stroke="#222222"></rect>
<rect x="10.718399999999999" y="107.20400000000001" width="16.077599999999997" fill="#222222" height="16.077599999999997"></rect>
</g>
</g>
</svg>