<svg xmlns="http://www.w3.org/2000/svg" xmlns:xlink="http://www.w3.org/1999/xlink" version="1.1" x="0" y="0" viewBox="0 0 220.0 220.0" width="220.0" height="220.0">


<circle cx="110" cy="110" r="110" shape-rendering="geometricPrecision" fill="none" stroke="none"></circle>


<path fill-rule="evenodd" shape-rendering="geometricPrecision" clip-rule="evenodd" d="M75.8173 29.4488C74.3217 29.4488 73.8898 27.5234 75.2695 26.9458C85.9562 22.4716 97.6895 20 110 20C122.311 20 134.044 22.4716 144.731 26.9458C146.11 27.5234 145.678 29.4488 144.183 29.4488H129.938C123.624 27.9052 117.026 27.0867 110.236 27.0867C103.446 27.0867 96.8474 27.9052 90.5333 29.4488H75.8173ZM29.4488 92.1043V75.8173C29.4488 74.3217 27.5234 73.8898 26.9458 75.2695C22.4716 85.9562 20 97.6895 20 110C20 122.311 22.4716 134.044 26.9458 144.731C27.5234 146.11 29.4488 145.678 29.4488 144.183V127.423C28.2108 121.734 27.5586 115.825 27.5586 109.764C27.5586 103.703 28.2108 97.7943 29.4488 92.1043ZM92.5779 190.551H75.8173C74.3217 190.551 73.8898 192.477 75.2695 193.054C85.9562 197.528 97.6895 200 110 200C122.311 200 134.044 197.528 144.731 193.054C146.11 192.477 145.678 190.551 144.183 190.551H127.894C122.204 191.789 116.296 192.441 110.236 192.441C104.175 192.441 98.2673 191.789 92.5779 190.551ZM190.551 129.465V144.183C190.551 145.678 192.477 146.11 193.054 144.731C197.528 134.044 200 122.311 200 110C200 97.6895 197.528 85.9562 193.054 75.2695C192.477 73.8898 190.551 74.3217 190.551 75.8173V90.0629C192.095 96.3766 192.913 102.975 192.913 109.764C192.913 116.553 192.095 123.151 190.551 129.465Z" fill="#222222"></path>
<g transform="translate(39.0, 39.0)">
<g shape-rendering="crispEdges" fill="#222222">
<rect x="45.443599999999996" y="0.01" width="5.6792" height="5.6792" rx="0"></rect>
<rect x="51.1228" y="0.01" width="5.6792" height="5.6792" rx="0"></rect>
<rect x="56.802" y="0.01" width="5.6792" height="5.6792" rx="0"></rect>
<rect x="62.481199999999994" y="0.01" width="5.6792" height="5.6792" rx="0"></rect>
<rect x="79.5188" y="0.01" width="5.6792" height="5.6792" rx="0"></rect>
<rect x="85.19800000000001" y="0.01" width="5.6792" height="5.6792" rx="0"></rect>
<rect x="56.802" y="5.6892" width="5.6792" height="5.6792" rx="0"></rect>
<rect x="68.1604" y="5.6892" width="5.6792" height="5.6792" rx="0"></rect>
<rect x="73.8396" y="5.6892" width="5.6792" height="5.6792" rx="0"></rect>
<rect x="85.19800000000001" y="5.6892" width="5.6792" height="5.6792" rx="0"></rect>
<rect x="90.8772" y="5.6892" width="5.6792" height="5.6792" rx="0"></rect>
<rect x="45.443599999999996" y="11.3684" width="5.6792" height="5.6792" rx="0"></rect>
<rect x="68.1604" y="11.3684" width="5.6792" height="5.6792" rx="0"></rect>
<rect x="79.5188" y="11.3684" width="5.6792" height="5.6792" rx="0"></rect>
<rect x="85.19800000000001" y="11.3684" width="5.6792" height="5.6792" rx="0"></rect>
<rect x="45.443599999999996" y="17.0476" width="5.6792" height="5.6792" rx="0"></rect>
<rect x="51.1228" y="17.0476" width="5.6792" height="5.6792" rx="0"></rect>
<rect x="68.1604" y="17.0476" width="5.6792" height="5.6792" rx="0"></rect>
<rect x="79.5188" y="17.0476" width="5.6792" height="5.6792" rx="0"></rect>
<rect x="51.1228" y="22.7268" width="5.6792" height="5.6792" rx="0"></rect>
<rect x="56.802" y="22.7268" width="5.6792" height="5.6792" rx="0"></rect>
<rect x="79.5188" y="22.7268" width="5.6792" height="5.6792" rx="0"></rect>
<rect x="85.19800000000001" y="22.7268" width="5.6792" height="5.6792" rx="0"></rect>
<rect x="45.443599999999996" y="28.406000000000002" width="5.6792" height="5.6792" rx="0"></rect>
<rect x="62.481199999999994" y="28.406000000000002" width="5.6792" height="5.6792" rx="0"></rect>
<rect x="68.1604" y="28.406000000000002" width="5.6792" height="5.6792" rx="0"></rect>
<rect x="85.19800000000001" y="28.406000000000002" width="5.6792" height="5.6792" rx="0"></rect>
<rect x="90.8772" y="28.406000000000002" width="5.6792" height="5.6792" rx="0"></rect>
<rect x="45.443599999999996" y="34.08519999999999" width="5.6792" height="5.6792" rx="0"></rect>
<rect x="56.802" y="34.08519999999999" width="5.6792" height="5.6792" rx="0"></rect>
<rect x="68.1604" y="34.08519999999999" width="5.6792" height="5.6792" rx="0"></rect>
<rect x="79.5188" y="34.08519999999999" width="5.6792" height="5.6792" rx="0"></rect>
<rect x="90.8772" y="34.08519999999999" width="5.6792" height="5.6792" rx="0"></rect>
<rect x="45.443599999999996" y="39.764399999999995" width="5.6792" height="5.6792" rx="0"></rect>
<rect x="62.481199999999994" y="39.764399999999995" width="5.6792" height="5.6792" rx="0"></rect>
<rect x="68.1604" y="39.764399999999995" width="5.6792" height="5.6792" rx="0"></rect>
<rect x="79.5188" y="39.764399999999995" width="5.6792" height="5.6792" rx="0"></rect>
<rect x="85.19800000000001" y="39.764399999999995" width="5.6792" height="5.6792" rx="0"></rect>
<rect x="5.6892" y="45.443599999999996" width="5.6792" height="5.6792" rx="0"></rect>
<rect x="17.0476" y="45.443599999999996" width="5.6792" height="5.6792" rx="0"></rect>
<rect x="28.406000000000002" y="45.443599999999996" width="5.6792" height="5.6792" rx="0"></rect>
<rect x="34.08519999999999" y="45.443599999999996" width="5.6792" height="5.6792" rx="0"></rect>
<rect x="39.764399999999995" y="45.443599999999996" width="5.6792" height="5.6792" rx="0"></rect>
<rect x="45.443599999999996" y="45.443599999999996" width="5.6792" height="5.6792" rx="0"></rect>
<rect x="62.481199999999994" y="45.443599999999996" width="5.6792" height="5.6792" rx="0"></rect>
<rect x="73.8396" y="45.443599999999996" width="5.6792" height="5.6792" rx="0"></rect>
<rect x="79.5188" y="45.443599999999996" width="5.6792" height="5.6792" rx="0"></rect>
<rect x="90.8772" y="45.443599999999996" width="5.6792" height="5.6792" rx="0"></rect>
<rect x="96.5564" y="45.443599999999996" width="5.6792" height="5.6792" rx="0"></rect>
<rect x="102.2356" y="45.443599999999996" width="5.6792" height="5.6792" rx="0"></rect>
<rect x="107.9148" y="45.443599999999996" width="5.6792" height="5.6792" rx="0"></rect>
<rect x="119.2732" y="45.443599999999996" width="5.6792" height="5.6792" rx="0"></rect>
<rect x="124.9524" y="45.443599999999996" width="5.6792" height="5.6792" rx="0"></rect>
<rect x="136.31079999999997" y="45.443599999999996" width="5.6792" height="5.6792" rx="0"></rect>
<rect x="11.3684" y="51.1228" width="5.6792" height="5.6792" rx="0"></rect>
<rect x="51.1228" y="51.1228" width="5.6792" height="5.6792" rx="0"></rect>
<rect x="56.802" y="51.1228" width="5.6792" height="5.6792" rx="0"></rect>
<rect x="62.481199999999994" y="51.1228" width="5.6792" height="5.6792" rx="0"></rect>
<rect x="68.1604" y="51.1228" width="5.6792" height="5.6792" rx="0"></rect>
<rect x="90.8772" y="51.1228" width="5.6792" height="5.6792" rx="0"></rect>
<rect x="102.2356" y="51.1228" width="5.6792" height="5.6792" rx="0"></rect>
<rect x="136.31079999999997" y="51.1228" width="5.6792" height="5.6792" rx="0"></rect>
<rect x="0.01" y="56.802" width="5.6792" height="5.6792" rx="0"></rect>
<rect x="5.6892" y="56.802" width="5.6792" height="5.6792" rx="0"></rect>
<rect x="11.3684" y="56.802" width="5.6792" height="5.6792" rx="0"></rect>
<rect x="17.0476" y="56.802" width="5.6792" height="5.6792" rx="0"></rect>
<rect x="34.08519999999999" y="56.802" width="5.6792" height="5.6792" rx="0"></rect>
<rect x="39.764399999999995" y="56.802" width="5.6792" height="5.6792" rx="0"></rect>
<rect x="62.481199999999994" y="56.802" width="5.6792" height="5.6792" rx="0"></rect>
<rect x="73.8396" y="56.802" width="5.6792" height="5.6792" rx="0"></rect>
<rect x="96.5564" y="56.802" width="5.6792" height="5.6792" rx="0"></rect>
<rect x="102.2356" y="56.802" width="5.6792" height="5.6792" rx="0"></rect>
<rect x="130.6316" y="56.802" width="5.6792" height="5.6792" rx="0"></rect>
<rect x="136.31079999999997" y="56.802" width="5.6792" height="5.6792" rx="0"></rect>
<rect x="22.7268" y="62.481199999999994" width="5.6792" height="5.6792" rx="0"></rect>
<rect x="28.406000000000002" y="62.481199999999994" width="5.6792" height="5.6792" rx="0"></rect>
<rect x="39.764399999999995" y="62.481199999999994" width="5.6792" height="5.6792" rx="0"></rect>
<rect x="68.1604" y="62.481199999999994" width="5.6792" height="5.6792" rx="0"></rect>
<rect x="73.8396" y="62.481199999999994" width="5.6792" height="5.6792" rx="0"></rect>
<rect x="85.19800000000001" y="62.481199999999994" width="5.6792" height="5.6792" rx="0"></rect>
<rect x="90.8772" y="62.481199999999994" width="5.6792" height="5.6792" rx="0"></rect>
<rect x="102.2356" y="62.481199999999994" width="5.6792" height="5.6792" rx="0"></rect>
<rect x="0.01" y="68.1604" width="5.6792" height="5.6792" rx="0"></rect>
<rect x="5.6892" y="68.1604" width="5.6792" height="5.6792" rx="0"></rect>
<rect x="34.08519999999999" y="68.1604" width="5.6792" height="5.6792" rx="0"></rect>
<rect x="39.764399999999995" y="68.1604" width="5.6792" height="5.6792" rx="0"></rect>
<rect x="62.481199999999994" y="68.1604" width="5.6792" height="5.6792" rx="0"></rect>
<rect x="79.5188" y="68.1604" width="5.6792" height="5.6792" rx="0"></rect>
<rect x="90.8772" y="68.1604" width="5.6792" height="5.6792" rx="0"></rect>
<rect x="96.5564" y="68.1604" width="5.6792" height="5.6792" rx="0"></rect>
<rect x="102.2356" y="68.1604" width="5.6792" height="5.6792" rx="0"></rect>
<rect x="119.2732" y="68.1604" width="5.6792" height="5.6792" rx="0"></rect>
<rect x="130.6316" y="68.1604" width="5.6792" height="5.6792" rx="0"></rect>
<rect x="136.31079999999997" y="68.1604" width="5.6792" height="5.6792" rx="0"></rect>
<rect x="11.3684" y="73.8396" width="5.6792" height="5.6792" rx="0"></rect>
<rect x="22.7268" y="73.8396" width="5.6792" height="5.6792" rx="0"></rect>
<rect x="45.443599999999996" y="73.8396" width="5.6792" height="5.6792" rx="0"></rect>
<rect x="51.1228" y="73.8396" width="5.6792" height="5.6792" rx="0"></rect>
<rect x="56.802" y="73.8396" width="5.6792" height="5.6792" rx="0"></rect>
<rect x="62.481199999999994" y="73.8396" width="5.6792" height="5.6792" rx="0"></rect>
<rect x="68.1604" y="73.8396" width="5.6792" height="5.6792" rx="0"></rect>
<rect x="96.5564" y="73.8396" width="5.6792" height="5.6792" rx="0"></rect>
<rect x="102.2356" y="73.8396" width="5.6792" height="5.6792" rx="0"></rect>
<rect x="107.9148" y="73.8396" width="5.6792" height="5.6792" rx="0"></rect>
<rect x="119.2732" y="73.8396" width="5.6792" height="5.6792" rx="0"></rect>
<rect x="124.9524" y="73.8396" width="5.6792" height="5.6792" rx="0"></rect>
<rect x="136.31079999999997" y="73.8396" width="5.6792" height="5.6792" rx="0"></rect>
<rect x="0.01" y="79.5188" width="5.6792" height="5.6792" rx="0"></rect>
<rect x="17.0476" y="79.5188" width="5.6792" height="5.6792" rx="0"></rect>
<rect x="28.406000000000002" y="79.5188" width="5.6792" height="5.6792" rx="0"></rect>
<rect x="34.08519999999999" y="79.5188" width="5.6792" height="5.6792" rx="0"></rect>
<rect x="45.443599999999996" y="79.5188" width="5.6792" height="5.6792" rx="0"></rect>
<rect x="51.1228" y="79.5188" width="5.6792" height="5.6792" rx="0"></rect>
<rect x="56.802" y="79.5188" width="5.6792" height="5.6792" rx="0"></rect>
<rect x="62.481199999999994" y="79.5188" width="5.6792" height="5.6792" rx="0"></rect>
<rect x="73.8396" y="79.5188" width="5.6792" height="5.6792" rx="0"></rect>
<rect x="79.5188" y="79.5188" width="5.6792" height="5.6792" rx="0"></rect>
<rect x="102.2356" y="79.5188" width="5.6792" height="5.6792" rx="0"></rect>
<rect x="124.9524" y="79.5188" width="5.6792" height="5.6792" rx="0"></rect>
<rect x="136.31079999999997" y="79.5188" width="5.6792" height="5.6792" rx="0"></rect>
<rect x="5.6892" y="85.19800000000001" width="5.6792" height="5.6792" rx="0"></rect>
<rect x="11.3684" y="85.19800000000001" width="5.6792" height="5.6792" rx="0"></rect>
<rect x="17.0476" y="85.19800000000001" width="5.6792" height="5.6792" rx="0"></rect>
<rect x="22.7268" y="85.19800000000001" width="5.6792" height="5.6792" rx="0"></rect>
<rect x="45.443599999999996" y="85.19800000000001" width="5.6792" height="5.6792" rx="0"></rect>
<rect x="51.1228" y="85.19800000000001" width="5.6792" height="5.6792" rx="0"></rect>
<rect x="56.802" y="85.19800000000001" width="5.6792" height="5.6792" rx="0"></rect>
<rect x="68.1604" y="85.19800000000001" width="5.6792" height="5.6792" rx="0"></rect>
<rect x="73.8396" y="85.19800000000001" width="5.6792" height="5.6792" rx="0"></rect>
<rect x="79.5188" y="85.19800000000001" width="5.6792" height="5.6792" rx="0"></rect>
<rect x="90.8772" y="85.19800000000001" width="5.6792" height="5.6792" rx="0"></rect>
<rect x="107.9148" y="85.19800000000001" width="5.6792" height="5.6792" rx="0"></rect>
<rect x="113.59400000000001" y="85.19800000000001" width="5.6792" height="5.6792" rx="0"></rect>
<rect x="119.2732" y="85.19800000000001" width="5.6792" height="5.6792" rx="0"></rect>
<rect x="130.6316" y="85.19800000000001" width="5.6792" height="5.6792" rx="0"></rect>
<rect x="0.01" y="90.8772" width="5.6792" height="5.6792" rx="0"></rect>
<rect x="5.6892" y="90.8772" width="5.6792" height="5.6792" rx="0"></rect>
<rect x="11.3684" y="90.8772" width="5.6792" height="5.6792" rx="0"></rect>
<rect x="17.0476" y="90.8772" width="5.6792" height="5.6792" rx="0"></rect>
<rect x="28.406000000000002" y="90.8772" width="5.6792" height="5.6792" rx="0"></rect>
<rect x="34.08519999999999" y="90.8772" width="5.6792" height="5.6792" rx="0"></rect>
<rect x="39.764399999999995" y="90.8772" width="5.6792" height="5.6792" rx="0"></rect>
<rect x="56.802" y="90.8772" width="5.6792" height="5.6792" rx="0"></rect>
<rect x="68.1604" y="90.8772" width="5.6792" height="5.6792" rx="0"></rect>
<rect x="85.19800000000001" y="90.8772" width="5.6792" height="5.6792" rx="0"></rect>
<rect x="90.8772" y="90.8772" width="5.6792" height="5.6792" rx="0"></rect>
<rect x="96.5564" y="90.8772" width="5.6792" height="5.6792" rx="0"></rect>
<rect x="102.2356" y="90.8772" width="5.6792" height="5.6792" rx="0"></rect>
<rect x="107.9148" y="90.8772" width="5.6792" height="5.6792" rx="0"></rect>
<rect x="113.59400000000001" y="90.8772" width="5.6792" height="5.6792" rx="0"></rect>
<rect x="119.2732" y="90.8772" width="5.6792" height="5.6792" rx="0"></rect>
<rect x="124.9524" y="90.8772" width="5.6792" height="5.6792" rx="0"></rect>
<rect x="45.443599999999996" y="96.5564" width="5.6792" height="5.6792" rx="0"></rect>
<rect x="51.1228" y="96.5564" width="5.6792" height="5.6792" rx="0"></rect>
<rect x="68.1604" y="96.5564" width="5.6792" height="5.6792" rx="0"></rect>
<rect x="73.8396" y="96.5564" width="5.6792" height="5.6792" rx="0"></rect>
<rect x="79.5188" y="96.5564" width="5.6792" height="5.6792" rx="0"></rect>
<rect x="85.19800000000001" y="96.5564" width="5.6792" height="5.6792" rx="0"></rect>
<rect x="90.8772" y="96.5564" width="5.6792" height="5.6792" rx="0"></rect>
<rect x="113.59400000000001" y="96.5564" width="5.6792" height="5.6792" rx="0"></rect>
<rect x="119.2732" y="96.5564" width="5.6792" height="5.6792" rx="0"></rect>
<rect x="124.9524" y="96.5564" width="5.6792" height="5.6792" rx="0"></rect>
<rect x="136.31079999999997" y="96.5564" width="5.6792" height="5.6792" rx="0"></rect>
<rect x="45.443599999999996" y="102.2356" width="5.6792" height="5.6792" rx="0"></rect>
<rect x="56.802" y="102.2356" width="5.6792" height="5.6792" rx="0"></rect>
<rect x="62.481199999999994" y="102.2356" width="5.6792" height="5.6792" rx="0"></rect>
<rect x="68.1604" y="102.2356" width="5.6792" height="5.6792" rx="0"></rect>
<rect x="85.19800000000001" y="102.2356" width="5.6792" height="5.6792" rx="0"></rect>
<rect x="90.8772" y="102.2356" width="5.6792" height="5.6792" rx="0"></rect>
<rect x="102.2356" y="102.2356" width="5.6792" height="5.6792" rx="0"></rect>
<rect x="113.59400000000001" y="102.2356" width="5.6792" height="5.6792" rx="0"></rect>
<rect x="130.6316" y="102.2356" width="5.6792" height="5.6792" rx="0"></rect>
<rect x="136.31079999999997" y="102.2356" width="5.6792" height="5.6792" rx="0"></rect>
<rect x="45.443599999999996" y="107.9148" width="5.6792" height="5.6792" rx="0"></rect>
<rect x="62.481199999999994" y="107.9148" width="5.6792" height="5.6792" rx="0"></rect>
<rect x="90.8772" y="107.9148" width="5.6792" height="5.6792" rx="0"></rect>
<rect x="113.59400000000001" y="107.9148" width="5.6792" height="5.6792" rx="0"></rect>
<rect x="119.2732" y="107.9148" width="5.6792" height="5.6792" rx="0"></rect>
<rect x="124.9524" y="107.9148" width="5.6792" height="5.6792" rx="0"></rect>
<rect x="130.6316" y="107.9148" width="5.6792" height="5.6792" rx="0"></rect>
<rect x="68.1604" y="113.59400000000001" width="5.6792" height="5.6792" rx="0"></rect>
<rect x="73.8396" y="113.59400000000001" width="5.6792" height="5.6792" rx="0"></rect>
<rect x="79.5188" y="113.59400000000001" width="5.6792" height="5.6792" rx="0"></rect>
<rect x="90.8772" y="113.59400000000001" width="5.6792" height="5.6792" rx="0"></rect>
<rect x="96.5564" y="113.59400000000001" width="5.6792" height="5.6792" rx="0"></rect>
<rect x="102.2356" y="113.59400000000001" width="5.6792" height="5.6792" rx="0"></rect>
<rect x="107.9148" y="113.59400000000001" width="5.6792" height="5.6792" rx="0"></rect>
<rect x="113.59400000000001" y="113.59400000000001" width="5.6792" height="5.6792" rx="0"></rect>
<rect x="136.31079999999997" y="113.59400000000001" width="5.6792" height="5.6792" rx="0"></rect>
<rect x="45.443599999999996" y="119.2732" width="5.6792" height="5.6792" rx="0"></rect>
<rect x="51.1228" y="119.2732" width="5.6792" height="5.6792" rx="0"></rect>
<rect x="56.802" y="119.2732" width="5.6792" height="5.6792" rx="0"></rect>
<rect x="79.5188" y="119.2732" width="5.6792" height="5.6792" rx="0"></rect>
<rect x="90.8772" y="119.2732" width="5.6792" height="5.6792" rx="0"></rect>
<rect x="107.9148" y="119.2732" width="5.6792" height="5.6792" rx="0"></rect>
<rect x="113.59400000000001" y="119.2732" width="5.6792" height="5.6792" rx="0"></rect>
<rect x="124.9524" y="119.2732" width="5.6792" height="5.6792" rx="0"></rect>
<rect x="68.1604" y="124.9524" width="5.6792" height="5.6792" rx="0"></rect>
<rect x="73.8396" y="124.9524" width="5.6792" height="5.6792" rx="0"></rect>
<rect x="79.5188" y="124.9524" width="5.6792" height="5.6792" rx="0"></rect>
<rect x="96.5564" y="124.9524" width="5.6792" height="5.6792" rx="0"></rect>
<rect x="113.59400000000001" y="124.9524" width="5.6792" height="5.6792" rx="0"></rect>
<rect x="119.2732" y="124.9524" width="5.6792" height="5.6792" rx="0"></rect>
<rect x="124.9524" y="124.9524" width="5.6792" height="5.6792" rx="0"></rect>
<rect x="136.31079999999997" y="124.9524" width="5.6792" height="5.6792" rx="0"></rect>
<rect x="45.443599999999996" y="130.6316" width="5.6792" height="5.6792" rx="0"></rect>
<rect x="51.1228" y="130.6316" width="5.6792" height="5.6792" rx="0"></rect>
<rect x="62.481199999999994" y="130.6316" width="5.6792" height="5.6792" rx="0"></rect>
<rect x="68.1604" y="130.6316" width="5.6792" height="5.6792" rx="0"></rect>
<rect x="79.5188" y="130.6316" width="5.6792" height="5.6792" rx="0"></rect>
<rect x="85.19800000000001" y="130.6316" width="5.6792" height="5.6792" rx="0"></rect>
<rect x="90.8772" y="130.6316" width="5.6792" height="5.6792" rx="0"></rect>
<rect x="119.2732" y="130.6316" width="5.6792" height="5.6792" rx="0"></rect>
<rect x="51.1228" y="136.31079999999997" width="5.6792" height="5.6792" rx="0"></rect>
<rect x="56.802" y="136.31079999999997" width="5.6792" height="5.6792" rx="0"></rect>
<rect x="68.1604" y="136.31079999999997" width="5.6792" height="5.6792" rx="0"></rect>
<rect x="73.8396" y="136.31079999999997" width="5.6792" height="5.6792" rx="0"></rect>
<rect x="79.5188" y="136.31079999999997" width="5.6792" height="5.6792" rx="0"></rect>
<rect x="85.19800000000001" y="136.31079999999997" width="5.6792" height="5.6792" rx="0"></rect>
<rect x="90.8772" y="136.31079999999997" width="5.6792" height="5.6792" rx="0"></rect>
<rect x="107.9148" y="136.31079999999997" width="5.6792" height="5.6792" rx="0"></rect>
<rect x="130.6316" y="136.31079999999997" width="5.6792" height="5.6792" rx="0"></rect>
<rect x="136.31079999999997" y="136.31079999999997" width="5.6792" height="5.6792" rx="0"></rect>
</g>
<g>
<rect x="2.8396" y="2.8396" width="34.075199999999995" fill="none" height="34.075199999999995" stroke-width="5.6792" stroke="#222222"></rect>
<rect x="11.3584" y="11.3584" width="17.037599999999998" fill="#222222" height="17.037599999999998"></rect>
<rect x="105.0852" y="2.8396" width="34.075199999999995" fill="none" height="34.075199999999995" stroke-width="5.6792" stroke="#222222"></rect>
<rect x="113.604" y="11.3584" width="17.037599999999998" fill="#222222" height="17.037599999999998"></rect>
<rect x="2.8396" y="105.0852" width="34.075199999999995" fill="none" height="34.075199999999995" stroke-width="5.6792" stroke="#222222"></rect>
<rect x="11.3584" y="113.604" width="17.037599999999998" fill="#222222" height="17.037599999999998"></rect>
</g>
</g>
</svg>