<svg width="220" height="220" viewBox="0 0 220 220" fill="none" xmlns="http://www.w3.org/2000/svg">
<g clip-path="url(#clip0_507_1059)">
<path d="M112 218C170.542 218 218 170.542 218 112C218 53.4578 170.542 6 112 6C53.4578 6 6 53.4578 6 112C6 170.542 53.4578 218 112 218Z" fill="white"/>
<path fill-rule="evenodd" clip-rule="evenodd" d="M110 220C170.751 220 220 170.751 220 110C220 49.2487 170.751 0 110 0C49.2487 0 0 49.2487 0 110C0 170.751 49.2487 220 110 220ZM44 38C40.6863 38 38 40.6863 38 44V176C38 179.314 40.6863 182 44 182H176C179.314 182 182 179.314 182 176V44C182 40.6863 179.314 38 176 38H44Z" fill="#222222"/>
<path d="M91.7345 47.6399H87.9551V51.4193H91.7345V47.6399Z" fill="#222222"/>
<path d="M96.7735 47.6399H92.9941V51.4193H96.7735V47.6399Z" fill="#222222"/>
<path d="M101.813 47.6399H98.0332V51.4193H101.813V47.6399Z" fill="#222222"/>
<path d="M106.852 47.6399H103.072V51.4193H106.852V47.6399Z" fill="#222222"/>
<path d="M121.969 47.6399H118.189V51.4193H121.969V47.6399Z" fill="#222222"/>
<path d="M127.008 47.6399H123.229V51.4193H127.008V47.6399Z" fill="#222222"/>
<path d="M101.813 52.6792H98.0332V56.4586H101.813V52.6792Z" fill="#222222"/>
<path d="M111.891 52.6792H108.111V56.4586H111.891V52.6792Z" fill="#222222"/>
<path d="M116.93 52.6792H113.15V56.4586H116.93V52.6792Z" fill="#222222"/>
<path d="M127.008 52.6792H123.229V56.4586H127.008V52.6792Z" fill="#222222"/>
<path d="M132.047 52.6792H128.268V56.4586H132.047V52.6792Z" fill="#222222"/>
<path d="M91.7345 57.7183H87.9551V61.4977H91.7345V57.7183Z" fill="#222222"/>
<path d="M111.891 57.7183H108.111V61.4977H111.891V57.7183Z" fill="#222222"/>
<path d="M121.969 57.7183H118.189V61.4977H121.969V57.7183Z" fill="#222222"/>
<path d="M127.008 57.7183H123.229V61.4977H127.008V57.7183Z" fill="#222222"/>
<path d="M91.7345 62.7576H87.9551V66.537H91.7345V62.7576Z" fill="#222222"/>
<path d="M96.7735 62.7576H92.9941V66.537H96.7735V62.7576Z" fill="#222222"/>
<path d="M111.891 62.7576H108.111V66.537H111.891V62.7576Z" fill="#222222"/>
<path d="M121.969 62.7576H118.189V66.537H121.969V62.7576Z" fill="#222222"/>
<path d="M96.7735 67.7966H92.9941V71.576H96.7735V67.7966Z" fill="#222222"/>
<path d="M101.813 67.7966H98.0332V71.576H101.813V67.7966Z" fill="#222222"/>
<path d="M121.969 67.7966H118.189V71.576H121.969V67.7966Z" fill="#222222"/>
<path d="M127.008 67.7966H123.229V71.576H127.008V67.7966Z" fill="#222222"/>
<path d="M91.7345 72.8359H87.9551V76.6153H91.7345V72.8359Z" fill="#222222"/>
<path d="M106.852 72.8359H103.072V76.6153H106.852V72.8359Z" fill="#222222"/>
<path d="M111.891 72.8359H108.111V76.6153H111.891V72.8359Z" fill="#222222"/>
<path d="M127.008 72.8359H123.229V76.6153H127.008V72.8359Z" fill="#222222"/>
<path d="M132.047 72.8359H128.268V76.6153H132.047V72.8359Z" fill="#222222"/>
<path d="M91.7345 77.875H87.9551V81.6544H91.7345V77.875Z" fill="#222222"/>
<path d="M101.813 77.875H98.0332V81.6544H101.813V77.875Z" fill="#222222"/>
<path d="M111.891 77.875H108.111V81.6544H111.891V77.875Z" fill="#222222"/>
<path d="M121.969 77.875H118.189V81.6544H121.969V77.875Z" fill="#222222"/>
<path d="M132.047 77.875H128.268V81.6544H132.047V77.875Z" fill="#222222"/>
<path d="M91.7345 82.9143H87.9551V86.6937H91.7345V82.9143Z" fill="#222222"/>
<path d="M106.852 82.9143H103.072V86.6937H106.852V82.9143Z" fill="#222222"/>
<path d="M111.891 82.9143H108.111V86.6937H111.891V82.9143Z" fill="#222222"/>
<path d="M121.969 82.9143H118.189V86.6937H121.969V82.9143Z" fill="#222222"/>
<path d="M127.008 82.9143H123.229V86.6937H127.008V82.9143Z" fill="#222222"/>
<path d="M56.4591 87.9536H52.6797V91.733H56.4591V87.9536Z" fill="#222222"/>
<path d="M66.5372 87.9536H62.7578V91.733H66.5372V87.9536Z" fill="#222222"/>
<path d="M76.6153 87.9536H72.8359V91.733H76.6153V87.9536Z" fill="#222222"/>
<path d="M81.6544 87.9536H77.875V91.733H81.6544V87.9536Z" fill="#222222"/>
<path d="M86.6935 87.9536H82.9141V91.733H86.6935V87.9536Z" fill="#222222"/>
<path d="M91.7345 87.9536H87.9551V91.733H91.7345V87.9536Z" fill="#222222"/>
<path d="M106.852 87.9536H103.072V91.733H106.852V87.9536Z" fill="#222222"/>
<path d="M116.93 87.9536H113.15V91.733H116.93V87.9536Z" fill="#222222"/>
<path d="M121.969 87.9536H118.189V91.733H121.969V87.9536Z" fill="#222222"/>
<path d="M132.047 87.9536H128.268V91.733H132.047V87.9536Z" fill="#222222"/>
<path d="M137.086 87.9536H133.307V91.733H137.086V87.9536Z" fill="#222222"/>
<path d="M142.125 87.9536H138.346V91.733H142.125V87.9536Z" fill="#222222"/>
<path d="M147.164 87.9536H143.385V91.733H147.164V87.9536Z" fill="#222222"/>
<path d="M157.242 87.9536H153.463V91.733H157.242V87.9536Z" fill="#222222"/>
<path d="M162.283 87.9536H158.504V91.733H162.283V87.9536Z" fill="#222222"/>
<path d="M172.361 87.9536H168.582V91.733H172.361V87.9536Z" fill="#222222"/>
<path d="M61.4981 92.9927H57.7188V96.7721H61.4981V92.9927Z" fill="#222222"/>
<path d="M96.7735 92.9927H92.9941V96.7721H96.7735V92.9927Z" fill="#222222"/>
<path d="M101.813 92.9927H98.0332V96.7721H101.813V92.9927Z" fill="#222222"/>
<path d="M106.852 92.9927H103.072V96.7721H106.852V92.9927Z" fill="#222222"/>
<path d="M111.891 92.9927H108.111V96.7721H111.891V92.9927Z" fill="#222222"/>
<path d="M132.047 92.9927H128.268V96.7721H132.047V92.9927Z" fill="#222222"/>
<path d="M142.125 92.9927H138.346V96.7721H142.125V92.9927Z" fill="#222222"/>
<path d="M172.361 92.9927H168.582V96.7721H172.361V92.9927Z" fill="#222222"/>
<path d="M51.42 98.032H47.6406V101.811H51.42V98.032Z" fill="#222222"/>
<path d="M56.4591 98.032H52.6797V101.811H56.4591V98.032Z" fill="#222222"/>
<path d="M61.4981 98.032H57.7188V101.811H61.4981V98.032Z" fill="#222222"/>
<path d="M66.5372 98.032H62.7578V101.811H66.5372V98.032Z" fill="#222222"/>
<path d="M81.6544 98.032H77.875V101.811H81.6544V98.032Z" fill="#222222"/>
<path d="M86.6935 98.032H82.9141V101.811H86.6935V98.032Z" fill="#222222"/>
<path d="M106.852 98.032H103.072V101.811H106.852V98.032Z" fill="#222222"/>
<path d="M116.93 98.032H113.15V101.811H116.93V98.032Z" fill="#222222"/>
<path d="M137.086 98.032H133.307V101.811H137.086V98.032Z" fill="#222222"/>
<path d="M142.125 98.032H138.346V101.811H142.125V98.032Z" fill="#222222"/>
<path d="M167.322 98.032H163.543V101.811H167.322V98.032Z" fill="#222222"/>
<path d="M172.361 98.032H168.582V101.811H172.361V98.032Z" fill="#222222"/>
<path d="M71.5763 103.071H67.7969V106.85H71.5763V103.071Z" fill="#222222"/>
<path d="M76.6153 103.071H72.8359V106.85H76.6153V103.071Z" fill="#222222"/>
<path d="M86.6935 103.071H82.9141V106.85H86.6935V103.071Z" fill="#222222"/>
<path d="M111.891 103.071H108.111V106.85H111.891V103.071Z" fill="#222222"/>
<path d="M116.93 103.071H113.15V106.85H116.93V103.071Z" fill="#222222"/>
<path d="M127.008 103.071H123.229V106.85H127.008V103.071Z" fill="#222222"/>
<path d="M132.047 103.071H128.268V106.85H132.047V103.071Z" fill="#222222"/>
<path d="M142.125 103.071H138.346V106.85H142.125V103.071Z" fill="#222222"/>
<path d="M51.42 108.11H47.6406V111.89H51.42V108.11Z" fill="#222222"/>
<path d="M56.4591 108.11H52.6797V111.89H56.4591V108.11Z" fill="#222222"/>
<path d="M81.6544 108.11H77.875V111.89H81.6544V108.11Z" fill="#222222"/>
<path d="M86.6935 108.11H82.9141V111.89H86.6935V108.11Z" fill="#222222"/>
<path d="M106.852 108.11H103.072V111.89H106.852V108.11Z" fill="#222222"/>
<path d="M121.969 108.11H118.189V111.89H121.969V108.11Z" fill="#222222"/>
<path d="M132.047 108.11H128.268V111.89H132.047V108.11Z" fill="#222222"/>
<path d="M137.086 108.11H133.307V111.89H137.086V108.11Z" fill="#222222"/>
<path d="M142.125 108.11H138.346V111.89H142.125V108.11Z" fill="#222222"/>
<path d="M157.242 108.11H153.463V111.89H157.242V108.11Z" fill="#222222"/>
<path d="M167.322 108.11H163.543V111.89H167.322V108.11Z" fill="#222222"/>
<path d="M172.361 108.11H168.582V111.89H172.361V108.11Z" fill="#222222"/>
<path d="M61.4981 113.149H57.7188V116.929H61.4981V113.149Z" fill="#222222"/>
<path d="M71.5763 113.149H67.7969V116.929H71.5763V113.149Z" fill="#222222"/>
<path d="M91.7345 113.149H87.9551V116.929H91.7345V113.149Z" fill="#222222"/>
<path d="M96.7735 113.149H92.9941V116.929H96.7735V113.149Z" fill="#222222"/>
<path d="M101.813 113.149H98.0332V116.929H101.813V113.149Z" fill="#222222"/>
<path d="M106.852 113.149H103.072V116.929H106.852V113.149Z" fill="#222222"/>
<path d="M111.891 113.149H108.111V116.929H111.891V113.149Z" fill="#222222"/>
<path d="M137.086 113.149H133.307V116.929H137.086V113.149Z" fill="#222222"/>
<path d="M142.125 113.149H138.346V116.929H142.125V113.149Z" fill="#222222"/>
<path d="M147.164 113.149H143.385V116.929H147.164V113.149Z" fill="#222222"/>
<path d="M157.242 113.149H153.463V116.929H157.242V113.149Z" fill="#222222"/>
<path d="M162.283 113.149H158.504V116.929H162.283V113.149Z" fill="#222222"/>
<path d="M172.361 113.149H168.582V116.929H172.361V113.149Z" fill="#222222"/>
<path d="M51.42 118.189H47.6406V121.968H51.42V118.189Z" fill="#222222"/>
<path d="M66.5372 118.189H62.7578V121.968H66.5372V118.189Z" fill="#222222"/>
<path d="M76.6153 118.189H72.8359V121.968H76.6153V118.189Z" fill="#222222"/>
<path d="M81.6544 118.189H77.875V121.968H81.6544V118.189Z" fill="#222222"/>
<path d="M91.7345 118.189H87.9551V121.968H91.7345V118.189Z" fill="#222222"/>
<path d="M96.7735 118.189H92.9941V121.968H96.7735V118.189Z" fill="#222222"/>
<path d="M101.813 118.189H98.0332V121.968H101.813V118.189Z" fill="#222222"/>
<path d="M106.852 118.189H103.072V121.968H106.852V118.189Z" fill="#222222"/>
<path d="M116.93 118.189H113.15V121.968H116.93V118.189Z" fill="#222222"/>
<path d="M121.969 118.189H118.189V121.968H121.969V118.189Z" fill="#222222"/>
<path d="M142.125 118.189H138.346V121.968H142.125V118.189Z" fill="#222222"/>
<path d="M162.283 118.189H158.504V121.968H162.283V118.189Z" fill="#222222"/>
<path d="M172.361 118.189H168.582V121.968H172.361V118.189Z" fill="#222222"/>
<path d="M56.4591 123.228H52.6797V127.007H56.4591V123.228Z" fill="#222222"/>
<path d="M61.4981 123.228H57.7188V127.007H61.4981V123.228Z" fill="#222222"/>
<path d="M66.5372 123.228H62.7578V127.007H66.5372V123.228Z" fill="#222222"/>
<path d="M71.5763 123.228H67.7969V127.007H71.5763V123.228Z" fill="#222222"/>
<path d="M91.7345 123.228H87.9551V127.007H91.7345V123.228Z" fill="#222222"/>
<path d="M96.7735 123.228H92.9941V127.007H96.7735V123.228Z" fill="#222222"/>
<path d="M101.813 123.228H98.0332V127.007H101.813V123.228Z" fill="#222222"/>
<path d="M111.891 123.228H108.111V127.007H111.891V123.228Z" fill="#222222"/>
<path d="M116.93 123.228H113.15V127.007H116.93V123.228Z" fill="#222222"/>
<path d="M121.969 123.228H118.189V127.007H121.969V123.228Z" fill="#222222"/>
<path d="M132.047 123.228H128.268V127.007H132.047V123.228Z" fill="#222222"/>
<path d="M147.164 123.228H143.385V127.007H147.164V123.228Z" fill="#222222"/>
<path d="M152.203 123.228H148.424V127.007H152.203V123.228Z" fill="#222222"/>
<path d="M157.242 123.228H153.463V127.007H157.242V123.228Z" fill="#222222"/>
<path d="M167.322 123.228H163.543V127.007H167.322V123.228Z" fill="#222222"/>
<path d="M51.42 128.267H47.6406V132.046H51.42V128.267Z" fill="#222222"/>
<path d="M56.4591 128.267H52.6797V132.046H56.4591V128.267Z" fill="#222222"/>
<path d="M61.4981 128.267H57.7188V132.046H61.4981V128.267Z" fill="#222222"/>
<path d="M66.5372 128.267H62.7578V132.046H66.5372V128.267Z" fill="#222222"/>
<path d="M76.6153 128.267H72.8359V132.046H76.6153V128.267Z" fill="#222222"/>
<path d="M81.6544 128.267H77.875V132.046H81.6544V128.267Z" fill="#222222"/>
<path d="M86.6935 128.267H82.9141V132.046H86.6935V128.267Z" fill="#222222"/>
<path d="M101.813 128.267H98.0332V132.046H101.813V128.267Z" fill="#222222"/>
<path d="M111.891 128.267H108.111V132.046H111.891V128.267Z" fill="#222222"/>
<path d="M127.008 128.267H123.229V132.046H127.008V128.267Z" fill="#222222"/>
<path d="M132.047 128.267H128.268V132.046H132.047V128.267Z" fill="#222222"/>
<path d="M137.086 128.267H133.307V132.046H137.086V128.267Z" fill="#222222"/>
<path d="M142.125 128.267H138.346V132.046H142.125V128.267Z" fill="#222222"/>
<path d="M147.164 128.267H143.385V132.046H147.164V128.267Z" fill="#222222"/>
<path d="M152.203 128.267H148.424V132.046H152.203V128.267Z" fill="#222222"/>
<path d="M157.242 128.267H153.463V132.046H157.242V128.267Z" fill="#222222"/>
<path d="M162.283 128.267H158.504V132.046H162.283V128.267Z" fill="#222222"/>
<path d="M91.7345 133.306H87.9551V137.086H91.7345V133.306Z" fill="#222222"/>
<path d="M96.7735 133.306H92.9941V137.086H96.7735V133.306Z" fill="#222222"/>
<path d="M111.891 133.306H108.111V137.086H111.891V133.306Z" fill="#222222"/>
<path d="M116.93 133.306H113.15V137.086H116.93V133.306Z" fill="#222222"/>
<path d="M121.969 133.306H118.189V137.086H121.969V133.306Z" fill="#222222"/>
<path d="M127.008 133.306H123.229V137.086H127.008V133.306Z" fill="#222222"/>
<path d="M132.047 133.306H128.268V137.086H132.047V133.306Z" fill="#222222"/>
<path d="M152.203 133.306H148.424V137.086H152.203V133.306Z" fill="#222222"/>
<path d="M157.242 133.306H153.463V137.086H157.242V133.306Z" fill="#222222"/>
<path d="M162.283 133.306H158.504V137.086H162.283V133.306Z" fill="#222222"/>
<path d="M172.361 133.306H168.582V137.086H172.361V133.306Z" fill="#222222"/>
<path d="M91.7345 138.345H87.9551V142.125H91.7345V138.345Z" fill="#222222"/>
<path d="M101.813 138.345H98.0332V142.125H101.813V138.345Z" fill="#222222"/>
<path d="M106.852 138.345H103.072V142.125H106.852V138.345Z" fill="#222222"/>
<path d="M111.891 138.345H108.111V142.125H111.891V138.345Z" fill="#222222"/>
<path d="M127.008 138.345H123.229V142.125H127.008V138.345Z" fill="#222222"/>
<path d="M132.047 138.345H128.268V142.125H132.047V138.345Z" fill="#222222"/>
<path d="M142.125 138.345H138.346V142.125H142.125V138.345Z" fill="#222222"/>
<path d="M152.203 138.345H148.424V142.125H152.203V138.345Z" fill="#222222"/>
<path d="M167.322 138.345H163.543V142.125H167.322V138.345Z" fill="#222222"/>
<path d="M172.361 138.345H168.582V142.125H172.361V138.345Z" fill="#222222"/>
<path d="M91.7345 143.385H87.9551V147.164H91.7345V143.385Z" fill="#222222"/>
<path d="M106.852 143.385H103.072V147.164H106.852V143.385Z" fill="#222222"/>
<path d="M132.047 143.385H128.268V147.164H132.047V143.385Z" fill="#222222"/>
<path d="M152.203 143.385H148.424V147.164H152.203V143.385Z" fill="#222222"/>
<path d="M157.242 143.385H153.463V147.164H157.242V143.385Z" fill="#222222"/>
<path d="M162.283 143.385H158.504V147.164H162.283V143.385Z" fill="#222222"/>
<path d="M167.322 143.385H163.543V147.164H167.322V143.385Z" fill="#222222"/>
<path d="M111.891 148.424H108.111V152.203H111.891V148.424Z" fill="#222222"/>
<path d="M116.93 148.424H113.15V152.203H116.93V148.424Z" fill="#222222"/>
<path d="M121.969 148.424H118.189V152.203H121.969V148.424Z" fill="#222222"/>
<path d="M132.047 148.424H128.268V152.203H132.047V148.424Z" fill="#222222"/>
<path d="M137.086 148.424H133.307V152.203H137.086V148.424Z" fill="#222222"/>
<path d="M142.125 148.424H138.346V152.203H142.125V148.424Z" fill="#222222"/>
<path d="M147.164 148.424H143.385V152.203H147.164V148.424Z" fill="#222222"/>
<path d="M152.203 148.424H148.424V152.203H152.203V148.424Z" fill="#222222"/>
<path d="M172.361 148.424H168.582V152.203H172.361V148.424Z" fill="#222222"/>
<path d="M91.7345 153.463H87.9551V157.243H91.7345V153.463Z" fill="#222222"/>
<path d="M96.7735 153.463H92.9941V157.243H96.7735V153.463Z" fill="#222222"/>
<path d="M101.813 153.463H98.0332V157.243H101.813V153.463Z" fill="#222222"/>
<path d="M121.969 153.463H118.189V157.243H121.969V153.463Z" fill="#222222"/>
<path d="M132.047 153.463H128.268V157.243H132.047V153.463Z" fill="#222222"/>
<path d="M147.164 153.463H143.385V157.243H147.164V153.463Z" fill="#222222"/>
<path d="M152.203 153.463H148.424V157.243H152.203V153.463Z" fill="#222222"/>
<path d="M162.283 153.463H158.504V157.243H162.283V153.463Z" fill="#222222"/>
<path d="M111.891 158.502H108.111V162.282H111.891V158.502Z" fill="#222222"/>
<path d="M116.93 158.502H113.15V162.282H116.93V158.502Z" fill="#222222"/>
<path d="M121.969 158.502H118.189V162.282H121.969V158.502Z" fill="#222222"/>
<path d="M137.086 158.502H133.307V162.282H137.086V158.502Z" fill="#222222"/>
<path d="M152.203 158.502H148.424V162.282H152.203V158.502Z" fill="#222222"/>
<path d="M157.242 158.502H153.463V162.282H157.242V158.502Z" fill="#222222"/>
<path d="M162.283 158.502H158.504V162.282H162.283V158.502Z" fill="#222222"/>
<path d="M172.361 158.502H168.582V162.282H172.361V158.502Z" fill="#222222"/>
<path d="M91.7345 163.542H87.9551V167.321H91.7345V163.542Z" fill="#222222"/>
<path d="M96.7735 163.542H92.9941V167.321H96.7735V163.542Z" fill="#222222"/>
<path d="M106.852 163.542H103.072V167.321H106.852V163.542Z" fill="#222222"/>
<path d="M111.891 163.542H108.111V167.321H111.891V163.542Z" fill="#222222"/>
<path d="M121.969 163.542H118.189V167.321H121.969V163.542Z" fill="#222222"/>
<path d="M127.008 163.542H123.229V167.321H127.008V163.542Z" fill="#222222"/>
<path d="M132.047 163.542H128.268V167.321H132.047V163.542Z" fill="#222222"/>
<path d="M157.242 163.542H153.463V167.321H157.242V163.542Z" fill="#222222"/>
<path d="M96.7735 168.581H92.9941V172.36H96.7735V168.581Z" fill="#222222"/>
<path d="M101.813 168.581H98.0332V172.36H101.813V168.581Z" fill="#222222"/>
<path d="M111.891 168.581H108.111V172.36H111.891V168.581Z" fill="#222222"/>
<path d="M116.93 168.581H113.15V172.36H116.93V168.581Z" fill="#222222"/>
<path d="M121.969 168.581H118.189V172.36H121.969V168.581Z" fill="#222222"/>
<path d="M127.008 168.581H123.229V172.36H127.008V168.581Z" fill="#222222"/>
<path d="M132.047 168.581H128.268V172.36H132.047V168.581Z" fill="#222222"/>
<path d="M147.164 168.581H143.385V172.36H147.164V168.581Z" fill="#222222"/>
<path d="M167.322 168.581H163.543V172.36H167.322V168.581Z" fill="#222222"/>
<path d="M172.361 168.581H168.582V172.36H172.361V168.581Z" fill="#222222"/>
<path d="M79.7547 49.5195H49.5195V79.7547H79.7547V49.5195Z" stroke="#222222" stroke-width="5.0392"/>
<path d="M72.1957 57.0784H57.0781V72.196H72.1957V57.0784Z" fill="#222222"/>
<path d="M170.481 49.5195H140.246V79.7547H170.481V49.5195Z" stroke="#222222" stroke-width="5.0392"/>
<path d="M162.922 57.0784H147.805V72.196H162.922V57.0784Z" fill="#222222"/>
<path d="M79.7547 140.245H49.5195V170.48H79.7547V140.245Z" stroke="#222222" stroke-width="5.0392"/>
<path d="M72.1957 147.804H57.0781V162.922H72.1957V147.804Z" fill="#222222"/>
</g>
<defs>
<clipPath id="clip0_507_1059">
<rect width="220" height="220" fill="white"/>
</clipPath>
</defs>
</svg>
