<svg xmlns="http://www.w3.org/2000/svg" xmlns:xlink="http://www.w3.org/1999/xlink" version="1.1" x="0" y="0" viewBox="0 0 220.0 220.0" width="220.0" height="220.0">

<circle xmlns="http://www.w3.org/2000/svg" shape-rendering="geometricPrecision" stroke-width="0" cx="110" cy="110" r="110" stroke="#FFFFFF" fill="#FFFFFF"></circle>


<path d="M12.3373 59.2943C4.45473 74.4638 0 91.7013 0 109.98C0 127.971 4.31593 144.954 11.9685 159.949C20.645 160.8 29.3765 160.704 38 159.678V93.781C27.5745 83.8091 18.8915 72.1362 12.3373 59.2943Z" fill="#222222"></path>
<path d="M87.9082 36.9512H48C42.4772 36.9512 38 41.4301 38 46.9551V82.712C29.4058 73.3799 22.3112 62.7254 17.0155 51.1605C35.5675 21.871 67.5663 1.94853 104.328 0.0805046C96.9534 11.4244 91.4065 23.8801 87.9082 36.9512Z" fill="#222222"></path>
<path d="M183 51.1221V46.9551C183 41.4301 178.523 36.9512 173 36.9512H95.9548C99.7381 23.7299 105.763 11.2157 113.766 0C151.212 1.2602 183.913 21.244 202.812 50.8896C196.204 50.4564 189.579 50.5361 183 51.1221Z" fill="#222222"></path>
<path d="M183 128.362V58.9123C191.151 58.1393 199.382 58.1941 207.557 59.0913C215.505 74.3099 220 91.6197 220 109.98C220 128.951 215.201 146.8 206.752 162.38C200.727 149.829 192.694 138.33 183 128.362Z" fill="#222222"></path>
<path d="M129.487 182.008H173C178.523 182.008 183 177.529 183 172.004V139.893C190.77 149.061 197.157 159.37 201.907 170.467C182.621 199.734 149.742 219.244 112.262 220C120.029 208.362 125.852 195.515 129.487 182.008Z" fill="#222222"></path>
<path d="M38 167.487V172.004C38 177.529 42.4771 182.008 48 182.008H121.438C117.536 195.565 111.277 208.375 102.945 219.8C66.4663 217.49 34.8166 197.393 16.5652 168.082C23.7219 168.482 30.8936 168.28 38 167.487Z" fill="#222222"></path>
<g transform="translate(47.0, 47.0)">
<g shape-rendering="crispEdges" fill="#222222">
<rect x="40.3236" y="0.01" width="5.0392" height="5.0392" rx="0"></rect>
<rect x="45.3628" y="0.01" width="5.0392" height="5.0392" rx="0"></rect>
<rect x="50.402" y="0.01" width="5.0392" height="5.0392" rx="0"></rect>
<rect x="55.4412" y="0.01" width="5.0392" height="5.0392" rx="0"></rect>
<rect x="70.5588" y="0.01" width="5.0392" height="5.0392" rx="0"></rect>
<rect x="75.59800000000001" y="0.01" width="5.0392" height="5.0392" rx="0"></rect>
<rect x="50.402" y="5.0492" width="5.0392" height="5.0392" rx="0"></rect>
<rect x="60.480399999999996" y="5.0492" width="5.0392" height="5.0392" rx="0"></rect>
<rect x="65.51960000000001" y="5.0492" width="5.0392" height="5.0392" rx="0"></rect>
<rect x="75.59800000000001" y="5.0492" width="5.0392" height="5.0392" rx="0"></rect>
<rect x="80.6372" y="5.0492" width="5.0392" height="5.0392" rx="0"></rect>
<rect x="40.3236" y="10.0884" width="5.0392" height="5.0392" rx="0"></rect>
<rect x="60.480399999999996" y="10.0884" width="5.0392" height="5.0392" rx="0"></rect>
<rect x="70.5588" y="10.0884" width="5.0392" height="5.0392" rx="0"></rect>
<rect x="75.59800000000001" y="10.0884" width="5.0392" height="5.0392" rx="0"></rect>
<rect x="40.3236" y="15.1276" width="5.0392" height="5.0392" rx="0"></rect>
<rect x="45.3628" y="15.1276" width="5.0392" height="5.0392" rx="0"></rect>
<rect x="60.480399999999996" y="15.1276" width="5.0392" height="5.0392" rx="0"></rect>
<rect x="70.5588" y="15.1276" width="5.0392" height="5.0392" rx="0"></rect>
<rect x="45.3628" y="20.166800000000002" width="5.0392" height="5.0392" rx="0"></rect>
<rect x="50.402" y="20.166800000000002" width="5.0392" height="5.0392" rx="0"></rect>
<rect x="70.5588" y="20.166800000000002" width="5.0392" height="5.0392" rx="0"></rect>
<rect x="75.59800000000001" y="20.166800000000002" width="5.0392" height="5.0392" rx="0"></rect>
<rect x="40.3236" y="25.206000000000003" width="5.0392" height="5.0392" rx="0"></rect>
<rect x="55.4412" y="25.206000000000003" width="5.0392" height="5.0392" rx="0"></rect>
<rect x="60.480399999999996" y="25.206000000000003" width="5.0392" height="5.0392" rx="0"></rect>
<rect x="75.59800000000001" y="25.206000000000003" width="5.0392" height="5.0392" rx="0"></rect>
<rect x="80.6372" y="25.206000000000003" width="5.0392" height="5.0392" rx="0"></rect>
<rect x="40.3236" y="30.2452" width="5.0392" height="5.0392" rx="0"></rect>
<rect x="50.402" y="30.2452" width="5.0392" height="5.0392" rx="0"></rect>
<rect x="60.480399999999996" y="30.2452" width="5.0392" height="5.0392" rx="0"></rect>
<rect x="70.5588" y="30.2452" width="5.0392" height="5.0392" rx="0"></rect>
<rect x="80.6372" y="30.2452" width="5.0392" height="5.0392" rx="0"></rect>
<rect x="40.3236" y="35.2844" width="5.0392" height="5.0392" rx="0"></rect>
<rect x="55.4412" y="35.2844" width="5.0392" height="5.0392" rx="0"></rect>
<rect x="60.480399999999996" y="35.2844" width="5.0392" height="5.0392" rx="0"></rect>
<rect x="70.5588" y="35.2844" width="5.0392" height="5.0392" rx="0"></rect>
<rect x="75.59800000000001" y="35.2844" width="5.0392" height="5.0392" rx="0"></rect>
<rect x="5.0492" y="40.3236" width="5.0392" height="5.0392" rx="0"></rect>
<rect x="15.1276" y="40.3236" width="5.0392" height="5.0392" rx="0"></rect>
<rect x="25.206000000000003" y="40.3236" width="5.0392" height="5.0392" rx="0"></rect>
<rect x="30.2452" y="40.3236" width="5.0392" height="5.0392" rx="0"></rect>
<rect x="35.2844" y="40.3236" width="5.0392" height="5.0392" rx="0"></rect>
<rect x="40.3236" y="40.3236" width="5.0392" height="5.0392" rx="0"></rect>
<rect x="55.4412" y="40.3236" width="5.0392" height="5.0392" rx="0"></rect>
<rect x="65.51960000000001" y="40.3236" width="5.0392" height="5.0392" rx="0"></rect>
<rect x="70.5588" y="40.3236" width="5.0392" height="5.0392" rx="0"></rect>
<rect x="80.6372" y="40.3236" width="5.0392" height="5.0392" rx="0"></rect>
<rect x="85.6764" y="40.3236" width="5.0392" height="5.0392" rx="0"></rect>
<rect x="90.71560000000001" y="40.3236" width="5.0392" height="5.0392" rx="0"></rect>
<rect x="95.7548" y="40.3236" width="5.0392" height="5.0392" rx="0"></rect>
<rect x="105.8332" y="40.3236" width="5.0392" height="5.0392" rx="0"></rect>
<rect x="110.87240000000001" y="40.3236" width="5.0392" height="5.0392" rx="0"></rect>
<rect x="120.9508" y="40.3236" width="5.0392" height="5.0392" rx="0"></rect>
<rect x="10.0884" y="45.3628" width="5.0392" height="5.0392" rx="0"></rect>
<rect x="45.3628" y="45.3628" width="5.0392" height="5.0392" rx="0"></rect>
<rect x="50.402" y="45.3628" width="5.0392" height="5.0392" rx="0"></rect>
<rect x="55.4412" y="45.3628" width="5.0392" height="5.0392" rx="0"></rect>
<rect x="60.480399999999996" y="45.3628" width="5.0392" height="5.0392" rx="0"></rect>
<rect x="80.6372" y="45.3628" width="5.0392" height="5.0392" rx="0"></rect>
<rect x="90.71560000000001" y="45.3628" width="5.0392" height="5.0392" rx="0"></rect>
<rect x="120.9508" y="45.3628" width="5.0392" height="5.0392" rx="0"></rect>
<rect x="0.01" y="50.402" width="5.0392" height="5.0392" rx="0"></rect>
<rect x="5.0492" y="50.402" width="5.0392" height="5.0392" rx="0"></rect>
<rect x="10.0884" y="50.402" width="5.0392" height="5.0392" rx="0"></rect>
<rect x="15.1276" y="50.402" width="5.0392" height="5.0392" rx="0"></rect>
<rect x="30.2452" y="50.402" width="5.0392" height="5.0392" rx="0"></rect>
<rect x="35.2844" y="50.402" width="5.0392" height="5.0392" rx="0"></rect>
<rect x="55.4412" y="50.402" width="5.0392" height="5.0392" rx="0"></rect>
<rect x="65.51960000000001" y="50.402" width="5.0392" height="5.0392" rx="0"></rect>
<rect x="85.6764" y="50.402" width="5.0392" height="5.0392" rx="0"></rect>
<rect x="90.71560000000001" y="50.402" width="5.0392" height="5.0392" rx="0"></rect>
<rect x="115.9116" y="50.402" width="5.0392" height="5.0392" rx="0"></rect>
<rect x="120.9508" y="50.402" width="5.0392" height="5.0392" rx="0"></rect>
<rect x="20.166800000000002" y="55.4412" width="5.0392" height="5.0392" rx="0"></rect>
<rect x="25.206000000000003" y="55.4412" width="5.0392" height="5.0392" rx="0"></rect>
<rect x="35.2844" y="55.4412" width="5.0392" height="5.0392" rx="0"></rect>
<rect x="60.480399999999996" y="55.4412" width="5.0392" height="5.0392" rx="0"></rect>
<rect x="65.51960000000001" y="55.4412" width="5.0392" height="5.0392" rx="0"></rect>
<rect x="75.59800000000001" y="55.4412" width="5.0392" height="5.0392" rx="0"></rect>
<rect x="80.6372" y="55.4412" width="5.0392" height="5.0392" rx="0"></rect>
<rect x="90.71560000000001" y="55.4412" width="5.0392" height="5.0392" rx="0"></rect>
<rect x="0.01" y="60.480399999999996" width="5.0392" height="5.0392" rx="0"></rect>
<rect x="5.0492" y="60.480399999999996" width="5.0392" height="5.0392" rx="0"></rect>
<rect x="30.2452" y="60.480399999999996" width="5.0392" height="5.0392" rx="0"></rect>
<rect x="35.2844" y="60.480399999999996" width="5.0392" height="5.0392" rx="0"></rect>
<rect x="55.4412" y="60.480399999999996" width="5.0392" height="5.0392" rx="0"></rect>
<rect x="70.5588" y="60.480399999999996" width="5.0392" height="5.0392" rx="0"></rect>
<rect x="80.6372" y="60.480399999999996" width="5.0392" height="5.0392" rx="0"></rect>
<rect x="85.6764" y="60.480399999999996" width="5.0392" height="5.0392" rx="0"></rect>
<rect x="90.71560000000001" y="60.480399999999996" width="5.0392" height="5.0392" rx="0"></rect>
<rect x="105.8332" y="60.480399999999996" width="5.0392" height="5.0392" rx="0"></rect>
<rect x="115.9116" y="60.480399999999996" width="5.0392" height="5.0392" rx="0"></rect>
<rect x="120.9508" y="60.480399999999996" width="5.0392" height="5.0392" rx="0"></rect>
<rect x="10.0884" y="65.51960000000001" width="5.0392" height="5.0392" rx="0"></rect>
<rect x="20.166800000000002" y="65.51960000000001" width="5.0392" height="5.0392" rx="0"></rect>
<rect x="40.3236" y="65.51960000000001" width="5.0392" height="5.0392" rx="0"></rect>
<rect x="45.3628" y="65.51960000000001" width="5.0392" height="5.0392" rx="0"></rect>
<rect x="50.402" y="65.51960000000001" width="5.0392" height="5.0392" rx="0"></rect>
<rect x="55.4412" y="65.51960000000001" width="5.0392" height="5.0392" rx="0"></rect>
<rect x="60.480399999999996" y="65.51960000000001" width="5.0392" height="5.0392" rx="0"></rect>
<rect x="85.6764" y="65.51960000000001" width="5.0392" height="5.0392" rx="0"></rect>
<rect x="90.71560000000001" y="65.51960000000001" width="5.0392" height="5.0392" rx="0"></rect>
<rect x="95.7548" y="65.51960000000001" width="5.0392" height="5.0392" rx="0"></rect>
<rect x="105.8332" y="65.51960000000001" width="5.0392" height="5.0392" rx="0"></rect>
<rect x="110.87240000000001" y="65.51960000000001" width="5.0392" height="5.0392" rx="0"></rect>
<rect x="120.9508" y="65.51960000000001" width="5.0392" height="5.0392" rx="0"></rect>
<rect x="0.01" y="70.5588" width="5.0392" height="5.0392" rx="0"></rect>
<rect x="15.1276" y="70.5588" width="5.0392" height="5.0392" rx="0"></rect>
<rect x="25.206000000000003" y="70.5588" width="5.0392" height="5.0392" rx="0"></rect>
<rect x="30.2452" y="70.5588" width="5.0392" height="5.0392" rx="0"></rect>
<rect x="40.3236" y="70.5588" width="5.0392" height="5.0392" rx="0"></rect>
<rect x="45.3628" y="70.5588" width="5.0392" height="5.0392" rx="0"></rect>
<rect x="50.402" y="70.5588" width="5.0392" height="5.0392" rx="0"></rect>
<rect x="55.4412" y="70.5588" width="5.0392" height="5.0392" rx="0"></rect>
<rect x="65.51960000000001" y="70.5588" width="5.0392" height="5.0392" rx="0"></rect>
<rect x="70.5588" y="70.5588" width="5.0392" height="5.0392" rx="0"></rect>
<rect x="90.71560000000001" y="70.5588" width="5.0392" height="5.0392" rx="0"></rect>
<rect x="110.87240000000001" y="70.5588" width="5.0392" height="5.0392" rx="0"></rect>
<rect x="120.9508" y="70.5588" width="5.0392" height="5.0392" rx="0"></rect>
<rect x="5.0492" y="75.59800000000001" width="5.0392" height="5.0392" rx="0"></rect>
<rect x="10.0884" y="75.59800000000001" width="5.0392" height="5.0392" rx="0"></rect>
<rect x="15.1276" y="75.59800000000001" width="5.0392" height="5.0392" rx="0"></rect>
<rect x="20.166800000000002" y="75.59800000000001" width="5.0392" height="5.0392" rx="0"></rect>
<rect x="40.3236" y="75.59800000000001" width="5.0392" height="5.0392" rx="0"></rect>
<rect x="45.3628" y="75.59800000000001" width="5.0392" height="5.0392" rx="0"></rect>
<rect x="50.402" y="75.59800000000001" width="5.0392" height="5.0392" rx="0"></rect>
<rect x="60.480399999999996" y="75.59800000000001" width="5.0392" height="5.0392" rx="0"></rect>
<rect x="65.51960000000001" y="75.59800000000001" width="5.0392" height="5.0392" rx="0"></rect>
<rect x="70.5588" y="75.59800000000001" width="5.0392" height="5.0392" rx="0"></rect>
<rect x="80.6372" y="75.59800000000001" width="5.0392" height="5.0392" rx="0"></rect>
<rect x="95.7548" y="75.59800000000001" width="5.0392" height="5.0392" rx="0"></rect>
<rect x="100.79400000000001" y="75.59800000000001" width="5.0392" height="5.0392" rx="0"></rect>
<rect x="105.8332" y="75.59800000000001" width="5.0392" height="5.0392" rx="0"></rect>
<rect x="115.9116" y="75.59800000000001" width="5.0392" height="5.0392" rx="0"></rect>
<rect x="0.01" y="80.6372" width="5.0392" height="5.0392" rx="0"></rect>
<rect x="5.0492" y="80.6372" width="5.0392" height="5.0392" rx="0"></rect>
<rect x="10.0884" y="80.6372" width="5.0392" height="5.0392" rx="0"></rect>
<rect x="15.1276" y="80.6372" width="5.0392" height="5.0392" rx="0"></rect>
<rect x="25.206000000000003" y="80.6372" width="5.0392" height="5.0392" rx="0"></rect>
<rect x="30.2452" y="80.6372" width="5.0392" height="5.0392" rx="0"></rect>
<rect x="35.2844" y="80.6372" width="5.0392" height="5.0392" rx="0"></rect>
<rect x="50.402" y="80.6372" width="5.0392" height="5.0392" rx="0"></rect>
<rect x="60.480399999999996" y="80.6372" width="5.0392" height="5.0392" rx="0"></rect>
<rect x="75.59800000000001" y="80.6372" width="5.0392" height="5.0392" rx="0"></rect>
<rect x="80.6372" y="80.6372" width="5.0392" height="5.0392" rx="0"></rect>
<rect x="85.6764" y="80.6372" width="5.0392" height="5.0392" rx="0"></rect>
<rect x="90.71560000000001" y="80.6372" width="5.0392" height="5.0392" rx="0"></rect>
<rect x="95.7548" y="80.6372" width="5.0392" height="5.0392" rx="0"></rect>
<rect x="100.79400000000001" y="80.6372" width="5.0392" height="5.0392" rx="0"></rect>
<rect x="105.8332" y="80.6372" width="5.0392" height="5.0392" rx="0"></rect>
<rect x="110.87240000000001" y="80.6372" width="5.0392" height="5.0392" rx="0"></rect>
<rect x="40.3236" y="85.6764" width="5.0392" height="5.0392" rx="0"></rect>
<rect x="45.3628" y="85.6764" width="5.0392" height="5.0392" rx="0"></rect>
<rect x="60.480399999999996" y="85.6764" width="5.0392" height="5.0392" rx="0"></rect>
<rect x="65.51960000000001" y="85.6764" width="5.0392" height="5.0392" rx="0"></rect>
<rect x="70.5588" y="85.6764" width="5.0392" height="5.0392" rx="0"></rect>
<rect x="75.59800000000001" y="85.6764" width="5.0392" height="5.0392" rx="0"></rect>
<rect x="80.6372" y="85.6764" width="5.0392" height="5.0392" rx="0"></rect>
<rect x="100.79400000000001" y="85.6764" width="5.0392" height="5.0392" rx="0"></rect>
<rect x="105.8332" y="85.6764" width="5.0392" height="5.0392" rx="0"></rect>
<rect x="110.87240000000001" y="85.6764" width="5.0392" height="5.0392" rx="0"></rect>
<rect x="120.9508" y="85.6764" width="5.0392" height="5.0392" rx="0"></rect>
<rect x="40.3236" y="90.71560000000001" width="5.0392" height="5.0392" rx="0"></rect>
<rect x="50.402" y="90.71560000000001" width="5.0392" height="5.0392" rx="0"></rect>
<rect x="55.4412" y="90.71560000000001" width="5.0392" height="5.0392" rx="0"></rect>
<rect x="60.480399999999996" y="90.71560000000001" width="5.0392" height="5.0392" rx="0"></rect>
<rect x="75.59800000000001" y="90.71560000000001" width="5.0392" height="5.0392" rx="0"></rect>
<rect x="80.6372" y="90.71560000000001" width="5.0392" height="5.0392" rx="0"></rect>
<rect x="90.71560000000001" y="90.71560000000001" width="5.0392" height="5.0392" rx="0"></rect>
<rect x="100.79400000000001" y="90.71560000000001" width="5.0392" height="5.0392" rx="0"></rect>
<rect x="115.9116" y="90.71560000000001" width="5.0392" height="5.0392" rx="0"></rect>
<rect x="120.9508" y="90.71560000000001" width="5.0392" height="5.0392" rx="0"></rect>
<rect x="40.3236" y="95.7548" width="5.0392" height="5.0392" rx="0"></rect>
<rect x="55.4412" y="95.7548" width="5.0392" height="5.0392" rx="0"></rect>
<rect x="80.6372" y="95.7548" width="5.0392" height="5.0392" rx="0"></rect>
<rect x="100.79400000000001" y="95.7548" width="5.0392" height="5.0392" rx="0"></rect>
<rect x="105.8332" y="95.7548" width="5.0392" height="5.0392" rx="0"></rect>
<rect x="110.87240000000001" y="95.7548" width="5.0392" height="5.0392" rx="0"></rect>
<rect x="115.9116" y="95.7548" width="5.0392" height="5.0392" rx="0"></rect>
<rect x="60.480399999999996" y="100.79400000000001" width="5.0392" height="5.0392" rx="0"></rect>
<rect x="65.51960000000001" y="100.79400000000001" width="5.0392" height="5.0392" rx="0"></rect>
<rect x="70.5588" y="100.79400000000001" width="5.0392" height="5.0392" rx="0"></rect>
<rect x="80.6372" y="100.79400000000001" width="5.0392" height="5.0392" rx="0"></rect>
<rect x="85.6764" y="100.79400000000001" width="5.0392" height="5.0392" rx="0"></rect>
<rect x="90.71560000000001" y="100.79400000000001" width="5.0392" height="5.0392" rx="0"></rect>
<rect x="95.7548" y="100.79400000000001" width="5.0392" height="5.0392" rx="0"></rect>
<rect x="100.79400000000001" y="100.79400000000001" width="5.0392" height="5.0392" rx="0"></rect>
<rect x="120.9508" y="100.79400000000001" width="5.0392" height="5.0392" rx="0"></rect>
<rect x="40.3236" y="105.8332" width="5.0392" height="5.0392" rx="0"></rect>
<rect x="45.3628" y="105.8332" width="5.0392" height="5.0392" rx="0"></rect>
<rect x="50.402" y="105.8332" width="5.0392" height="5.0392" rx="0"></rect>
<rect x="70.5588" y="105.8332" width="5.0392" height="5.0392" rx="0"></rect>
<rect x="80.6372" y="105.8332" width="5.0392" height="5.0392" rx="0"></rect>
<rect x="95.7548" y="105.8332" width="5.0392" height="5.0392" rx="0"></rect>
<rect x="100.79400000000001" y="105.8332" width="5.0392" height="5.0392" rx="0"></rect>
<rect x="110.87240000000001" y="105.8332" width="5.0392" height="5.0392" rx="0"></rect>
<rect x="60.480399999999996" y="110.87240000000001" width="5.0392" height="5.0392" rx="0"></rect>
<rect x="65.51960000000001" y="110.87240000000001" width="5.0392" height="5.0392" rx="0"></rect>
<rect x="70.5588" y="110.87240000000001" width="5.0392" height="5.0392" rx="0"></rect>
<rect x="85.6764" y="110.87240000000001" width="5.0392" height="5.0392" rx="0"></rect>
<rect x="100.79400000000001" y="110.87240000000001" width="5.0392" height="5.0392" rx="0"></rect>
<rect x="105.8332" y="110.87240000000001" width="5.0392" height="5.0392" rx="0"></rect>
<rect x="110.87240000000001" y="110.87240000000001" width="5.0392" height="5.0392" rx="0"></rect>
<rect x="120.9508" y="110.87240000000001" width="5.0392" height="5.0392" rx="0"></rect>
<rect x="40.3236" y="115.9116" width="5.0392" height="5.0392" rx="0"></rect>
<rect x="45.3628" y="115.9116" width="5.0392" height="5.0392" rx="0"></rect>
<rect x="55.4412" y="115.9116" width="5.0392" height="5.0392" rx="0"></rect>
<rect x="60.480399999999996" y="115.9116" width="5.0392" height="5.0392" rx="0"></rect>
<rect x="70.5588" y="115.9116" width="5.0392" height="5.0392" rx="0"></rect>
<rect x="75.59800000000001" y="115.9116" width="5.0392" height="5.0392" rx="0"></rect>
<rect x="80.6372" y="115.9116" width="5.0392" height="5.0392" rx="0"></rect>
<rect x="105.8332" y="115.9116" width="5.0392" height="5.0392" rx="0"></rect>
<rect x="45.3628" y="120.9508" width="5.0392" height="5.0392" rx="0"></rect>
<rect x="50.402" y="120.9508" width="5.0392" height="5.0392" rx="0"></rect>
<rect x="60.480399999999996" y="120.9508" width="5.0392" height="5.0392" rx="0"></rect>
<rect x="65.51960000000001" y="120.9508" width="5.0392" height="5.0392" rx="0"></rect>
<rect x="70.5588" y="120.9508" width="5.0392" height="5.0392" rx="0"></rect>
<rect x="75.59800000000001" y="120.9508" width="5.0392" height="5.0392" rx="0"></rect>
<rect x="80.6372" y="120.9508" width="5.0392" height="5.0392" rx="0"></rect>
<rect x="95.7548" y="120.9508" width="5.0392" height="5.0392" rx="0"></rect>
<rect x="115.9116" y="120.9508" width="5.0392" height="5.0392" rx="0"></rect>
<rect x="120.9508" y="120.9508" width="5.0392" height="5.0392" rx="0"></rect>
</g>
<g>
<rect x="2.5196" y="2.5196" width="30.2352" fill="none" height="30.2352" stroke-width="5.0392" stroke="#222222"></rect>
<rect x="10.0784" y="10.0784" width="15.1176" fill="#222222" height="15.1176"></rect>
<rect x="93.2452" y="2.5196" width="30.2352" fill="none" height="30.2352" stroke-width="5.0392" stroke="#222222"></rect>
<rect x="100.804" y="10.0784" width="15.1176" fill="#222222" height="15.1176"></rect>
<rect x="2.5196" y="93.2452" width="30.2352" fill="none" height="30.2352" stroke-width="5.0392" stroke="#222222"></rect>
<rect x="10.0784" y="100.804" width="15.1176" fill="#222222" height="15.1176"></rect>
</g>
</g>
</svg>