<svg xmlns="http://www.w3.org/2000/svg" xmlns:xlink="http://www.w3.org/1999/xlink" version="1.1" x="0" y="0" viewBox="0 0 220.0 220.0" width="220.0" height="220.0">
<rect x="3" y="3" width="214" height="214" stroke="#222222" fill="#FFFFFF" stroke-width="6"></rect>
<g transform="translate(18.0, 18.0)">
<g fill="#222222">
<rect x="59.80349999999999" y="0.9299" width="5.519399999999999" height="5.519399999999999" rx="0"></rect>
<rect x="67.1627" y="0.9299" width="5.519399999999999" height="5.519399999999999" rx="0"></rect>
<rect x="74.5219" y="0.9299" width="5.519399999999999" height="5.519399999999999" rx="0"></rect>
<rect x="81.8811" y="0.9299" width="5.519399999999999" height="5.519399999999999" rx="0"></rect>
<rect x="103.9587" y="0.9299" width="5.519399999999999" height="5.519399999999999" rx="0"></rect>
<rect x="111.3179" y="0.9299" width="5.519399999999999" height="5.519399999999999" rx="0"></rect>
<rect x="74.5219" y="8.2891" width="5.519399999999999" height="5.519399999999999" rx="0"></rect>
<rect x="89.24029999999999" y="8.2891" width="5.519399999999999" height="5.519399999999999" rx="0"></rect>
<rect x="96.59949999999999" y="8.2891" width="5.519399999999999" height="5.519399999999999" rx="0"></rect>
<rect x="111.3179" y="8.2891" width="5.519399999999999" height="5.519399999999999" rx="0"></rect>
<rect x="118.6771" y="8.2891" width="5.519399999999999" height="5.519399999999999" rx="0"></rect>
<rect x="59.80349999999999" y="15.648299999999999" width="5.519399999999999" height="5.519399999999999" rx="0"></rect>
<rect x="89.24029999999999" y="15.648299999999999" width="5.519399999999999" height="5.519399999999999" rx="0"></rect>
<rect x="103.9587" y="15.648299999999999" width="5.519399999999999" height="5.519399999999999" rx="0"></rect>
<rect x="111.3179" y="15.648299999999999" width="5.519399999999999" height="5.519399999999999" rx="0"></rect>
<rect x="59.80349999999999" y="23.007499999999997" width="5.519399999999999" height="5.519399999999999" rx="0"></rect>
<rect x="67.1627" y="23.007499999999997" width="5.519399999999999" height="5.519399999999999" rx="0"></rect>
<rect x="89.24029999999999" y="23.007499999999997" width="5.519399999999999" height="5.519399999999999" rx="0"></rect>
<rect x="103.9587" y="23.007499999999997" width="5.519399999999999" height="5.519399999999999" rx="0"></rect>
<rect x="67.1627" y="30.366699999999998" width="5.519399999999999" height="5.519399999999999" rx="0"></rect>
<rect x="74.5219" y="30.366699999999998" width="5.519399999999999" height="5.519399999999999" rx="0"></rect>
<rect x="103.9587" y="30.366699999999998" width="5.519399999999999" height="5.519399999999999" rx="0"></rect>
<rect x="111.3179" y="30.366699999999998" width="5.519399999999999" height="5.519399999999999" rx="0"></rect>
<rect x="59.80349999999999" y="37.725899999999996" width="5.519399999999999" height="5.519399999999999" rx="0"></rect>
<rect x="81.8811" y="37.725899999999996" width="5.519399999999999" height="5.519399999999999" rx="0"></rect>
<rect x="89.24029999999999" y="37.725899999999996" width="5.519399999999999" height="5.519399999999999" rx="0"></rect>
<rect x="111.3179" y="37.725899999999996" width="5.519399999999999" height="5.519399999999999" rx="0"></rect>
<rect x="118.6771" y="37.725899999999996" width="5.519399999999999" height="5.519399999999999" rx="0"></rect>
<rect x="59.80349999999999" y="45.08509999999999" width="5.519399999999999" height="5.519399999999999" rx="0"></rect>
<rect x="74.5219" y="45.08509999999999" width="5.519399999999999" height="5.519399999999999" rx="0"></rect>
<rect x="89.24029999999999" y="45.08509999999999" width="5.519399999999999" height="5.519399999999999" rx="0"></rect>
<rect x="103.9587" y="45.08509999999999" width="5.519399999999999" height="5.519399999999999" rx="0"></rect>
<rect x="118.6771" y="45.08509999999999" width="5.519399999999999" height="5.519399999999999" rx="0"></rect>
<rect x="59.80349999999999" y="52.44429999999999" width="5.519399999999999" height="5.519399999999999" rx="0"></rect>
<rect x="81.8811" y="52.44429999999999" width="5.519399999999999" height="5.519399999999999" rx="0"></rect>
<rect x="89.24029999999999" y="52.44429999999999" width="5.519399999999999" height="5.519399999999999" rx="0"></rect>
<rect x="103.9587" y="52.44429999999999" width="5.519399999999999" height="5.519399999999999" rx="0"></rect>
<rect x="111.3179" y="52.44429999999999" width="5.519399999999999" height="5.519399999999999" rx="0"></rect>
<rect x="8.2891" y="59.80349999999999" width="5.519399999999999" height="5.519399999999999" rx="0"></rect>
<rect x="23.007499999999997" y="59.80349999999999" width="5.519399999999999" height="5.519399999999999" rx="0"></rect>
<rect x="37.725899999999996" y="59.80349999999999" width="5.519399999999999" height="5.519399999999999" rx="0"></rect>
<rect x="45.08509999999999" y="59.80349999999999" width="5.519399999999999" height="5.519399999999999" rx="0"></rect>
<rect x="52.44429999999999" y="59.80349999999999" width="5.519399999999999" height="5.519399999999999" rx="0"></rect>
<rect x="59.80349999999999" y="59.80349999999999" width="5.519399999999999" height="5.519399999999999" rx="0"></rect>
<rect x="81.8811" y="59.80349999999999" width="5.519399999999999" height="5.519399999999999" rx="0"></rect>
<rect x="96.59949999999999" y="59.80349999999999" width="5.519399999999999" height="5.519399999999999" rx="0"></rect>
<rect x="103.9587" y="59.80349999999999" width="5.519399999999999" height="5.519399999999999" rx="0"></rect>
<rect x="118.6771" y="59.80349999999999" width="5.519399999999999" height="5.519399999999999" rx="0"></rect>
<rect x="126.0363" y="59.80349999999999" width="5.519399999999999" height="5.519399999999999" rx="0"></rect>
<rect x="133.3955" y="59.80349999999999" width="5.519399999999999" height="5.519399999999999" rx="0"></rect>
<rect x="140.75469999999999" y="59.80349999999999" width="5.519399999999999" height="5.519399999999999" rx="0"></rect>
<rect x="155.4731" y="59.80349999999999" width="5.519399999999999" height="5.519399999999999" rx="0"></rect>
<rect x="162.8323" y="59.80349999999999" width="5.519399999999999" height="5.519399999999999" rx="0"></rect>
<rect x="177.55069999999998" y="59.80349999999999" width="5.519399999999999" height="5.519399999999999" rx="0"></rect>
<rect x="15.648299999999999" y="67.1627" width="5.519399999999999" height="5.519399999999999" rx="0"></rect>
<rect x="67.1627" y="67.1627" width="5.519399999999999" height="5.519399999999999" rx="0"></rect>
<rect x="74.5219" y="67.1627" width="5.519399999999999" height="5.519399999999999" rx="0"></rect>
<rect x="81.8811" y="67.1627" width="5.519399999999999" height="5.519399999999999" rx="0"></rect>
<rect x="89.24029999999999" y="67.1627" width="5.519399999999999" height="5.519399999999999" rx="0"></rect>
<rect x="118.6771" y="67.1627" width="5.519399999999999" height="5.519399999999999" rx="0"></rect>
<rect x="133.3955" y="67.1627" width="5.519399999999999" height="5.519399999999999" rx="0"></rect>
<rect x="177.55069999999998" y="67.1627" width="5.519399999999999" height="5.519399999999999" rx="0"></rect>
<rect x="0.9299" y="74.5219" width="5.519399999999999" height="5.519399999999999" rx="0"></rect>
<rect x="8.2891" y="74.5219" width="5.519399999999999" height="5.519399999999999" rx="0"></rect>
<rect x="15.648299999999999" y="74.5219" width="5.519399999999999" height="5.519399999999999" rx="0"></rect>
<rect x="23.007499999999997" y="74.5219" width="5.519399999999999" height="5.519399999999999" rx="0"></rect>
<rect x="45.08509999999999" y="74.5219" width="5.519399999999999" height="5.519399999999999" rx="0"></rect>
<rect x="52.44429999999999" y="74.5219" width="5.519399999999999" height="5.519399999999999" rx="0"></rect>
<rect x="81.8811" y="74.5219" width="5.519399999999999" height="5.519399999999999" rx="0"></rect>
<rect x="96.59949999999999" y="74.5219" width="5.519399999999999" height="5.519399999999999" rx="0"></rect>
<rect x="126.0363" y="74.5219" width="5.519399999999999" height="5.519399999999999" rx="0"></rect>
<rect x="133.3955" y="74.5219" width="5.519399999999999" height="5.519399999999999" rx="0"></rect>
<rect x="170.1915" y="74.5219" width="5.519399999999999" height="5.519399999999999" rx="0"></rect>
<rect x="177.55069999999998" y="74.5219" width="5.519399999999999" height="5.519399999999999" rx="0"></rect>
<rect x="30.366699999999998" y="81.8811" width="5.519399999999999" height="5.519399999999999" rx="0"></rect>
<rect x="37.725899999999996" y="81.8811" width="5.519399999999999" height="5.519399999999999" rx="0"></rect>
<rect x="52.44429999999999" y="81.8811" width="5.519399999999999" height="5.519399999999999" rx="0"></rect>
<rect x="89.24029999999999" y="81.8811" width="5.519399999999999" height="5.519399999999999" rx="0"></rect>
<rect x="96.59949999999999" y="81.8811" width="5.519399999999999" height="5.519399999999999" rx="0"></rect>
<rect x="111.3179" y="81.8811" width="5.519399999999999" height="5.519399999999999" rx="0"></rect>
<rect x="118.6771" y="81.8811" width="5.519399999999999" height="5.519399999999999" rx="0"></rect>
<rect x="133.3955" y="81.8811" width="5.519399999999999" height="5.519399999999999" rx="0"></rect>
<rect x="0.9299" y="89.24029999999999" width="5.519399999999999" height="5.519399999999999" rx="0"></rect>
<rect x="8.2891" y="89.24029999999999" width="5.519399999999999" height="5.519399999999999" rx="0"></rect>
<rect x="45.08509999999999" y="89.24029999999999" width="5.519399999999999" height="5.519399999999999" rx="0"></rect>
<rect x="52.44429999999999" y="89.24029999999999" width="5.519399999999999" height="5.519399999999999" rx="0"></rect>
<rect x="81.8811" y="89.24029999999999" width="5.519399999999999" height="5.519399999999999" rx="0"></rect>
<rect x="103.9587" y="89.24029999999999" width="5.519399999999999" height="5.519399999999999" rx="0"></rect>
<rect x="118.6771" y="89.24029999999999" width="5.519399999999999" height="5.519399999999999" rx="0"></rect>
<rect x="126.0363" y="89.24029999999999" width="5.519399999999999" height="5.519399999999999" rx="0"></rect>
<rect x="133.3955" y="89.24029999999999" width="5.519399999999999" height="5.519399999999999" rx="0"></rect>
<rect x="155.4731" y="89.24029999999999" width="5.519399999999999" height="5.519399999999999" rx="0"></rect>
<rect x="170.1915" y="89.24029999999999" width="5.519399999999999" height="5.519399999999999" rx="0"></rect>
<rect x="177.55069999999998" y="89.24029999999999" width="5.519399999999999" height="5.519399999999999" rx="0"></rect>
<rect x="15.648299999999999" y="96.59949999999999" width="5.519399999999999" height="5.519399999999999" rx="0"></rect>
<rect x="30.366699999999998" y="96.59949999999999" width="5.519399999999999" height="5.519399999999999" rx="0"></rect>
<rect x="59.80349999999999" y="96.59949999999999" width="5.519399999999999" height="5.519399999999999" rx="0"></rect>
<rect x="67.1627" y="96.59949999999999" width="5.519399999999999" height="5.519399999999999" rx="0"></rect>
<rect x="74.5219" y="96.59949999999999" width="5.519399999999999" height="5.519399999999999" rx="0"></rect>
<rect x="81.8811" y="96.59949999999999" width="5.519399999999999" height="5.519399999999999" rx="0"></rect>
<rect x="89.24029999999999" y="96.59949999999999" width="5.519399999999999" height="5.519399999999999" rx="0"></rect>
<rect x="126.0363" y="96.59949999999999" width="5.519399999999999" height="5.519399999999999" rx="0"></rect>
<rect x="133.3955" y="96.59949999999999" width="5.519399999999999" height="5.519399999999999" rx="0"></rect>
<rect x="140.75469999999999" y="96.59949999999999" width="5.519399999999999" height="5.519399999999999" rx="0"></rect>
<rect x="155.4731" y="96.59949999999999" width="5.519399999999999" height="5.519399999999999" rx="0"></rect>
<rect x="162.8323" y="96.59949999999999" width="5.519399999999999" height="5.519399999999999" rx="0"></rect>
<rect x="177.55069999999998" y="96.59949999999999" width="5.519399999999999" height="5.519399999999999" rx="0"></rect>
<rect x="0.9299" y="103.9587" width="5.519399999999999" height="5.519399999999999" rx="0"></rect>
<rect x="23.007499999999997" y="103.9587" width="5.519399999999999" height="5.519399999999999" rx="0"></rect>
<rect x="37.725899999999996" y="103.9587" width="5.519399999999999" height="5.519399999999999" rx="0"></rect>
<rect x="45.08509999999999" y="103.9587" width="5.519399999999999" height="5.519399999999999" rx="0"></rect>
<rect x="59.80349999999999" y="103.9587" width="5.519399999999999" height="5.519399999999999" rx="0"></rect>
<rect x="67.1627" y="103.9587" width="5.519399999999999" height="5.519399999999999" rx="0"></rect>
<rect x="74.5219" y="103.9587" width="5.519399999999999" height="5.519399999999999" rx="0"></rect>
<rect x="81.8811" y="103.9587" width="5.519399999999999" height="5.519399999999999" rx="0"></rect>
<rect x="96.59949999999999" y="103.9587" width="5.519399999999999" height="5.519399999999999" rx="0"></rect>
<rect x="103.9587" y="103.9587" width="5.519399999999999" height="5.519399999999999" rx="0"></rect>
<rect x="133.3955" y="103.9587" width="5.519399999999999" height="5.519399999999999" rx="0"></rect>
<rect x="162.8323" y="103.9587" width="5.519399999999999" height="5.519399999999999" rx="0"></rect>
<rect x="177.55069999999998" y="103.9587" width="5.519399999999999" height="5.519399999999999" rx="0"></rect>
<rect x="8.2891" y="111.3179" width="5.519399999999999" height="5.519399999999999" rx="0"></rect>
<rect x="15.648299999999999" y="111.3179" width="5.519399999999999" height="5.519399999999999" rx="0"></rect>
<rect x="23.007499999999997" y="111.3179" width="5.519399999999999" height="5.519399999999999" rx="0"></rect>
<rect x="30.366699999999998" y="111.3179" width="5.519399999999999" height="5.519399999999999" rx="0"></rect>
<rect x="59.80349999999999" y="111.3179" width="5.519399999999999" height="5.519399999999999" rx="0"></rect>
<rect x="67.1627" y="111.3179" width="5.519399999999999" height="5.519399999999999" rx="0"></rect>
<rect x="74.5219" y="111.3179" width="5.519399999999999" height="5.519399999999999" rx="0"></rect>
<rect x="89.24029999999999" y="111.3179" width="5.519399999999999" height="5.519399999999999" rx="0"></rect>
<rect x="96.59949999999999" y="111.3179" width="5.519399999999999" height="5.519399999999999" rx="0"></rect>
<rect x="103.9587" y="111.3179" width="5.519399999999999" height="5.519399999999999" rx="0"></rect>
<rect x="118.6771" y="111.3179" width="5.519399999999999" height="5.519399999999999" rx="0"></rect>
<rect x="140.75469999999999" y="111.3179" width="5.519399999999999" height="5.519399999999999" rx="0"></rect>
<rect x="148.1139" y="111.3179" width="5.519399999999999" height="5.519399999999999" rx="0"></rect>
<rect x="155.4731" y="111.3179" width="5.519399999999999" height="5.519399999999999" rx="0"></rect>
<rect x="170.1915" y="111.3179" width="5.519399999999999" height="5.519399999999999" rx="0"></rect>
<rect x="0.9299" y="118.6771" width="5.519399999999999" height="5.519399999999999" rx="0"></rect>
<rect x="8.2891" y="118.6771" width="5.519399999999999" height="5.519399999999999" rx="0"></rect>
<rect x="15.648299999999999" y="118.6771" width="5.519399999999999" height="5.519399999999999" rx="0"></rect>
<rect x="23.007499999999997" y="118.6771" width="5.519399999999999" height="5.519399999999999" rx="0"></rect>
<rect x="37.725899999999996" y="118.6771" width="5.519399999999999" height="5.519399999999999" rx="0"></rect>
<rect x="45.08509999999999" y="118.6771" width="5.519399999999999" height="5.519399999999999" rx="0"></rect>
<rect x="52.44429999999999" y="118.6771" width="5.519399999999999" height="5.519399999999999" rx="0"></rect>
<rect x="74.5219" y="118.6771" width="5.519399999999999" height="5.519399999999999" rx="0"></rect>
<rect x="89.24029999999999" y="118.6771" width="5.519399999999999" height="5.519399999999999" rx="0"></rect>
<rect x="111.3179" y="118.6771" width="5.519399999999999" height="5.519399999999999" rx="0"></rect>
<rect x="118.6771" y="118.6771" width="5.519399999999999" height="5.519399999999999" rx="0"></rect>
<rect x="126.0363" y="118.6771" width="5.519399999999999" height="5.519399999999999" rx="0"></rect>
<rect x="133.3955" y="118.6771" width="5.519399999999999" height="5.519399999999999" rx="0"></rect>
<rect x="140.75469999999999" y="118.6771" width="5.519399999999999" height="5.519399999999999" rx="0"></rect>
<rect x="148.1139" y="118.6771" width="5.519399999999999" height="5.519399999999999" rx="0"></rect>
<rect x="155.4731" y="118.6771" width="5.519399999999999" height="5.519399999999999" rx="0"></rect>
<rect x="162.8323" y="118.6771" width="5.519399999999999" height="5.519399999999999" rx="0"></rect>
<rect x="59.80349999999999" y="126.0363" width="5.519399999999999" height="5.519399999999999" rx="0"></rect>
<rect x="67.1627" y="126.0363" width="5.519399999999999" height="5.519399999999999" rx="0"></rect>
<rect x="89.24029999999999" y="126.0363" width="5.519399999999999" height="5.519399999999999" rx="0"></rect>
<rect x="96.59949999999999" y="126.0363" width="5.519399999999999" height="5.519399999999999" rx="0"></rect>
<rect x="103.9587" y="126.0363" width="5.519399999999999" height="5.519399999999999" rx="0"></rect>
<rect x="111.3179" y="126.0363" width="5.519399999999999" height="5.519399999999999" rx="0"></rect>
<rect x="118.6771" y="126.0363" width="5.519399999999999" height="5.519399999999999" rx="0"></rect>
<rect x="148.1139" y="126.0363" width="5.519399999999999" height="5.519399999999999" rx="0"></rect>
<rect x="155.4731" y="126.0363" width="5.519399999999999" height="5.519399999999999" rx="0"></rect>
<rect x="162.8323" y="126.0363" width="5.519399999999999" height="5.519399999999999" rx="0"></rect>
<rect x="177.55069999999998" y="126.0363" width="5.519399999999999" height="5.519399999999999" rx="0"></rect>
<rect x="59.80349999999999" y="133.3955" width="5.519399999999999" height="5.519399999999999" rx="0"></rect>
<rect x="74.5219" y="133.3955" width="5.519399999999999" height="5.519399999999999" rx="0"></rect>
<rect x="81.8811" y="133.3955" width="5.519399999999999" height="5.519399999999999" rx="0"></rect>
<rect x="89.24029999999999" y="133.3955" width="5.519399999999999" height="5.519399999999999" rx="0"></rect>
<rect x="111.3179" y="133.3955" width="5.519399999999999" height="5.519399999999999" rx="0"></rect>
<rect x="118.6771" y="133.3955" width="5.519399999999999" height="5.519399999999999" rx="0"></rect>
<rect x="133.3955" y="133.3955" width="5.519399999999999" height="5.519399999999999" rx="0"></rect>
<rect x="148.1139" y="133.3955" width="5.519399999999999" height="5.519399999999999" rx="0"></rect>
<rect x="170.1915" y="133.3955" width="5.519399999999999" height="5.519399999999999" rx="0"></rect>
<rect x="177.55069999999998" y="133.3955" width="5.519399999999999" height="5.519399999999999" rx="0"></rect>
<rect x="59.80349999999999" y="140.75469999999999" width="5.519399999999999" height="5.519399999999999" rx="0"></rect>
<rect x="81.8811" y="140.75469999999999" width="5.519399999999999" height="5.519399999999999" rx="0"></rect>
<rect x="118.6771" y="140.75469999999999" width="5.519399999999999" height="5.519399999999999" rx="0"></rect>
<rect x="148.1139" y="140.75469999999999" width="5.519399999999999" height="5.519399999999999" rx="0"></rect>
<rect x="155.4731" y="140.75469999999999" width="5.519399999999999" height="5.519399999999999" rx="0"></rect>
<rect x="162.8323" y="140.75469999999999" width="5.519399999999999" height="5.519399999999999" rx="0"></rect>
<rect x="170.1915" y="140.75469999999999" width="5.519399999999999" height="5.519399999999999" rx="0"></rect>
<rect x="89.24029999999999" y="148.1139" width="5.519399999999999" height="5.519399999999999" rx="0"></rect>
<rect x="96.59949999999999" y="148.1139" width="5.519399999999999" height="5.519399999999999" rx="0"></rect>
<rect x="103.9587" y="148.1139" width="5.519399999999999" height="5.519399999999999" rx="0"></rect>
<rect x="118.6771" y="148.1139" width="5.519399999999999" height="5.519399999999999" rx="0"></rect>
<rect x="126.0363" y="148.1139" width="5.519399999999999" height="5.519399999999999" rx="0"></rect>
<rect x="133.3955" y="148.1139" width="5.519399999999999" height="5.519399999999999" rx="0"></rect>
<rect x="140.75469999999999" y="148.1139" width="5.519399999999999" height="5.519399999999999" rx="0"></rect>
<rect x="148.1139" y="148.1139" width="5.519399999999999" height="5.519399999999999" rx="0"></rect>
<rect x="177.55069999999998" y="148.1139" width="5.519399999999999" height="5.519399999999999" rx="0"></rect>
<rect x="59.80349999999999" y="155.4731" width="5.519399999999999" height="5.519399999999999" rx="0"></rect>
<rect x="67.1627" y="155.4731" width="5.519399999999999" height="5.519399999999999" rx="0"></rect>
<rect x="74.5219" y="155.4731" width="5.519399999999999" height="5.519399999999999" rx="0"></rect>
<rect x="103.9587" y="155.4731" width="5.519399999999999" height="5.519399999999999" rx="0"></rect>
<rect x="118.6771" y="155.4731" width="5.519399999999999" height="5.519399999999999" rx="0"></rect>
<rect x="140.75469999999999" y="155.4731" width="5.519399999999999" height="5.519399999999999" rx="0"></rect>
<rect x="148.1139" y="155.4731" width="5.519399999999999" height="5.519399999999999" rx="0"></rect>
<rect x="162.8323" y="155.4731" width="5.519399999999999" height="5.519399999999999" rx="0"></rect>
<rect x="89.24029999999999" y="162.8323" width="5.519399999999999" height="5.519399999999999" rx="0"></rect>
<rect x="96.59949999999999" y="162.8323" width="5.519399999999999" height="5.519399999999999" rx="0"></rect>
<rect x="103.9587" y="162.8323" width="5.519399999999999" height="5.519399999999999" rx="0"></rect>
<rect x="126.0363" y="162.8323" width="5.519399999999999" height="5.519399999999999" rx="0"></rect>
<rect x="148.1139" y="162.8323" width="5.519399999999999" height="5.519399999999999" rx="0"></rect>
<rect x="155.4731" y="162.8323" width="5.519399999999999" height="5.519399999999999" rx="0"></rect>
<rect x="162.8323" y="162.8323" width="5.519399999999999" height="5.519399999999999" rx="0"></rect>
<rect x="177.55069999999998" y="162.8323" width="5.519399999999999" height="5.519399999999999" rx="0"></rect>
<rect x="59.80349999999999" y="170.1915" width="5.519399999999999" height="5.519399999999999" rx="0"></rect>
<rect x="67.1627" y="170.1915" width="5.519399999999999" height="5.519399999999999" rx="0"></rect>
<rect x="81.8811" y="170.1915" width="5.519399999999999" height="5.519399999999999" rx="0"></rect>
<rect x="89.24029999999999" y="170.1915" width="5.519399999999999" height="5.519399999999999" rx="0"></rect>
<rect x="103.9587" y="170.1915" width="5.519399999999999" height="5.519399999999999" rx="0"></rect>
<rect x="111.3179" y="170.1915" width="5.519399999999999" height="5.519399999999999" rx="0"></rect>
<rect x="118.6771" y="170.1915" width="5.519399999999999" height="5.519399999999999" rx="0"></rect>
<rect x="155.4731" y="170.1915" width="5.519399999999999" height="5.519399999999999" rx="0"></rect>
<rect x="67.1627" y="177.55069999999998" width="5.519399999999999" height="5.519399999999999" rx="0"></rect>
<rect x="74.5219" y="177.55069999999998" width="5.519399999999999" height="5.519399999999999" rx="0"></rect>
<rect x="89.24029999999999" y="177.55069999999998" width="5.519399999999999" height="5.519399999999999" rx="0"></rect>
<rect x="96.59949999999999" y="177.55069999999998" width="5.519399999999999" height="5.519399999999999" rx="0"></rect>
<rect x="103.9587" y="177.55069999999998" width="5.519399999999999" height="5.519399999999999" rx="0"></rect>
<rect x="111.3179" y="177.55069999999998" width="5.519399999999999" height="5.519399999999999" rx="0"></rect>
<rect x="118.6771" y="177.55069999999998" width="5.519399999999999" height="5.519399999999999" rx="0"></rect>
<rect x="140.75469999999999" y="177.55069999999998" width="5.519399999999999" height="5.519399999999999" rx="0"></rect>
<rect x="170.1915" y="177.55069999999998" width="5.519399999999999" height="5.519399999999999" rx="0"></rect>
<rect x="177.55069999999998" y="177.55069999999998" width="5.519399999999999" height="5.519399999999999" rx="0"></rect>
</g>
<g>
<rect x="3.6795999999999998" y="3.6795999999999998" width="44.155199999999994" fill="none" height="44.155199999999994" stroke-width="7.3591999999999995" stroke="#222222"></rect>
<rect x="14.718399999999999" y="14.718399999999999" width="22.077599999999997" fill="#222222" height="22.077599999999997"></rect>
<rect x="136.1652" y="3.6795999999999998" width="44.155199999999994" fill="none" height="44.155199999999994" stroke-width="7.3591999999999995" stroke="#222222"></rect>
<rect x="147.204" y="14.718399999999999" width="22.077599999999997" fill="#222222" height="22.077599999999997"></rect>
<rect x="3.6795999999999998" y="136.1652" width="44.155199999999994" fill="none" height="44.155199999999994" stroke-width="7.3591999999999995" stroke="#222222"></rect>
<rect x="14.718399999999999" y="147.204" width="22.077599999999997" fill="#222222" height="22.077599999999997"></rect>
</g>
</g>
</svg>