<svg xmlns="http://www.w3.org/2000/svg" xmlns:xlink="http://www.w3.org/1999/xlink" version="1.1" x="0" y="0" viewBox="0 0 220.0 220.0" width="220.0" height="220.0">

<circle xmlns="http://www.w3.org/2000/svg" cx="110.0" cy="110.0" r="107.25" stroke-width="4.0" stroke="#222222" fill="#FFFFFF"></circle>


<g shape-rendering="auto" transform="translate(5.5, 5.5) scale(0.95)">
<path d="M152.203 3.98484C151.134 3.73691 150.066 3.5046 148.998 3.28775C147.551 2.99406 146.141 3.9348 145.849 5.38894C145.556 6.84308 146.492 8.25999 147.939 8.55368C148.959 8.76074 149.98 8.9826 151 9.2194C152.021 9.45619 153.035 9.70636 154.042 9.96969C155.471 10.3432 156.93 9.48206 157.302 8.04634C157.673 6.61062 156.816 5.14397 155.388 4.77048C154.333 4.49471 153.271 4.23275 152.203 3.98484Z" fill="#222222"></path>
<path d="M102.557 8.85038C104 8.53762 104.917 7.10848 104.606 5.65832C104.295 4.20816 102.873 3.28612 101.43 3.59888C99.3878 4.04147 97.3585 4.53871 95.344 5.0899C95.2303 5.10603 95.1164 5.12971 95.0028 5.16125C92.8963 5.74608 90.8097 6.38954 88.7454 7.09019C88.6531 7.12153 88.5635 7.15745 88.477 7.1976C87.1241 7.65877 85.7794 8.14483 84.4437 8.65556C83.064 9.18307 82.3711 10.7347 82.896 12.1213C83.4208 13.5078 84.9648 14.2042 86.3444 13.6767C91.6191 11.6599 97.0399 10.0462 102.557 8.85038Z" fill="#222222"></path>
<path d="M124.563 6.31031C126.039 6.29066 127.22 5.07222 127.2 3.58885C127.18 2.10547 125.968 0.918886 124.492 0.938534C124.093 0.943851 123.694 0.951226 123.295 0.96066C121.819 0.995552 120.651 2.22612 120.686 3.70922C120.72 5.19231 121.945 6.36631 123.42 6.33142C123.801 6.32242 124.182 6.31538 124.563 6.31031Z" fill="#222222"></path>
<path d="M176.123 18.4087C175.054 18.1607 173.986 17.9284 172.917 17.7116C171.471 17.4179 170.061 18.3586 169.768 19.8128C169.476 21.2669 170.412 22.6838 171.859 22.9775C172.879 23.1846 173.9 23.4064 174.92 23.6432C175.941 23.88 176.955 24.1302 177.962 24.3935C179.391 24.767 180.85 23.9059 181.222 22.4702C181.593 21.0344 180.736 19.5678 179.308 19.1943C178.253 18.9185 177.191 18.6566 176.123 18.4087Z" fill="#222222"></path>
<path d="M126.476 23.2742C127.919 22.9614 128.837 21.5323 128.526 20.0821C128.214 18.632 126.792 17.7099 125.35 18.0227C123.308 18.4653 121.278 18.9625 119.264 19.5137C119.15 19.5299 119.036 19.5535 118.923 19.5851C116.816 20.1699 114.73 20.8134 112.665 21.514C112.573 21.5454 112.483 21.5813 112.397 21.6214C111.044 22.0826 109.699 22.5687 108.364 23.0794C106.984 23.6069 106.291 25.1585 106.816 26.5451C107.341 27.9317 108.885 28.628 110.264 28.1005C115.539 26.0838 120.96 24.47 126.476 23.2742Z" fill="#222222"></path>
<path d="M148.483 20.7341C149.959 20.7145 151.139 19.4961 151.12 18.0127C151.1 16.5293 149.888 15.3427 148.412 15.3624C148.013 15.3677 147.614 15.3751 147.215 15.3845C145.739 15.4194 144.571 16.65 144.605 18.133C144.64 19.6161 145.865 20.7901 147.34 20.7553C147.721 20.7463 148.102 20.7392 148.483 20.7341Z" fill="#222222"></path>
<path d="M0.577622 85.9583C0.53935 87.0597 0.516331 88.1582 0.508374 89.2535C0.497597 90.737 1.68545 91.9483 3.16152 91.9592C4.6376 91.97 5.84293 90.7762 5.8537 89.2927C5.8613 88.2468 5.88329 87.1978 5.91984 86.1457C5.95639 85.0937 6.00728 84.0457 6.07229 83.0018C6.16451 81.5212 5.04497 80.2458 3.57175 80.1531C2.09852 80.0605 0.829473 81.1856 0.737258 82.6662C0.669171 83.7594 0.615893 84.8568 0.577622 85.9583Z" fill="#222222"></path>
<path d="M14.8029 134.008C14.2221 132.644 12.6512 132.012 11.2941 132.596C9.9371 133.179 9.30784 134.758 9.88865 136.122C10.7105 138.052 11.5834 139.959 12.5062 141.841C12.5436 141.95 12.5885 142.058 12.641 142.164C13.6141 144.131 14.6408 146.067 15.719 147.969C15.7672 148.055 15.8194 148.136 15.8751 148.214C16.5837 149.46 17.315 150.694 18.0688 151.915C18.8472 153.175 20.495 153.563 21.7492 152.78C23.0033 151.998 23.3889 150.342 22.6104 149.081C19.6341 144.262 17.0235 139.222 14.8029 134.008Z" fill="#222222"></path>
<path d="M8.12295 112.783C7.82213 111.33 6.40675 110.398 4.96162 110.7C3.51649 111.003 2.58884 112.425 2.88966 113.877C2.97104 114.27 3.05441 114.663 3.13976 115.055C3.45541 116.504 4.88025 117.421 6.32222 117.104C7.76418 116.787 8.67723 115.355 8.36158 113.906C8.28014 113.532 8.2006 113.157 8.12295 112.783Z" fill="#222222"></path>
<path d="M14.8825 54.2669C14.7299 55.3583 14.5927 56.4483 14.4709 57.5368C14.3059 59.011 15.3612 60.3405 16.8281 60.5064C18.295 60.6722 19.6179 59.6116 19.7829 58.1374C19.8992 57.098 20.0302 56.057 20.176 55.0146C20.3217 53.9722 20.4813 52.9352 20.6546 51.9039C20.9003 50.4411 19.9195 49.055 18.464 48.8081C17.0085 48.5612 15.6294 49.5468 15.3837 51.0096C15.2022 52.0897 15.0351 53.1755 14.8825 54.2669Z" fill="#222222"></path>
<path d="M24.0323 103.548C23.5966 102.131 22.1 101.337 20.6897 101.775C19.2794 102.213 18.4893 103.717 18.9251 105.134C19.5418 107.14 20.2115 109.128 20.9335 111.097C20.9594 111.209 20.9927 111.321 21.0339 111.432C21.7972 113.49 22.6169 115.523 23.4913 117.529C23.5304 117.619 23.5738 117.705 23.6212 117.788C24.1962 119.103 24.7952 120.407 25.4179 121.699C26.061 123.035 27.6594 123.593 28.9881 122.947C30.3167 122.3 30.8724 120.694 30.2293 119.359C27.7705 114.254 25.6984 108.967 24.0323 103.548Z" fill="#222222"></path>
<path d="M19.5966 81.7369C19.4484 80.2609 18.1378 79.1851 16.6691 79.3339C15.2005 79.4828 14.13 80.8 14.2781 82.276C14.3181 82.6753 14.3602 83.0743 14.4044 83.473C14.5676 84.9474 15.8892 86.0097 17.3562 85.8456C18.8233 85.6816 19.8803 84.3534 19.7171 82.879C19.675 82.4986 19.6348 82.1179 19.5966 81.7369Z" fill="#222222"></path>
<path d="M220.504 131.78C220.513 130.678 220.508 129.579 220.487 128.484C220.459 127 219.24 125.821 217.764 125.849C216.289 125.877 215.115 127.102 215.143 128.585C215.162 129.631 215.168 130.68 215.158 131.733C215.149 132.785 215.126 133.834 215.088 134.88C215.034 136.362 216.187 137.608 217.662 137.661C219.137 137.715 220.376 136.557 220.43 135.075C220.47 133.98 220.494 132.882 220.504 131.78Z" fill="#222222"></path>
<path d="M205.032 84.1204C205.648 85.4685 207.235 86.0593 208.576 85.4401C209.918 84.8209 210.505 83.2261 209.889 81.878C209.017 79.9703 208.095 78.0868 207.124 76.2296C207.083 76.1215 207.036 76.0148 206.981 75.9102C205.957 73.9699 204.88 72.0618 203.752 70.188C203.702 70.1042 203.648 70.0242 203.59 69.948C202.849 68.7203 202.086 67.5061 201.301 66.306C200.49 65.0665 198.832 64.7225 197.599 65.5376C196.366 66.3527 196.023 68.0183 196.834 69.2578C199.935 73.9967 202.676 78.9663 205.032 84.1204Z" fill="#222222"></path>
<path d="M212.262 105.163C212.601 106.607 214.04 107.502 215.477 107.161C216.914 106.821 217.804 105.375 217.465 103.931C217.374 103.54 217.28 103.15 217.185 102.761C216.831 101.32 215.383 100.44 213.95 100.795C212.517 101.151 211.641 102.606 211.995 104.046C212.086 104.418 212.175 104.79 212.262 105.163Z" fill="#222222"></path>
<path d="M211.414 156.781C211.424 155.679 211.418 154.58 211.398 153.485C211.37 152.002 210.151 150.822 208.675 150.85C207.199 150.878 206.025 152.103 206.053 153.586C206.073 154.632 206.078 155.681 206.069 156.734C206.06 157.787 206.036 158.836 205.998 159.881C205.945 161.363 207.097 162.609 208.572 162.663C210.047 162.717 211.287 161.559 211.34 160.076C211.38 158.981 211.405 157.883 211.414 156.781Z" fill="#222222"></path>
<path d="M195.942 109.122C196.558 110.47 198.145 111.061 199.487 110.441C200.828 109.822 201.416 108.227 200.8 106.879C199.928 104.972 199.006 103.088 198.034 101.231C197.994 101.123 197.946 101.016 197.891 100.911C196.867 98.9712 195.79 97.0631 194.663 95.1893C194.612 95.1055 194.558 95.0255 194.5 94.9493C193.76 93.7216 192.996 92.5074 192.211 91.3073C191.4 90.0678 189.743 89.7238 188.509 90.5389C187.276 91.354 186.934 93.0196 187.745 94.2591C190.846 98.998 193.587 103.968 195.942 109.122Z" fill="#222222"></path>
<path d="M203.173 130.164C203.511 131.608 204.95 132.503 206.387 132.163C207.824 131.822 208.714 130.376 208.376 128.932C208.284 128.541 208.191 128.151 208.095 127.762C207.742 126.322 206.294 125.442 204.86 125.797C203.427 126.152 202.552 127.607 202.905 129.048C202.996 129.419 203.085 129.792 203.173 130.164Z" fill="#222222"></path>
<path d="M88.0452 220.869C89.1411 220.907 90.2341 220.93 91.324 220.938C92.8001 220.949 94.0054 219.755 94.0162 218.272C94.0269 216.788 92.8391 215.577 91.363 215.566C90.3223 215.558 89.2785 215.536 88.2317 215.5C87.1849 215.463 86.1421 215.412 85.1034 215.346C83.6302 215.254 82.3612 216.379 82.269 217.86C82.1767 219.34 83.2963 220.616 84.7695 220.708C85.8573 220.777 86.9492 220.83 88.0452 220.869Z" fill="#222222"></path>
<path d="M135.856 206.572C134.499 207.156 133.869 208.735 134.45 210.098C135.031 211.462 136.602 212.095 137.959 211.511C139.879 210.685 141.777 209.808 143.65 208.88C143.758 208.843 143.865 208.798 143.971 208.745C145.928 207.767 147.854 206.735 149.747 205.651C149.832 205.603 149.913 205.551 149.99 205.495C151.231 204.782 152.458 204.047 153.673 203.29C154.927 202.508 155.312 200.851 154.534 199.591C153.756 198.331 152.108 197.943 150.854 198.725C146.059 201.717 141.044 204.34 135.856 206.572Z" fill="#222222"></path>
<path d="M114.736 213.286C113.291 213.588 112.363 215.01 112.664 216.463C112.965 217.915 114.38 218.847 115.825 218.545C116.216 218.463 116.607 218.379 116.996 218.294C118.438 217.976 119.351 216.544 119.036 215.095C118.72 213.646 117.295 212.728 115.853 213.046C115.481 213.128 115.109 213.207 114.736 213.286Z" fill="#222222"></path>
<path d="M55.495 206.693C56.5795 206.856 57.6629 207.003 58.7449 207.135C60.2102 207.314 61.5423 206.265 61.7201 204.792C61.8979 203.319 60.8541 201.98 59.3887 201.802C58.3556 201.676 57.321 201.535 56.2851 201.379C55.2492 201.224 54.2188 201.054 53.1942 200.871C51.7408 200.612 50.3532 201.585 50.0948 203.046C49.8364 204.506 50.8051 205.901 52.2584 206.161C53.3315 206.352 54.4104 206.53 55.495 206.693Z" fill="#222222"></path>
<path d="M104.608 197.927C103.194 198.353 102.391 199.85 102.815 201.271C103.238 202.692 104.728 203.499 106.142 203.074C108.143 202.472 110.127 201.816 112.092 201.108C112.204 201.083 112.316 201.05 112.427 201.01C114.481 200.26 116.511 199.454 118.514 198.593C118.604 198.555 118.69 198.512 118.774 198.465C120.086 197.898 121.389 197.308 122.681 196.693C124.015 196.059 124.585 194.457 123.953 193.116C123.322 191.775 121.728 191.203 120.394 191.838C115.293 194.264 110.015 196.3 104.608 197.927Z" fill="#222222"></path>
<path d="M82.8682 202.195C81.3983 202.331 80.3164 203.639 80.4517 205.116C80.587 206.593 81.8882 207.681 83.3581 207.545C83.7558 207.508 84.1531 207.469 84.5502 207.428C86.0186 207.277 87.0871 205.958 86.9367 204.482C86.7863 203.006 85.474 201.933 84.0056 202.084C83.6267 202.123 83.2476 202.16 82.8682 202.195Z" fill="#222222"></path>
</g>
<g transform="translate(41.60000000000001, 41.60000000000001)">
<g fill="#222222">
<rect x="44.46349999999999" y="0.6938999999999999" width="4.103399999999999" height="4.103399999999999" rx="4"></rect>
<rect x="49.934699999999985" y="0.6938999999999999" width="4.103399999999999" height="4.103399999999999" rx="4"></rect>
<rect x="55.40589999999999" y="0.6938999999999999" width="4.103399999999999" height="4.103399999999999" rx="4"></rect>
<rect x="60.877099999999984" y="0.6938999999999999" width="4.103399999999999" height="4.103399999999999" rx="4"></rect>
<rect x="77.29069999999999" y="0.6938999999999999" width="4.103399999999999" height="4.103399999999999" rx="4"></rect>
<rect x="82.76189999999998" y="0.6938999999999999" width="4.103399999999999" height="4.103399999999999" rx="4"></rect>
<rect x="55.40589999999999" y="6.165099999999998" width="4.103399999999999" height="4.103399999999999" rx="4"></rect>
<rect x="66.34829999999998" y="6.165099999999998" width="4.103399999999999" height="4.103399999999999" rx="4"></rect>
<rect x="71.81949999999998" y="6.165099999999998" width="4.103399999999999" height="4.103399999999999" rx="4"></rect>
<rect x="82.76189999999998" y="6.165099999999998" width="4.103399999999999" height="4.103399999999999" rx="4"></rect>
<rect x="88.23309999999998" y="6.165099999999998" width="4.103399999999999" height="4.103399999999999" rx="4"></rect>
<rect x="44.46349999999999" y="11.636299999999997" width="4.103399999999999" height="4.103399999999999" rx="4"></rect>
<rect x="66.34829999999998" y="11.636299999999997" width="4.103399999999999" height="4.103399999999999" rx="4"></rect>
<rect x="77.29069999999999" y="11.636299999999997" width="4.103399999999999" height="4.103399999999999" rx="4"></rect>
<rect x="82.76189999999998" y="11.636299999999997" width="4.103399999999999" height="4.103399999999999" rx="4"></rect>
<rect x="44.46349999999999" y="17.107499999999998" width="4.103399999999999" height="4.103399999999999" rx="4"></rect>
<rect x="49.934699999999985" y="17.107499999999998" width="4.103399999999999" height="4.103399999999999" rx="4"></rect>
<rect x="66.34829999999998" y="17.107499999999998" width="4.103399999999999" height="4.103399999999999" rx="4"></rect>
<rect x="77.29069999999999" y="17.107499999999998" width="4.103399999999999" height="4.103399999999999" rx="4"></rect>
<rect x="49.934699999999985" y="22.578699999999998" width="4.103399999999999" height="4.103399999999999" rx="4"></rect>
<rect x="55.40589999999999" y="22.578699999999998" width="4.103399999999999" height="4.103399999999999" rx="4"></rect>
<rect x="77.29069999999999" y="22.578699999999998" width="4.103399999999999" height="4.103399999999999" rx="4"></rect>
<rect x="82.76189999999998" y="22.578699999999998" width="4.103399999999999" height="4.103399999999999" rx="4"></rect>
<rect x="44.46349999999999" y="28.049899999999997" width="4.103399999999999" height="4.103399999999999" rx="4"></rect>
<rect x="60.877099999999984" y="28.049899999999997" width="4.103399999999999" height="4.103399999999999" rx="4"></rect>
<rect x="66.34829999999998" y="28.049899999999997" width="4.103399999999999" height="4.103399999999999" rx="4"></rect>
<rect x="82.76189999999998" y="28.049899999999997" width="4.103399999999999" height="4.103399999999999" rx="4"></rect>
<rect x="88.23309999999998" y="28.049899999999997" width="4.103399999999999" height="4.103399999999999" rx="4"></rect>
<rect x="44.46349999999999" y="33.52109999999999" width="4.103399999999999" height="4.103399999999999" rx="4"></rect>
<rect x="55.40589999999999" y="33.52109999999999" width="4.103399999999999" height="4.103399999999999" rx="4"></rect>
<rect x="66.34829999999998" y="33.52109999999999" width="4.103399999999999" height="4.103399999999999" rx="4"></rect>
<rect x="77.29069999999999" y="33.52109999999999" width="4.103399999999999" height="4.103399999999999" rx="4"></rect>
<rect x="88.23309999999998" y="33.52109999999999" width="4.103399999999999" height="4.103399999999999" rx="4"></rect>
<rect x="44.46349999999999" y="38.99229999999999" width="4.103399999999999" height="4.103399999999999" rx="4"></rect>
<rect x="60.877099999999984" y="38.99229999999999" width="4.103399999999999" height="4.103399999999999" rx="4"></rect>
<rect x="66.34829999999998" y="38.99229999999999" width="4.103399999999999" height="4.103399999999999" rx="4"></rect>
<rect x="77.29069999999999" y="38.99229999999999" width="4.103399999999999" height="4.103399999999999" rx="4"></rect>
<rect x="82.76189999999998" y="38.99229999999999" width="4.103399999999999" height="4.103399999999999" rx="4"></rect>
<rect x="6.165099999999998" y="44.46349999999999" width="4.103399999999999" height="4.103399999999999" rx="4"></rect>
<rect x="17.107499999999998" y="44.46349999999999" width="4.103399999999999" height="4.103399999999999" rx="4"></rect>
<rect x="28.049899999999997" y="44.46349999999999" width="4.103399999999999" height="4.103399999999999" rx="4"></rect>
<rect x="33.52109999999999" y="44.46349999999999" width="4.103399999999999" height="4.103399999999999" rx="4"></rect>
<rect x="38.99229999999999" y="44.46349999999999" width="4.103399999999999" height="4.103399999999999" rx="4"></rect>
<rect x="44.46349999999999" y="44.46349999999999" width="4.103399999999999" height="4.103399999999999" rx="4"></rect>
<rect x="60.877099999999984" y="44.46349999999999" width="4.103399999999999" height="4.103399999999999" rx="4"></rect>
<rect x="71.81949999999998" y="44.46349999999999" width="4.103399999999999" height="4.103399999999999" rx="4"></rect>
<rect x="77.29069999999999" y="44.46349999999999" width="4.103399999999999" height="4.103399999999999" rx="4"></rect>
<rect x="88.23309999999998" y="44.46349999999999" width="4.103399999999999" height="4.103399999999999" rx="4"></rect>
<rect x="93.70429999999998" y="44.46349999999999" width="4.103399999999999" height="4.103399999999999" rx="4"></rect>
<rect x="99.17549999999997" y="44.46349999999999" width="4.103399999999999" height="4.103399999999999" rx="4"></rect>
<rect x="104.64669999999998" y="44.46349999999999" width="4.103399999999999" height="4.103399999999999" rx="4"></rect>
<rect x="115.58909999999997" y="44.46349999999999" width="4.103399999999999" height="4.103399999999999" rx="4"></rect>
<rect x="121.06029999999997" y="44.46349999999999" width="4.103399999999999" height="4.103399999999999" rx="4"></rect>
<rect x="132.00269999999995" y="44.46349999999999" width="4.103399999999999" height="4.103399999999999" rx="4"></rect>
<rect x="11.636299999999997" y="49.934699999999985" width="4.103399999999999" height="4.103399999999999" rx="4"></rect>
<rect x="49.934699999999985" y="49.934699999999985" width="4.103399999999999" height="4.103399999999999" rx="4"></rect>
<rect x="55.40589999999999" y="49.934699999999985" width="4.103399999999999" height="4.103399999999999" rx="4"></rect>
<rect x="60.877099999999984" y="49.934699999999985" width="4.103399999999999" height="4.103399999999999" rx="4"></rect>
<rect x="66.34829999999998" y="49.934699999999985" width="4.103399999999999" height="4.103399999999999" rx="4"></rect>
<rect x="88.23309999999998" y="49.934699999999985" width="4.103399999999999" height="4.103399999999999" rx="4"></rect>
<rect x="99.17549999999997" y="49.934699999999985" width="4.103399999999999" height="4.103399999999999" rx="4"></rect>
<rect x="132.00269999999995" y="49.934699999999985" width="4.103399999999999" height="4.103399999999999" rx="4"></rect>
<rect x="0.6938999999999999" y="55.40589999999999" width="4.103399999999999" height="4.103399999999999" rx="4"></rect>
<rect x="6.165099999999998" y="55.40589999999999" width="4.103399999999999" height="4.103399999999999" rx="4"></rect>
<rect x="11.636299999999997" y="55.40589999999999" width="4.103399999999999" height="4.103399999999999" rx="4"></rect>
<rect x="17.107499999999998" y="55.40589999999999" width="4.103399999999999" height="4.103399999999999" rx="4"></rect>
<rect x="33.52109999999999" y="55.40589999999999" width="4.103399999999999" height="4.103399999999999" rx="4"></rect>
<rect x="38.99229999999999" y="55.40589999999999" width="4.103399999999999" height="4.103399999999999" rx="4"></rect>
<rect x="60.877099999999984" y="55.40589999999999" width="4.103399999999999" height="4.103399999999999" rx="4"></rect>
<rect x="71.81949999999998" y="55.40589999999999" width="4.103399999999999" height="4.103399999999999" rx="4"></rect>
<rect x="93.70429999999998" y="55.40589999999999" width="4.103399999999999" height="4.103399999999999" rx="4"></rect>
<rect x="99.17549999999997" y="55.40589999999999" width="4.103399999999999" height="4.103399999999999" rx="4"></rect>
<rect x="126.53149999999997" y="55.40589999999999" width="4.103399999999999" height="4.103399999999999" rx="4"></rect>
<rect x="132.00269999999995" y="55.40589999999999" width="4.103399999999999" height="4.103399999999999" rx="4"></rect>
<rect x="22.578699999999998" y="60.877099999999984" width="4.103399999999999" height="4.103399999999999" rx="4"></rect>
<rect x="28.049899999999997" y="60.877099999999984" width="4.103399999999999" height="4.103399999999999" rx="4"></rect>
<rect x="38.99229999999999" y="60.877099999999984" width="4.103399999999999" height="4.103399999999999" rx="4"></rect>
<rect x="66.34829999999998" y="60.877099999999984" width="4.103399999999999" height="4.103399999999999" rx="4"></rect>
<rect x="71.81949999999998" y="60.877099999999984" width="4.103399999999999" height="4.103399999999999" rx="4"></rect>
<rect x="82.76189999999998" y="60.877099999999984" width="4.103399999999999" height="4.103399999999999" rx="4"></rect>
<rect x="88.23309999999998" y="60.877099999999984" width="4.103399999999999" height="4.103399999999999" rx="4"></rect>
<rect x="99.17549999999997" y="60.877099999999984" width="4.103399999999999" height="4.103399999999999" rx="4"></rect>
<rect x="0.6938999999999999" y="66.34829999999998" width="4.103399999999999" height="4.103399999999999" rx="4"></rect>
<rect x="6.165099999999998" y="66.34829999999998" width="4.103399999999999" height="4.103399999999999" rx="4"></rect>
<rect x="33.52109999999999" y="66.34829999999998" width="4.103399999999999" height="4.103399999999999" rx="4"></rect>
<rect x="38.99229999999999" y="66.34829999999998" width="4.103399999999999" height="4.103399999999999" rx="4"></rect>
<rect x="60.877099999999984" y="66.34829999999998" width="4.103399999999999" height="4.103399999999999" rx="4"></rect>
<rect x="77.29069999999999" y="66.34829999999998" width="4.103399999999999" height="4.103399999999999" rx="4"></rect>
<rect x="88.23309999999998" y="66.34829999999998" width="4.103399999999999" height="4.103399999999999" rx="4"></rect>
<rect x="93.70429999999998" y="66.34829999999998" width="4.103399999999999" height="4.103399999999999" rx="4"></rect>
<rect x="99.17549999999997" y="66.34829999999998" width="4.103399999999999" height="4.103399999999999" rx="4"></rect>
<rect x="115.58909999999997" y="66.34829999999998" width="4.103399999999999" height="4.103399999999999" rx="4"></rect>
<rect x="126.53149999999997" y="66.34829999999998" width="4.103399999999999" height="4.103399999999999" rx="4"></rect>
<rect x="132.00269999999995" y="66.34829999999998" width="4.103399999999999" height="4.103399999999999" rx="4"></rect>
<rect x="11.636299999999997" y="71.81949999999998" width="4.103399999999999" height="4.103399999999999" rx="4"></rect>
<rect x="22.578699999999998" y="71.81949999999998" width="4.103399999999999" height="4.103399999999999" rx="4"></rect>
<rect x="44.46349999999999" y="71.81949999999998" width="4.103399999999999" height="4.103399999999999" rx="4"></rect>
<rect x="49.934699999999985" y="71.81949999999998" width="4.103399999999999" height="4.103399999999999" rx="4"></rect>
<rect x="55.40589999999999" y="71.81949999999998" width="4.103399999999999" height="4.103399999999999" rx="4"></rect>
<rect x="60.877099999999984" y="71.81949999999998" width="4.103399999999999" height="4.103399999999999" rx="4"></rect>
<rect x="66.34829999999998" y="71.81949999999998" width="4.103399999999999" height="4.103399999999999" rx="4"></rect>
<rect x="93.70429999999998" y="71.81949999999998" width="4.103399999999999" height="4.103399999999999" rx="4"></rect>
<rect x="99.17549999999997" y="71.81949999999998" width="4.103399999999999" height="4.103399999999999" rx="4"></rect>
<rect x="104.64669999999998" y="71.81949999999998" width="4.103399999999999" height="4.103399999999999" rx="4"></rect>
<rect x="115.58909999999997" y="71.81949999999998" width="4.103399999999999" height="4.103399999999999" rx="4"></rect>
<rect x="121.06029999999997" y="71.81949999999998" width="4.103399999999999" height="4.103399999999999" rx="4"></rect>
<rect x="132.00269999999995" y="71.81949999999998" width="4.103399999999999" height="4.103399999999999" rx="4"></rect>
<rect x="0.6938999999999999" y="77.29069999999999" width="4.103399999999999" height="4.103399999999999" rx="4"></rect>
<rect x="17.107499999999998" y="77.29069999999999" width="4.103399999999999" height="4.103399999999999" rx="4"></rect>
<rect x="28.049899999999997" y="77.29069999999999" width="4.103399999999999" height="4.103399999999999" rx="4"></rect>
<rect x="33.52109999999999" y="77.29069999999999" width="4.103399999999999" height="4.103399999999999" rx="4"></rect>
<rect x="44.46349999999999" y="77.29069999999999" width="4.103399999999999" height="4.103399999999999" rx="4"></rect>
<rect x="49.934699999999985" y="77.29069999999999" width="4.103399999999999" height="4.103399999999999" rx="4"></rect>
<rect x="55.40589999999999" y="77.29069999999999" width="4.103399999999999" height="4.103399999999999" rx="4"></rect>
<rect x="60.877099999999984" y="77.29069999999999" width="4.103399999999999" height="4.103399999999999" rx="4"></rect>
<rect x="71.81949999999998" y="77.29069999999999" width="4.103399999999999" height="4.103399999999999" rx="4"></rect>
<rect x="77.29069999999999" y="77.29069999999999" width="4.103399999999999" height="4.103399999999999" rx="4"></rect>
<rect x="99.17549999999997" y="77.29069999999999" width="4.103399999999999" height="4.103399999999999" rx="4"></rect>
<rect x="121.06029999999997" y="77.29069999999999" width="4.103399999999999" height="4.103399999999999" rx="4"></rect>
<rect x="132.00269999999995" y="77.29069999999999" width="4.103399999999999" height="4.103399999999999" rx="4"></rect>
<rect x="6.165099999999998" y="82.76189999999998" width="4.103399999999999" height="4.103399999999999" rx="4"></rect>
<rect x="11.636299999999997" y="82.76189999999998" width="4.103399999999999" height="4.103399999999999" rx="4"></rect>
<rect x="17.107499999999998" y="82.76189999999998" width="4.103399999999999" height="4.103399999999999" rx="4"></rect>
<rect x="22.578699999999998" y="82.76189999999998" width="4.103399999999999" height="4.103399999999999" rx="4"></rect>
<rect x="44.46349999999999" y="82.76189999999998" width="4.103399999999999" height="4.103399999999999" rx="4"></rect>
<rect x="49.934699999999985" y="82.76189999999998" width="4.103399999999999" height="4.103399999999999" rx="4"></rect>
<rect x="55.40589999999999" y="82.76189999999998" width="4.103399999999999" height="4.103399999999999" rx="4"></rect>
<rect x="66.34829999999998" y="82.76189999999998" width="4.103399999999999" height="4.103399999999999" rx="4"></rect>
<rect x="71.81949999999998" y="82.76189999999998" width="4.103399999999999" height="4.103399999999999" rx="4"></rect>
<rect x="77.29069999999999" y="82.76189999999998" width="4.103399999999999" height="4.103399999999999" rx="4"></rect>
<rect x="88.23309999999998" y="82.76189999999998" width="4.103399999999999" height="4.103399999999999" rx="4"></rect>
<rect x="104.64669999999998" y="82.76189999999998" width="4.103399999999999" height="4.103399999999999" rx="4"></rect>
<rect x="110.11789999999998" y="82.76189999999998" width="4.103399999999999" height="4.103399999999999" rx="4"></rect>
<rect x="115.58909999999997" y="82.76189999999998" width="4.103399999999999" height="4.103399999999999" rx="4"></rect>
<rect x="126.53149999999997" y="82.76189999999998" width="4.103399999999999" height="4.103399999999999" rx="4"></rect>
<rect x="0.6938999999999999" y="88.23309999999998" width="4.103399999999999" height="4.103399999999999" rx="4"></rect>
<rect x="6.165099999999998" y="88.23309999999998" width="4.103399999999999" height="4.103399999999999" rx="4"></rect>
<rect x="11.636299999999997" y="88.23309999999998" width="4.103399999999999" height="4.103399999999999" rx="4"></rect>
<rect x="17.107499999999998" y="88.23309999999998" width="4.103399999999999" height="4.103399999999999" rx="4"></rect>
<rect x="28.049899999999997" y="88.23309999999998" width="4.103399999999999" height="4.103399999999999" rx="4"></rect>
<rect x="33.52109999999999" y="88.23309999999998" width="4.103399999999999" height="4.103399999999999" rx="4"></rect>
<rect x="38.99229999999999" y="88.23309999999998" width="4.103399999999999" height="4.103399999999999" rx="4"></rect>
<rect x="55.40589999999999" y="88.23309999999998" width="4.103399999999999" height="4.103399999999999" rx="4"></rect>
<rect x="66.34829999999998" y="88.23309999999998" width="4.103399999999999" height="4.103399999999999" rx="4"></rect>
<rect x="82.76189999999998" y="88.23309999999998" width="4.103399999999999" height="4.103399999999999" rx="4"></rect>
<rect x="88.23309999999998" y="88.23309999999998" width="4.103399999999999" height="4.103399999999999" rx="4"></rect>
<rect x="93.70429999999998" y="88.23309999999998" width="4.103399999999999" height="4.103399999999999" rx="4"></rect>
<rect x="99.17549999999997" y="88.23309999999998" width="4.103399999999999" height="4.103399999999999" rx="4"></rect>
<rect x="104.64669999999998" y="88.23309999999998" width="4.103399999999999" height="4.103399999999999" rx="4"></rect>
<rect x="110.11789999999998" y="88.23309999999998" width="4.103399999999999" height="4.103399999999999" rx="4"></rect>
<rect x="115.58909999999997" y="88.23309999999998" width="4.103399999999999" height="4.103399999999999" rx="4"></rect>
<rect x="121.06029999999997" y="88.23309999999998" width="4.103399999999999" height="4.103399999999999" rx="4"></rect>
<rect x="44.46349999999999" y="93.70429999999998" width="4.103399999999999" height="4.103399999999999" rx="4"></rect>
<rect x="49.934699999999985" y="93.70429999999998" width="4.103399999999999" height="4.103399999999999" rx="4"></rect>
<rect x="66.34829999999998" y="93.70429999999998" width="4.103399999999999" height="4.103399999999999" rx="4"></rect>
<rect x="71.81949999999998" y="93.70429999999998" width="4.103399999999999" height="4.103399999999999" rx="4"></rect>
<rect x="77.29069999999999" y="93.70429999999998" width="4.103399999999999" height="4.103399999999999" rx="4"></rect>
<rect x="82.76189999999998" y="93.70429999999998" width="4.103399999999999" height="4.103399999999999" rx="4"></rect>
<rect x="88.23309999999998" y="93.70429999999998" width="4.103399999999999" height="4.103399999999999" rx="4"></rect>
<rect x="110.11789999999998" y="93.70429999999998" width="4.103399999999999" height="4.103399999999999" rx="4"></rect>
<rect x="115.58909999999997" y="93.70429999999998" width="4.103399999999999" height="4.103399999999999" rx="4"></rect>
<rect x="121.06029999999997" y="93.70429999999998" width="4.103399999999999" height="4.103399999999999" rx="4"></rect>
<rect x="132.00269999999995" y="93.70429999999998" width="4.103399999999999" height="4.103399999999999" rx="4"></rect>
<rect x="44.46349999999999" y="99.17549999999997" width="4.103399999999999" height="4.103399999999999" rx="4"></rect>
<rect x="55.40589999999999" y="99.17549999999997" width="4.103399999999999" height="4.103399999999999" rx="4"></rect>
<rect x="60.877099999999984" y="99.17549999999997" width="4.103399999999999" height="4.103399999999999" rx="4"></rect>
<rect x="66.34829999999998" y="99.17549999999997" width="4.103399999999999" height="4.103399999999999" rx="4"></rect>
<rect x="82.76189999999998" y="99.17549999999997" width="4.103399999999999" height="4.103399999999999" rx="4"></rect>
<rect x="88.23309999999998" y="99.17549999999997" width="4.103399999999999" height="4.103399999999999" rx="4"></rect>
<rect x="99.17549999999997" y="99.17549999999997" width="4.103399999999999" height="4.103399999999999" rx="4"></rect>
<rect x="110.11789999999998" y="99.17549999999997" width="4.103399999999999" height="4.103399999999999" rx="4"></rect>
<rect x="126.53149999999997" y="99.17549999999997" width="4.103399999999999" height="4.103399999999999" rx="4"></rect>
<rect x="132.00269999999995" y="99.17549999999997" width="4.103399999999999" height="4.103399999999999" rx="4"></rect>
<rect x="44.46349999999999" y="104.64669999999998" width="4.103399999999999" height="4.103399999999999" rx="4"></rect>
<rect x="60.877099999999984" y="104.64669999999998" width="4.103399999999999" height="4.103399999999999" rx="4"></rect>
<rect x="88.23309999999998" y="104.64669999999998" width="4.103399999999999" height="4.103399999999999" rx="4"></rect>
<rect x="110.11789999999998" y="104.64669999999998" width="4.103399999999999" height="4.103399999999999" rx="4"></rect>
<rect x="115.58909999999997" y="104.64669999999998" width="4.103399999999999" height="4.103399999999999" rx="4"></rect>
<rect x="121.06029999999997" y="104.64669999999998" width="4.103399999999999" height="4.103399999999999" rx="4"></rect>
<rect x="126.53149999999997" y="104.64669999999998" width="4.103399999999999" height="4.103399999999999" rx="4"></rect>
<rect x="66.34829999999998" y="110.11789999999998" width="4.103399999999999" height="4.103399999999999" rx="4"></rect>
<rect x="71.81949999999998" y="110.11789999999998" width="4.103399999999999" height="4.103399999999999" rx="4"></rect>
<rect x="77.29069999999999" y="110.11789999999998" width="4.103399999999999" height="4.103399999999999" rx="4"></rect>
<rect x="88.23309999999998" y="110.11789999999998" width="4.103399999999999" height="4.103399999999999" rx="4"></rect>
<rect x="93.70429999999998" y="110.11789999999998" width="4.103399999999999" height="4.103399999999999" rx="4"></rect>
<rect x="99.17549999999997" y="110.11789999999998" width="4.103399999999999" height="4.103399999999999" rx="4"></rect>
<rect x="104.64669999999998" y="110.11789999999998" width="4.103399999999999" height="4.103399999999999" rx="4"></rect>
<rect x="110.11789999999998" y="110.11789999999998" width="4.103399999999999" height="4.103399999999999" rx="4"></rect>
<rect x="132.00269999999995" y="110.11789999999998" width="4.103399999999999" height="4.103399999999999" rx="4"></rect>
<rect x="44.46349999999999" y="115.58909999999997" width="4.103399999999999" height="4.103399999999999" rx="4"></rect>
<rect x="49.934699999999985" y="115.58909999999997" width="4.103399999999999" height="4.103399999999999" rx="4"></rect>
<rect x="55.40589999999999" y="115.58909999999997" width="4.103399999999999" height="4.103399999999999" rx="4"></rect>
<rect x="77.29069999999999" y="115.58909999999997" width="4.103399999999999" height="4.103399999999999" rx="4"></rect>
<rect x="88.23309999999998" y="115.58909999999997" width="4.103399999999999" height="4.103399999999999" rx="4"></rect>
<rect x="104.64669999999998" y="115.58909999999997" width="4.103399999999999" height="4.103399999999999" rx="4"></rect>
<rect x="110.11789999999998" y="115.58909999999997" width="4.103399999999999" height="4.103399999999999" rx="4"></rect>
<rect x="121.06029999999997" y="115.58909999999997" width="4.103399999999999" height="4.103399999999999" rx="4"></rect>
<rect x="66.34829999999998" y="121.06029999999997" width="4.103399999999999" height="4.103399999999999" rx="4"></rect>
<rect x="71.81949999999998" y="121.06029999999997" width="4.103399999999999" height="4.103399999999999" rx="4"></rect>
<rect x="77.29069999999999" y="121.06029999999997" width="4.103399999999999" height="4.103399999999999" rx="4"></rect>
<rect x="93.70429999999998" y="121.06029999999997" width="4.103399999999999" height="4.103399999999999" rx="4"></rect>
<rect x="110.11789999999998" y="121.06029999999997" width="4.103399999999999" height="4.103399999999999" rx="4"></rect>
<rect x="115.58909999999997" y="121.06029999999997" width="4.103399999999999" height="4.103399999999999" rx="4"></rect>
<rect x="121.06029999999997" y="121.06029999999997" width="4.103399999999999" height="4.103399999999999" rx="4"></rect>
<rect x="132.00269999999995" y="121.06029999999997" width="4.103399999999999" height="4.103399999999999" rx="4"></rect>
<rect x="44.46349999999999" y="126.53149999999997" width="4.103399999999999" height="4.103399999999999" rx="4"></rect>
<rect x="49.934699999999985" y="126.53149999999997" width="4.103399999999999" height="4.103399999999999" rx="4"></rect>
<rect x="60.877099999999984" y="126.53149999999997" width="4.103399999999999" height="4.103399999999999" rx="4"></rect>
<rect x="66.34829999999998" y="126.53149999999997" width="4.103399999999999" height="4.103399999999999" rx="4"></rect>
<rect x="77.29069999999999" y="126.53149999999997" width="4.103399999999999" height="4.103399999999999" rx="4"></rect>
<rect x="82.76189999999998" y="126.53149999999997" width="4.103399999999999" height="4.103399999999999" rx="4"></rect>
<rect x="88.23309999999998" y="126.53149999999997" width="4.103399999999999" height="4.103399999999999" rx="4"></rect>
<rect x="115.58909999999997" y="126.53149999999997" width="4.103399999999999" height="4.103399999999999" rx="4"></rect>
<rect x="49.934699999999985" y="132.00269999999995" width="4.103399999999999" height="4.103399999999999" rx="4"></rect>
<rect x="55.40589999999999" y="132.00269999999995" width="4.103399999999999" height="4.103399999999999" rx="4"></rect>
<rect x="66.34829999999998" y="132.00269999999995" width="4.103399999999999" height="4.103399999999999" rx="4"></rect>
<rect x="71.81949999999998" y="132.00269999999995" width="4.103399999999999" height="4.103399999999999" rx="4"></rect>
<rect x="77.29069999999999" y="132.00269999999995" width="4.103399999999999" height="4.103399999999999" rx="4"></rect>
<rect x="82.76189999999998" y="132.00269999999995" width="4.103399999999999" height="4.103399999999999" rx="4"></rect>
<rect x="88.23309999999998" y="132.00269999999995" width="4.103399999999999" height="4.103399999999999" rx="4"></rect>
<rect x="104.64669999999998" y="132.00269999999995" width="4.103399999999999" height="4.103399999999999" rx="4"></rect>
<rect x="126.53149999999997" y="132.00269999999995" width="4.103399999999999" height="4.103399999999999" rx="4"></rect>
<rect x="132.00269999999995" y="132.00269999999995" width="4.103399999999999" height="4.103399999999999" rx="4"></rect>
</g>
<g>
<rect x="2.7355999999999994" y="2.7355999999999994" width="32.82719999999999" fill="none" height="32.82719999999999" stroke-width="5.471199999999999" stroke="#222222" rx="5.471199999999999"></rect>
<rect x="10.942399999999997" y="10.942399999999997" width="16.413599999999995" fill="#222222" height="16.413599999999995" rx="2.7355999999999994"></rect>
<rect x="101.23719999999999" y="2.7355999999999994" width="32.82719999999999" fill="none" height="32.82719999999999" stroke-width="5.471199999999999" stroke="#222222" rx="5.471199999999999"></rect>
<rect x="109.44399999999999" y="10.942399999999997" width="16.413599999999995" fill="#222222" height="16.413599999999995" rx="2.7355999999999994"></rect>
<rect x="2.7355999999999994" y="101.23719999999999" width="32.82719999999999" fill="none" height="32.82719999999999" stroke-width="5.471199999999999" stroke="#222222" rx="5.471199999999999"></rect>
<rect x="10.942399999999997" y="109.44399999999999" width="16.413599999999995" fill="#222222" height="16.413599999999995" rx="2.7355999999999994"></rect>
</g>
</g>
</svg>