<svg xmlns="http://www.w3.org/2000/svg" xmlns:xlink="http://www.w3.org/1999/xlink" version="1.1" x="0" y="0" viewBox="0 0 220.0 220.0" width="220.0" height="220.0">
<rect x="3" y="3" width="220" height="220" stroke-width="6" fill="#FFFFFF"></rect>

<g transform="translate(0, 152)">
  <g transform="translate(0, 20)">
    <text text-anchor="middle" font-family="sans-serif" x="110" y="30" fill="#222222" font-weight="bold" font-size="20px">
      <tspan dy="0.22em">SCAN ME</tspan>
    </text>
  </g>
</g>
<g transform="translate(30.0, 18.0)">
<g fill="#222222">
<rect x="52.003499999999995" y="0.8099" width="4.7993999999999994" height="4.7993999999999994" rx="0"></rect>
<rect x="58.402699999999996" y="0.8099" width="4.7993999999999994" height="4.7993999999999994" rx="0"></rect>
<rect x="64.80189999999999" y="0.8099" width="4.7993999999999994" height="4.7993999999999994" rx="0"></rect>
<rect x="71.2011" y="0.8099" width="4.7993999999999994" height="4.7993999999999994" rx="0"></rect>
<rect x="90.39869999999999" y="0.8099" width="4.7993999999999994" height="4.7993999999999994" rx="0"></rect>
<rect x="96.7979" y="0.8099" width="4.7993999999999994" height="4.7993999999999994" rx="0"></rect>
<rect x="64.80189999999999" y="7.209099999999999" width="4.7993999999999994" height="4.7993999999999994" rx="0"></rect>
<rect x="77.60029999999999" y="7.209099999999999" width="4.7993999999999994" height="4.7993999999999994" rx="0"></rect>
<rect x="83.9995" y="7.209099999999999" width="4.7993999999999994" height="4.7993999999999994" rx="0"></rect>
<rect x="96.7979" y="7.209099999999999" width="4.7993999999999994" height="4.7993999999999994" rx="0"></rect>
<rect x="103.19709999999999" y="7.209099999999999" width="4.7993999999999994" height="4.7993999999999994" rx="0"></rect>
<rect x="52.003499999999995" y="13.608299999999998" width="4.7993999999999994" height="4.7993999999999994" rx="0"></rect>
<rect x="77.60029999999999" y="13.608299999999998" width="4.7993999999999994" height="4.7993999999999994" rx="0"></rect>
<rect x="90.39869999999999" y="13.608299999999998" width="4.7993999999999994" height="4.7993999999999994" rx="0"></rect>
<rect x="96.7979" y="13.608299999999998" width="4.7993999999999994" height="4.7993999999999994" rx="0"></rect>
<rect x="52.003499999999995" y="20.0075" width="4.7993999999999994" height="4.7993999999999994" rx="0"></rect>
<rect x="58.402699999999996" y="20.0075" width="4.7993999999999994" height="4.7993999999999994" rx="0"></rect>
<rect x="77.60029999999999" y="20.0075" width="4.7993999999999994" height="4.7993999999999994" rx="0"></rect>
<rect x="90.39869999999999" y="20.0075" width="4.7993999999999994" height="4.7993999999999994" rx="0"></rect>
<rect x="58.402699999999996" y="26.4067" width="4.7993999999999994" height="4.7993999999999994" rx="0"></rect>
<rect x="64.80189999999999" y="26.4067" width="4.7993999999999994" height="4.7993999999999994" rx="0"></rect>
<rect x="90.39869999999999" y="26.4067" width="4.7993999999999994" height="4.7993999999999994" rx="0"></rect>
<rect x="96.7979" y="26.4067" width="4.7993999999999994" height="4.7993999999999994" rx="0"></rect>
<rect x="52.003499999999995" y="32.8059" width="4.7993999999999994" height="4.7993999999999994" rx="0"></rect>
<rect x="71.2011" y="32.8059" width="4.7993999999999994" height="4.7993999999999994" rx="0"></rect>
<rect x="77.60029999999999" y="32.8059" width="4.7993999999999994" height="4.7993999999999994" rx="0"></rect>
<rect x="96.7979" y="32.8059" width="4.7993999999999994" height="4.7993999999999994" rx="0"></rect>
<rect x="103.19709999999999" y="32.8059" width="4.7993999999999994" height="4.7993999999999994" rx="0"></rect>
<rect x="52.003499999999995" y="39.205099999999995" width="4.7993999999999994" height="4.7993999999999994" rx="0"></rect>
<rect x="64.80189999999999" y="39.205099999999995" width="4.7993999999999994" height="4.7993999999999994" rx="0"></rect>
<rect x="77.60029999999999" y="39.205099999999995" width="4.7993999999999994" height="4.7993999999999994" rx="0"></rect>
<rect x="90.39869999999999" y="39.205099999999995" width="4.7993999999999994" height="4.7993999999999994" rx="0"></rect>
<rect x="103.19709999999999" y="39.205099999999995" width="4.7993999999999994" height="4.7993999999999994" rx="0"></rect>
<rect x="52.003499999999995" y="45.604299999999995" width="4.7993999999999994" height="4.7993999999999994" rx="0"></rect>
<rect x="71.2011" y="45.604299999999995" width="4.7993999999999994" height="4.7993999999999994" rx="0"></rect>
<rect x="77.60029999999999" y="45.604299999999995" width="4.7993999999999994" height="4.7993999999999994" rx="0"></rect>
<rect x="90.39869999999999" y="45.604299999999995" width="4.7993999999999994" height="4.7993999999999994" rx="0"></rect>
<rect x="96.7979" y="45.604299999999995" width="4.7993999999999994" height="4.7993999999999994" rx="0"></rect>
<rect x="7.209099999999999" y="52.003499999999995" width="4.7993999999999994" height="4.7993999999999994" rx="0"></rect>
<rect x="20.0075" y="52.003499999999995" width="4.7993999999999994" height="4.7993999999999994" rx="0"></rect>
<rect x="32.8059" y="52.003499999999995" width="4.7993999999999994" height="4.7993999999999994" rx="0"></rect>
<rect x="39.205099999999995" y="52.003499999999995" width="4.7993999999999994" height="4.7993999999999994" rx="0"></rect>
<rect x="45.604299999999995" y="52.003499999999995" width="4.7993999999999994" height="4.7993999999999994" rx="0"></rect>
<rect x="52.003499999999995" y="52.003499999999995" width="4.7993999999999994" height="4.7993999999999994" rx="0"></rect>
<rect x="71.2011" y="52.003499999999995" width="4.7993999999999994" height="4.7993999999999994" rx="0"></rect>
<rect x="83.9995" y="52.003499999999995" width="4.7993999999999994" height="4.7993999999999994" rx="0"></rect>
<rect x="90.39869999999999" y="52.003499999999995" width="4.7993999999999994" height="4.7993999999999994" rx="0"></rect>
<rect x="103.19709999999999" y="52.003499999999995" width="4.7993999999999994" height="4.7993999999999994" rx="0"></rect>
<rect x="109.59629999999999" y="52.003499999999995" width="4.7993999999999994" height="4.7993999999999994" rx="0"></rect>
<rect x="115.99549999999999" y="52.003499999999995" width="4.7993999999999994" height="4.7993999999999994" rx="0"></rect>
<rect x="122.39469999999999" y="52.003499999999995" width="4.7993999999999994" height="4.7993999999999994" rx="0"></rect>
<rect x="135.1931" y="52.003499999999995" width="4.7993999999999994" height="4.7993999999999994" rx="0"></rect>
<rect x="141.5923" y="52.003499999999995" width="4.7993999999999994" height="4.7993999999999994" rx="0"></rect>
<rect x="154.39069999999998" y="52.003499999999995" width="4.7993999999999994" height="4.7993999999999994" rx="0"></rect>
<rect x="13.608299999999998" y="58.402699999999996" width="4.7993999999999994" height="4.7993999999999994" rx="0"></rect>
<rect x="58.402699999999996" y="58.402699999999996" width="4.7993999999999994" height="4.7993999999999994" rx="0"></rect>
<rect x="64.80189999999999" y="58.402699999999996" width="4.7993999999999994" height="4.7993999999999994" rx="0"></rect>
<rect x="71.2011" y="58.402699999999996" width="4.7993999999999994" height="4.7993999999999994" rx="0"></rect>
<rect x="77.60029999999999" y="58.402699999999996" width="4.7993999999999994" height="4.7993999999999994" rx="0"></rect>
<rect x="103.19709999999999" y="58.402699999999996" width="4.7993999999999994" height="4.7993999999999994" rx="0"></rect>
<rect x="115.99549999999999" y="58.402699999999996" width="4.7993999999999994" height="4.7993999999999994" rx="0"></rect>
<rect x="154.39069999999998" y="58.402699999999996" width="4.7993999999999994" height="4.7993999999999994" rx="0"></rect>
<rect x="0.8099" y="64.80189999999999" width="4.7993999999999994" height="4.7993999999999994" rx="0"></rect>
<rect x="7.209099999999999" y="64.80189999999999" width="4.7993999999999994" height="4.7993999999999994" rx="0"></rect>
<rect x="13.608299999999998" y="64.80189999999999" width="4.7993999999999994" height="4.7993999999999994" rx="0"></rect>
<rect x="20.0075" y="64.80189999999999" width="4.7993999999999994" height="4.7993999999999994" rx="0"></rect>
<rect x="39.205099999999995" y="64.80189999999999" width="4.7993999999999994" height="4.7993999999999994" rx="0"></rect>
<rect x="45.604299999999995" y="64.80189999999999" width="4.7993999999999994" height="4.7993999999999994" rx="0"></rect>
<rect x="71.2011" y="64.80189999999999" width="4.7993999999999994" height="4.7993999999999994" rx="0"></rect>
<rect x="83.9995" y="64.80189999999999" width="4.7993999999999994" height="4.7993999999999994" rx="0"></rect>
<rect x="109.59629999999999" y="64.80189999999999" width="4.7993999999999994" height="4.7993999999999994" rx="0"></rect>
<rect x="115.99549999999999" y="64.80189999999999" width="4.7993999999999994" height="4.7993999999999994" rx="0"></rect>
<rect x="147.9915" y="64.80189999999999" width="4.7993999999999994" height="4.7993999999999994" rx="0"></rect>
<rect x="154.39069999999998" y="64.80189999999999" width="4.7993999999999994" height="4.7993999999999994" rx="0"></rect>
<rect x="26.4067" y="71.2011" width="4.7993999999999994" height="4.7993999999999994" rx="0"></rect>
<rect x="32.8059" y="71.2011" width="4.7993999999999994" height="4.7993999999999994" rx="0"></rect>
<rect x="45.604299999999995" y="71.2011" width="4.7993999999999994" height="4.7993999999999994" rx="0"></rect>
<rect x="77.60029999999999" y="71.2011" width="4.7993999999999994" height="4.7993999999999994" rx="0"></rect>
<rect x="83.9995" y="71.2011" width="4.7993999999999994" height="4.7993999999999994" rx="0"></rect>
<rect x="96.7979" y="71.2011" width="4.7993999999999994" height="4.7993999999999994" rx="0"></rect>
<rect x="103.19709999999999" y="71.2011" width="4.7993999999999994" height="4.7993999999999994" rx="0"></rect>
<rect x="115.99549999999999" y="71.2011" width="4.7993999999999994" height="4.7993999999999994" rx="0"></rect>
<rect x="0.8099" y="77.60029999999999" width="4.7993999999999994" height="4.7993999999999994" rx="0"></rect>
<rect x="7.209099999999999" y="77.60029999999999" width="4.7993999999999994" height="4.7993999999999994" rx="0"></rect>
<rect x="39.205099999999995" y="77.60029999999999" width="4.7993999999999994" height="4.7993999999999994" rx="0"></rect>
<rect x="45.604299999999995" y="77.60029999999999" width="4.7993999999999994" height="4.7993999999999994" rx="0"></rect>
<rect x="71.2011" y="77.60029999999999" width="4.7993999999999994" height="4.7993999999999994" rx="0"></rect>
<rect x="90.39869999999999" y="77.60029999999999" width="4.7993999999999994" height="4.7993999999999994" rx="0"></rect>
<rect x="103.19709999999999" y="77.60029999999999" width="4.7993999999999994" height="4.7993999999999994" rx="0"></rect>
<rect x="109.59629999999999" y="77.60029999999999" width="4.7993999999999994" height="4.7993999999999994" rx="0"></rect>
<rect x="115.99549999999999" y="77.60029999999999" width="4.7993999999999994" height="4.7993999999999994" rx="0"></rect>
<rect x="135.1931" y="77.60029999999999" width="4.7993999999999994" height="4.7993999999999994" rx="0"></rect>
<rect x="147.9915" y="77.60029999999999" width="4.7993999999999994" height="4.7993999999999994" rx="0"></rect>
<rect x="154.39069999999998" y="77.60029999999999" width="4.7993999999999994" height="4.7993999999999994" rx="0"></rect>
<rect x="13.608299999999998" y="83.9995" width="4.7993999999999994" height="4.7993999999999994" rx="0"></rect>
<rect x="26.4067" y="83.9995" width="4.7993999999999994" height="4.7993999999999994" rx="0"></rect>
<rect x="52.003499999999995" y="83.9995" width="4.7993999999999994" height="4.7993999999999994" rx="0"></rect>
<rect x="58.402699999999996" y="83.9995" width="4.7993999999999994" height="4.7993999999999994" rx="0"></rect>
<rect x="64.80189999999999" y="83.9995" width="4.7993999999999994" height="4.7993999999999994" rx="0"></rect>
<rect x="71.2011" y="83.9995" width="4.7993999999999994" height="4.7993999999999994" rx="0"></rect>
<rect x="77.60029999999999" y="83.9995" width="4.7993999999999994" height="4.7993999999999994" rx="0"></rect>
<rect x="109.59629999999999" y="83.9995" width="4.7993999999999994" height="4.7993999999999994" rx="0"></rect>
<rect x="115.99549999999999" y="83.9995" width="4.7993999999999994" height="4.7993999999999994" rx="0"></rect>
<rect x="122.39469999999999" y="83.9995" width="4.7993999999999994" height="4.7993999999999994" rx="0"></rect>
<rect x="135.1931" y="83.9995" width="4.7993999999999994" height="4.7993999999999994" rx="0"></rect>
<rect x="141.5923" y="83.9995" width="4.7993999999999994" height="4.7993999999999994" rx="0"></rect>
<rect x="154.39069999999998" y="83.9995" width="4.7993999999999994" height="4.7993999999999994" rx="0"></rect>
<rect x="0.8099" y="90.39869999999999" width="4.7993999999999994" height="4.7993999999999994" rx="0"></rect>
<rect x="20.0075" y="90.39869999999999" width="4.7993999999999994" height="4.7993999999999994" rx="0"></rect>
<rect x="32.8059" y="90.39869999999999" width="4.7993999999999994" height="4.7993999999999994" rx="0"></rect>
<rect x="39.205099999999995" y="90.39869999999999" width="4.7993999999999994" height="4.7993999999999994" rx="0"></rect>
<rect x="52.003499999999995" y="90.39869999999999" width="4.7993999999999994" height="4.7993999999999994" rx="0"></rect>
<rect x="58.402699999999996" y="90.39869999999999" width="4.7993999999999994" height="4.7993999999999994" rx="0"></rect>
<rect x="64.80189999999999" y="90.39869999999999" width="4.7993999999999994" height="4.7993999999999994" rx="0"></rect>
<rect x="71.2011" y="90.39869999999999" width="4.7993999999999994" height="4.7993999999999994" rx="0"></rect>
<rect x="83.9995" y="90.39869999999999" width="4.7993999999999994" height="4.7993999999999994" rx="0"></rect>
<rect x="90.39869999999999" y="90.39869999999999" width="4.7993999999999994" height="4.7993999999999994" rx="0"></rect>
<rect x="115.99549999999999" y="90.39869999999999" width="4.7993999999999994" height="4.7993999999999994" rx="0"></rect>
<rect x="141.5923" y="90.39869999999999" width="4.7993999999999994" height="4.7993999999999994" rx="0"></rect>
<rect x="154.39069999999998" y="90.39869999999999" width="4.7993999999999994" height="4.7993999999999994" rx="0"></rect>
<rect x="7.209099999999999" y="96.7979" width="4.7993999999999994" height="4.7993999999999994" rx="0"></rect>
<rect x="13.608299999999998" y="96.7979" width="4.7993999999999994" height="4.7993999999999994" rx="0"></rect>
<rect x="20.0075" y="96.7979" width="4.7993999999999994" height="4.7993999999999994" rx="0"></rect>
<rect x="26.4067" y="96.7979" width="4.7993999999999994" height="4.7993999999999994" rx="0"></rect>
<rect x="52.003499999999995" y="96.7979" width="4.7993999999999994" height="4.7993999999999994" rx="0"></rect>
<rect x="58.402699999999996" y="96.7979" width="4.7993999999999994" height="4.7993999999999994" rx="0"></rect>
<rect x="64.80189999999999" y="96.7979" width="4.7993999999999994" height="4.7993999999999994" rx="0"></rect>
<rect x="77.60029999999999" y="96.7979" width="4.7993999999999994" height="4.7993999999999994" rx="0"></rect>
<rect x="83.9995" y="96.7979" width="4.7993999999999994" height="4.7993999999999994" rx="0"></rect>
<rect x="90.39869999999999" y="96.7979" width="4.7993999999999994" height="4.7993999999999994" rx="0"></rect>
<rect x="103.19709999999999" y="96.7979" width="4.7993999999999994" height="4.7993999999999994" rx="0"></rect>
<rect x="122.39469999999999" y="96.7979" width="4.7993999999999994" height="4.7993999999999994" rx="0"></rect>
<rect x="128.7939" y="96.7979" width="4.7993999999999994" height="4.7993999999999994" rx="0"></rect>
<rect x="135.1931" y="96.7979" width="4.7993999999999994" height="4.7993999999999994" rx="0"></rect>
<rect x="147.9915" y="96.7979" width="4.7993999999999994" height="4.7993999999999994" rx="0"></rect>
<rect x="0.8099" y="103.19709999999999" width="4.7993999999999994" height="4.7993999999999994" rx="0"></rect>
<rect x="7.209099999999999" y="103.19709999999999" width="4.7993999999999994" height="4.7993999999999994" rx="0"></rect>
<rect x="13.608299999999998" y="103.19709999999999" width="4.7993999999999994" height="4.7993999999999994" rx="0"></rect>
<rect x="20.0075" y="103.19709999999999" width="4.7993999999999994" height="4.7993999999999994" rx="0"></rect>
<rect x="32.8059" y="103.19709999999999" width="4.7993999999999994" height="4.7993999999999994" rx="0"></rect>
<rect x="39.205099999999995" y="103.19709999999999" width="4.7993999999999994" height="4.7993999999999994" rx="0"></rect>
<rect x="45.604299999999995" y="103.19709999999999" width="4.7993999999999994" height="4.7993999999999994" rx="0"></rect>
<rect x="64.80189999999999" y="103.19709999999999" width="4.7993999999999994" height="4.7993999999999994" rx="0"></rect>
<rect x="77.60029999999999" y="103.19709999999999" width="4.7993999999999994" height="4.7993999999999994" rx="0"></rect>
<rect x="96.7979" y="103.19709999999999" width="4.7993999999999994" height="4.7993999999999994" rx="0"></rect>
<rect x="103.19709999999999" y="103.19709999999999" width="4.7993999999999994" height="4.7993999999999994" rx="0"></rect>
<rect x="109.59629999999999" y="103.19709999999999" width="4.7993999999999994" height="4.7993999999999994" rx="0"></rect>
<rect x="115.99549999999999" y="103.19709999999999" width="4.7993999999999994" height="4.7993999999999994" rx="0"></rect>
<rect x="122.39469999999999" y="103.19709999999999" width="4.7993999999999994" height="4.7993999999999994" rx="0"></rect>
<rect x="128.7939" y="103.19709999999999" width="4.7993999999999994" height="4.7993999999999994" rx="0"></rect>
<rect x="135.1931" y="103.19709999999999" width="4.7993999999999994" height="4.7993999999999994" rx="0"></rect>
<rect x="141.5923" y="103.19709999999999" width="4.7993999999999994" height="4.7993999999999994" rx="0"></rect>
<rect x="52.003499999999995" y="109.59629999999999" width="4.7993999999999994" height="4.7993999999999994" rx="0"></rect>
<rect x="58.402699999999996" y="109.59629999999999" width="4.7993999999999994" height="4.7993999999999994" rx="0"></rect>
<rect x="77.60029999999999" y="109.59629999999999" width="4.7993999999999994" height="4.7993999999999994" rx="0"></rect>
<rect x="83.9995" y="109.59629999999999" width="4.7993999999999994" height="4.7993999999999994" rx="0"></rect>
<rect x="90.39869999999999" y="109.59629999999999" width="4.7993999999999994" height="4.7993999999999994" rx="0"></rect>
<rect x="96.7979" y="109.59629999999999" width="4.7993999999999994" height="4.7993999999999994" rx="0"></rect>
<rect x="103.19709999999999" y="109.59629999999999" width="4.7993999999999994" height="4.7993999999999994" rx="0"></rect>
<rect x="128.7939" y="109.59629999999999" width="4.7993999999999994" height="4.7993999999999994" rx="0"></rect>
<rect x="135.1931" y="109.59629999999999" width="4.7993999999999994" height="4.7993999999999994" rx="0"></rect>
<rect x="141.5923" y="109.59629999999999" width="4.7993999999999994" height="4.7993999999999994" rx="0"></rect>
<rect x="154.39069999999998" y="109.59629999999999" width="4.7993999999999994" height="4.7993999999999994" rx="0"></rect>
<rect x="52.003499999999995" y="115.99549999999999" width="4.7993999999999994" height="4.7993999999999994" rx="0"></rect>
<rect x="64.80189999999999" y="115.99549999999999" width="4.7993999999999994" height="4.7993999999999994" rx="0"></rect>
<rect x="71.2011" y="115.99549999999999" width="4.7993999999999994" height="4.7993999999999994" rx="0"></rect>
<rect x="77.60029999999999" y="115.99549999999999" width="4.7993999999999994" height="4.7993999999999994" rx="0"></rect>
<rect x="96.7979" y="115.99549999999999" width="4.7993999999999994" height="4.7993999999999994" rx="0"></rect>
<rect x="103.19709999999999" y="115.99549999999999" width="4.7993999999999994" height="4.7993999999999994" rx="0"></rect>
<rect x="115.99549999999999" y="115.99549999999999" width="4.7993999999999994" height="4.7993999999999994" rx="0"></rect>
<rect x="128.7939" y="115.99549999999999" width="4.7993999999999994" height="4.7993999999999994" rx="0"></rect>
<rect x="147.9915" y="115.99549999999999" width="4.7993999999999994" height="4.7993999999999994" rx="0"></rect>
<rect x="154.39069999999998" y="115.99549999999999" width="4.7993999999999994" height="4.7993999999999994" rx="0"></rect>
<rect x="52.003499999999995" y="122.39469999999999" width="4.7993999999999994" height="4.7993999999999994" rx="0"></rect>
<rect x="71.2011" y="122.39469999999999" width="4.7993999999999994" height="4.7993999999999994" rx="0"></rect>
<rect x="103.19709999999999" y="122.39469999999999" width="4.7993999999999994" height="4.7993999999999994" rx="0"></rect>
<rect x="128.7939" y="122.39469999999999" width="4.7993999999999994" height="4.7993999999999994" rx="0"></rect>
<rect x="135.1931" y="122.39469999999999" width="4.7993999999999994" height="4.7993999999999994" rx="0"></rect>
<rect x="141.5923" y="122.39469999999999" width="4.7993999999999994" height="4.7993999999999994" rx="0"></rect>
<rect x="147.9915" y="122.39469999999999" width="4.7993999999999994" height="4.7993999999999994" rx="0"></rect>
<rect x="77.60029999999999" y="128.7939" width="4.7993999999999994" height="4.7993999999999994" rx="0"></rect>
<rect x="83.9995" y="128.7939" width="4.7993999999999994" height="4.7993999999999994" rx="0"></rect>
<rect x="90.39869999999999" y="128.7939" width="4.7993999999999994" height="4.7993999999999994" rx="0"></rect>
<rect x="103.19709999999999" y="128.7939" width="4.7993999999999994" height="4.7993999999999994" rx="0"></rect>
<rect x="109.59629999999999" y="128.7939" width="4.7993999999999994" height="4.7993999999999994" rx="0"></rect>
<rect x="115.99549999999999" y="128.7939" width="4.7993999999999994" height="4.7993999999999994" rx="0"></rect>
<rect x="122.39469999999999" y="128.7939" width="4.7993999999999994" height="4.7993999999999994" rx="0"></rect>
<rect x="128.7939" y="128.7939" width="4.7993999999999994" height="4.7993999999999994" rx="0"></rect>
<rect x="154.39069999999998" y="128.7939" width="4.7993999999999994" height="4.7993999999999994" rx="0"></rect>
<rect x="52.003499999999995" y="135.1931" width="4.7993999999999994" height="4.7993999999999994" rx="0"></rect>
<rect x="58.402699999999996" y="135.1931" width="4.7993999999999994" height="4.7993999999999994" rx="0"></rect>
<rect x="64.80189999999999" y="135.1931" width="4.7993999999999994" height="4.7993999999999994" rx="0"></rect>
<rect x="90.39869999999999" y="135.1931" width="4.7993999999999994" height="4.7993999999999994" rx="0"></rect>
<rect x="103.19709999999999" y="135.1931" width="4.7993999999999994" height="4.7993999999999994" rx="0"></rect>
<rect x="122.39469999999999" y="135.1931" width="4.7993999999999994" height="4.7993999999999994" rx="0"></rect>
<rect x="128.7939" y="135.1931" width="4.7993999999999994" height="4.7993999999999994" rx="0"></rect>
<rect x="141.5923" y="135.1931" width="4.7993999999999994" height="4.7993999999999994" rx="0"></rect>
<rect x="77.60029999999999" y="141.5923" width="4.7993999999999994" height="4.7993999999999994" rx="0"></rect>
<rect x="83.9995" y="141.5923" width="4.7993999999999994" height="4.7993999999999994" rx="0"></rect>
<rect x="90.39869999999999" y="141.5923" width="4.7993999999999994" height="4.7993999999999994" rx="0"></rect>
<rect x="109.59629999999999" y="141.5923" width="4.7993999999999994" height="4.7993999999999994" rx="0"></rect>
<rect x="128.7939" y="141.5923" width="4.7993999999999994" height="4.7993999999999994" rx="0"></rect>
<rect x="135.1931" y="141.5923" width="4.7993999999999994" height="4.7993999999999994" rx="0"></rect>
<rect x="141.5923" y="141.5923" width="4.7993999999999994" height="4.7993999999999994" rx="0"></rect>
<rect x="154.39069999999998" y="141.5923" width="4.7993999999999994" height="4.7993999999999994" rx="0"></rect>
<rect x="52.003499999999995" y="147.9915" width="4.7993999999999994" height="4.7993999999999994" rx="0"></rect>
<rect x="58.402699999999996" y="147.9915" width="4.7993999999999994" height="4.7993999999999994" rx="0"></rect>
<rect x="71.2011" y="147.9915" width="4.7993999999999994" height="4.7993999999999994" rx="0"></rect>
<rect x="77.60029999999999" y="147.9915" width="4.7993999999999994" height="4.7993999999999994" rx="0"></rect>
<rect x="90.39869999999999" y="147.9915" width="4.7993999999999994" height="4.7993999999999994" rx="0"></rect>
<rect x="96.7979" y="147.9915" width="4.7993999999999994" height="4.7993999999999994" rx="0"></rect>
<rect x="103.19709999999999" y="147.9915" width="4.7993999999999994" height="4.7993999999999994" rx="0"></rect>
<rect x="135.1931" y="147.9915" width="4.7993999999999994" height="4.7993999999999994" rx="0"></rect>
<rect x="58.402699999999996" y="154.39069999999998" width="4.7993999999999994" height="4.7993999999999994" rx="0"></rect>
<rect x="64.80189999999999" y="154.39069999999998" width="4.7993999999999994" height="4.7993999999999994" rx="0"></rect>
<rect x="77.60029999999999" y="154.39069999999998" width="4.7993999999999994" height="4.7993999999999994" rx="0"></rect>
<rect x="83.9995" y="154.39069999999998" width="4.7993999999999994" height="4.7993999999999994" rx="0"></rect>
<rect x="90.39869999999999" y="154.39069999999998" width="4.7993999999999994" height="4.7993999999999994" rx="0"></rect>
<rect x="96.7979" y="154.39069999999998" width="4.7993999999999994" height="4.7993999999999994" rx="0"></rect>
<rect x="103.19709999999999" y="154.39069999999998" width="4.7993999999999994" height="4.7993999999999994" rx="0"></rect>
<rect x="122.39469999999999" y="154.39069999999998" width="4.7993999999999994" height="4.7993999999999994" rx="0"></rect>
<rect x="147.9915" y="154.39069999999998" width="4.7993999999999994" height="4.7993999999999994" rx="0"></rect>
<rect x="154.39069999999998" y="154.39069999999998" width="4.7993999999999994" height="4.7993999999999994" rx="0"></rect>
</g>
<g>
<rect x="3.1995999999999998" y="3.1995999999999998" width="38.395199999999996" fill="none" height="38.395199999999996" stroke-width="6.3991999999999996" stroke="#222222"></rect>
<rect x="12.798399999999999" y="12.798399999999999" width="19.197599999999998" fill="#222222" height="19.197599999999998"></rect>
<rect x="118.40520000000001" y="3.1995999999999998" width="38.395199999999996" fill="none" height="38.395199999999996" stroke-width="6.3991999999999996" stroke="#222222"></rect>
<rect x="128.004" y="12.798399999999999" width="19.197599999999998" fill="#222222" height="19.197599999999998"></rect>
<rect x="3.1995999999999998" y="118.40520000000001" width="38.395199999999996" fill="none" height="38.395199999999996" stroke-width="6.3991999999999996" stroke="#222222"></rect>
<rect x="12.798399999999999" y="128.004" width="19.197599999999998" fill="#222222" height="19.197599999999998"></rect>
</g>
</g>
</svg>